<?xml version="1.0" encoding="utf-8"?>
<!-- Generator: Adobe Illustrator 27.5.0, SVG Export Plug-In . SVG Version: 6.00 Build 0)  -->
<svg version="1.1" xmlns="http://www.w3.org/2000/svg" xmlns:xlink="http://www.w3.org/1999/xlink" x="0px" y="0px"
	 viewBox="0 0 750 500" style="enable-background:new 0 0 750 500;" xml:space="preserve">
<g id="BACKGROUND">
	<rect style="fill:#FFFFFF;" width="750" height="500"/>
</g>
<g id="OBJECTS">
	<path style="fill:#09203F;" d="M56.909,366.442c0,0,2.339-3.44,3.44-17.888c0.703-9.234,4.38-12.893,6.946-14.339
		c5.574-6.928,19.708-10.083,42.836-7.797c26.304,2.6,29.516-0.918,31.658-4.282c2.141-3.365,9.176-12.847,11.623-21.105
		c2.447-8.258,4.038-16.202,4.038-16.202s-0.859-5.95,1.129-14.973c1.989-9.023,8.138-15.623,8.138-15.623l0.765,11.011l8.258-8.412
		c0,0-0.367,13.306-4.978,21.412c0,0,3.419,0.103,7.543,3.403c2.813,2.251,6.362,6.952,6.362,6.952s7.612,4.146,10.445,4.348
		c2.833,0.202,6.285,0.548,7.094,1.661c0.81,1.113-0.098,3.919-1.414,5.538c-1.315,1.619-3.535,2.474-3.535,2.474
		s-4.878,2.165-10.747,3.885c-5.869,1.72-15.539,0.708-15.539,0.708s-2.727,7.581-5.175,19.663
		c-2.447,12.082-3.242,24.128-11.367,32.27c-2.939,2.945-7.17,6.063-8.692,6.872c0.287,2.662,1.644,15.716,2.37,30.444
		c0,0-5.98,17.527-7.698,22.787c-2.447,7.494-4.738,16.057-4.738,16.057s-2.637,3.925-4.12,4.921
		c-1.483,0.996-5.051-5.163-5.051-5.163l4.541-4.055l6.997-34.73l-12.77-17.863c0,0,1.299,17.614,1.224,24.164
		c0.666,3.404,1.463,6.136-0.205,10.554c-0.306,6.576-1.964,28.438-1.964,28.438s0.839,7.098,0.209,7.443
		c-0.805,0.44-7.93-0.323-7.93-0.323l2.854-35.559c0,0-2.367-4.26-2.294-6.27c0.09-2.504,0.84-4.06,0.84-4.06l-7.569-26.833
		l-22.634-2.753l2.201,30.541l9.084,38.932c0,0,1.561,5.159,1.408,5.924c-0.153,0.765-7.647,0-7.647,0s-6.423-30.893-11.317-38.846
		c-1.215-1.974-2.413-4.238-3.403-6.501c-2.159,3.771-4.833,6.33-4.833,6.33l-1.274,31.227c0,0,2.246,6.107,2.399,7.178
		c0.153,1.071-8.084,0.383-8.084,0.383l-1.226-41.371c0,0,3.266-4.735,3.642-8.123c0.694-6.241-2.872-18.464-4.38-26.928
		c-0.879-4.937-1.468-10.776-1.515-16.522c-1.28,4.52-2.776,9.541-3.61,11.414c1.789,4.954-1.269,12.203-4.159,12.479
		C54.264,373.004,56.909,366.442,56.909,366.442z"/>
	<path style="fill:#09203F;" d="M711.683,384.182c-4.755,1.028-4.369-10.41-4.241-10.924c0.128-0.514-1.157-19.535-3.599-25.704
		c-2.442-6.169-6.554-19.149-20.563-25.575c-14.009-6.426-28.637-2.197-28.637-2.197s-3.253-5.181-15.784-7.109
		c-6.868-4.819-15.784-4.578-19.639-3.494c-3.856,1.084-16.145,9.518-20.844,6.152c-4.699-3.366,1.446-12.659,4.458-13.502
		c3.012-0.843,6.265,2.892,6.265,2.892s0.121-5.181-2.289-5.301c-2.41-0.12-9.037-2.169-8.193-5.904
		c0.843-3.735,5.663-3.615,6.386-7.711c0.723-4.096-2.892-9.518,0.362-10.121c3.253-0.603,8.193,4.096,8.193,4.096
		s-4.699-9.88-10.362-7.952c-5.663,1.928-13.374-1.566-13.374-1.566s3.253-1.084,4.94-3.494c1.687-2.41,6.747-2.53,8.434-3.133
		c-2.169-3.374-8.555-0.482-13.254,1.928c-4.699,2.41-6.265-2.048-5.784-4.458c0.482-2.41-3.614-8.675-4.699-10.603
		c-1.084-1.928-3.615-2.771-5.663-3.253c0,0-8.193,2.048-10,2.651c-1.807,0.602-0.482-2.41-3.615-1.446
		c-3.132,0.964-10.603,10.241-10.603,10.241s-4.579-10.362-5.783-9.639c-1.205,0.723-2.169,9.88-1.687,10.844
		c0.482,0.964,2.891,7.35,2.891,7.35s-6.145,7.229-5.676,8.314c0.469,1.084,1.339,4.217,1.339,4.217s-0.964,4.458-1.339,6.265
		c-0.375,1.807-0.589,7.35-0.589,7.35l-5.422,6.988c0,0-0.602,4.699,0,6.265c0.602,1.566,2.651,3.253,2.651,3.253
		s3.012,5.663,4.337,5.422c1.325-0.241,5.302,0,5.302,0l-1.381,13.595c0,0-7.197,6.426-10.281,12.852
		c-3.084,6.426-2.699,21.72-2.699,21.72s-3.085,3.984-6.298,6.811c-3.213,2.827-3.727,16.836-4.884,19.021
		c-1.157,2.185-7.968,6.04-9.639,8.354c-1.671,2.313-0.643,10.667-0.643,10.667s-6.04,16.065-8.225,17.993
		c-2.185,1.928-0.386,7.197-0.386,7.197l-6.297,17.864c0,0,1.028,3.984,5.269,3.341c4.241-0.643,10.41-2.827,10.41-2.827
		l0.771-10.924c0,0,4.755-6.94,4.755-8.482l-2.956-4.755c0,0,2.442-12.081,4.112-15.679c3.47-2.57,5.141-8.739,5.141-8.739
		s7.582-5.655,9.51-8.354c1.928-2.699,6.554-5.141,15.936-9.51c9.382-4.37,16.322,0.9,16.322,0.514c0-0.386-9.896,10.41-9.896,10.41
		s-5.911,7.197-6.04,10.796c-0.129,3.599,3.213,7.84,3.213,7.84l1.028,12.98c0,0-1.671,3.984-0.643,5.141
		c1.028,1.157,11.181,8.482,11.181,8.482l6.812,0.386c0,0,2.828-4.112,3.342-7.84c0.514-3.727-3.47-5.141-3.47-5.141
		s0-2.699-1.285-4.884c-1.285-2.185-5.526-1.799-5.526-1.799l-3.598-3.47l-0.643-4.241c0,0,2.185-3.342,2.57-4.884
		c0.386-1.542,4.884-9.253,10.796-11.824c5.912-2.57,14.266-9.767,14.266-9.767l16.065,0.642c0,0-0.128,12.852-1.285,16.451
		c-0.773,2.404-0.341,7.327,0.108,11.138c-2.997,2.207-5.656,4.047-6.662,4.413c-2.827,1.028-3.085,6.04-3.085,6.04
		s-2.185,0.9-3.727,1.414c-1.542,0.514-10.024,10.924-10.024,10.924s0.9,3.727,3.856,5.783c2.956,2.056,10.539,3.084,11.567,2.827
		c1.028-0.257,3.855-6.683,3.855-7.968c0-0.813,2.827-5.327,5.166-9.154c0.067,3.664,0.024,6.987-0.282,7.355
		c-0.643,0.771-2.442,10.924-1.414,11.31c1.028,0.385,13.366,0,14.009-1.504c0.643-1.503,1.028-8.907,0.129-10.192
		c-0.9-1.285-2.442-6.297-3.084-9.767c-0.174-0.94,0.201-4.409,0.838-8.953c3.211-2.448,6.529-4.762,7.773-5.57
		c2.57-1.671,7.326-4.37,8.611-5.655c1.285-1.285,1.157-5.012,3.341-10.153c0,0,18.25-23.519,27.503-31.487
		c9.254-7.968,8.868-24.419,8.868-24.419l6.169,8.097c0,0,0.643,9.767,2.185,17.864c0.132,0.69,0.335,1.365,0.597,2.023
		c2.812,7.06,12.384,12.114,12.384,12.114l-0.514-8.482c0,0,3.727,17.222,10.667,20.049c6.94,2.828,10.667-4.241,10.667-4.241
		l-5.106-5.439C706.831,384.996,709.782,387.224,711.683,384.182z M621.463,398.062c-0.292,0.195-4.934,5.33-7.168,7.808
		c1.618-9.851,3.312-19.246,3.312-19.246l7.454-4.37c0,0,2.313,0.514,2.313,0.9C627.375,383.54,621.848,397.805,621.463,398.062z"/>
	<path style="fill:#09203F;" d="M110.564,143.406c-0.455-2.167-5.396-3.823-10.793,0c-5.396,3.823-13.043,12.656-27.207,16.639
		c-9.75,2.742-31.03,1.799-34.178-15.515c-3.148-17.314,5.172-13.941,6.296-4.722c1.124,9.219,8.994,15.965,22.71,13.042
		c13.716-2.923,24.284-13.042,35.078-23.835s26.983-14.84,26.983-14.84s14.166-6.971,22.036-6.746
		c9.669-8.769,27.882-6.746,38.675-3.823c10.793,2.923,24.284,13.941,27.657,13.941c3.373,0,10.118-0.674,14.84,6.746
		c4.722,7.42,14.166,16.19,16.639,20.012c2.473,3.823,4.947,8.32,4.947,8.32s7.645,1.799,7.42,3.373
		c-0.225,1.574-5.397,2.923-5.397,2.923s2.249,8.994,1.349,11.693c-0.899,2.698-2.473,4.722-2.473,4.722s0,8.545-1.124,11.243
		c-1.124,2.698-3.373,4.722-3.373,4.722h-2.553c0,0-1.2,0.943-2.33,1.296c-1.13,0.353-9.39,0.565-9.39,0.565
		c-0.635-0.494-2.965-2.542-3.106-3.883c-0.141-1.341,0.071-2.965,0.071-2.965s-2.612-2.542-2.683-4.448
		c-0.071-1.906,0.424-5.93,0.424-6.142c0-0.212-3.318-8.119-2.965-10.59c0.353-2.471-3.389-4.942-6.778-2.471
		c-3.389,2.471-10.308,9.178-10.873,10.661c-0.565,1.483-0.282,8.26-2.542,10.52c-2.259,2.259-3.671,6.072-3.601,8.19
		c0.071,2.118-0.635,4.165-1.624,6.283c-0.988,2.118-2.189,7.131-1.694,9.743c0.494,2.612,3.883,2.471,3.883,3.813
		s-0.777,2.753-0.777,2.753s-9.672,0.141-10.59-0.777s-1.271-4.448-1.271-4.448s-2.4-2.189-1.483-5.013
		c0.918-2.824,3.389-8.402,3.389-8.402s-0.071-22.239-0.141-22.028c-0.071,0.212-7.554,3.107-10.661,9.461
		c-3.107,6.354-5.083,14.685-5.083,14.685c-0.777,1.2-3.248,7.484-3.248,7.484s-1.2,2.612-0.353,3.389
		c0.847,0.777,4.236,3.601,4.236,3.601c0,1.2,0.212,2.965-0.353,3.318s-10.167,0-10.731-0.494c-0.565-0.494-1.13-12.073-1.13-12.073
		s-1.977-0.635-2.118-1.906c-0.141-1.271,4.589-9.249,4.801-12.002c0.212-2.753,1.13-12.143,1.059-14.191
		c-0.071-2.047-0.282-7.413,0.777-8.896c1.059-1.483,5.083-6.495,5.083-6.495l-6.778-4.095h-11.367c0,0,3.883,4.518,3.036,7.131
		c-0.847,2.612-4.518,10.378-5.013,12.426c-0.494,2.048-1.977,10.096-4.73,12.779c-2.753,2.683-7.766,11.084-7.413,12.285
		s4.942,7.907,5.154,7.978c0.212,0.071,7.342,1.059,8.825,2.189c1.483,1.13,2.824,3.036,2.612,3.812
		c-0.212,0.777-2.118,2.542-2.118,2.542h-9.531c0,0-6.707-5.719-8.684-6.001c-1.977-0.282-7.837-2.189-8.825-3.177
		s-3.813-3.813-3.107-5.013c0.706-1.2,6.778-10.943,6.637-14.614c-0.141-3.671-0.565-4.448-0.565-4.448s-9.249,6.848-9.39,7.272
		c-0.141,0.424,0,14.967,0.141,15.744c0.141,0.777,4.165,3.954,4.448,5.013c0.283,1.059-0.212,5.295-0.918,5.225
		c-0.706-0.071-9.955-0.988-9.955-0.988s0.988-7.554-2.259-14.403c-3.248-6.848-4.942-12.991-3.601-14.473
		c1.341-1.483,11.79-7.837,13.626-10.873c1.836-3.036,4.095-9.39,4.095-9.39s-6.001-6.354-7.978-10.025
		C120.662,153.059,111.058,145.754,110.564,143.406z"/>
	<path style="fill:#09203F;" d="M525.321,216.135c0,0-3.055-4.582-2.945-6.655c0.109-2.073-0.873-4.146-1.2-5.564
		c-0.327-1.418-0.109-5.782-0.655-7.636c-0.545-1.855-1.091-7.309-2.291-12.109c-1.2-4.8-1.418-15.6-1.418-15.6
		s3.273-4.255,4.146-5.127l2.509-10.036c0,0-0.546-1.854-1.855-3.927c0,0-1.2-8.509-0.764-11.018c0,0-0.436-6.218-1.2-6.982
		c-0.764-0.764-2.073-9.164-4.364-11.455c0,0-5.782-5.891-6-8.291c-0.218-2.4-0.982-4.364-2.509-6.873
		c-1.527-2.509-3.709-5.782-5.564-7.724c-1.855-1.942-4.582-5.695-5.782-5.149c-1.2,0.546-3.273,12-3.273,12h-4.255
		c0,0-1.527-0.545-2.182-1.854c-0.655-1.309-2.4-1.636-3.6-2.182c-1.2-0.545-5.018-5.782-6.546-4.146
		c-1.527,1.636,0.109,14.291,0.436,15.273c0.327,0.982,1.636,4.255,1.636,4.255s-0.982,2.182-0.982,2.945
		c0,0.764,1.309,1.964,1.309,1.964s0,3.164,0,4.255c0,1.091,0.982,2.291,0.982,2.291s-1.527,2.509-1.746,3.491
		c-0.218,0.982,0.655,1.636,0.655,1.636s-0.218,1.636,0,2.727c0.218,1.091,0.764,1.855,1.309,2.073c0.546,0.218,4.364,1.2,4.364,1.2
		c-6.655,3.273-10.582,12.218-10.582,12.218s-12.873,12.546-15.382,18.546c-2.509,6-7.309,11.127-9.164,13.309
		c-1.854,2.182-2.291,4.255-1.636,7.745c0.655,3.491-2.618,8.073-2.073,14.182c-2.837,1.527-5.782,7.418-7.636,8.509
		c-1.855,1.091-3.818,2.945-6.982-0.546c-3.164-3.491-12.406-7.906-22.301-11.107c-1.854,22.8,23.15,22.12,26.228,20.707
		c6.655-3.055,12.218-3.491,12.218-3.491s0.546,1.091,2.618,1.636l8.509-0.764c0,0,5.455,1.855,8.946,1.745
		c3.491-0.109,8.631,1.636,8.631,1.636s4.46,1.309,6.969,1.091c2.509-0.218,1.745-2.509,1.745-2.509l6.492-0.084
		c0.835,0.546,2.486-1.144,0.381-3.079c-1.142-1.049-5.084-1.229-5.084-1.229s-1.571-0.735-6.589-2.589
		c8.618-1.527,11.673-6,11.673-6l3.927,13.091c0,0,1.746,4.364,2.618,4.691c0.873,0.327,2.4-0.109,2.4-0.109l3.819,0.463
		c0,0,3.163,0.41,3.381-0.681s-0.218-3.927-0.982-5.564c-0.764-1.636-3.055-2.836-3.055-2.836s-3.055-7.527-3.491-8.727
		c-0.436-1.2,0.436-2.073,0.327-2.836c-0.109-0.764-0.873-8.509-1.309-10.036c-0.436-1.527-1.2-9.382-1.2-9.382
		s1.418-0.545,2.836-0.764c1.418-0.218,7.418-4.8,7.418-4.8s2.4,8.4,2.509,10.364c0.109,1.964,2.945,3.818,2.945,3.818
		s0.436,3.491,0.764,5.564c0.327,2.073,0.109,7.418-0.327,8.618c0,0,1.855,6,1.855,7.2s1.854,1.636,1.854,1.636
		s0.436,2.945,1.091,3.273c0.655,0.327,8.291,1.264,8.618,0.173C526.521,220.999,526.194,217.662,525.321,216.135z"/>
	<path style="fill:#09203F;" d="M688.712,186.505c4.464-11.464,10.502-23.159,9.849-32.952c-0.653-9.794-3.059-21.891-11.416-28.551
		c-8.357-6.66-48.315-25.855-61.765-30.295c-13.45-4.44-21.415-6.921-27.814-10.316c-6.398-3.395-12.144-8.749-12.144-8.749
		s1.959-4.44,1.959-5.876c0-1.436-1.175-4.309-1.175-4.309v-3.395c0,0,1.433-2.076,1.567-3.917c0.313-4.309-1.401-4.309-1.401-4.309
		l-5.223,3.561c0,0-2.693-3.561-10.909-3.054c-8.592,0.531-9.367,3.932-9.367,3.932s-3.688-3.262-4.776-3
		c-1.088,0.261-1.221,5.059,1.12,10.182c0,0-0.783,5.615,0,6.921c0.784,1.306,3.134,6.529,3.265,10.447
		c0.13,3.917,0.261,10.708,1.697,12.797c1.437,2.089,2.089,8.227,2.089,10.969c0,2.742,0,10.838,5.354,15.539
		c5.354,4.701,15.8,10.708,16.976,13.972c1.175,3.265,7.693,16.535,9.532,20.371c7.689,16.038,6.041,25.471,6.041,25.471
		s-2.892,3.431-3.022,5.129c-0.053,0.686,0.029,1.269,0.143,1.729c-1.524,0.158-2.463,0.259-2.463,0.259l-3.209,5.438
		c0,0-4.375,2.917-7,4.667c-2.625,1.75-4.375,13.126-4.375,13.126s-4.667,0-7.292,2.042c-2.625,2.042-5.542,12.269-5.542,12.269
		h100.923c-0.347-2.769-3.175-5.488-6.967-7.947c3.227-4.173,11.398-14.78,11.503-15.304c0.131-0.653-3.787-26.377-3.787-26.377
		s12.014-16.062,13.058-18.151c1.045-2.089,4.44-9.01,4.44-9.01s-0.131,16.584-5.876,26.377c-5.746,9.794-7.052,20.632-0.131,30.556
		c6.921,9.924,17.367,4.701,12.928-1.828C691.062,198.388,684.259,197.94,688.712,186.505z M608.319,156.057l7.193,6.654
		l0.101,17.825c0,0-0.88,3.609-1.247,3.884c-0.231,0.173-0.895,1.795-1.152,3.043c-1.53,0.131-3.099,0.273-4.634,0.417
		c0.357-3.661,1.649-17.014,1.649-18.027C610.231,168.81,609.117,160.328,608.319,156.057z M624.514,186.914
		c-0.304-0.075-0.996-0.095-1.96-0.073c0.398-9.814,2.833-27.738,1.628-30.491c-0.597-1.365-3.432-6.891-6.29-12.406
		c3.479,1.797,7.406,3.405,10.492,3.517c7.182,0.261,18.02-1.437,18.02-1.437s-4.831,14.364-4.309,18.02
		c0.522,3.656,9.01,21.676,10.577,25.202s2.35,12.275,2.35,12.275s-4.378,6.045-7.1,9.72c-4.523-1.719-7.922-2.743-7.922-2.743
		l-7.875-12.251C632.124,196.248,626.873,187.497,624.514,186.914z M657.831,215.531c-0.871-0.435-1.753-0.855-2.636-1.26
		l8.736-7.555C663.932,206.717,659.869,212.546,657.831,215.531z"/>
	<path style="fill:#09203F;" d="M412.67,347.312c0,0-7.834,2.018-9.021,2.612s-3.205,5.579-3.205,5.579s-2.967,2.493-3.68,4.392
		c-0.712,1.899-2.255,3.714-2.255,3.714s-2.493,1.391-2.611,3.646c-0.119,2.255-0.237,5.698,2.255,7.241
		c2.493,1.543,4.392,1.068,4.392,1.068s2.137,0.85,4.392,0.069c2.018,1.593,1.78,4.256,1.187,5.358
		c-0.594,1.102-2.374,5.85-2.493,8.105c-0.119,2.255,0.475,4.392-1.068,8.784s-5.579,12.345-7.003,14.126
		c-1.424,1.781-5.935,3.205-4.392,11.514c1.543,8.309,4.392,16.262,4.392,16.262s-1.662,4.629-0.119,5.698
		c1.543,1.068,11.039,0,11.039,0l0.237-1.78h8.547c0,0-0.475,3.917,0,4.867c0.475,0.95,10.446,0.594,11.277,0
		s-0.712-5.104-0.712-5.104h6.529c0,0,0.119,3.917,1.424,4.273c1.306,0.356,10.624,0.772,11.395,0c0.772-0.772,0.119-6.647,0-7.003
		c-0.119-0.356,0.95-14.126,1.543-23.503c0.593-9.378-0.148-16.696-2.507-25.501c-2.359-8.804-5.715-14.502-6.827-15.096
		c-1.111-0.594-4.91-2.967-4.91-2.967s2.255-4.392,1.662-5.698c-0.594-1.306-2.018-4.358-2.018-4.358l1.098-9.993
		c1.276-4.167,2.841-7.965,5.085-10.339c2.244-2.374,5.449-9.14,4.974-18.28c-0.475-9.14-2.018-13.176-6.885-10.446
		c-4.867,2.73-8.309,7.953-8.19,15.431c0.119,7.478-3.67,16.52-3.67,16.52s-0.494-7.024,0.104-12.721s-0.707-14.957-4.268-17.924
		c-3.561-2.968-6.054,2.018-8.191,7.953C408.04,329.744,412.67,347.312,412.67,347.312z"/>
	<path style="fill:#09203F;" d="M342.483,387.077c0,0-14.911,4.069-19.778,5.396c-4.867,1.327-14.415,2.044-14.415,2.044
		l10.431-14.188c0,0,4.391-2.166,5.465-3.348c1.074-1.182,4.247-10.768,5.442-17.165c1.195-6.396-1.428-9.681-7.856-12.514
		c-6.428-2.833-7.837-10.569-7.837-10.569l1.967-0.53l-4.356-5.815l2.549,0.211c0,0-2.455-4.813-6.464-9.18
		c-4.009-4.367-8.604-6.099-8.604-6.099s-1.071-4.549-8.493-5.685c-7.422-1.136-9.396,1.834-9.396,1.834s-0.595-3.208-16.058-0.687
		c-15.463,2.521-37.085,15.209-40.308,24.115c-3.224,8.906,3.185,16.157,3.185,16.157s6.175-5.42,14.761-9.187
		c8.586-3.767,32.059-4.054,32.059-4.054l4.376-2.172c0.217,2.24,5.37,7.943,5.37,7.943s-0.112,1.908-4.088,5.435
		c-3.976,3.527-9.602,12.848-13.242,23.551c-3.641,10.703-3.069,23.943-3.069,23.943l-12.606,0.09l-3.283-1.514
		c1.219-1.052,3.728-3.837,1.056-7.243c-3.396,2.398-2.783,5.277-2.15,6.738l-3.893-1.796l-1.418,0.373l5.48,3.471l-12.39,0.089
		c0,0-5.864,5.94,2.099,7.556l25.712,0.973l-3.171,14.526c0,0-10.552,23.135-8.784,26.398c1.769,3.263,10.076,2.981,15.686,2.966
		c5.61-0.015,14.251-2.322,16.579-12.04c2.328-9.717,0.518-24.196,1.344-24.366c0.826-0.169,3.292-5.181,3.292-5.181
		s1.923,0.492,2.741,0.527c0.817,0.035,3.058-2.118,3.058-2.118l7.866,0.337c0,0,2.763,0.013,3.984,0.168
		c1.221,0.155,1.45-2.803,1.957-2.679c0.506,0.124,1.966-1.656,1.966-1.656l11.049-1.165l10.9,1.183l0.669-1.28l-7.208-1.354
		c0,0,13.117-2.816,17.478-4.267C344.552,391.361,342.483,387.077,342.483,387.077z"/>
	<path style="fill:#09203F;" d="M373.852,135.604c-0.299-2.024-1.398-3.933-2.495-5.409c-0.009-0.042-0.013-0.094-0.023-0.135
		c-1.055-4.835-10.131-11.548-18.152-13.426s-26.156,2.269-26.156,2.269s-1.306-0.148-4.554-1.01
		c-3.249-0.862-8.678-1.789-8.678-1.789s-2.63-10.558-3.592-14.844c-0.963-4.286-2.603-7.828-2.603-7.828s1.46-1.375,1.906-1.689
		c0.446-0.314,1.496-2.575,1.939-2.78c0.443-0.205,2.415-0.473,4.783-1.166c2.368-0.693,7.452-6.434,7.452-6.434l2.222-8.556
		c0,0-0.529-0.562-1.395-0.806c-0.866-0.244-11.36,3.915-12.352,4.213c-0.992,0.298-2.851,4.062-2.851,4.062l-2.056-0.608
		c1.697-5.625,14.015-12.349,17.763-13.546c3.747-1.197,6.308-2.867,6.684-4.493c0.377-1.626-3.932-14.417-5.896-18.078
		c-1.964-3.661-4.737-5.818-4.238-4.275c0.499,1.543,4.878,15.646,4.878,15.646l-3.621-1.903
		c-1.264-5.948-2.915-13.077-3.758-14.037c-1.478-1.682-2.998-1.946-3.335-1.628c-0.337,0.317,1.338,2.881,3.139,9.167
		c1.865,6.509,0.964,16.384,0.964,16.384l-9.812,8.224c0,0-0.235-4.286-0.625-5.826c-0.39-1.54-2.252-3.757-2.07-2.55
		c0.182,1.206-0.084,10.039-0.084,10.039s-4.083,5.116-4.982,5.963c-0.898,0.846-7.42,0.53-8.62,0.494
		c-1.199-0.036-2.301-0.721-2.739-1.592c-0.901-1.792-3.331-6.382-3.331-6.382s-0.156-10.649-1.249-10.573
		c-1.094,0.076-2.001,8.454-2.001,8.454l-13.905-9.478c0,0-1.178-4.402-0.816-12.795c0.362-8.394,6.091-13.788,5.241-14.578
		c-0.849-0.79-4.117,2.605-6.26,8.544c-2.143,5.939-2.781,16.617-2.781,16.617l-3.594-0.654l-0.318-3.939
		c0,0,2.693-2.43,2.392-3.312c-0.301-0.882-2.207,0.807-2.207,0.807s1.885-8.239,0.795-8.272c-1.091-0.033-3.59,10.48-3.59,10.48
		s-2.501,3.309-2.018,5.397c0.483,2.089,5.995,3.892,13.534,7.284c7.539,3.392,13.522,11.322,13.522,11.322l-8.18-3.848
		c0,0-3.536-2.18-3.774-1.532c-0.238,0.648,7.842,15.081,7.842,15.081s1.501,0.918,2.042,1.044c0.542,0.126,3.123,1.404,3.123,1.404
		s-0.152,1.414-0.069,2.29c0.083,0.876,1.56,2.557,1.56,2.557s-0.828,5.76-1.029,8.811c-0.201,3.05,0.75,14.976,1.363,20.016
		c0.612,5.039,5.158,13.581,5.158,13.581s0.198,15.178,0.278,16.163c0.079,0.985,2.288,3.78,3.111,5.442
		c0.823,1.662,8.072,11.049,8.072,11.049s0.298,4.593,1.73,7.802c1.432,3.209,3.999,14.416,4.049,17.805
		c0.126,8.561,1.521,7.492,1.869,10.45c0.348,2.958-0.69,19.316-0.69,19.316s-2.167,6.371-1.859,7.035
		c0.307,0.664,6.993,0.802,7.221,0.481c0.228-0.32-0.103-4.52-0.08-5.283c0.023-0.763,0.88-25.641,0.88-25.641
		s0.455-7.869,0.133-15.301c-0.322-7.432-1.652-14.021-1.652-14.021l2.678,0.286l2.531,2.259c0,0,0.949,21.546-0.184,24.419
		c-1.001,2.539,0.761,5.605,0.761,5.605s-0.186,18.614-0.887,20.121c-0.7,1.507-1.976,5.094-1.54,6.175
		c0.436,1.082,7.214,1.082,7.455,0.325c0.241-0.757-0.034-3.922-0.034-3.922s-0.117-21.523,0.356-22.709
		c0.472-1.186,1.404-3.123,0.722-5.873c-0.681-2.749,0.195-2.856,1.198-10.794c1.003-7.938,0.866-14.273,0.866-14.273
		s2.165,0.611,5.645,1.043c3.48,0.432,9.233-2.124,9.233-2.124s2.275,4.216,4.559,8.105c2.284,3.889,7.547,9.893,7.547,9.893
		s0.45,3.664,0.711,5.855c0.262,2.191,1.779,6.166,1.542,10.416c-0.15,2.678-2.112,14.274-3.2,15.201
		c-2.345,1.998-2.638,4.755-2.638,4.755s3.686,0.809,5.972,0.987c2.287,0.178,4.084-1.514,4.084-1.514s6.327,0.381,6.78-0.151
		l-0.434-5.686c0,0-1.577-37.04-1.64-38.57c-0.063-1.53-2.722-3.037-2.722-3.037s3.567-20.982,4.836-26.883
		c0.387-1.799,0.972-5.168,1.416-8.789c1.07,0.854,2.157,1.595,2.58,1.467C374.548,143.578,374.5,139.99,373.852,135.604z
		 M327.096,58.544l0.265,2.082l-2.858,0.678c0,0-0.517-2.692-1.246-6.205L327.096,58.544z M362.48,220.656l0.775-8.959l0.274,7.69
		L362.48,220.656z"/>
</g>
</svg>
