<?xml version="1.0" encoding="UTF-8" standalone="no"?>
<svg
   version="1.0"
   width="3000pt"
   height="2000pt"
   viewBox="0 0 3000 2000"
   preserveAspectRatio="xMidYMid"
   id="svg1"
   sodipodi:docname="basketball.svg"
   inkscape:version="1.3.1 (9b9bdc1480, 2023-11-25, custom)"
   xmlns:inkscape="http://www.inkscape.org/namespaces/inkscape"
   xmlns:sodipodi="http://sodipodi.sourceforge.net/DTD/sodipodi-0.dtd"
   xmlns="http://www.w3.org/2000/svg"
   xmlns:svg="http://www.w3.org/2000/svg">
  <defs
     id="defs1" />
  <sodipodi:namedview
     id="namedview1"
     pagecolor="#505050"
     bordercolor="#eeeeee"
     borderopacity="1"
     inkscape:showpageshadow="0"
     inkscape:pageopacity="0"
     inkscape:pagecheckerboard="0"
     inkscape:deskcolor="#505050"
     inkscape:document-units="pt"
     inkscape:zoom="0.1153169"
     inkscape:cx="2874.687"
     inkscape:cy="1881.771"
     inkscape:window-width="1610"
     inkscape:window-height="986"
     inkscape:window-x="0"
     inkscape:window-y="0"
     inkscape:window-maximized="1"
     inkscape:current-layer="svg1" />
  <metadata
     id="metadata1">
Created by potrace 1.15, written by Peter Selinger 2001-2017
</metadata>
  <g
     transform="matrix(0.01563844,0,0,-0.01565343,1664.027,454.61296)"
     fill="#000000"
     stroke="none"
     id="g1">
    <path
       d="m 6105,12774 c -180,-11 -371,-28 -505,-45 C 3486,12459 1646,11166 696,9280 318,8531 108,7797 23,6935 -1,6684 -1,6089 23,5835 80,5242 200,4712 395,4186 c 96,-259 248,-606 265,-606 10,0 220,99 220,103 0,2 -29,64 -64,138 -289,610 -484,1345 -546,2064 -19,214 -24,607 -11,835 l 13,215 35,70 c 57,112 102,175 188,260 169,169 400,297 740,410 761,253 1979,326 3485,209 1796,-139 3974,-555 5621,-1074 373,-117 359,-112 359,-131 0,-39 -42,-330 -75,-513 -63,-353 -138,-675 -241,-1028 -4,-14 -10,-16 -23,-8 -76,40 -273,97 -441,127 -149,26 -586,26 -780,0 C 8503,5171 7858,4974 6585,4475 6393,4399 6120,4293 5980,4238 4655,3719 3981,3495 3225,3320 2606,3177 1989,3112 1503,3139 c -120,6 -244,14 -276,18 l -57,6 -64,106 c -36,58 -98,171 -140,250 -41,79 -77,145 -79,148 -3,2 -54,-21 -115,-51 l -110,-55 80,-153 C 1722,1542 3581,278 5695,41 c 1784,-200 3580,365 4933,1552 1005,882 1718,2083 2011,3384 116,515 155,876 155,1418 0,396 -11,568 -60,903 -204,1425 -911,2782 -1953,3750 -672,623 -1404,1065 -2281,1376 -102,36 -263,97 -359,136 -96,39 -180,69 -188,66 -7,-3 -13,-13 -13,-22 0,-10 -5,-14 -15,-10 -33,12 -349,77 -495,101 -201,33 -463,62 -677,75 -154,9 -517,11 -648,4 z m 640,-254 c 537,-35 1029,-126 1520,-281 125,-40 187,-66 285,-121 563,-316 1044,-776 1399,-1337 308,-485 535,-1060 667,-1686 19,-87 64,-345 64,-362 0,-16 -217,-18 -360,-3 -647,68 -1289,354 -2130,949 -203,144 -493,364 -952,723 -631,495 -813,631 -1128,848 -638,439 -1206,718 -1740,854 -74,19 -128,37 -120,40 634,228 1173,338 1855,379 123,8 504,6 640,-3 z m -2690,-575 c 229,-40 567,-141 800,-240 465,-197 958,-498 1580,-964 173,-130 252,-191 855,-662 503,-393 832,-634 1131,-827 646,-416 1199,-647 1739,-726 141,-21 433,-39 497,-32 62,7 57,18 72,-154 35,-386 38,-902 10,-1268 -11,-133 -14,-152 -28,-146 -9,4 -128,42 -266,86 -1696,536 -3893,956 -5750,1097 -526,40 -682,46 -1290,46 -631,-1 -796,-8 -1210,-56 -840,-96 -1480,-319 -1812,-633 -24,-22 -43,-38 -43,-35 0,3 12,64 26,135 161,815 489,1599 952,2279 450,660 1022,1225 1682,1660 210,138 366,229 615,357 l 210,109 70,-5 c 39,-3 111,-12 160,-21 z m 5665,-388 c 1567,-996 2617,-2703 2799,-4552 28,-283 40,-720 25,-887 l -7,-66 -75,60 c -267,212 -707,434 -1282,647 -107,40 -204,76 -215,81 -20,8 -21,9 -7,161 23,240 22,1072 -1,1297 -24,239 -27,218 36,226 173,23 448,95 651,171 95,35 354,150 365,161 3,2 -17,49 -43,103 l -49,98 -101,-47 c -287,-135 -667,-251 -856,-262 l -54,-3 -13,80 c -181,1114 -619,2056 -1274,2740 -140,146 -142,146 101,-8 z m 1465,-5037 c 305,-116 705,-302 900,-418 191,-114 347,-245 402,-340 l 26,-43 -17,-132 c -103,-785 -381,-1600 -780,-2280 -87,-148 -185,-306 -186,-297 0,3 -11,79 -24,170 -99,666 -285,1160 -567,1506 -73,89 -226,234 -302,286 -41,28 -56,44 -53,56 131,430 256,998 311,1417 9,61 18,124 20,142 l 6,32 77,-28 c 42,-16 127,-48 187,-71 z M 9910,5032 c 157,-28 400,-108 400,-131 0,-8 -92,-272 -137,-391 -108,-290 -225,-560 -369,-850 C 9296,2634 8637,1796 7864,1194 7282,741 6602,434 5935,323 c -88,-14 -161,-29 -163,-33 -5,-14 -388,41 -607,86 -1420,297 -2672,1062 -3567,2179 -104,130 -268,353 -268,364 0,3 51,3 113,-2 132,-10 579,-2 757,13 709,61 1486,243 2435,568 442,152 807,289 1680,632 890,349 1215,470 1635,608 543,178 960,275 1350,312 150,14 487,4 610,-18 z m 712,-335 c 80,-71 186,-197 258,-307 56,-88 171,-323 215,-443 102,-278 180,-650 221,-1057 l 18,-168 -70,-88 C 10690,1897 9982,1316 9152,901 8536,593 7866,388 7189,301 c -182,-23 -599,-56 -599,-47 0,2 28,13 63,24 106,34 315,120 472,196 1054,507 1993,1463 2708,2757 230,416 471,960 628,1418 22,64 42,122 44,130 6,16 0,20 117,-82 z"
       id="path1" />
  </g>
</svg>
