<?xml version="1.0" encoding="UTF-8" standalone="no"?>
<svg
   version="1.1"
   x="0px"
   y="0px"
   viewBox="0 0 500 500"
   style="enable-background:new 0 0 500 500;"
   xml:space="preserve"
   id="svg7"
   sodipodi:docname="cloud2.rev.svg"
   inkscape:version="1.3.1 (9b9bdc1480, 2023-11-25, custom)"
   xmlns:inkscape="http://www.inkscape.org/namespaces/inkscape"
   xmlns:sodipodi="http://sodipodi.sourceforge.net/DTD/sodipodi-0.dtd"
   xmlns:xlink="http://www.w3.org/1999/xlink"
   xmlns="http://www.w3.org/2000/svg"
   xmlns:svg="http://www.w3.org/2000/svg"><defs
   id="defs7" /><sodipodi:namedview
   id="namedview7"
   pagecolor="#505050"
   bordercolor="#eeeeee"
   borderopacity="1"
   inkscape:showpageshadow="0"
   inkscape:pageopacity="0"
   inkscape:pagecheckerboard="0"
   inkscape:deskcolor="#505050"
   inkscape:zoom="1.488"
   inkscape:cx="249.66398"
   inkscape:cy="250"
   inkscape:window-width="1610"
   inkscape:window-height="986"
   inkscape:window-x="0"
   inkscape:window-y="0"
   inkscape:window-maximized="1"
   inkscape:current-layer="svg7" />
<g
   id="g7"
   transform="translate(31.102991,-287.24063)">
		<path
   style="clip-rule:evenodd;fill:#f1f1f1;fill-rule:evenodd"
   d="m 257.006,386.58 c 0.438,-3.72 3.829,-6.618 7.942,-6.618 2.829,0 5.317,1.371 6.737,3.438 1.565,-0.847 3.428,-1.338 5.427,-1.338 4.148,0 7.712,2.115 9.244,5.13 2.162,-2.565 5.835,-4.254 10,-4.254 4.687,0 8.751,2.139 10.739,5.257 2.091,-1.272 4.607,-2.014 7.313,-2.014 7.253,0 13.142,5.332 13.142,11.899 0,6.568 -5.889,11.9 -13.142,11.9 -2.036,0 -3.965,-0.42 -5.687,-1.171 -1.092,3.617 -5.448,6.323 -10.649,6.323 -4.257,0 -7.948,-1.813 -9.747,-4.454 -2.248,3.129 -6.719,5.263 -11.864,5.263 -4.637,0 -8.728,-1.734 -11.136,-4.368 -2.807,2.169 -7.13,3.559 -11.974,3.559 -5.994,0 -11.187,-2.128 -13.703,-5.226 -0.51,0.049 -1.029,0.074 -1.555,0.074 -7.485,0 -13.562,-5.073 -13.562,-11.321 0,-6.248 6.077,-11.321 13.562,-11.321 2.383,0 4.623,0.514 6.57,1.417 1.426,-2.244 4.126,-3.759 7.217,-3.759 1.935,-10e-4 3.714,0.592 5.126,1.584 z"
   id="path1" />
		<g
   id="g2">
			<defs
   id="defs1">
				<path
   id="SVGID_00000155122488013404691930000013930034893798817176_"
   d="m 257.006,386.58 c 0.438,-3.72 3.829,-6.618 7.942,-6.618 2.829,0 5.317,1.371 6.737,3.438 1.565,-0.847 3.428,-1.338 5.427,-1.338 4.148,0 7.712,2.115 9.244,5.13 2.162,-2.565 5.835,-4.254 10,-4.254 4.687,0 8.751,2.139 10.739,5.257 2.091,-1.272 4.607,-2.014 7.313,-2.014 7.253,0 13.142,5.332 13.142,11.899 0,6.568 -5.889,11.9 -13.142,11.9 -2.036,0 -3.965,-0.42 -5.687,-1.171 -1.092,3.617 -5.448,6.323 -10.649,6.323 -4.257,0 -7.948,-1.813 -9.747,-4.454 -2.248,3.129 -6.719,5.263 -11.864,5.263 -4.637,0 -8.728,-1.734 -11.136,-4.368 -2.807,2.169 -7.13,3.559 -11.974,3.559 -5.994,0 -11.187,-2.128 -13.703,-5.226 -0.51,0.049 -1.029,0.074 -1.555,0.074 -7.485,0 -13.562,-5.073 -13.562,-11.321 0,-6.248 6.077,-11.321 13.562,-11.321 2.383,0 4.623,0.514 6.57,1.417 1.426,-2.244 4.126,-3.759 7.217,-3.759 1.935,-10e-4 3.714,0.592 5.126,1.584 z" />
			</defs>
			<clipPath
   id="SVGID_00000068655715810227194470000012005108991183474622_">
				<use
   xlink:href="#SVGID_00000155122488013404691930000013930034893798817176_"
   style="overflow:visible"
   id="use1" />
			</clipPath>
			
				<path
   style="clip-rule:evenodd;fill:#ffffff;fill-rule:evenodd"
   d="m 257.537,381.621 c 0.438,-3.72 3.83,-6.618 7.942,-6.618 2.829,0 5.317,1.372 6.737,3.438 1.565,-0.847 3.429,-1.338 5.427,-1.338 4.148,0 7.712,2.115 9.244,5.13 2.162,-2.564 5.836,-4.253 10,-4.253 4.687,0 8.751,2.139 10.739,5.257 2.092,-1.272 4.608,-2.014 7.314,-2.014 7.252,0 13.141,5.332 13.141,11.9 0,6.568 -5.889,11.9 -13.141,11.9 -2.037,0 -3.966,-0.42 -5.688,-1.171 -1.092,3.617 -5.448,6.323 -10.649,6.323 -4.257,0 -7.948,-1.813 -9.746,-4.454 -2.249,3.129 -6.72,5.263 -11.865,5.263 -4.637,0 -8.728,-1.734 -11.136,-4.368 -2.807,2.169 -7.129,3.559 -11.974,3.559 -5.993,0 -11.187,-2.128 -13.703,-5.226 -0.51,0.049 -1.029,0.074 -1.555,0.074 -7.485,0 -13.562,-5.073 -13.562,-11.321 0,-6.248 6.077,-11.321 13.562,-11.321 2.383,0 4.623,0.513 6.57,1.416 1.426,-2.243 4.126,-3.759 7.217,-3.759 1.935,-0.002 3.715,0.59 5.126,1.583 z"
   clip-path="url(#SVGID_00000068655715810227194470000012005108991183474622_)"
   id="path2" />
		</g>
		<path
   style="clip-rule:evenodd;fill:#f1f1f1;fill-rule:evenodd"
   d="m 237.282,394.832 c -0.602,4.667 2.528,9.243 7.446,10.561 4.751,1.273 9.579,-0.922 11.534,-4.988 -0.051,0.394 -0.129,0.79 -0.234,1.184 -1.354,5.053 -6.784,7.994 -12.118,6.565 -5.334,-1.429 -8.565,-6.692 -7.211,-11.744 0.147,-0.553 0.344,-1.079 0.583,-1.578 z"
   id="path3" />
		<path
   style="clip-rule:evenodd;fill:#f1f1f1;fill-rule:evenodd"
   d="m 287.777,396.848 c 0.758,-3.071 -0.984,-6.365 -4.167,-7.62 -3.077,-1.212 -6.468,-0.114 -8.083,2.453 0.064,-0.259 0.146,-0.518 0.247,-0.773 1.289,-3.271 5.14,-4.822 8.593,-3.461 3.454,1.361 5.211,5.122 3.922,8.393 -0.142,0.356 -0.313,0.693 -0.512,1.008 z"
   id="path4" />
		<path
   style="clip-rule:evenodd;fill:#f1f1f1;fill-rule:evenodd"
   d="m 298.942,407.773 c 2.86,1.441 6.505,0.465 8.461,-2.395 1.89,-2.763 1.571,-6.357 -0.597,-8.53 0.241,0.122 0.477,0.261 0.707,0.418 2.938,2.01 3.599,6.16 1.477,9.261 -2.122,3.101 -6.23,3.987 -9.167,1.977 -0.321,-0.22 -0.615,-0.465 -0.881,-0.731 z"
   id="path5" />
		<path
   style="clip-rule:evenodd;fill:#f1f1f1;fill-rule:evenodd"
   d="m 269.464,396.192 c 0.817,-3.309 -1.06,-6.859 -4.491,-8.211 -3.315,-1.307 -6.97,-0.123 -8.71,2.643 0.069,-0.28 0.157,-0.558 0.266,-0.833 1.389,-3.525 5.538,-5.196 9.26,-3.729 3.721,1.466 5.614,5.519 4.225,9.044 -0.153,0.384 -0.338,0.747 -0.55,1.086 z"
   id="path6" />
		<path
   style="clip-rule:evenodd;fill:#f1f1f1;fill-rule:evenodd"
   d="m 281.441,403.388 c 2.098,2.303 5.749,2.683 8.523,0.764 2.678,-1.854 3.638,-5.232 2.422,-7.961 0.178,0.195 0.344,0.403 0.498,0.625 1.971,2.848 1.13,6.85 -1.876,8.932 -3.008,2.081 -7.049,1.458 -9.02,-1.39 -0.216,-0.31 -0.399,-0.635 -0.547,-0.97 z"
   id="path7" />
	</g>
</svg>
