<?xml version="1.0" encoding="utf-8"?>
<!-- Generator: Adobe Illustrator 27.5.0, SVG Export Plug-In . SVG Version: 6.00 Build 0)  -->
<svg version="1.1" xmlns="http://www.w3.org/2000/svg" xmlns:xlink="http://www.w3.org/1999/xlink" x="0px" y="0px"
	 viewBox="0 0 500 500" style="enable-background:new 0 0 500 500;" xml:space="preserve">
<g id="BACKGROUND">
	<rect style="fill:#29ABE2;" width="500" height="500"/>
</g>
<g id="OBJECTS">
	<g>
		<path style="fill-rule:evenodd;clip-rule:evenodd;fill:#F1F1F1;" d="M226.202,65.082c1.51-7.735,8.916-13.614,17.814-13.614
			c7.768,0,14.399,4.481,16.963,10.768c2.687-2.358,6.329-3.806,10.337-3.806c7.576,0,13.844,5.179,14.83,11.887
			c0.722-0.109,1.462-0.165,2.217-0.165c7.63,0,13.825,5.785,13.825,12.909c0,0.503-0.031,0.999-0.092,1.487
			c0.228-0.009,0.457-0.014,0.686-0.014c9.108,0,16.503,7.204,16.503,16.078c0,8.874-7.395,16.079-16.503,16.079
			c-1.712,0-3.362-0.254-4.914-0.726c-0.595,6.633-7.081,11.864-14.982,11.864c-4.724,0-8.94-1.869-11.697-4.79
			c-3.01,4.768-9.917,8.105-17.947,8.105c-6.586,0-12.415-2.245-15.959-5.682c-3.577,2.894-9.349,4.776-15.856,4.776
			c-8.397,0-15.57-3.132-18.38-7.534c-2.527,1.469-5.711,2.344-9.17,2.344c-8.201,0-14.86-4.926-14.86-10.993
			c0-1.194,0.258-2.344,0.735-3.422c-5.864-1.146-10.253-5.743-10.253-11.233c0-6.352,5.874-11.508,13.11-11.508
			c0.732,0,1.45,0.053,2.149,0.154c-0.43-1.107-0.663-2.287-0.663-3.512c0-6.312,6.172-11.436,13.775-11.436
			c2.384,0,4.628,0.504,6.584,1.39c0.738-6.151,6.988-10.961,14.578-10.961C221.637,63.525,224.083,64.091,226.202,65.082z"/>
		<g>
			<defs>
				<path id="SVGID_1_" d="M226.202,65.082c1.51-7.735,8.916-13.614,17.814-13.614c7.768,0,14.399,4.481,16.963,10.768
					c2.687-2.358,6.329-3.806,10.337-3.806c7.576,0,13.844,5.179,14.83,11.887c0.722-0.109,1.462-0.165,2.217-0.165
					c7.63,0,13.825,5.785,13.825,12.909c0,0.503-0.031,0.999-0.092,1.487c0.228-0.009,0.457-0.014,0.686-0.014
					c9.108,0,16.503,7.204,16.503,16.078c0,8.874-7.395,16.079-16.503,16.079c-1.712,0-3.362-0.254-4.914-0.726
					c-0.595,6.633-7.081,11.864-14.982,11.864c-4.724,0-8.94-1.869-11.697-4.79c-3.01,4.768-9.917,8.105-17.947,8.105
					c-6.586,0-12.415-2.245-15.959-5.682c-3.577,2.894-9.349,4.776-15.856,4.776c-8.397,0-15.57-3.132-18.38-7.534
					c-2.527,1.469-5.711,2.344-9.17,2.344c-8.201,0-14.86-4.926-14.86-10.993c0-1.194,0.258-2.344,0.735-3.422
					c-5.864-1.146-10.253-5.743-10.253-11.233c0-6.352,5.874-11.508,13.11-11.508c0.732,0,1.45,0.053,2.149,0.154
					c-0.43-1.107-0.663-2.287-0.663-3.512c0-6.312,6.172-11.436,13.775-11.436c2.384,0,4.628,0.504,6.584,1.39
					c0.738-6.151,6.988-10.961,14.578-10.961C221.637,63.525,224.083,64.091,226.202,65.082z"/>
			</defs>
			<clipPath id="SVGID_00000163030829139318623980000000681813679865075349_">
				<use xlink:href="#SVGID_1_"  style="overflow:visible;"/>
			</clipPath>
			
				<path style="clip-path:url(#SVGID_00000163030829139318623980000000681813679865075349_);fill-rule:evenodd;clip-rule:evenodd;fill:#FFFFFF;" d="
				M241.849,46.655c3.458-3.59,8.341-5.83,13.749-5.83c8.168,0,15.138,5.109,17.815,12.266c2.753-1.539,5.935-2.418,9.322-2.418
				c10.479,0,18.986,8.408,18.986,18.764c0,0.487-0.019,0.97-0.056,1.445c8.681,1.725,15.23,9.31,15.23,18.396
				c0,10.355-8.508,18.763-18.986,18.763c-0.747,0-1.484-0.043-2.209-0.126c-3.457,4.642-9.025,7.657-15.299,7.657
				c-3.587,0-6.943-0.985-9.806-2.697c-2.97,6.538-9.616,11.097-17.331,11.097c-6.096,0-11.524-2.845-14.998-7.263
				c-3.481,4.252-8.804,6.973-14.766,6.973c-6.309,0-11.904-3.047-15.357-7.734c-2.197,0.879-4.597,1.363-7.111,1.363
				c-8.958,0-16.477-6.147-18.469-14.401c-7.582-2.461-13.063-9.519-13.063-17.832c0-10.355,8.507-18.764,18.985-18.764
				c0.192,0,0.383,0.003,0.572,0.009c1.19-9.229,9.174-16.374,18.833-16.374c4.323,0,8.311,1.432,11.505,3.841
				c3.408-5.022,9.205-8.331,15.779-8.331C237.521,45.459,239.771,45.882,241.849,46.655z"/>
		</g>
		<path style="fill-rule:evenodd;clip-rule:evenodd;fill:#F1F1F1;" d="M200.801,103.556c-0.288,5.711,3.938,10.958,10.02,12.089
			c5.876,1.093,11.516-2.025,13.499-7.136c-0.025,0.482-0.081,0.969-0.171,1.457c-1.163,6.25-7.461,10.329-14.058,9.102
			c-6.597-1.226-11.009-7.296-9.848-13.545C200.37,104.84,200.558,104.183,200.801,103.556z"/>
		<path style="fill-rule:evenodd;clip-rule:evenodd;fill:#F1F1F1;" d="M249.632,123.716c6.732,1.541,13.858-2.384,16.477-9.38
			c2.531-6.76,0.007-14.12-5.656-17.55c0.569,0.13,1.135,0.3,1.696,0.509c7.189,2.692,10.719,11.038,7.878,18.626
			c-2.842,7.588-10.985,11.563-18.174,8.871C251.067,124.498,250.326,124.136,249.632,123.716z"/>
		<path style="fill-rule:evenodd;clip-rule:evenodd;fill:#F1F1F1;" d="M284.713,91.841c-0.986,6.835,3.508,13.617,10.694,15.657
			c6.943,1.971,14.074-1.146,17.03-7.07c-0.083,0.577-0.206,1.156-0.37,1.732c-2.096,7.385-10.127,11.583-17.921,9.371
			c-7.795-2.212-12.421-10.004-10.324-17.389C284.052,93.337,284.351,92.568,284.713,91.841z"/>
		<path style="fill-rule:evenodd;clip-rule:evenodd;fill:#F1F1F1;" d="M276.195,86.115c1.712-5.278-0.923-11.262-6.336-13.856
			c-5.231-2.507-11.302-1.009-14.45,3.28c0.145-0.446,0.32-0.887,0.528-1.322c2.666-5.562,9.597-7.794,15.469-4.979
			c5.872,2.814,8.475,9.614,5.808,15.178C276.923,85.022,276.581,85.59,276.195,86.115z"/>
		<path style="fill-rule:evenodd;clip-rule:evenodd;fill:#F1F1F1;" d="M237.139,75.013c-4.668-3-11.126-1.978-15.014,2.596
			c-3.757,4.419-3.856,10.671-0.511,14.809c-0.395-0.254-0.777-0.537-1.144-0.848c-4.699-3.996-5.091-11.268-0.873-16.228
			c4.217-4.96,11.458-5.744,16.157-1.748C236.267,74.03,236.729,74.506,237.139,75.013z"/>
		<path style="fill-rule:evenodd;clip-rule:evenodd;fill:#F1F1F1;" d="M203.406,84.655c-3.439-2.211-8.196-1.457-11.061,1.912
			c-2.768,3.255-2.84,7.861-0.376,10.909c-0.291-0.187-0.573-0.395-0.842-0.625c-3.462-2.943-3.751-8.301-0.644-11.955
			c3.107-3.654,8.44-4.231,11.903-1.287C202.764,83.931,203.104,84.282,203.406,84.655z"/>
	</g>
	<g>
		<path style="fill-rule:evenodd;clip-rule:evenodd;fill:#F1F1F1;" d="M423.468,356.792c-0.426-1.273-0.657-2.628-0.657-4.034
			c0-7.366,6.319-13.347,14.101-13.347c4.856,0,9.142,2.329,11.68,5.871c1.18-0.51,2.471-0.79,3.821-0.79
			c5.613,0,10.169,4.842,10.169,10.807c0,1.083-0.15,2.13-0.43,3.117c5.139,2.248,8.808,8.113,8.808,14.985
			c0,7.279-4.114,13.426-9.732,15.346c0.345,1.376,0.529,2.828,0.529,4.33c0,8.733-6.255,15.823-13.961,15.823
			c-0.786,0-1.557-0.074-2.306-0.215c-2.186,6.12-7.56,10.451-13.835,10.451c-4.456,0-8.457-2.183-11.184-5.639
			c-2.274,3.416-5.971,5.639-10.141,5.639c-3.154,0-6.038-1.272-8.238-3.369c-1.423-0.305-2.511-0.938-3.339-1.681
			c-2.151,2.259-5.353,3.692-8.924,3.692c-4.722,0-8.796-2.505-10.652-6.11c-0.352,0.035-0.71,0.053-1.071,0.053
			c-6.068,0-10.994-5.008-10.994-11.175c0-6.168,4.926-11.175,10.994-11.175c0.687,0,1.36,0.064,2.012,0.187
			c1.569-2.8,4.454-4.678,7.75-4.678c1.632,0,3.164,0.461,4.486,1.267c1.905-3.324,5.315-5.541,9.199-5.541
			c1.514,0,2.956,0.336,4.264,0.944c-0.255-1.095-0.39-2.24-0.39-3.422c0-7.223,5.079-13.159,11.536-13.753
			C418.051,361.088,420.412,358.371,423.468,356.792z"/>
		<g>
			<defs>
				<path id="SVGID_00000102542692994408462340000006181600939159952276_" d="M423.468,356.792
					c-0.426-1.273-0.657-2.628-0.657-4.034c0-7.366,6.319-13.347,14.101-13.347c4.856,0,9.142,2.329,11.68,5.871
					c1.18-0.51,2.471-0.79,3.821-0.79c5.613,0,10.169,4.842,10.169,10.807c0,1.083-0.15,2.13-0.43,3.117
					c5.139,2.248,8.808,8.113,8.808,14.985c0,7.279-4.114,13.426-9.732,15.346c0.345,1.376,0.529,2.828,0.529,4.33
					c0,8.733-6.255,15.823-13.961,15.823c-0.786,0-1.557-0.074-2.306-0.215c-2.186,6.12-7.56,10.451-13.835,10.451
					c-4.456,0-8.457-2.183-11.184-5.639c-2.274,3.416-5.971,5.639-10.141,5.639c-3.154,0-6.038-1.272-8.238-3.369
					c-1.423-0.305-2.511-0.938-3.339-1.681c-2.151,2.259-5.353,3.692-8.924,3.692c-4.722,0-8.796-2.505-10.652-6.11
					c-0.352,0.035-0.71,0.053-1.071,0.053c-6.068,0-10.994-5.008-10.994-11.175c0-6.168,4.926-11.175,10.994-11.175
					c0.687,0,1.36,0.064,2.012,0.187c1.569-2.8,4.454-4.678,7.75-4.678c1.632,0,3.164,0.461,4.486,1.267
					c1.905-3.324,5.315-5.541,9.199-5.541c1.514,0,2.956,0.336,4.264,0.944c-0.255-1.095-0.39-2.24-0.39-3.422
					c0-7.223,5.079-13.159,11.536-13.753C418.051,361.088,420.412,358.371,423.468,356.792z"/>
			</defs>
			<clipPath id="SVGID_00000049925142775759201470000014719157708641802921_">
				<use xlink:href="#SVGID_00000102542692994408462340000006181600939159952276_"  style="overflow:visible;"/>
			</clipPath>
			
				<path style="clip-path:url(#SVGID_00000049925142775759201470000014719157708641802921_);fill-rule:evenodd;clip-rule:evenodd;fill:#FFFFFF;" d="
				M422.254,351.71c-0.437-1.19-0.673-2.456-0.673-3.77c0-6.885,6.48-12.475,14.461-12.475c4.98,0,9.376,2.177,11.978,5.487
				c1.21-0.476,2.533-0.739,3.92-0.739c5.755,0,10.428,4.526,10.428,10.101c0,1.013-0.154,1.992-0.441,2.914
				c5.271,2.101,9.034,7.582,9.034,14.006c0,6.802-4.219,12.548-9.981,14.342c0.354,1.286,0.543,2.644,0.543,4.047
				c0,8.162-6.415,14.789-14.318,14.789c-0.806,0-1.597-0.069-2.366-0.201c-2.242,5.72-7.752,9.768-14.188,9.768
				c-4.57,0-8.673-2.04-11.471-5.271c-2.332,3.192-6.123,5.271-10.4,5.271c-3.235,0-6.192-1.189-8.449-3.149
				c-1.459-0.285-2.576-0.876-3.424-1.571c-2.207,2.111-5.49,3.451-9.152,3.451c-4.843,0-9.021-2.341-10.924-5.711
				c-0.361,0.032-0.728,0.049-1.099,0.049c-6.223,0-11.275-4.68-11.275-10.445c0-5.765,5.052-10.445,11.275-10.445
				c0.705,0,1.395,0.06,2.064,0.175c1.61-2.616,4.568-4.372,7.948-4.372c1.674,0,3.245,0.431,4.6,1.184
				c1.955-3.107,5.45-5.179,9.435-5.179c1.552,0,3.03,0.315,4.372,0.882c-0.262-1.022-0.401-2.094-0.401-3.198
				c0-6.751,5.209-12.299,11.832-12.854C416.699,355.727,419.12,353.187,422.254,351.71z"/>
		</g>
		<path style="fill-rule:evenodd;clip-rule:evenodd;fill:#F1F1F1;" d="M415.649,394.832c-0.603,4.667,2.528,9.243,7.446,10.561
			c4.751,1.273,9.579-0.922,11.534-4.988c-0.051,0.394-0.13,0.79-0.234,1.184c-1.354,5.053-6.784,7.994-12.118,6.565
			c-5.334-1.429-8.565-6.692-7.212-11.744C415.213,395.857,415.41,395.331,415.649,394.832z"/>
		<path style="fill-rule:evenodd;clip-rule:evenodd;fill:#F1F1F1;" d="M449.487,369.617c-0.602,4.666,2.528,9.243,7.446,10.561
			c4.751,1.273,9.579-0.922,11.534-4.988c-0.051,0.394-0.129,0.789-0.234,1.183c-1.354,5.053-6.784,7.994-12.117,6.565
			c-5.335-1.429-8.566-6.692-7.212-11.744C449.051,370.642,449.248,370.116,449.487,369.617z"/>
		<path style="fill-rule:evenodd;clip-rule:evenodd;fill:#F1F1F1;" d="M392.213,394.596c-0.603,4.666,2.527,9.243,7.445,10.56
			c4.752,1.273,9.579-0.922,11.534-4.988c-0.051,0.394-0.129,0.79-0.234,1.184c-1.353,5.053-6.784,7.994-12.117,6.565
			c-5.335-1.429-8.565-6.692-7.212-11.744C391.776,395.621,391.973,395.095,392.213,394.596z"/>
		<path style="fill-rule:evenodd;clip-rule:evenodd;fill:#F1F1F1;" d="M373.188,394.596c-0.483,3.735,2.023,7.399,5.96,8.453
			c3.803,1.019,7.667-0.738,9.233-3.993c-0.042,0.316-0.103,0.632-0.188,0.948c-1.083,4.045-5.43,6.399-9.699,5.255
			c-4.27-1.144-6.857-5.357-5.773-9.401C372.838,395.417,372.996,394.995,373.188,394.596z"/>
		<path style="fill-rule:evenodd;clip-rule:evenodd;fill:#F1F1F1;" d="M440.169,390.753c-0.481,3.724,2.017,7.377,5.942,8.429
			c3.793,1.016,7.646-0.736,9.206-3.981c-0.041,0.315-0.103,0.63-0.187,0.945c-1.08,4.033-5.414,6.381-9.672,5.24
			c-4.257-1.141-6.836-5.341-5.755-9.374C439.821,391.571,439.977,391.151,440.169,390.753z"/>
		<path style="fill-rule:evenodd;clip-rule:evenodd;fill:#F1F1F1;" d="M440.43,372.982c-1.218-3.319-4.893-5.281-8.627-4.451
			c-3.608,0.801-6.062,3.94-5.953,7.327c-0.103-0.28-0.188-0.571-0.255-0.87c-0.852-3.837,1.744-7.682,5.794-8.581
			c4.05-0.899,8.03,1.485,8.882,5.321C440.365,372.147,440.417,372.566,440.43,372.982z"/>
		<path style="fill-rule:evenodd;clip-rule:evenodd;fill:#F1F1F1;" d="M433.538,383.823c-1.814-3.288-5.988-4.758-9.776-3.286
			c-3.66,1.421-5.732,5.111-5.073,8.652c-0.153-0.278-0.289-0.569-0.407-0.873c-1.511-3.892,0.596-8.347,4.705-9.943
			c4.109-1.596,8.671,0.267,10.182,4.16C433.335,382.957,433.457,383.389,433.538,383.823z"/>
		<path style="fill-rule:evenodd;clip-rule:evenodd;fill:#F1F1F1;" d="M447.378,354.007c-1.683-3.054-5.561-4.419-9.078-3.052
			c-3.398,1.32-5.323,4.748-4.711,8.035c-0.142-0.258-0.268-0.528-0.378-0.811c-1.404-3.613,0.554-7.751,4.37-9.234
			c3.815-1.482,8.052,0.25,9.457,3.863C447.189,353.204,447.303,353.605,447.378,354.007z"/>
	</g>
	<g>
		<path style="fill-rule:evenodd;clip-rule:evenodd;fill:#F1F1F1;" d="M216.7,147.61c3.298-3.699,8.214-6.046,13.699-6.046
			c9.919,0,17.973,7.674,17.973,17.128c0,2.255-0.459,4.409-1.292,6.383c5.835,2.381,9.976,8.342,9.976,15.313
			c0,9.062-6.999,16.42-15.62,16.42c-2.564,0-4.985-0.651-7.121-1.804c-2.273,6.419-9.173,11.091-17.322,11.091
			c-5.966,0-11.263-2.505-14.565-6.367c-2.652,1.585-5.828,2.508-9.24,2.508c-9.286,0-16.826-6.837-16.826-15.258
			c0-2.066,0.454-4.038,1.277-5.835c0.652-2.842,2.289-5.336,4.555-7.139c-1.833-1.99-2.937-4.553-2.937-7.349
			c0-5.883,4.886-10.735,11.165-11.385c0.54-6.346,6.626-11.355,14.044-11.355c4.437,0,8.396,1.792,10.979,4.59
			C215.825,148.184,216.243,147.88,216.7,147.61z"/>
		<g>
			<defs>
				<path id="SVGID_00000158729196969595817440000016214836302523090852_" d="M216.7,147.61c3.298-3.699,8.214-6.046,13.699-6.046
					c9.919,0,17.973,7.674,17.973,17.128c0,2.255-0.459,4.409-1.292,6.383c5.835,2.381,9.976,8.342,9.976,15.313
					c0,9.062-6.999,16.42-15.62,16.42c-2.564,0-4.985-0.651-7.121-1.804c-2.273,6.419-9.173,11.091-17.322,11.091
					c-5.966,0-11.263-2.505-14.565-6.367c-2.652,1.585-5.828,2.508-9.24,2.508c-9.286,0-16.826-6.837-16.826-15.258
					c0-2.066,0.454-4.038,1.277-5.835c0.652-2.842,2.289-5.336,4.555-7.139c-1.833-1.99-2.937-4.553-2.937-7.349
					c0-5.883,4.886-10.735,11.165-11.385c0.54-6.346,6.626-11.355,14.044-11.355c4.437,0,8.396,1.792,10.979,4.59
					C215.825,148.184,216.243,147.88,216.7,147.61z"/>
			</defs>
			<clipPath id="SVGID_00000160875123017506821150000010586904209220711570_">
				<use xlink:href="#SVGID_00000158729196969595817440000016214836302523090852_"  style="overflow:visible;"/>
			</clipPath>
			
				<path style="clip-path:url(#SVGID_00000160875123017506821150000010586904209220711570_);fill-rule:evenodd;clip-rule:evenodd;fill:#FFFFFF;" d="
				M216.7,143.956c3.128-3.507,7.787-5.732,12.989-5.732c9.405,0,21.413,6.505,21.413,15.467c0,2.138-0.435,4.18-1.224,6.051
				c5.532,2.257,5.083,8.682,5.083,15.29c0,8.592-6.635,15.567-14.809,15.567c-2.43,0-4.725-0.617-6.75-1.711
				c-2.156,6.085-8.697,10.515-16.423,10.515c-5.656,0-10.678-2.374-13.808-6.036c-2.515,1.502-5.526,2.377-8.761,2.377
				c-8.804,0-15.953-6.482-15.953-14.466c0-1.959-4.196-4.691-3.416-6.395c0.618-2.695,2.171-5.059,4.319-6.769
				c-1.738-1.886-2.785-4.317-2.785-6.967c0-5.576,9.259-9.315,15.213-9.931c0.512-6.016,6.282-10.766,13.315-10.766
				c4.206,0,7.96,1.7,10.408,4.353C215.872,144.5,216.268,144.212,216.7,143.956z"/>
		</g>
		<path style="fill-rule:evenodd;clip-rule:evenodd;fill:#F1F1F1;" d="M223.089,155.44c-1.059-3.564-5.224-5.867-9.799-5.242
			c-4.419,0.603-7.738,3.736-8.017,7.3c-0.089-0.301-0.157-0.612-0.2-0.93c-0.557-4.084,3.018-7.949,7.979-8.627
			c4.961-0.677,9.441,2.089,9.998,6.173C223.112,154.559,223.123,155.002,223.089,155.44z"/>
		<path style="fill-rule:evenodd;clip-rule:evenodd;fill:#F1F1F1;" d="M245.929,175.982c2.288-2.93,1.746-7.659-1.417-11.022
			c-3.056-3.249-7.533-4.134-10.597-2.293c0.194-0.248,0.407-0.482,0.642-0.703c3.002-2.823,8.225-2.155,11.655,1.492
			c3.43,3.648,3.778,8.901,0.775,11.725C246.659,175.489,246.306,175.756,245.929,175.982z"/>
		<path style="fill-rule:evenodd;clip-rule:evenodd;fill:#F1F1F1;" d="M197.865,171.122c-2.52-2.734-7.273-2.968-11.106-0.395
			c-3.703,2.487-5.304,6.761-3.986,10.084c-0.214-0.232-0.41-0.48-0.59-0.748c-2.298-3.422-0.788-8.466,3.369-11.257
			c4.156-2.791,9.397-2.28,11.695,1.142C197.497,170.322,197.703,170.715,197.865,171.122z"/>
		<path style="fill-rule:evenodd;clip-rule:evenodd;fill:#F1F1F1;" d="M226.454,176.744c-1.463,3.418,0.269,7.851,4.187,10.293
			c3.785,2.36,8.34,2.071,10.832-0.493c-0.124,0.288-0.27,0.571-0.441,0.843c-2.18,3.498-7.401,4.187-11.649,1.538
			c-4.249-2.649-5.928-7.639-3.748-11.137C225.873,177.407,226.148,177.058,226.454,176.744z"/>
		<path style="fill-rule:evenodd;clip-rule:evenodd;fill:#F1F1F1;" d="M191.108,191.487c2.181,3.011,6.874,3.803,10.982,1.699
			c3.97-2.034,6.063-6.091,5.145-9.545c0.184,0.255,0.351,0.525,0.497,0.812c1.88,3.668-0.212,8.5-4.668,10.783
			c-4.457,2.284-9.6,1.159-11.479-2.509C191.379,192.325,191.221,191.911,191.108,191.487z"/>
	</g>
	<g>
		<path style="fill-rule:evenodd;clip-rule:evenodd;fill:#F1F1F1;" d="M99.846,162.684c3.437-2.783,8.074-4.491,13.173-4.491
			c9.027,0,16.607,5.353,18.646,12.55c0.096,0.219,0.184,0.436,0.268,0.649c2.663-1.665,5.936-2.645,9.47-2.645
			c8.945,0,16.208,6.283,16.208,14.022c0,1.951-0.461,3.809-1.295,5.497c5.373,1.504,9.286,6.086,9.286,11.499
			c0,6.207-5.146,11.322-11.737,11.955c-1.862,8.084-9.575,14.152-18.795,14.152c-2.768,0-5.4-0.547-7.78-1.532
			c-4.402,4.002-10.822,6.526-17.966,6.526c-6.771,0-12.891-2.266-17.258-5.908c-3.343,2.191-7.539,3.496-12.093,3.496
			c-5.72,0-10.875-2.059-14.483-5.347c-2.703,1.73-6.139,2.766-9.877,2.766c-8.696,0-15.756-5.604-15.756-12.506
			c0-0.747,0.083-1.478,0.241-2.189c-4.516-1.424-7.78-5.508-7.78-10.316c0-5.992,5.067-10.855,11.308-10.855
			c0.253,0,0.505,0.008,0.754,0.024v-0.024c0-8.571,7.06-15.53,15.756-15.53c1.38,0,2.719,0.176,3.996,0.505l0-0.052
			c0-8.904,9.695-16.132,21.636-16.132C91.141,158.797,96.061,160.261,99.846,162.684z"/>
		<g>
			<defs>
				<path id="SVGID_00000045600353742429152700000017210026583637090746_" d="M99.846,162.684c3.437-2.783,8.074-4.491,13.173-4.491
					c9.027,0,16.607,5.353,18.646,12.55c0.096,0.219,0.184,0.436,0.268,0.649c2.663-1.665,5.936-2.645,9.47-2.645
					c8.945,0,16.208,6.283,16.208,14.022c0,1.951-0.461,3.809-1.295,5.497c5.373,1.504,9.286,6.086,9.286,11.499
					c0,6.207-5.146,11.322-11.737,11.955c-1.862,8.084-9.575,14.152-18.795,14.152c-2.768,0-5.4-0.547-7.78-1.532
					c-4.402,4.002-10.822,6.526-17.966,6.526c-6.771,0-12.891-2.266-17.258-5.908c-3.343,2.191-7.539,3.496-12.093,3.496
					c-5.72,0-10.875-2.059-14.483-5.347c-2.703,1.73-6.139,2.766-9.877,2.766c-8.696,0-15.756-5.604-15.756-12.506
					c0-0.747,0.083-1.478,0.241-2.189c-4.516-1.424-7.78-5.508-7.78-10.316c0-5.992,5.067-10.855,11.308-10.855
					c0.253,0,0.505,0.008,0.754,0.024v-0.024c0-8.571,7.06-15.53,15.756-15.53c1.38,0,2.719,0.176,3.996,0.505l0-0.052
					c0-8.904,9.695-16.132,21.636-16.132C91.141,158.797,96.061,160.261,99.846,162.684z"/>
			</defs>
			<clipPath id="SVGID_00000042737469015861549940000006868299622513197482_">
				<use xlink:href="#SVGID_00000045600353742429152700000017210026583637090746_"  style="overflow:visible;"/>
			</clipPath>
			
				<path style="clip-path:url(#SVGID_00000042737469015861549940000006868299622513197482_);fill-rule:evenodd;clip-rule:evenodd;fill:#FFFFFF;" d="
				M99.846,152.488c3.437-2.784,8.074-4.491,13.173-4.491c9.027,0,16.607,5.352,18.646,12.55c0.096,0.219,0.184,0.436,0.268,0.648
				c2.663-1.664,5.936-2.645,9.47-2.645c8.945,0,16.208,6.284,16.208,14.022c0,1.952-0.461,3.81-1.295,5.498
				c5.373,1.504,9.286,6.085,9.286,11.498c0,6.208-5.146,11.322-11.737,11.956c-1.862,8.083-9.575,14.151-18.795,14.151
				c-2.768,0-5.4-0.546-7.78-1.531c-4.402,4.002-10.822,6.525-17.966,6.525c-6.771,0-12.891-2.266-17.258-5.908
				c-3.343,2.192-7.539,3.496-12.093,3.496c-5.72,0-10.875-2.059-14.483-5.346c-2.703,1.73-6.139,2.765-9.877,2.765
				c-8.696,0-15.756-5.603-15.756-12.505c0-0.747,0.083-1.478,0.241-2.189c-4.516-1.424-7.78-5.508-7.78-10.316
				c0-5.992,5.067-10.856,11.308-10.856c0.253,0,0.505,0.009,0.754,0.025v-0.025c0-8.571,7.06-15.529,15.756-15.529
				c1.38,0,2.719,0.175,3.996,0.505l0-0.052c0-8.905,9.695-16.133,21.636-16.133C91.141,148.6,96.061,150.066,99.846,152.488z"/>
		</g>
		<path style="fill-rule:evenodd;clip-rule:evenodd;fill:#F1F1F1;" d="M66.129,186.583c-1.059-3.564-5.225-5.867-9.799-5.242
			c-4.419,0.603-7.739,3.736-8.017,7.3c-0.09-0.301-0.157-0.612-0.2-0.93c-0.557-4.084,3.018-7.949,7.979-8.627
			c4.961-0.677,9.441,2.089,9.999,6.173C66.152,185.702,66.163,186.145,66.129,186.583z"/>
		<path style="fill-rule:evenodd;clip-rule:evenodd;fill:#F1F1F1;" d="M103.323,179.893c-2.982-4.865-9.42-6.804-15.065-4.304
			c-5.454,2.414-8.34,8.16-7.09,13.487c-0.252-0.411-0.48-0.844-0.68-1.296c-2.567-5.801,0.319-12.711,6.442-15.421
			c6.123-2.71,13.178-0.2,15.745,5.6C102.955,178.592,103.17,179.24,103.323,179.893z"/>
		<path style="fill-rule:evenodd;clip-rule:evenodd;fill:#F1F1F1;" d="M108.013,213.766c3.702,4.136,10.106,4.917,14.944,1.607
			c4.675-3.198,6.32-9.142,4.16-14.003c0.313,0.349,0.607,0.723,0.879,1.12c3.485,5.096,2.055,12.146-3.193,15.735
			c-5.247,3.59-12.337,2.368-15.823-2.727C108.6,214.942,108.278,214.363,108.013,213.766z"/>
		<path style="fill-rule:evenodd;clip-rule:evenodd;fill:#F1F1F1;" d="M50.875,210.057c3.702,4.135,10.106,4.916,14.944,1.607
			c4.674-3.198,6.32-9.142,4.16-14.004c0.313,0.35,0.607,0.723,0.878,1.121c3.486,5.095,2.055,12.146-3.192,15.736
			c-5.247,3.59-12.337,2.368-15.823-2.728C51.462,211.232,51.14,210.652,50.875,210.057z"/>
		<path style="fill-rule:evenodd;clip-rule:evenodd;fill:#F1F1F1;" d="M89.944,199.844c-3.18,4.55-2.475,10.963,1.853,14.916
			c4.182,3.819,10.345,4.061,14.584,0.847c-0.269,0.385-0.565,0.756-0.89,1.111c-4.163,4.559-11.354,4.779-16.048,0.492
			c-4.695-4.288-5.126-11.47-0.963-16.027C88.933,200.684,89.424,200.238,89.944,199.844z"/>
		<path style="fill-rule:evenodd;clip-rule:evenodd;fill:#F1F1F1;" d="M113.245,186.251c-2.177,3.115-1.694,7.506,1.269,10.212
			c2.863,2.614,7.082,2.781,9.984,0.58c-0.184,0.263-0.387,0.517-0.61,0.761c-2.85,3.12-7.773,3.271-10.987,0.336
			c-3.214-2.935-3.509-7.852-0.659-10.973C112.554,186.827,112.89,186.521,113.245,186.251z"/>
		<path style="fill-rule:evenodd;clip-rule:evenodd;fill:#F1F1F1;" d="M135.245,189.075c2.373-5.189,0.39-11.613-4.832-14.905
			c-5.046-3.18-11.425-2.369-15.149,1.639c0.201-0.439,0.432-0.869,0.696-1.287c3.382-5.367,10.727-6.825,16.391-3.256
			c5.664,3.57,7.518,10.825,4.135,16.192C136.119,188.044,135.702,188.584,135.245,189.075z"/>
	</g>
	<g>
		<path style="fill-rule:evenodd;clip-rule:evenodd;fill:#F1F1F1;" d="M406.015,171.034c2.456-9.576,12.104-16.731,23.619-16.731
			c11.458,0,21.068,7.083,23.582,16.587c0.449-0.042,0.903-0.064,1.361-0.064c8.207,0,14.871,6.964,14.871,15.543
			c0,5.384-2.625,10.131-6.608,12.921c0.883,2.234,1.367,4.659,1.367,7.194c0,11.101-9.285,20.115-20.722,20.115
			c-5.634,0-10.748-2.188-14.484-5.735c-3.607,3.538-8.638,5.735-14.2,5.735c-10.96,0-19.858-8.532-19.858-19.042
			c0-1.135,0.103-2.247,0.302-3.327c-5.643-2.944-9.503-8.879-9.503-15.715c0-9.763,7.872-17.688,17.568-17.688
			C404.23,170.826,405.133,170.896,406.015,171.034z"/>
		<g>
			<defs>
				<path id="SVGID_00000156569897413314694050000002937282239741185417_" d="M406.015,171.034
					c2.456-9.576,12.104-16.731,23.619-16.731c11.458,0,21.068,7.083,23.582,16.587c0.449-0.042,0.903-0.064,1.361-0.064
					c8.207,0,14.871,6.964,14.871,15.543c0,5.384-2.625,10.131-6.608,12.921c0.883,2.234,1.367,4.659,1.367,7.194
					c0,11.101-9.285,20.115-20.722,20.115c-5.634,0-10.748-2.188-14.484-5.735c-3.607,3.538-8.638,5.735-14.2,5.735
					c-10.96,0-19.858-8.532-19.858-19.042c0-1.135,0.103-2.247,0.302-3.327c-5.643-2.944-9.503-8.879-9.503-15.715
					c0-9.763,7.872-17.688,17.568-17.688C404.23,170.826,405.133,170.896,406.015,171.034z"/>
			</defs>
			<clipPath id="SVGID_00000039134881983187727240000018157260246690315950_">
				<use xlink:href="#SVGID_00000156569897413314694050000002937282239741185417_"  style="overflow:visible;"/>
			</clipPath>
			
				<path style="clip-path:url(#SVGID_00000039134881983187727240000018157260246690315950_);fill-rule:evenodd;clip-rule:evenodd;fill:#FFFFFF;" d="
				M407.614,165.665c2.274-8.867,11.208-15.493,21.871-15.493c10.609,0,19.507,6.56,21.835,15.358
				c0.415-0.04,0.836-0.059,1.26-0.059c7.599,0,13.768,6.449,13.768,14.391c0,4.985-2.43,9.381-6.117,11.964
				c0.817,2.068,1.266,4.314,1.266,6.661c0,10.279-8.598,18.624-19.187,18.624c-5.217,0-9.952-2.026-13.412-5.31
				c-3.338,3.276-7.997,5.31-13.147,5.31c-10.148,0-18.388-7.9-18.388-17.632c0-1.05,0.096-2.08,0.281-3.08
				c-5.225-2.726-8.799-8.221-8.799-14.55c0-9.04,7.288-16.378,16.267-16.378C405.961,165.471,406.797,165.537,407.614,165.665z"/>
		</g>
		<path style="fill-rule:evenodd;clip-rule:evenodd;fill:#F1F1F1;" d="M445.328,181.429c1.706-4.935-0.566-10.544-5.478-12.992
			c-4.746-2.365-10.365-0.985-13.366,3.019c0.144-0.417,0.317-0.83,0.519-1.235c2.59-5.198,9.018-7.262,14.345-4.608
			c5.327,2.655,7.55,9.03,4.959,14.228C446.025,180.408,445.696,180.938,445.328,181.429z"/>
		<path style="fill-rule:evenodd;clip-rule:evenodd;fill:#F1F1F1;" d="M416.068,182.972c-2.403-3.866-7.245-5.475-11.32-3.584
			c-3.939,1.828-5.841,6.311-4.702,10.519c-0.203-0.327-0.388-0.67-0.555-1.029c-2.134-4.597-0.277-9.995,4.144-12.047
			c4.421-2.052,9.742,0.015,11.875,4.613C415.743,181.945,415.928,182.457,416.068,182.972z"/>
		<path style="fill-rule:evenodd;clip-rule:evenodd;fill:#F1F1F1;" d="M438.028,198.403c1.706-4.935-0.566-10.545-5.478-12.993
			c-4.746-2.365-10.365-0.985-13.366,3.019c0.144-0.417,0.317-0.83,0.519-1.235c2.59-5.198,9.018-7.262,14.345-4.608
			c5.327,2.655,7.55,9.03,4.959,14.228C438.724,197.383,438.395,197.913,438.028,198.403z"/>
		<path style="fill-rule:evenodd;clip-rule:evenodd;fill:#F1F1F1;" d="M410.989,201.986c-0.215,5.216,3.576,9.937,8.984,10.868
			c5.225,0.9,10.21-2.038,11.933-6.735c-0.018,0.44-0.065,0.886-0.142,1.332c-0.986,5.723-6.548,9.549-12.414,8.539
			c-5.866-1.01-9.828-6.476-8.842-12.199C410.616,203.164,410.777,202.561,410.989,201.986z"/>
		<path style="fill-rule:evenodd;clip-rule:evenodd;fill:#F1F1F1;" d="M446.393,207.784c5.124,1.005,10.364-2.025,12.106-7.228
			c1.683-5.028-0.463-10.402-4.844-12.818c0.433,0.084,0.866,0.199,1.295,0.342c5.507,1.843,8.443,7.923,6.554,13.567
			c-1.889,5.644-7.895,8.73-13.402,6.886C447.5,208.333,446.93,208.081,446.393,207.784z"/>
	</g>
	<g>
		<path style="fill-rule:evenodd;clip-rule:evenodd;fill:#F1F1F1;" d="M388.036,71c2.059-9.639,11.258-16.917,22.282-16.917
			c12.535,0,22.712,9.411,22.712,21.005c0,0.134-0.001,0.268-0.004,0.401c6.75,1.426,11.853,6.497,12.354,12.658
			c0.571-0.056,1.148-0.084,1.732-0.084c9.91,0,17.957,8.118,17.957,18.118c0,9.34-7.021,17.039-16.025,18.013
			c0,0.043,0.001,0.085,0.001,0.127c0,10.012-8.677,18.14-19.363,18.14c-5.653,0-10.744-2.274-14.286-5.9
			c-3.683,5.296-10.728,8.88-18.805,8.88c-7.559,0-14.213-3.139-18.055-7.883c-3.608,3.868-9.389,6.375-15.902,6.375
			c-10.92,0-19.785-7.051-19.785-15.736h-0.092c-9.802,0-17.761-7.193-17.761-16.052s7.959-16.052,17.761-16.052
			c1.012,0,2.006,0.077,2.973,0.224c0.182-0.416,0.42-0.925,0.717-1.491c0.682-5.62,5.855-9.994,12.128-9.994h0.049
			c0.727-8.899,9.349-15.933,19.862-15.933C381.944,68.899,385.201,69.661,388.036,71z"/>
		<g>
			<defs>
				<path id="SVGID_00000143601684180194968370000018003040902662186884_" d="M388.036,71c2.059-9.639,11.258-16.917,22.282-16.917
					c12.535,0,22.712,9.411,22.712,21.005c0,0.134-0.001,0.268-0.004,0.401c6.75,1.426,11.853,6.497,12.354,12.658
					c0.571-0.056,1.148-0.084,1.732-0.084c9.91,0,17.957,8.118,17.957,18.118c0,9.34-7.021,17.039-16.025,18.013
					c0,0.043,0.001,0.085,0.001,0.127c0,10.012-8.677,18.14-19.363,18.14c-5.653,0-10.744-2.274-14.286-5.9
					c-3.683,5.296-10.728,8.88-18.805,8.88c-7.559,0-14.213-3.139-18.055-7.883c-3.608,3.868-9.389,6.375-15.902,6.375
					c-10.92,0-19.785-7.051-19.785-15.736h-0.092c-9.802,0-17.761-7.193-17.761-16.052s7.959-16.052,17.761-16.052
					c1.012,0,2.006,0.077,2.973,0.224c0.182-0.416,0.42-0.925,0.717-1.491c0.682-5.62,5.855-9.994,12.128-9.994h0.049
					c0.727-8.899,9.349-15.933,19.862-15.933C381.944,68.899,385.201,69.661,388.036,71z"/>
			</defs>
			<clipPath id="SVGID_00000058550580501527335370000008903190035715762829_">
				<use xlink:href="#SVGID_00000143601684180194968370000018003040902662186884_"  style="overflow:visible;"/>
			</clipPath>
			
				<path style="clip-path:url(#SVGID_00000058550580501527335370000008903190035715762829_);fill-rule:evenodd;clip-rule:evenodd;fill:#FFFFFF;" d="
				M388.507,62.048c2.059-9.639,11.259-16.918,22.282-16.918c12.536,0,22.713,9.412,22.713,21.005c0,0.135-0.002,0.269-0.004,0.402
				c6.75,1.426,11.853,6.497,12.354,12.657c0.57-0.055,1.147-0.083,1.732-0.083c9.91,0,17.956,8.118,17.956,18.117
				c0,9.34-7.02,17.04-16.024,18.013c0,0.043,0,0.085,0,0.128c0,10.011-8.676,18.14-19.363,18.14c-5.653,0-10.744-2.275-14.285-5.9
				c-3.684,5.295-10.729,8.879-18.805,8.879c-7.559,0-14.213-3.139-18.056-7.883c-3.607,3.868-9.388,6.376-15.902,6.376
				c-10.92,0-19.785-7.051-19.785-15.736h-0.093c-9.803,0-17.761-7.193-17.761-16.052c0-8.86,7.958-16.053,17.761-16.053
				c1.013,0,2.006,0.077,2.974,0.225c0.182-0.416,0.42-0.925,0.716-1.492c0.683-5.619,5.856-9.993,12.128-9.993h0.05
				c0.727-8.899,9.348-15.933,19.861-15.933C382.416,59.947,385.671,60.709,388.507,62.048z"/>
		</g>
		<path style="fill-rule:evenodd;clip-rule:evenodd;fill:#F1F1F1;" d="M334.246,102.601c-0.986,6.835,3.508,13.617,10.694,15.657
			c6.943,1.971,14.074-1.146,17.029-7.07c-0.083,0.577-0.205,1.156-0.369,1.731c-2.096,7.385-10.127,11.584-17.922,9.372
			c-7.794-2.213-12.421-10.004-10.324-17.389C333.583,104.097,333.883,103.328,334.246,102.601z"/>
		<path style="fill-rule:evenodd;clip-rule:evenodd;fill:#F1F1F1;" d="M376.156,117.561c-0.986,6.835,3.508,13.617,10.695,15.657
			c6.943,1.972,14.073-1.146,17.029-7.07c-0.083,0.577-0.206,1.156-0.37,1.733c-2.096,7.385-10.126,11.583-17.921,9.371
			c-7.795-2.212-12.421-10.004-10.324-17.389C375.494,119.056,375.794,118.287,376.156,117.561z"/>
		<path style="fill-rule:evenodd;clip-rule:evenodd;fill:#F1F1F1;" d="M412.013,114.949c-0.986,6.834,3.507,13.617,10.694,15.657
			c6.943,1.971,14.074-1.147,17.029-7.07c-0.083,0.577-0.206,1.156-0.37,1.731c-2.095,7.385-10.126,11.584-17.921,9.372
			c-7.794-2.213-12.421-10.005-10.324-17.389C411.35,116.443,411.65,115.675,412.013,114.949z"/>
		<path style="fill-rule:evenodd;clip-rule:evenodd;fill:#F1F1F1;" d="M422.03,81.529c0.498-5.684-3.521-11.073-9.544-12.425
			c-5.82-1.307-11.559,1.593-13.725,6.617c0.042-0.481,0.116-0.963,0.225-1.446c1.389-6.19,7.821-10.024,14.355-8.557
			c6.533,1.466,10.708,7.682,9.319,13.871C422.507,80.266,422.295,80.914,422.03,81.529z"/>
		<path style="fill-rule:evenodd;clip-rule:evenodd;fill:#F1F1F1;" d="M433.011,112.93c2.698-5.028,1.128-11.565-3.876-15.181
			c-4.834-3.493-11.251-3.089-15.222,0.675c0.228-0.425,0.487-0.839,0.777-1.241c3.716-5.141,11.138-6.131,16.564-2.209
			c5.426,3.923,6.816,11.28,3.1,16.422C433.947,111.957,433.498,112.468,433.011,112.93z"/>
		<path style="fill-rule:evenodd;clip-rule:evenodd;fill:#F1F1F1;" d="M394.647,94.681c-2.983-4.865-9.421-6.803-15.065-4.304
			c-5.455,2.414-8.34,8.161-7.091,13.487c-0.252-0.411-0.479-0.843-0.68-1.296c-2.568-5.801,0.319-12.71,6.441-15.42
			c6.123-2.71,13.178-0.2,15.745,5.6C394.278,93.381,394.493,94.027,394.647,94.681z"/>
	</g>
	<g>
		<path style="fill-rule:evenodd;clip-rule:evenodd;fill:#F1F1F1;" d="M309.811,426.671c2.672-4.455,8.393-7.537,15.013-7.537
			c5.146,0,9.748,1.862,12.799,4.784c3.102-1.721,6.973-2.743,11.167-2.743c9.338,0,17.067,5.065,18.295,11.63
			c7.153,2.191,12.297,8.215,12.297,15.296c0,1.561-0.25,3.07-0.716,4.498c5.928,0.354,12.839,0.776,19.485,1.206
			c14.156,0.489,23.677,1.203,26.279,2.07c0.129,0.024,0.23,0.047,0.303,0.068c0.113,0.033,0.151,0.068,0.116,0.103
			c0.199,0.104,0.301,0.21,0.301,0.319c0,1.516-19.894,3.029-49.474,4.023c0.439,1.277,0.674,2.625,0.674,4.018
			c0,8.037-7.819,14.562-17.452,14.562c-1.264,0-2.496-0.112-3.684-0.326c-2.645,1.686-6.155,2.714-10.006,2.714
			c-3.686,0-7.061-0.942-9.663-2.502c-2.827,1.575-6.283,2.502-10.011,2.502c-4.03,0-7.742-1.083-10.688-2.899
			c-2.512,1.795-5.919,2.899-9.668,2.899c-5.905,0-10.96-2.737-13.009-6.602c-1.21,0.256-2.485,0.393-3.802,0.393
			c-7.719,0-13.986-4.708-13.986-10.507c0-0.481,0.043-0.955,0.127-1.419c-1.188-0.502-2.248-1.164-3.13-1.949
			c-27.353-0.475-45.46-1.577-45.46-3.023c0-1.398,16.922-2.794,42.753-3.782c0.662-4.355,5.437-7.739,11.221-7.739
			c0.185,0,0.37,0.003,0.552,0.01c0.656-5.809,6.689-10.515,14.459-11.46c1.153-4.936,6.673-8.681,13.301-8.681
			C308.745,426.597,309.282,426.622,309.811,426.671z"/>
		<g>
			<defs>
				<path id="SVGID_00000057855260216656121630000004701880236112809662_" d="M309.811,426.671
					c2.672-4.455,8.393-7.537,15.013-7.537c5.146,0,9.748,1.862,12.799,4.784c3.102-1.721,6.973-2.743,11.167-2.743
					c9.338,0,17.067,5.065,18.295,11.63c7.153,2.191,12.297,8.215,12.297,15.296c0,1.561-0.25,3.07-0.716,4.498
					c5.928,0.354,12.839,0.776,19.485,1.206c14.156,0.489,23.677,1.203,26.279,2.07c0.129,0.024,0.23,0.047,0.303,0.068
					c0.113,0.033,0.151,0.068,0.116,0.103c0.199,0.104,0.301,0.21,0.301,0.319c0,1.516-19.894,3.029-49.474,4.023
					c0.439,1.277,0.674,2.625,0.674,4.018c0,8.037-7.819,14.562-17.452,14.562c-1.264,0-2.496-0.112-3.684-0.326
					c-2.645,1.686-6.155,2.714-10.006,2.714c-3.686,0-7.061-0.942-9.663-2.502c-2.827,1.575-6.283,2.502-10.011,2.502
					c-4.03,0-7.742-1.083-10.688-2.899c-2.512,1.795-5.919,2.899-9.668,2.899c-5.905,0-10.96-2.737-13.009-6.602
					c-1.21,0.256-2.485,0.393-3.802,0.393c-7.719,0-13.986-4.708-13.986-10.507c0-0.481,0.043-0.955,0.127-1.419
					c-1.188-0.502-2.248-1.164-3.13-1.949c-27.353-0.475-45.46-1.577-45.46-3.023c0-1.398,16.922-2.794,42.753-3.782
					c0.662-4.355,5.437-7.739,11.221-7.739c0.185,0,0.37,0.003,0.552,0.01c0.656-5.809,6.689-10.515,14.459-11.46
					c1.153-4.936,6.673-8.681,13.301-8.681C308.745,426.597,309.282,426.622,309.811,426.671z"/>
			</defs>
			<clipPath id="SVGID_00000057853259218544588450000006208424807791397284_">
				<use xlink:href="#SVGID_00000057855260216656121630000004701880236112809662_"  style="overflow:visible;"/>
			</clipPath>
			
				<path style="clip-path:url(#SVGID_00000057853259218544588450000006208424807791397284_);fill-rule:evenodd;clip-rule:evenodd;fill:#FFFFFF;" d="
				M309.349,421.136c2.672-4.455,8.393-7.537,15.013-7.537c5.146,0,9.748,1.862,12.799,4.784c3.102-1.721,6.973-2.743,11.166-2.743
				c9.338,0,17.067,5.065,18.295,11.63c7.153,2.191,12.297,8.215,12.297,15.295c0,1.561-0.251,3.07-0.717,4.498
				c5.928,0.354,12.839,0.776,19.485,1.206c14.156,0.489,23.677,1.203,26.279,2.07c0.129,0.024,0.23,0.047,0.303,0.068
				c0.113,0.033,0.151,0.068,0.116,0.103c0.199,0.104,4.079,5.047,4.079,5.155c0,1.516-25.881,1.398-55.462,2.391
				c0.44,1.277,0.84,2.297,0.84,3.691c0,8.037-5.777,11.684-15.409,11.684c-1.264,0-2.496-0.112-3.684-0.326
				c-2.645,1.686-6.155,2.714-10.006,2.714c-3.686,0-7.061-0.942-9.663-2.502c-2.827,1.575-6.283,2.502-10.011,2.502
				c-4.03,0-7.742-1.083-10.688-2.899c-2.512,1.795-5.919,2.899-9.668,2.899c-5.905,0-10.96-2.737-13.009-6.602
				c-1.21,0.256-2.485,0.393-3.802,0.393c-7.719,0-13.986-4.708-13.986-10.507c0-0.481,0.043-0.955,0.127-1.419
				c-1.188-0.502-48.128,2.01-48.128,0.564c0-1.398,16.46-8.329,42.291-9.317c0.662-4.355,5.437-7.739,11.221-7.739
				c0.185,0,0.37,0.003,0.552,0.01c0.656-5.809,6.689-10.515,14.458-11.46c1.153-4.936,6.673-8.681,13.301-8.681
				C308.284,421.062,308.821,421.087,309.349,421.136z"/>
		</g>
		<path style="fill-rule:evenodd;clip-rule:evenodd;fill:#F1F1F1;" d="M353.99,458.175c0.749-3.68-1.481-7.503-5.32-8.835
			c-3.71-1.286-7.679,0.184-9.468,3.309c0.063-0.311,0.147-0.621,0.254-0.929c1.368-3.945,5.859-5.974,10.024-4.53
			c4.164,1.444,6.434,5.819,5.066,9.764C354.396,457.384,354.21,457.792,353.99,458.175z"/>
		<path style="fill-rule:evenodd;clip-rule:evenodd;fill:#F1F1F1;" d="M371.6,445.05c0.748-3.68-1.482-7.503-5.321-8.835
			c-3.709-1.286-7.679,0.184-9.468,3.308c0.063-0.311,0.148-0.621,0.254-0.929c1.369-3.945,5.86-5.974,10.024-4.53
			c4.164,1.444,6.435,5.819,5.066,9.764C372.006,444.259,371.819,444.667,371.6,445.05z"/>
		<path style="fill-rule:evenodd;clip-rule:evenodd;fill:#F1F1F1;" d="M293.89,449.301c0.599-2.952-1.189-6.018-4.269-7.086
			c-2.975-1.032-6.159,0.147-7.594,2.654c0.051-0.25,0.119-0.498,0.204-0.745c1.097-3.164,4.7-4.792,8.04-3.634
			c3.34,1.158,5.162,4.668,4.064,7.831C294.215,448.667,294.066,448.994,293.89,449.301z"/>
		<path style="fill-rule:evenodd;clip-rule:evenodd;fill:#F1F1F1;" d="M332.458,463.386c-0.583,4.518,2.448,8.949,7.209,10.224
			c4.601,1.233,9.274-0.893,11.167-4.829c-0.05,0.382-0.125,0.765-0.227,1.146c-1.311,4.892-6.568,7.74-11.733,6.356
			s-8.293-6.479-6.982-11.371C332.037,464.378,332.227,463.869,332.458,463.386z"/>
		<path style="fill-rule:evenodd;clip-rule:evenodd;fill:#F1F1F1;" d="M298.446,466.745c1.671,4.238,6.465,6.654,11.25,5.471
			c4.623-1.143,7.689-5.261,7.445-9.622c0.141,0.358,0.26,0.73,0.355,1.113c1.215,4.917-2.012,9.949-7.202,11.232
			c-5.191,1.283-10.391-1.668-11.606-6.584C298.555,467.818,298.475,467.28,298.446,466.745z"/>
		<path style="fill-rule:evenodd;clip-rule:evenodd;fill:#F1F1F1;" d="M274.824,453.469c-1.336,4.355,0.906,9.233,5.386,11.292
			c4.327,1.989,9.292,0.681,11.82-2.881c-0.113,0.368-0.251,0.733-0.416,1.092c-2.115,4.602-7.777,6.524-12.634,4.291
			c-4.858-2.233-7.084-7.782-4.969-12.384C274.24,454.376,274.514,453.905,274.824,453.469z"/>
		<path style="fill-rule:evenodd;clip-rule:evenodd;fill:#F1F1F1;" d="M321.023,442.466c-3.158-3.283-8.51-3.693-12.486-0.779
			c-3.841,2.816-5.11,7.791-3.224,11.731c-0.268-0.277-0.519-0.576-0.752-0.894c-2.994-4.084-1.924-9.967,2.388-13.128
			c4.312-3.161,10.244-2.411,13.238,1.673C320.513,441.515,320.792,441.983,321.023,442.466z"/>
		<path style="fill-rule:evenodd;clip-rule:evenodd;fill:#F1F1F1;" d="M342.627,440.433c1.877-3.523,0.764-8.094-2.745-10.614
			c-3.39-2.435-7.88-2.139-10.65,0.503c0.159-0.298,0.339-0.588,0.541-0.869c2.59-3.605,7.781-4.312,11.586-1.579
			c3.805,2.733,4.793,7.879,2.204,11.483C343.28,439.75,342.966,440.109,342.627,440.433z"/>
	</g>
	<g>
		<path style="fill-rule:evenodd;clip-rule:evenodd;fill:#F1F1F1;" d="M140.793,255.255c3.661-8.209,11.533-13.893,20.647-13.893
			c10.164,0,18.785,7.069,21.74,16.827c1.372-0.298,2.804-0.455,4.277-0.455c8.258,0,15.257,4.949,17.613,11.764
			c1.646-0.468,3.399-0.72,5.216-0.72c9.507,0,17.225,6.905,17.225,15.412c0,2.646-0.748,5.137-2.062,7.314
			c12.003,1.228,43.026,3.075,45.774,3.957c3.348,1.075-28.703,1.956-39.152,2.767c-2.195,0.17-4.561,1.508-4.561,2.388
			c0,9.065-10.475,16.425-23.376,16.425c-5.175,0-9.959-1.184-13.834-3.188c-3.138,4.347-8.645,7.232-14.908,7.232
			c-5.772,0-10.902-2.451-14.128-6.238c-3.536,2.61-8.496,4.232-13.983,4.232c-6.377,0-12.042-2.193-15.589-5.577
			c-3.86,2.173-9.443,3.54-15.648,3.54c-11.559,0-20.958-4.741-21.086-10.605c-3.953-0.495-9.192-1.086-16.245-1.191
			c-15.332-0.23-44.497-0.565-46.438-1.711c-1.934-1.142,16.439-3.98,41.379-5.538c-0.714-0.94-1.119-2.012-1.119-3.15
			c0-3.728,4.347-6.754,9.702-6.754c2.167,0,4.168,0.495,5.783,1.332c0.313-6.265,7.149-11.279,15.524-11.279
			c0.918,0,1.818,0.06,2.693,0.176c0.948-3.255,3.08-6.076,5.952-8.06c0.816-9.354,9.49-16.725,20.054-16.725
			C135.3,253.536,138.198,254.152,140.793,255.255z"/>
		<g>
			<defs>
				<path id="SVGID_00000173160049362424914900000007602097270395934850_" d="M140.793,255.255
					c3.661-8.209,11.533-13.893,20.647-13.893c10.164,0,18.785,7.069,21.74,16.827c1.372-0.298,2.804-0.455,4.277-0.455
					c8.258,0,15.257,4.949,17.613,11.764c1.646-0.468,3.399-0.72,5.216-0.72c9.507,0,17.225,6.905,17.225,15.412
					c0,2.646-0.748,5.137-2.062,7.314c12.003,1.228,43.026,3.075,45.774,3.957c3.348,1.075-28.703,1.956-39.152,2.767
					c-2.195,0.17-4.561,1.508-4.561,2.388c0,9.065-10.475,16.425-23.376,16.425c-5.175,0-9.959-1.184-13.834-3.188
					c-3.138,4.347-8.645,7.232-14.908,7.232c-5.772,0-10.902-2.451-14.128-6.238c-3.536,2.61-8.496,4.232-13.983,4.232
					c-6.377,0-12.042-2.193-15.589-5.577c-3.86,2.173-9.443,3.54-15.648,3.54c-11.559,0-20.958-4.741-21.086-10.605
					c-3.953-0.495-9.192-1.086-16.245-1.191c-15.332-0.23-44.497-0.565-46.438-1.711c-1.934-1.142,16.439-3.98,41.379-5.538
					c-0.714-0.94-1.119-2.012-1.119-3.15c0-3.728,4.347-6.754,9.702-6.754c2.167,0,4.168,0.495,5.783,1.332
					c0.313-6.265,7.149-11.279,15.524-11.279c0.918,0,1.818,0.06,2.693,0.176c0.948-3.255,3.08-6.076,5.952-8.06
					c0.816-9.354,9.49-16.725,20.054-16.725C135.3,253.536,138.198,254.152,140.793,255.255z"/>
			</defs>
			<clipPath id="SVGID_00000129890695070409135020000003305264070036138157_">
				<use xlink:href="#SVGID_00000173160049362424914900000007602097270395934850_"  style="overflow:visible;"/>
			</clipPath>
			
				<path style="clip-path:url(#SVGID_00000129890695070409135020000003305264070036138157_);fill-rule:evenodd;clip-rule:evenodd;fill:#FFFFFF;" d="
				M138.637,247.709c3.66-8.209,11.533-13.893,20.647-13.893c10.163,0,18.784,7.069,21.739,16.827
				c1.372-0.298,2.805-0.455,4.278-0.455c8.258,0,15.257,4.949,17.613,11.764c1.646-0.468,3.399-0.72,5.216-0.72
				c9.507,0,19.786,5.11,19.786,13.615c0,2.647,2.962,5.786,1.647,7.962c12.002,1.228,43.644,11.73,46.392,12.612
				c3.348,1.075-35.239-1.489-45.686-0.678c-2.195,0.17-4.561,1.509-4.561,2.388c0,9.065-10.827,12.363-23.729,12.363
				c-5.175,0-9.959-1.184-13.834-3.188c-3.138,4.347-8.645,7.232-14.908,7.232c-5.772,0-10.902-2.451-14.128-6.238
				c-3.537,2.609-8.496,4.233-13.983,4.233c-6.377,0-12.042-2.193-15.589-5.578c-3.86,2.173-9.443,3.54-15.649,3.54
				c-11.559,0-20.958-4.741-21.086-10.605c-2.01,3.832-5.329,3.627-12.381,3.501c-5.12-0.092-50.982,1.229-52.924,0.082
				c-1.934-1.142,19.06-10.465,44-12.023c-0.714-0.94-1.119-2.012-1.119-3.15c0-3.728,4.347-6.754,9.702-6.754
				c2.166,0,4.168,0.495,5.783,1.332c0.313-6.265,7.149-11.28,15.524-11.28c0.918,0,1.818,0.06,2.693,0.177
				c0.948-3.255,3.08-6.076,5.952-8.06c0.817-9.354,9.49-16.725,20.054-16.725C133.144,245.99,136.041,246.606,138.637,247.709z"/>
		</g>
		<path style="fill-rule:evenodd;clip-rule:evenodd;fill:#F1F1F1;" d="M124.587,294.169c-1.104,5.104,1.823,10.402,6.993,12.245
			c4.994,1.78,10.408-0.262,12.909-4.596c-0.094,0.432-0.215,0.862-0.368,1.288c-1.95,5.471-8.085,8.289-13.691,6.29
			c-5.607-1.998-8.576-8.061-6.626-13.532C124.018,295.267,124.28,294.702,124.587,294.169z"/>
		<path style="fill-rule:evenodd;clip-rule:evenodd;fill:#F1F1F1;" d="M90.162,290.841c-0.923,4.429,1.828,9.093,6.566,10.782
			c4.577,1.631,9.475-0.06,11.683-3.798c-0.078,0.375-0.182,0.748-0.314,1.117c-1.688,4.735-7.23,7.093-12.368,5.261
			c-5.138-1.831-7.94-7.163-6.252-11.898C89.661,291.789,89.892,291.3,90.162,290.841z"/>
		<path style="fill-rule:evenodd;clip-rule:evenodd;fill:#F1F1F1;" d="M144.489,270.817c-3.38-3.98-9.366-4.879-13.973-1.897
			c-4.451,2.881-6.123,8.421-4.204,13.042c-0.285-0.336-0.552-0.695-0.799-1.075c-3.156-4.875-1.662-11.46,3.336-14.694
			c4.996-3.234,11.615-1.903,14.77,2.972C143.965,269.698,144.254,270.25,144.489,270.817z"/>
		<path style="fill-rule:evenodd;clip-rule:evenodd;fill:#F1F1F1;" d="M157.746,296.891c-1.103,5.103,1.823,10.401,6.993,12.244
			c4.994,1.78,10.407-0.262,12.908-4.597c-0.093,0.432-0.215,0.862-0.368,1.288c-1.95,5.471-8.084,8.289-13.691,6.29
			c-5.607-1.998-8.576-8.061-6.626-13.532C157.176,297.987,157.44,297.422,157.746,296.891z"/>
		<path style="fill-rule:evenodd;clip-rule:evenodd;fill:#F1F1F1;" d="M169.109,277.685c3.075-4.22,2.542-10.25-1.439-14.027
			c-3.846-3.649-9.623-3.974-13.665-1.023c0.26-0.357,0.546-0.701,0.858-1.029c3.997-4.213,10.748-4.306,15.065-0.21
			c4.318,4.097,4.577,10.844,0.58,15.057C170.073,276.912,169.604,277.323,169.109,277.685z"/>
		<path style="fill-rule:evenodd;clip-rule:evenodd;fill:#F1F1F1;" d="M199.348,293.991c3.463-4.936,2.718-11.896-1.966-16.186
			c-4.526-4.147-11.212-4.411-15.82-0.924c0.292-0.417,0.615-0.82,0.969-1.206c4.53-4.945,12.333-5.181,17.413-0.527
			c5.08,4.654,5.527,12.447,0.997,17.392C200.447,293.08,199.913,293.564,199.348,293.991z"/>
	</g>
	<g>
		<path style="fill-rule:evenodd;clip-rule:evenodd;fill:#F1F1F1;" d="M116.325,435.392c0.843-5.165,6.293-9.156,12.884-9.156
			c6.828,0,12.434,4.286,12.957,9.723c1.857,0.327,3.329,1.568,3.751,3.152c0.574-0.19,1.19-0.294,1.833-0.294
			c1.117,0,2.155,0.313,3.02,0.849c1.622-1.433,3.77-2.306,6.125-2.306c4.108,0,7.586,2.655,8.739,6.305
			c0.948-0.307,1.968-0.475,3.029-0.475c4.654,0,8.505,3.214,9.103,7.375c3.351,0.29,5.949,2.331,5.949,4.803
			c0,0.46-0.09,0.904-0.257,1.326c0.026-0.001,0.051-0.001,0.077-0.001c1.381,0,2.501,0.972,2.501,2.168
			c0,0.335-0.088,0.653-0.245,0.936c10.799,0.901,24.067,1.704,25.482,1.877c2.411,0.293-179.677-0.382-179.677-0.382
			s11.346-0.724,17.95-1.523c4.719-0.571,3.478-1.325,3.852-2.265c0.512-1.289,2.544-2.252,4.97-2.252
			c0.805,0,1.567,0.106,2.244,0.295c0.184-2.789,3.659-5.017,7.913-5.017c1.943,0,3.723,0.465,5.102,1.235
			c0.318-2.298,2.555-4.125,5.372-4.39c0.772-3.88,4.368-6.819,8.681-6.819c1.665,0,3.223,0.438,4.554,1.199
			c1.277-2.891,4.737-4.966,8.801-4.966c2.183,0,4.192,0.599,5.782,1.602c1.3-2.126,3.75-3.56,6.555-3.56
			C114.419,434.83,115.418,435.03,116.325,435.392z"/>
		<g>
			<defs>
				<path id="SVGID_00000013194678399457902760000002615491608881032117_" d="M116.325,435.392
					c0.843-5.165,6.293-9.156,12.884-9.156c6.828,0,12.434,4.286,12.957,9.723c1.857,0.327,3.329,1.568,3.751,3.152
					c0.574-0.19,1.19-0.294,1.833-0.294c1.117,0,2.155,0.313,3.02,0.849c1.622-1.433,3.77-2.306,6.125-2.306
					c4.108,0,7.586,2.655,8.739,6.305c0.948-0.307,1.968-0.475,3.029-0.475c4.654,0,8.505,3.214,9.103,7.375
					c3.351,0.29,5.949,2.331,5.949,4.803c0,0.46-0.09,0.904-0.257,1.326c0.026-0.001,0.051-0.001,0.077-0.001
					c1.381,0,2.501,0.972,2.501,2.168c0,0.335-0.088,0.653-0.245,0.936c10.799,0.901,24.067,1.704,25.482,1.877
					c2.411,0.293-179.677-0.382-179.677-0.382s11.346-0.724,17.95-1.523c4.719-0.571,3.478-1.325,3.852-2.265
					c0.512-1.289,2.544-2.252,4.97-2.252c0.805,0,1.567,0.106,2.244,0.295c0.184-2.789,3.659-5.017,7.913-5.017
					c1.943,0,3.723,0.465,5.102,1.235c0.318-2.298,2.555-4.125,5.372-4.39c0.772-3.88,4.368-6.819,8.681-6.819
					c1.665,0,3.223,0.438,4.554,1.199c1.277-2.891,4.737-4.966,8.801-4.966c2.183,0,4.192,0.599,5.782,1.602
					c1.3-2.126,3.75-3.56,6.555-3.56C114.419,434.83,115.418,435.03,116.325,435.392z"/>
			</defs>
			<clipPath id="SVGID_00000082347247691359221900000002938500700253101482_">
				<use xlink:href="#SVGID_00000013194678399457902760000002615491608881032117_"  style="overflow:visible;"/>
			</clipPath>
			
				<path style="clip-path:url(#SVGID_00000082347247691359221900000002938500700253101482_);fill-rule:evenodd;clip-rule:evenodd;fill:#FFFFFF;" d="
				M92.492,457.601c-0.244,0.856-1.402,1.485-2.161,1.737c-2.247,0.749-4.989,0.466-7.043-0.725c-0.69-0.4-1.838-1.86-2.715-1.725
				c-0.879,0.135-1.544,1.231-2.179,1.753c-1.136,0.933-2.452,1.513-3.923,1.641c-1.879,0.163-3.65-0.423-5.224-1.423
				c-0.636-0.404-1.621-1.601-2.413-1.619c-0.486-0.011-0.969,0.685-1.255,0.993c-0.587,0.632-1.351,1.247-2.207,1.457
				c-1.617,0.397-3.531,0.013-5.087-0.476c-0.571-0.179-1.135-0.522-1.728-0.61c-0.784-0.117-1.403,0.915-2.164,1.087
				c-2.386,0.537-4.946-0.964-5.99-3.07c-1.571-3.167,1.785-5.438,4.019-7.13c3.295-2.496,6.985-3.665,11.031-4.297
				c2.952-0.461,5.995-0.286,8.652-1.831c8.815-3.918,14.746-11.356,23.45-15.559c12.172-5.878,25.509-6.111,38.707-5.168
				c8.621,0.616,17.148,1.663,24.954,5.635c4.335,2.205,8.536,5.528,11.66,9.27c2.838,3.4,4.855,8.546,8.549,11.145
				c0.628,0.418,1.028,1.486,1.201,2.159c0.62,2.405-0.131,4.678-2.212,6.077c-1.411,0.949-3.24,1.307-4.895,0.908
				c-0.947-0.228-2.017-1.022-3.022-0.825c-0.901,0.177-1.612,1.016-2.372,1.475c-1.584,0.956-3.401,1.719-5.271,1.775
				c-2.785,0.084-5.738-0.887-8.141-2.242c-0.822-0.464-1.609-0.956-2.3-1.604c-0.301-0.282-0.734-0.836-1.193-0.836
				c-0.896,0-2.104,1.737-2.817,2.197c-1.524,0.984-3.447,1.439-5.234,1.581c-2.987,0.238-6.059-0.349-8.764-1.634
				c-0.899-0.427-1.776-0.903-2.611-1.444c-0.407-0.264-0.963-0.823-1.483-0.832c-1.017-0.018-2.124,1.832-2.744,2.451
				c-1.207,1.208-2.739,1.874-4.427,2.064c-2.215,0.249-4.319-0.284-6.503-0.483c-2.749-0.25-5.357,0.122-7.943-1.148
				c-1.166-0.573-2.149-1.493-3.018-2.448c-0.36-0.395-0.898-1.364-1.452-1.516c-0.371-0.102-0.484,0.905-0.532,1.091
				c-0.287,1.113-0.628,2.419-1.684,3.052c-2.723,1.634-6.828,0.536-9.384-0.939"/>
		</g>
		<path style="fill-rule:evenodd;clip-rule:evenodd;fill:#F1F1F1;" d="M147.15,444.642c-0.603,4.667,2.527,9.243,7.445,10.561
			c4.751,1.273,9.579-0.922,11.534-4.988c-0.051,0.394-0.129,0.79-0.234,1.184c-1.354,5.053-6.784,7.994-12.117,6.565
			c-5.335-1.429-8.566-6.692-7.212-11.745C146.713,445.667,146.91,445.141,147.15,444.642z"/>
		<path style="fill-rule:evenodd;clip-rule:evenodd;fill:#F1F1F1;" d="M101.487,445.781c-0.603,4.666,2.528,9.243,7.446,10.56
			c4.752,1.273,9.579-0.922,11.534-4.988c-0.051,0.394-0.129,0.79-0.234,1.184c-1.354,5.053-6.783,7.994-12.117,6.565
			c-5.334-1.429-8.565-6.692-7.212-11.744C101.051,446.806,101.247,446.28,101.487,445.781z"/>
		<path style="fill-rule:evenodd;clip-rule:evenodd;fill:#F1F1F1;" d="M119.69,457.146c3.365,1.822,7.753,0.785,10.192-2.562
			c2.355-3.234,2.101-7.539-0.413-10.212c0.285,0.154,0.562,0.328,0.83,0.524c3.439,2.505,4.083,7.486,1.438,11.116
			c-2.645,3.63-7.583,4.543-11.022,2.038C120.341,457.777,119.999,457.474,119.69,457.146z"/>
		<path style="fill-rule:evenodd;clip-rule:evenodd;fill:#F1F1F1;" d="M79.299,449.398c0.032,3.827,3.062,7.167,7.17,7.683
			c3.97,0.499,7.616-1.805,8.74-5.298c0.003,0.324-0.016,0.651-0.058,0.98c-0.53,4.221-4.579,7.193-9.035,6.633
			c-4.456-0.56-7.643-4.442-7.113-8.663C79.061,450.272,79.161,449.826,79.299,449.398z"/>
	</g>
	<g>
		<path style="fill-rule:evenodd;clip-rule:evenodd;fill:#F1F1F1;" d="M427.136,253.505c3.015-3.969,8.128-6.581,13.921-6.581
			c8.184,0,15.006,5.211,16.483,12.096c7.606,1.328,13.335,7.085,13.335,13.977c0,0.777-0.073,1.54-0.213,2.283
			c3.528,2.944,5.75,7.223,5.75,11.982c0,6.915-4.691,12.817-11.265,15.082c0.025,0.327,0.038,0.657,0.038,0.99
			c0,8.233-7.649,14.919-17.072,14.919c-4.21,0-8.066-1.335-11.043-3.545c-1.897,0.604-3.923,0.931-6.028,0.931
			c-3.353,0-6.508-0.83-9.255-2.289c-3.751,3.038-8.825,4.904-14.408,4.904c-6.714,0-12.691-2.698-16.515-6.885
			c-3.196,2.599-8.159,4.27-13.728,4.27c-4.26,0-8.166-0.978-11.197-2.601c-2.461,1.61-5.806,2.601-9.49,2.601
			c-7.341,0-13.34-3.938-13.673-8.873c-18.091-0.259-35.35-0.432-41.271-0.738c-0.061-0.003,32.15-4.728,35.191-7.274
			c0.078-0.065,0.153-0.135,0.225-0.209c-0.498-1-0.773-2.096-0.773-3.246c0-4.69,4.582-8.497,10.227-8.497
			c2.683,0,5.127,0.86,6.951,2.267c2.04-2.459,5.793-4.109,10.082-4.109c2.507,0,4.829,0.563,6.734,1.522
			c0.199-6.352,6.302-11.455,13.788-11.455c0.911,0,1.801,0.075,2.663,0.219c-0.074-0.482-0.111-0.975-0.111-1.475
			c0-6.175,5.751-11.189,12.833-11.189c1.509,0,2.956,0.228,4.301,0.645c0.39-2.225,1.4-4.274,2.871-6.009
			c1.025-1.439,2.414-2.724,4.292-3.474c2.432-1.335,5.314-2.108,8.402-2.108C422.082,251.633,424.801,252.316,427.136,253.505z"/>
		<g>
			<defs>
				<path id="SVGID_00000011739157612990960370000002936592200004197516_" d="M427.136,253.505
					c3.015-3.969,8.128-6.581,13.921-6.581c8.184,0,15.006,5.211,16.483,12.096c7.606,1.328,13.335,7.085,13.335,13.977
					c0,0.777-0.073,1.54-0.213,2.283c3.528,2.944,5.75,7.223,5.75,11.982c0,6.915-4.691,12.817-11.265,15.082
					c0.025,0.327,0.038,0.657,0.038,0.99c0,8.233-7.649,14.919-17.072,14.919c-4.21,0-8.066-1.335-11.043-3.545
					c-1.897,0.604-3.923,0.931-6.028,0.931c-3.353,0-6.508-0.83-9.255-2.289c-3.751,3.038-8.825,4.904-14.408,4.904
					c-6.714,0-12.691-2.698-16.515-6.885c-3.196,2.599-8.159,4.27-13.728,4.27c-4.26,0-8.166-0.978-11.197-2.601
					c-2.461,1.61-5.806,2.601-9.49,2.601c-7.341,0-13.34-3.938-13.673-8.873c-18.091-0.259-35.35-0.432-41.271-0.738
					c-0.061-0.003,32.15-4.728,35.191-7.274c0.078-0.065,0.153-0.135,0.225-0.209c-0.498-1-0.773-2.096-0.773-3.246
					c0-4.69,4.582-8.497,10.227-8.497c2.683,0,5.127,0.86,6.951,2.267c2.04-2.459,5.793-4.109,10.082-4.109
					c2.507,0,4.829,0.563,6.734,1.522c0.199-6.352,6.302-11.455,13.788-11.455c0.911,0,1.801,0.075,2.663,0.219
					c-0.074-0.482-0.111-0.975-0.111-1.475c0-6.175,5.751-11.189,12.833-11.189c1.509,0,2.956,0.228,4.301,0.645
					c0.39-2.225,1.4-4.274,2.871-6.009c1.025-1.439,2.414-2.724,4.292-3.474c2.432-1.335,5.314-2.108,8.402-2.108
					C422.082,251.633,424.801,252.316,427.136,253.505z"/>
			</defs>
			<clipPath id="SVGID_00000076582391121831650920000015731345350891147676_">
				<use xlink:href="#SVGID_00000011739157612990960370000002936592200004197516_"  style="overflow:visible;"/>
			</clipPath>
			
				<path style="clip-path:url(#SVGID_00000076582391121831650920000015731345350891147676_);fill-rule:evenodd;clip-rule:evenodd;fill:#FFFFFF;" d="
				M425.561,246.68c3.016-3.97,8.128-6.581,13.922-6.581c8.183,0,15.006,5.211,16.483,12.096
				c7.606,1.329,13.335,7.085,13.335,13.977c0,0.777-0.073,1.54-0.213,2.284c3.528,2.944,5.75,7.223,5.75,11.982
				c0,6.915-4.691,12.816-11.265,15.081c0.025,0.327,0.038,0.658,0.038,0.991c0,8.234-7.65,14.918-17.072,14.918
				c-4.21,0-8.066-1.334-11.044-3.545c-1.897,0.604-3.923,0.931-6.029,0.931c-3.354,0-6.508-0.83-9.256-2.288
				c-3.75,3.038-8.825,4.903-14.407,4.903c-6.714,0-12.691-2.697-16.515-6.884c-3.197,2.598-8.159,4.269-13.728,4.269
				c-4.26,0-8.166-0.977-11.198-2.601c-2.46,1.611-5.805,2.601-9.489,2.601c-7.341,0-9.613-2.217-9.946-7.152
				c-16.848,2.225-40.414,5.302-46.335,4.995c-0.062-0.003,33.487-12.182,36.529-14.729c0.078-0.065,0.153-0.134,0.225-0.208
				c-0.498-1-0.774-2.096-0.774-3.246c0-4.69,4.583-8.498,10.228-8.498c2.683,0,5.126,0.86,6.951,2.267
				c2.04-2.458,5.793-4.108,10.082-4.108c2.506,0,4.829,0.562,6.734,1.521c0.199-6.351,6.301-11.455,13.788-11.455
				c0.91,0,1.801,0.076,2.663,0.219c-0.074-0.482-0.112-0.974-0.112-1.474c0-6.176,5.751-11.189,12.834-11.189
				c1.508,0,2.956,0.227,4.3,0.645c0.39-2.225,1.401-4.274,2.871-6.01c1.026-1.439,2.414-2.724,4.293-3.473
				c2.431-1.335,5.313-2.108,8.402-2.108C420.507,244.809,423.226,245.49,425.561,246.68z"/>
		</g>
		<path style="fill-rule:evenodd;clip-rule:evenodd;fill:#F1F1F1;" d="M450.058,300.978c2.228-3.341,1.255-8.399-2.432-11.777
			c-3.563-3.264-8.466-3.866-11.619-1.638c0.188-0.283,0.4-0.553,0.634-0.809c3.007-3.282,8.695-2.973,12.694,0.692
			c3.999,3.663,4.805,9.302,1.799,12.585C450.806,300.389,450.446,300.704,450.058,300.978z"/>
		<path style="fill-rule:evenodd;clip-rule:evenodd;fill:#F1F1F1;" d="M369.464,300.794c3.461,4.937,10.259,6.606,15.889,3.664
			c5.439-2.844,7.965-9.04,6.255-14.561c0.293,0.418,0.562,0.858,0.804,1.322c3.107,5.943,0.672,13.36-5.433,16.552
			c-6.106,3.192-13.586,0.958-16.693-4.985C369.947,302.137,369.674,301.471,369.464,300.794z"/>
		<path style="fill-rule:evenodd;clip-rule:evenodd;fill:#F1F1F1;" d="M349.801,292.729c-3.736,1.258-6.084,4.715-5.338,8.108
			c0.72,3.279,4.087,5.401,7.848,5.158c-0.316,0.106-0.642,0.197-0.976,0.27c-4.294,0.943-8.437-1.279-9.245-4.959
			c-0.809-3.681,2.021-7.435,6.315-8.378C348.873,292.824,349.34,292.759,349.801,292.729z"/>
		<path style="fill-rule:evenodd;clip-rule:evenodd;fill:#F1F1F1;" d="M417.657,298.065c-0.622,4.191,2.418,8.501,7.233,9.959
			c4.653,1.408,9.404-0.319,11.349-3.893c-0.053,0.354-0.131,0.708-0.238,1.059c-1.362,4.5-6.708,6.87-11.931,5.288
			c-5.223-1.581-8.358-6.518-6.996-11.017C417.223,298.969,417.419,298.503,417.657,298.065z"/>
		<path style="fill-rule:evenodd;clip-rule:evenodd;fill:#F1F1F1;" d="M435.601,272.471c1.705-4.934-0.567-10.544-5.478-12.992
			c-4.746-2.365-10.365-0.985-13.367,3.019c0.145-0.417,0.318-0.829,0.519-1.234c2.591-5.198,9.019-7.263,14.346-4.608
			c5.327,2.654,7.549,9.029,4.959,14.228C436.297,271.45,435.968,271.98,435.601,272.471z"/>
	</g>
	<g>
		<path style="fill-rule:evenodd;clip-rule:evenodd;fill:#F1F1F1;" d="M141.242,343.223c2.272-4.854,7.275-8.228,13.075-8.228
			c7.935,0,14.377,6.316,14.377,14.095c0,0.161-0.003,0.321-0.008,0.482c1.385-0.592,2.885-0.915,4.449-0.915
			c7.022,0,12.721,6.509,12.721,14.527c0,5.576-2.755,10.421-6.795,12.856c0.643,1.438,0.998,3.025,0.998,4.691
			c0,6.509-5.43,11.794-12.119,11.794c-2.32,0-4.489-0.636-6.332-1.738c-0.285,6.07-6.833,10.931-14.856,10.931
			c-5.789,0-10.81-2.531-13.265-6.22c-2.111,4.48-8.135,7.715-15.227,7.715c-6.044,0-11.311-2.35-14.044-5.817
			c-0.882,0.161-1.8,0.247-2.742,0.247c-4.645,0-8.702-2.072-10.855-5.144c-0.292,0.017-0.589,0.025-0.887,0.025
			c-6.802,0-12.342-4.442-12.492-9.96c-1.275-0.111-2.776-0.229-4.557-0.364c-13.592-1.028-26.593-1.386-36.693-2.349
			c-7.369-0.703,26.75-5.029,38.434-6.81c-2.301-4.225-0.664-10.838,4.245-15.859c3.174-3.247,7.044-5.14,10.539-5.477
			c3.686-6.24,10.979-10.493,19.365-10.493c4.035,0,7.817,0.985,11.066,2.702c2.303-3.555,6.39-5.922,11.044-5.922
			C135.025,337.993,138.876,340.055,141.242,343.223z"/>
		<g>
			<defs>
				<path id="SVGID_00000112619165587161734200000004663457396765999513_" d="M141.242,343.223
					c2.272-4.854,7.275-8.228,13.075-8.228c7.935,0,14.377,6.316,14.377,14.095c0,0.161-0.003,0.321-0.008,0.482
					c1.385-0.592,2.885-0.915,4.449-0.915c7.022,0,12.721,6.509,12.721,14.527c0,5.576-2.755,10.421-6.795,12.856
					c0.643,1.438,0.998,3.025,0.998,4.691c0,6.509-5.43,11.794-12.119,11.794c-2.32,0-4.489-0.636-6.332-1.738
					c-0.285,6.07-6.833,10.931-14.856,10.931c-5.789,0-10.81-2.531-13.265-6.22c-2.111,4.48-8.135,7.715-15.227,7.715
					c-6.044,0-11.311-2.35-14.044-5.817c-0.882,0.161-1.8,0.247-2.742,0.247c-4.645,0-8.702-2.072-10.855-5.144
					c-0.292,0.017-0.589,0.025-0.887,0.025c-6.802,0-12.342-4.442-12.492-9.96c-1.275-0.111-2.776-0.229-4.557-0.364
					c-13.592-1.028-26.593-1.386-36.693-2.349c-7.369-0.703,26.75-5.029,38.434-6.81c-2.301-4.225-0.664-10.838,4.245-15.859
					c3.174-3.247,7.044-5.14,10.539-5.477c3.686-6.24,10.979-10.493,19.365-10.493c4.035,0,7.817,0.985,11.066,2.702
					c2.303-3.555,6.39-5.922,11.044-5.922C135.025,337.993,138.876,340.055,141.242,343.223z"/>
			</defs>
			<clipPath id="SVGID_00000080193920803028339540000001167525293036504971_">
				<use xlink:href="#SVGID_00000112619165587161734200000004663457396765999513_"  style="overflow:visible;"/>
			</clipPath>
			
				<path style="clip-path:url(#SVGID_00000080193920803028339540000001167525293036504971_);fill-rule:evenodd;clip-rule:evenodd;fill:#FFFFFF;" d="
				M141.242,334.861c2.272-4.854,7.275-8.229,13.075-8.229c7.935,0,14.377,6.316,14.377,14.096c0,0.161-0.003,0.321-0.008,0.482
				c1.385-0.592,2.885-0.915,4.449-0.915c7.022,0,12.721,6.509,12.721,14.527c0,5.576-3.978,9.707-8.018,12.143
				c0.642,1.438,1.1,3.737,1.1,5.404c0,6.509-4.309,11.795-10.998,11.795c-2.32,0-4.489-0.636-6.332-1.738
				c-0.285,6.07-6.833,10.931-14.856,10.931c-5.789,0-10.81-2.531-13.265-6.22c-2.111,4.48-8.135,7.716-15.227,7.716
				c-6.044,0-11.311-2.35-14.044-5.817c-0.882,0.161-1.8,0.247-2.742,0.247c-4.645,0-8.702-2.072-10.855-5.144
				c-0.292,0.017-0.589,0.026-0.887,0.026c-6.802,0-9.666-2.149-9.816-7.667c-1.275-0.111-4.56,1.284-6.341,1.421
				c-18.052,1.392-26.211,2.182-40.898,1.729c-7.399-0.229,30.063-13.185,41.747-14.966c-2.301-4.224-0.664-10.837,4.245-15.858
				c3.174-3.247,7.044-5.14,10.539-5.477c3.686-6.24,10.979-10.493,19.365-10.493c4.035,0,7.817,0.985,11.066,2.702
				c2.303-3.555,6.39-5.922,11.044-5.922C135.025,329.631,138.876,331.693,141.242,334.861z"/>
		</g>
		<path style="fill-rule:evenodd;clip-rule:evenodd;fill:#F1F1F1;" d="M152.682,345.214c-2.376-2.707-6.59-3.223-9.835-1.063
			c-3.135,2.086-4.316,5.971-2.968,9.15c-0.2-0.229-0.389-0.474-0.562-0.734c-2.218-3.334-1.162-7.941,2.357-10.284
			c3.519-2.342,8.178-1.537,10.396,1.797C152.314,344.445,152.517,344.824,152.682,345.214z"/>
		<path style="fill-rule:evenodd;clip-rule:evenodd;fill:#F1F1F1;" d="M121.196,362.088c1.256-5.088-1.63-10.547-6.907-12.627
			c-5.097-2.009-10.717-0.189-13.393,4.064c0.106-0.43,0.242-0.858,0.409-1.281c2.136-5.421,8.516-7.99,14.238-5.735
			c5.723,2.255,8.634,8.487,6.498,13.907C121.808,361.008,121.524,361.567,121.196,362.088z"/>
		<path style="fill-rule:evenodd;clip-rule:evenodd;fill:#F1F1F1;" d="M163.863,378.428c1.128-4.568-1.464-9.47-6.201-11.337
			c-4.577-1.803-9.621-0.17-12.025,3.648c0.096-0.386,0.217-0.769,0.367-1.149c1.919-4.867,7.647-7.174,12.785-5.149
			c5.137,2.025,7.751,7.62,5.834,12.487C164.412,377.459,164.158,377.96,163.863,378.428z"/>
		<path style="fill-rule:evenodd;clip-rule:evenodd;fill:#F1F1F1;" d="M170.714,361.699c0.876-3.548-1.137-7.356-4.817-8.806
			c-3.555-1.401-7.475-0.132-9.341,2.835c0.075-0.3,0.169-0.598,0.285-0.893c1.49-3.781,5.939-5.573,9.931-4
			c3.991,1.573,6.021,5.919,4.531,9.699C171.142,360.947,170.944,361.335,170.714,361.699z"/>
		<path style="fill-rule:evenodd;clip-rule:evenodd;fill:#F1F1F1;" d="M79.138,372.197c-0.682,4.13,1.958,8.296,6.289,9.621
			c4.184,1.281,8.544-0.52,10.409-4.074c-0.058,0.349-0.139,0.699-0.245,1.045c-1.362,4.449-6.28,6.894-10.978,5.456
			c-4.697-1.438-7.405-6.216-6.043-10.665C78.718,373.095,78.91,372.633,79.138,372.197z"/>
		<path style="fill-rule:evenodd;clip-rule:evenodd;fill:#F1F1F1;" d="M133.705,383.413c-0.201,3.65,2.485,7.017,6.37,7.758
			c3.754,0.716,7.369-1.26,8.651-4.522c-0.017,0.309-0.054,0.62-0.113,0.931c-0.761,3.992-4.801,6.58-9.014,5.777
			c-4.214-0.803-7.017-4.696-6.256-8.688C133.425,384.232,133.547,383.813,133.705,383.413z"/>
		<path style="fill-rule:evenodd;clip-rule:evenodd;fill:#F1F1F1;" d="M105.45,380.81c-0.305,5.533,3.767,10.637,9.657,11.76
			c5.691,1.085,11.171-1.91,13.115-6.855c-0.026,0.468-0.083,0.939-0.173,1.411c-1.153,6.051-7.277,9.975-13.665,8.757
			c-6.388-1.218-10.638-7.12-9.484-13.171C105.027,382.052,105.212,381.417,105.45,380.81z"/>
	</g>
	<g>
		<path style="fill-rule:evenodd;clip-rule:evenodd;fill:#F1F1F1;" d="M293.811,329.039c1.827-3.621,5.914-6.145,10.659-6.145
			c4.328,0,8.11,2.1,10.127,5.218c2.313-0.943,4.978-1.481,7.815-1.481c7.479,0,13.77,3.74,15.547,8.794
			c1.658-0.28,3.427-0.431,5.264-0.431c9.326,0,16.898,3.895,16.898,8.694c0,1.451-0.693,2.819-1.916,4.023
			c-0.024,0.036-0.048,0.071-0.074,0.107c14.182-0.197,33.305,1.073,35.11,1.48c1.927,0.436-21.339,2.288-27.395,2.615
			c-5.371,0.289-5.222,1.436-11.068,2.147c-1.434,3.935-8.754,6.934-17.557,6.934c-4.697,0-8.972-0.853-12.154-2.248
			c-2.307,1.412-5.168,2.248-8.266,2.248c-2.035,0-3.967-0.36-5.708-1.008c-3.451,2.064-8.378,3.356-13.843,3.356
			c-4.528,0-8.686-0.886-11.942-2.365c-0.683,0.038-1.378,0.062-2.083,0.074c-2.54,1.971-6.171,3.204-10.2,3.204
			c-7.669,0-13.896-4.471-13.896-9.977v-0.018c-12.512-2.741-46.799-2.788-50.192-2.654c-2.654,0.105,24.363-1.943,42.233-5.135
			c-0.289-0.697-0.442-1.422-0.442-2.17c0-5.137,7.24-9.307,16.157-9.307c4.585,0,8.726,1.102,11.667,2.871
			C279.74,332.925,286.103,329.132,293.811,329.039z"/>
		<g>
			<defs>
				<path id="SVGID_00000162349197190929019310000005605788719889196937_" d="M293.811,329.039
					c1.827-3.621,5.914-6.145,10.659-6.145c4.328,0,8.11,2.1,10.127,5.218c2.313-0.943,4.978-1.481,7.815-1.481
					c7.479,0,13.77,3.74,15.547,8.794c1.658-0.28,3.427-0.431,5.264-0.431c9.326,0,16.898,3.895,16.898,8.694
					c0,1.451-0.693,2.819-1.916,4.023c-0.024,0.036-0.048,0.071-0.074,0.107c14.182-0.197,33.305,1.073,35.11,1.48
					c1.927,0.436-21.339,2.288-27.395,2.615c-5.371,0.289-5.222,1.436-11.068,2.147c-1.434,3.935-8.754,6.934-17.557,6.934
					c-4.697,0-8.972-0.853-12.154-2.248c-2.307,1.412-5.168,2.248-8.266,2.248c-2.035,0-3.967-0.36-5.708-1.008
					c-3.451,2.064-8.378,3.356-13.843,3.356c-4.528,0-8.686-0.886-11.942-2.365c-0.683,0.038-1.378,0.062-2.083,0.074
					c-2.54,1.971-6.171,3.204-10.2,3.204c-7.669,0-13.896-4.471-13.896-9.977v-0.018c-12.512-2.741-46.799-2.788-50.192-2.654
					c-2.654,0.105,24.363-1.943,42.233-5.135c-0.289-0.697-0.442-1.422-0.442-2.17c0-5.137,7.24-9.307,16.157-9.307
					c4.585,0,8.726,1.102,11.667,2.871C279.74,332.925,286.103,329.132,293.811,329.039z"/>
			</defs>
			<clipPath id="SVGID_00000167377180134228509410000002067683491937714085_">
				<use xlink:href="#SVGID_00000162349197190929019310000005605788719889196937_"  style="overflow:visible;"/>
			</clipPath>
			
				<path style="clip-path:url(#SVGID_00000167377180134228509410000002067683491937714085_);fill-rule:evenodd;clip-rule:evenodd;fill:#FFFFFF;" d="
				M296.666,323.874c1.827-3.62,5.914-6.145,10.659-6.145c4.328,0,8.109,2.101,10.127,5.219c2.313-0.943,4.978-1.481,7.814-1.481
				c7.48,0,13.771,3.74,15.548,8.793c1.658-0.28,3.426-0.431,5.264-0.431c9.326,0,16.898,3.896,16.898,8.695
				c0,1.451-0.693,2.819-1.916,4.022c-0.024,0.036-0.048,0.072-0.074,0.108c14.182-0.197,37.249,5.943,39.053,6.352
				c1.927,0.436-24.818,0.316-30.875,0.643c-5.37,0.29-5.686-1.464-11.533-0.752c-1.433,3.936-8.753,6.935-17.556,6.935
				c-4.697,0-8.972-0.854-12.154-2.248c-2.307,1.411-5.168,2.248-8.267,2.248c-2.034,0-3.966-0.361-5.707-1.009
				c-3.451,2.064-8.378,3.356-13.843,3.356c-4.528,0-8.686-0.887-11.942-2.365c-0.683,0.038-1.378,0.063-2.083,0.074
				c-2.54,1.971-6.171,3.205-10.201,3.205c-7.669,0-13.896-4.471-13.896-9.977v-0.018c-12.512-0.159-49.836,2.377-53.228,2.511
				c-2.654,0.105,27.399-7.11,45.268-10.302c-0.288-0.696-0.441-1.422-0.441-2.169c0-5.137,7.239-9.308,16.157-9.308
				c4.584,0,8.726,1.102,11.667,2.871C282.594,327.76,288.958,323.966,296.666,323.874z"/>
		</g>
		<path style="fill-rule:evenodd;clip-rule:evenodd;fill:#F1F1F1;" d="M327.311,346.162c2.334-3.256,2.038-7.702-0.836-10.336
			c-2.777-2.543-7.029-2.542-10.055-0.186c0.197-0.275,0.413-0.542,0.648-0.799c3.013-3.289,7.99-3.641,11.107-0.785
			c3.117,2.855,3.202,7.844,0.189,11.133C328.035,345.549,327.682,345.873,327.311,346.162z"/>
		<path style="fill-rule:evenodd;clip-rule:evenodd;fill:#F1F1F1;" d="M315.371,335.552c-2.377-2.706-6.59-3.222-9.835-1.063
			c-3.135,2.087-4.316,5.971-2.968,9.151c-0.201-0.229-0.388-0.474-0.562-0.733c-2.218-3.334-1.162-7.941,2.357-10.284
			c3.52-2.342,8.178-1.538,10.396,1.796C315.003,334.784,315.206,335.163,315.371,335.552z"/>
		<path style="fill-rule:evenodd;clip-rule:evenodd;fill:#F1F1F1;" d="M291.495,336.15c-2.377-2.707-6.59-3.223-9.835-1.063
			c-3.135,2.086-4.316,5.971-2.968,9.15c-0.2-0.229-0.388-0.473-0.561-0.733c-2.218-3.334-1.163-7.941,2.356-10.284
			c3.52-2.342,8.179-1.537,10.397,1.797C291.126,335.38,291.329,335.759,291.495,336.15z"/>
		<path style="fill-rule:evenodd;clip-rule:evenodd;fill:#F1F1F1;" d="M348.697,339.034c-2.376-2.707-6.59-3.222-9.835-1.063
			c-3.135,2.087-4.315,5.971-2.967,9.151c-0.201-0.229-0.389-0.474-0.562-0.733c-2.218-3.334-1.163-7.942,2.357-10.285
			c3.519-2.341,8.178-1.537,10.396,1.797C348.329,338.265,348.532,338.645,348.697,339.034z"/>
		<path style="fill-rule:evenodd;clip-rule:evenodd;fill:#F1F1F1;" d="M262.334,343.64c-1.745,3.151-0.807,7.291,2.321,9.615
			c3.024,2.246,7.078,2.044,9.615-0.299c-0.147,0.267-0.314,0.527-0.5,0.777c-2.388,3.215-7.082,3.777-10.475,1.256
			c-3.393-2.522-4.21-7.178-1.821-10.392C261.735,344.247,262.023,343.928,262.334,343.64z"/>
		<path style="fill-rule:evenodd;clip-rule:evenodd;fill:#F1F1F1;" d="M283.973,350.104c0.428,3.577,3.61,6.386,7.508,6.441
			c3.766,0.054,6.937-2.481,7.625-5.866c0.036,0.302,0.053,0.611,0.048,0.923c-0.058,4.005-3.536,7.206-7.763,7.146
			c-4.227-0.061-7.613-3.36-7.555-7.364C283.842,350.946,283.889,350.518,283.973,350.104z"/>
		<path style="fill-rule:evenodd;clip-rule:evenodd;fill:#F1F1F1;" d="M308.944,348.015c0.428,3.576,3.61,6.386,7.507,6.441
			c3.766,0.054,6.937-2.481,7.625-5.866c0.037,0.302,0.053,0.611,0.048,0.923c-0.057,4.004-3.535,7.206-7.762,7.146
			c-4.228-0.061-7.612-3.36-7.556-7.364C308.813,348.857,308.86,348.43,308.944,348.015z"/>
	</g>
	<g>
		<path style="fill-rule:evenodd;clip-rule:evenodd;fill:#F1F1F1;" d="M257.006,386.58c0.438-3.72,3.829-6.618,7.942-6.618
			c2.829,0,5.317,1.371,6.737,3.438c1.565-0.847,3.428-1.338,5.427-1.338c4.148,0,7.712,2.115,9.244,5.13
			c2.162-2.565,5.835-4.254,10-4.254c4.687,0,8.751,2.139,10.739,5.257c2.091-1.272,4.607-2.014,7.313-2.014
			c7.253,0,13.142,5.332,13.142,11.899c0,6.568-5.889,11.9-13.142,11.9c-2.036,0-3.965-0.42-5.687-1.171
			c-1.092,3.617-5.448,6.323-10.649,6.323c-4.257,0-7.948-1.813-9.747-4.454c-2.248,3.129-6.719,5.263-11.864,5.263
			c-4.637,0-8.728-1.734-11.136-4.368c-2.807,2.169-7.13,3.559-11.974,3.559c-5.994,0-11.187-2.128-13.703-5.226
			c-0.51,0.049-1.029,0.074-1.555,0.074c-7.485,0-13.562-5.073-13.562-11.321c0-6.248,6.077-11.321,13.562-11.321
			c2.383,0,4.623,0.514,6.57,1.417c1.426-2.244,4.126-3.759,7.217-3.759C253.815,384.995,255.594,385.588,257.006,386.58z"/>
		<g>
			<defs>
				<path id="SVGID_00000155122488013404691930000013930034893798817176_" d="M257.006,386.58c0.438-3.72,3.829-6.618,7.942-6.618
					c2.829,0,5.317,1.371,6.737,3.438c1.565-0.847,3.428-1.338,5.427-1.338c4.148,0,7.712,2.115,9.244,5.13
					c2.162-2.565,5.835-4.254,10-4.254c4.687,0,8.751,2.139,10.739,5.257c2.091-1.272,4.607-2.014,7.313-2.014
					c7.253,0,13.142,5.332,13.142,11.899c0,6.568-5.889,11.9-13.142,11.9c-2.036,0-3.965-0.42-5.687-1.171
					c-1.092,3.617-5.448,6.323-10.649,6.323c-4.257,0-7.948-1.813-9.747-4.454c-2.248,3.129-6.719,5.263-11.864,5.263
					c-4.637,0-8.728-1.734-11.136-4.368c-2.807,2.169-7.13,3.559-11.974,3.559c-5.994,0-11.187-2.128-13.703-5.226
					c-0.51,0.049-1.029,0.074-1.555,0.074c-7.485,0-13.562-5.073-13.562-11.321c0-6.248,6.077-11.321,13.562-11.321
					c2.383,0,4.623,0.514,6.57,1.417c1.426-2.244,4.126-3.759,7.217-3.759C253.815,384.995,255.594,385.588,257.006,386.58z"/>
			</defs>
			<clipPath id="SVGID_00000068655715810227194470000012005108991183474622_">
				<use xlink:href="#SVGID_00000155122488013404691930000013930034893798817176_"  style="overflow:visible;"/>
			</clipPath>
			
				<path style="clip-path:url(#SVGID_00000068655715810227194470000012005108991183474622_);fill-rule:evenodd;clip-rule:evenodd;fill:#FFFFFF;" d="
				M257.537,381.621c0.438-3.72,3.83-6.618,7.942-6.618c2.829,0,5.317,1.372,6.737,3.438c1.565-0.847,3.429-1.338,5.427-1.338
				c4.148,0,7.712,2.115,9.244,5.13c2.162-2.564,5.836-4.253,10-4.253c4.687,0,8.751,2.139,10.739,5.257
				c2.092-1.272,4.608-2.014,7.314-2.014c7.252,0,13.141,5.332,13.141,11.9c0,6.568-5.889,11.9-13.141,11.9
				c-2.037,0-3.966-0.42-5.688-1.171c-1.092,3.617-5.448,6.323-10.649,6.323c-4.257,0-7.948-1.813-9.746-4.454
				c-2.249,3.129-6.72,5.263-11.865,5.263c-4.637,0-8.728-1.734-11.136-4.368c-2.807,2.169-7.129,3.559-11.974,3.559
				c-5.993,0-11.187-2.128-13.703-5.226c-0.51,0.049-1.029,0.074-1.555,0.074c-7.485,0-13.562-5.073-13.562-11.321
				s6.077-11.321,13.562-11.321c2.383,0,4.623,0.513,6.57,1.416c1.426-2.243,4.126-3.759,7.217-3.759
				C254.346,380.036,256.126,380.628,257.537,381.621z"/>
		</g>
		<path style="fill-rule:evenodd;clip-rule:evenodd;fill:#F1F1F1;" d="M237.282,394.832c-0.602,4.667,2.528,9.243,7.446,10.561
			c4.751,1.273,9.579-0.922,11.534-4.988c-0.051,0.394-0.129,0.79-0.234,1.184c-1.354,5.053-6.784,7.994-12.118,6.565
			c-5.334-1.429-8.565-6.692-7.211-11.744C236.846,395.857,237.043,395.331,237.282,394.832z"/>
		<path style="fill-rule:evenodd;clip-rule:evenodd;fill:#F1F1F1;" d="M287.777,396.848c0.758-3.071-0.984-6.365-4.167-7.62
			c-3.077-1.212-6.468-0.114-8.083,2.453c0.064-0.259,0.146-0.518,0.247-0.773c1.289-3.271,5.14-4.822,8.593-3.461
			c3.454,1.361,5.211,5.122,3.922,8.393C288.147,396.196,287.976,396.533,287.777,396.848z"/>
		<path style="fill-rule:evenodd;clip-rule:evenodd;fill:#F1F1F1;" d="M298.942,407.773c2.86,1.441,6.505,0.465,8.461-2.395
			c1.89-2.763,1.571-6.357-0.597-8.53c0.241,0.122,0.477,0.261,0.707,0.418c2.938,2.01,3.599,6.16,1.477,9.261
			c-2.122,3.101-6.23,3.987-9.167,1.977C299.502,408.284,299.208,408.039,298.942,407.773z"/>
		<path style="fill-rule:evenodd;clip-rule:evenodd;fill:#F1F1F1;" d="M269.464,396.192c0.817-3.309-1.06-6.859-4.491-8.211
			c-3.315-1.307-6.97-0.123-8.71,2.643c0.069-0.28,0.157-0.558,0.266-0.833c1.389-3.525,5.538-5.196,9.26-3.729
			c3.721,1.466,5.614,5.519,4.225,9.044C269.861,395.49,269.676,395.853,269.464,396.192z"/>
		<path style="fill-rule:evenodd;clip-rule:evenodd;fill:#F1F1F1;" d="M281.441,403.388c2.098,2.303,5.749,2.683,8.523,0.764
			c2.678-1.854,3.638-5.232,2.422-7.961c0.178,0.195,0.344,0.403,0.498,0.625c1.971,2.848,1.13,6.85-1.876,8.932
			c-3.008,2.081-7.049,1.458-9.02-1.39C281.772,404.048,281.589,403.723,281.441,403.388z"/>
	</g>
	<g>
		<path style="fill-rule:evenodd;clip-rule:evenodd;fill:#F1F1F1;" d="M105.251,54.748c3.712-3.688,8.983-5.993,14.825-5.993
			c11.226,0,20.341,8.509,20.341,18.989c0,1.076-0.096,2.13-0.281,3.157c6.958,1.835,12.11,8.379,12.11,16.16
			c0,8.12-5.612,14.892-13.03,16.372c0.002,0.1,0.003,0.2,0.003,0.301c0,10.05-8.578,18.21-19.143,18.21
			c-1.72,0-3.388-0.216-4.973-0.621c-2.848,3.899-8.13,6.521-14.171,6.521c-6.236,0-11.664-2.794-14.439-6.904
			c-1.885,0.65-3.913,1.004-6.025,1.004c-9.972,0-18.067-7.888-18.067-17.605c0-1.055,0.095-2.087,0.278-3.092
			c-6.049-2.724-10.184-8.204-10.184-14.513c0-8.44,7.398-15.395,16.878-16.257c-0.067-0.641-0.101-1.292-0.101-1.95
			c0-10.912,9.39-19.771,20.956-19.771C96.117,48.755,101.443,51.052,105.251,54.748z"/>
		<g>
			<defs>
				<path id="SVGID_00000031201941026843515770000013176144153379924624_" d="M105.251,54.748c3.712-3.688,8.983-5.993,14.825-5.993
					c11.226,0,20.341,8.509,20.341,18.989c0,1.076-0.096,2.13-0.281,3.157c6.958,1.835,12.11,8.379,12.11,16.16
					c0,8.12-5.612,14.892-13.03,16.372c0.002,0.1,0.003,0.2,0.003,0.301c0,10.05-8.578,18.21-19.143,18.21
					c-1.72,0-3.388-0.216-4.973-0.621c-2.848,3.899-8.13,6.521-14.171,6.521c-6.236,0-11.664-2.794-14.439-6.904
					c-1.885,0.65-3.913,1.004-6.025,1.004c-9.972,0-18.067-7.888-18.067-17.605c0-1.055,0.095-2.087,0.278-3.092
					c-6.049-2.724-10.184-8.204-10.184-14.513c0-8.44,7.398-15.395,16.878-16.257c-0.067-0.641-0.101-1.292-0.101-1.95
					c0-10.912,9.39-19.771,20.956-19.771C96.117,48.755,101.443,51.052,105.251,54.748z"/>
			</defs>
			<clipPath id="SVGID_00000166654524625292524950000009194649139855393709_">
				<use xlink:href="#SVGID_00000031201941026843515770000013176144153379924624_"  style="overflow:visible;"/>
			</clipPath>
			
				<path style="clip-path:url(#SVGID_00000166654524625292524950000009194649139855393709_);fill-rule:evenodd;clip-rule:evenodd;fill:#FFFFFF;" d="
				M105.188,51.116c3.632-3.52,8.788-5.718,14.504-5.718c10.983,0,19.9,8.119,19.9,18.119c0,1.027-0.094,2.032-0.274,3.012
				c6.806,1.752,11.848,7.995,11.848,15.42c0,7.748-5.491,14.21-12.749,15.623c0.002,0.095,0.003,0.191,0.003,0.286
				c0,9.59-8.392,17.376-18.728,17.376c-1.683,0-3.314-0.207-4.865-0.594c-2.786,3.721-7.954,6.222-13.863,6.222
				c-6.101,0-11.411-2.665-14.126-6.587c-1.844,0.62-3.828,0.958-5.894,0.958c-9.756,0-17.676-7.527-17.676-16.799
				c0-1.007,0.093-1.992,0.272-2.95c-5.918-2.599-9.964-7.828-9.964-13.85c0-8.053,7.238-14.689,16.512-15.511
				c-0.065-0.613-0.099-1.233-0.099-1.861c0-10.412,9.186-18.866,20.501-18.866C96.253,45.398,101.463,47.59,105.188,51.116z"/>
		</g>
		<path style="fill-rule:evenodd;clip-rule:evenodd;fill:#F1F1F1;" d="M74.125,101.051c0.918,6.844,7.092,12.142,14.563,12.142
			c7.218,0,13.226-4.945,14.452-11.452c0.078,0.579,0.118,1.168,0.118,1.768c0,7.676-6.578,13.908-14.681,13.908
			c-8.103,0-14.681-6.232-14.681-13.908C73.896,102.67,73.975,101.849,74.125,101.051z"/>
		<path style="fill-rule:evenodd;clip-rule:evenodd;fill:#F1F1F1;" d="M109.221,107.53c0.461,3.442,3.567,6.107,7.324,6.107
			c3.63,0,6.651-2.488,7.268-5.76c0.039,0.291,0.059,0.588,0.059,0.889c0,3.86-3.308,6.994-7.382,6.994
			c-4.075,0-7.383-3.134-7.383-6.994C109.106,108.345,109.145,107.932,109.221,107.53z"/>
		<path style="fill-rule:evenodd;clip-rule:evenodd;fill:#F1F1F1;" d="M121.936,81.996c-0.349,6.896,4.754,13.234,12.098,14.598
			c7.097,1.32,13.907-2.445,16.302-8.617c-0.029,0.582-0.098,1.17-0.208,1.759c-1.403,7.546-9.008,12.472-16.975,10.992
			c-7.966-1.481-13.295-8.81-11.891-16.357C121.415,83.546,121.642,82.753,121.936,81.996z"/>
		<path style="fill-rule:evenodd;clip-rule:evenodd;fill:#F1F1F1;" d="M88.414,76.296c-2.688-4.586-8.647-6.509-13.951-4.286
			c-5.124,2.147-7.917,7.445-6.852,12.429c-0.227-0.387-0.431-0.795-0.609-1.219c-2.284-5.45,0.532-11.832,6.283-14.242
			c5.752-2.411,12.276,0.057,14.56,5.506C88.095,75.078,88.284,75.684,88.414,76.296z"/>
		<path style="fill-rule:evenodd;clip-rule:evenodd;fill:#F1F1F1;" d="M118.618,72.797c1.271-5.161-1.659-10.696-7.01-12.801
			c-5.17-2.033-10.867-0.183-13.578,4.131c0.107-0.437,0.245-0.871,0.414-1.299c2.163-5.499,8.631-8.11,14.435-5.827
			c5.804,2.284,8.76,8.601,6.597,14.099C119.238,71.701,118.95,72.267,118.618,72.797z"/>
	</g>
	<g>
		<path style="fill-rule:evenodd;clip-rule:evenodd;fill:#F1F1F1;" d="M280.783,199.053c1.489-9.055,10.453-16.025,21.274-16.025
			c9.34,0,17.298,5.194,20.257,12.439c3.84-3.289,8.958-5.297,14.572-5.297c11.906,0,21.572,9.027,21.572,20.146
			c0,3.908-1.194,7.559-3.259,10.647c8.412,1.951,14.636,8.843,14.636,17.036c0,9.708-8.737,17.589-19.499,17.589
			c-1.096,0-2.172-0.082-3.219-0.239c-2.494,8.537-10.837,14.82-20.731,14.82c-7.437,0-13.995-3.548-17.854-8.934
			c-4.125,5.373-11.31,8.934-19.478,8.934c-8.703,0-16.292-4.043-20.251-10.015c-3.051,2.586-7.097,4.162-11.534,4.162
			c-9.491,0-17.196-7.21-17.196-16.091c0-0.105,0.001-0.209,0.003-0.313c-5.498-2.803-9.239-8.301-9.239-14.619
			c0-9.16,7.863-16.598,17.548-16.598c1.688,0,3.321,0.226,4.867,0.648c-0.289-1.163-0.441-2.37-0.441-3.607
			c0-9.232,8.475-16.726,18.913-16.726C275.005,197.01,278.092,197.75,280.783,199.053z"/>
		<g>
			<defs>
				<path id="SVGID_00000045585654814646743320000006936168395477394619_" d="M280.783,199.053
					c1.489-9.055,10.453-16.025,21.274-16.025c9.34,0,17.298,5.194,20.257,12.439c3.84-3.289,8.958-5.297,14.572-5.297
					c11.906,0,21.572,9.027,21.572,20.146c0,3.908-1.194,7.559-3.259,10.647c8.412,1.951,14.636,8.843,14.636,17.036
					c0,9.708-8.737,17.589-19.499,17.589c-1.096,0-2.172-0.082-3.219-0.239c-2.494,8.537-10.837,14.82-20.731,14.82
					c-7.437,0-13.995-3.548-17.854-8.934c-4.125,5.373-11.31,8.934-19.478,8.934c-8.703,0-16.292-4.043-20.251-10.015
					c-3.051,2.586-7.097,4.162-11.534,4.162c-9.491,0-17.196-7.21-17.196-16.091c0-0.105,0.001-0.209,0.003-0.313
					c-5.498-2.803-9.239-8.301-9.239-14.619c0-9.16,7.863-16.598,17.548-16.598c1.688,0,3.321,0.226,4.867,0.648
					c-0.289-1.163-0.441-2.37-0.441-3.607c0-9.232,8.475-16.726,18.913-16.726C275.005,197.01,278.092,197.75,280.783,199.053z"/>
			</defs>
			<clipPath id="SVGID_00000142858802549646229080000012878440540740501683_">
				<use xlink:href="#SVGID_00000045585654814646743320000006936168395477394619_"  style="overflow:visible;"/>
			</clipPath>
			
				<path style="clip-path:url(#SVGID_00000142858802549646229080000012878440540740501683_);fill-rule:evenodd;clip-rule:evenodd;fill:#FFFFFF;" d="
				M281.486,189.567c1.489-9.055,10.453-16.026,21.273-16.026c9.341,0,17.298,5.194,20.258,12.44
				c3.84-3.288,8.957-5.297,14.572-5.297c11.905,0,21.572,9.027,21.572,20.146c0,3.908,3.724,7.031,1.659,10.12
				c8.412,1.952,9.717,9.371,9.717,17.563c0,9.708-8.737,17.589-19.498,17.589c-1.097,0-2.173-0.082-3.22-0.239
				c-2.494,8.538-10.836,14.82-20.731,14.82c-7.436,0-13.995-3.548-17.853-8.934c-4.124,5.373-11.31,8.934-19.478,8.934
				c-8.703,0-16.292-4.043-20.251-10.015c-3.052,2.586-7.098,4.162-11.535,4.162c-9.491,0-17.196-7.21-17.196-16.091
				c0-0.105,0.002-0.209,0.004-0.313c-5.499-2.803-9.239-8.302-9.239-14.619c0-9.16,7.863-16.598,17.548-16.598
				c1.688,0,3.32,0.226,4.867,0.648c-0.289-1.162-0.442-2.369-0.442-3.607c0-9.232,8.476-16.726,18.913-16.726
				C275.707,187.524,278.794,188.264,281.486,189.567z"/>
		</g>
		<path style="fill-rule:evenodd;clip-rule:evenodd;fill:#F1F1F1;" d="M242.036,236.108c-1.462,3.418,0.27,7.851,4.188,10.293
			c3.785,2.36,8.34,2.071,10.832-0.493c-0.124,0.289-0.27,0.571-0.44,0.844c-2.181,3.497-7.401,4.186-11.649,1.538
			c-4.25-2.649-5.928-7.64-3.748-11.137C241.457,236.77,241.731,236.421,242.036,236.108z"/>
		<path style="fill-rule:evenodd;clip-rule:evenodd;fill:#F1F1F1;" d="M304.808,231.368c-3.109,7.265,0.575,16.685,8.9,21.876
			c8.043,5.014,17.725,4.401,23.019-1.048c-0.263,0.614-0.574,1.214-0.936,1.793c-4.634,7.433-15.728,8.898-24.757,3.268
			c-9.03-5.63-12.598-16.235-7.964-23.668C303.575,232.778,304.158,232.037,304.808,231.368z"/>
		<path style="fill-rule:evenodd;clip-rule:evenodd;fill:#F1F1F1;" d="M336.727,238.838c2.58,4.561,8.251,6.595,13.272,4.546
			c4.853-1.979,7.474-7.104,6.432-12.016c0.217,0.386,0.414,0.79,0.586,1.211c2.201,5.399-0.434,11.585-5.881,13.806
			c-5.447,2.221-11.657-0.358-13.858-5.757C337.038,240.04,336.854,239.44,336.727,238.838z"/>
		<path style="fill-rule:evenodd;clip-rule:evenodd;fill:#F1F1F1;" d="M289.936,219.677c-0.953-5.104-6.726-8.952-13.611-8.808
			c-6.652,0.138-12.112,3.954-13.141,8.847c-0.081-0.432-0.127-0.872-0.136-1.32c-0.119-5.745,5.847-10.535,13.314-10.69
			c7.468-0.155,13.627,4.383,13.746,10.129C290.122,218.461,290.062,219.076,289.936,219.677z"/>
		<path style="fill-rule:evenodd;clip-rule:evenodd;fill:#F1F1F1;" d="M328.624,225.599c1.705-4.935-0.567-10.545-5.479-12.993
			c-4.745-2.365-10.364-0.985-13.366,3.019c0.145-0.418,0.318-0.83,0.519-1.235c2.591-5.198,9.018-7.263,14.346-4.608
			c5.327,2.655,7.549,9.03,4.959,14.228C329.32,224.577,328.991,225.108,328.624,225.599z"/>
		<path style="fill-rule:evenodd;clip-rule:evenodd;fill:#F1F1F1;" d="M271.852,233.05c-1.103,5.103,1.823,10.402,6.992,12.244
			c4.994,1.781,10.408-0.262,12.909-4.596c-0.094,0.431-0.216,0.862-0.368,1.288c-1.95,5.47-8.084,8.288-13.691,6.29
			c-5.607-1.998-8.576-8.062-6.626-13.532C271.282,234.147,271.545,233.581,271.852,233.05z"/>
	</g>
	<path style="fill-rule:evenodd;clip-rule:evenodd;fill:#FFFFFF;" d="M297.802,151.394c1.371-2.739,4.189-4.62,7.44-4.62
		c2.919,0,5.489,1.515,6.975,3.807c1.415-0.992,3.131-1.573,4.981-1.573c1.722,0,3.329,0.504,4.684,1.373
		c1.56-1.541,3.693-2.491,6.042-2.491c2.872,0,5.418,1.419,6.994,3.602c0.824-0.306,1.716-0.473,2.644-0.473
		c1.051,0,2.054,0.214,2.968,0.602c1.882-0.96,4.041-1.507,6.336-1.507c7.276,0,13.182,5.485,13.182,12.241
		c0,6.755-5.906,12.24-13.182,12.24c-2.615,0-5.054-0.709-7.105-1.931c-1.696,1.213-3.799,1.931-6.077,1.931
		c-3.232,0-6.115-1.447-7.976-3.701c-2.137,2.266-5.296,3.701-8.818,3.701c-3.392,0-6.447-1.331-8.577-3.454
		c-1.665,0.708-3.556,1.107-5.559,1.107c-3.079,0-5.894-0.945-8.036-2.502c-1.277,0.461-2.664,0.715-4.115,0.715
		c-3.22,0-6.132-1.248-8.214-3.255c-1.458,1.059-3.302,1.691-5.306,1.691c-4.717,0-8.547-3.505-8.547-7.821
		c0-4.318,3.83-7.822,8.547-7.822c1.364,0,2.653,0.293,3.797,0.814c2.025-3.037,5.624-5.06,9.723-5.06
		C293.33,149.008,295.835,149.902,297.802,151.394z"/>
	<path style="fill-rule:evenodd;clip-rule:evenodd;fill:#FFFFFF;" d="M301.646,47.109c-0.185-0.579-0.284-1.188-0.284-1.816
		c0-3.888,3.777-7.044,8.428-7.044c0.983,0,1.926,0.141,2.803,0.4c0.886-2.165,3.072-3.699,5.626-3.699
		c2.897,0,5.32,1.973,5.91,4.605c1.654-0.821,3.679-1.305,5.863-1.305c1.67,0,3.246,0.283,4.634,0.783
		c1.323-3.258,5.052-5.608,9.44-5.608c5.493,0,9.954,3.683,9.954,8.218c0,0.46-0.045,0.911-0.134,1.351
		c1.641,1.236,2.703,3.204,2.703,5.42c0,3.736-3.022,6.77-6.743,6.77c-0.329,0-0.652-0.024-0.968-0.069
		c-1.599,2.903-5.012,4.909-8.959,4.909c-2.789,0-5.312-1.002-7.115-2.613c-1.422,1.574-3.865,2.613-6.638,2.613
		c-1.194,0-2.327-0.193-3.343-0.538c-1.319,2.987-5.208,5.154-9.795,5.154c-5.671,0-10.275-3.311-10.275-7.389
		c0-0.336,0.031-0.668,0.093-0.993c-1.958-1.071-3.25-2.905-3.25-4.986C299.597,49.654,300.378,48.185,301.646,47.109z"/>
	<path style="fill-rule:evenodd;clip-rule:evenodd;fill:#FFFFFF;" d="M448.368,47.071c-1.021-1.461-1.615-3.207-1.615-5.08
		c0-5.15,4.488-9.331,10.014-9.331s10.013,4.181,10.013,9.331c0,0.263-0.011,0.524-0.034,0.781c4.634,0.468,8.266,3.964,8.426,8.252
		c4.832,0.716,8.541,4.798,8.541,9.719c0,5.426-4.508,9.832-10.06,9.832c-1.677,0-3.258-0.402-4.649-1.112
		c-1.916,2.424-5.195,4.025-8.915,4.025c-5.904,0-10.697-4.03-10.697-8.993c0-0.072,0.002-0.144,0.004-0.215
		c-3.944-1.104-6.831-4.619-6.831-8.78C442.566,51.71,444.961,48.454,448.368,47.071z"/>
	<path style="fill-rule:evenodd;clip-rule:evenodd;fill:#FFFFFF;" d="M176.49,35.34c2.03-3.831,6.346-6.476,11.338-6.476
		c6.941,0,12.575,5.114,12.575,11.415c0,5.231-3.885,9.645-9.175,10.992c0.33,1.103,0.507,2.269,0.507,3.475
		c0,6.872-5.744,12.453-12.818,12.453c-4.242,0-8.006-2.007-10.34-5.095c-0.471,0.059-0.952,0.089-1.441,0.089
		c-4.507,0-8.35-2.577-9.81-6.184c-1.967,1.801-4.508,2.888-7.282,2.888c-6.232,0-11.293-5.485-11.293-12.242
		s5.061-12.243,11.293-12.243c0.689,0,1.363,0.067,2.017,0.196c1.197-2.386,3.726-4.034,6.651-4.034
		c2.335,0,4.418,1.049,5.771,2.687c1.114-0.239,2.291-0.368,3.508-0.368C171.263,32.892,174.246,33.819,176.49,35.34z"/>
	<path style="fill-rule:evenodd;clip-rule:evenodd;fill:#FFFFFF;" d="M451.714,438.898c-0.516-1.159-0.803-2.445-0.803-3.798
		c0-5.113,4.1-9.265,9.151-9.265c2.353,0,4.501,0.902,6.123,2.383c1.252-1.021,2.875-1.637,4.648-1.637
		c3.958,0,7.172,3.074,7.172,6.86c0,1.454-0.474,2.804-1.282,3.914c2.28,1.825,3.735,4.596,3.735,7.695
		c0,5.491-4.569,9.949-10.199,9.949c-1.159,0-2.272-0.189-3.312-0.537c-1.868,4.051-6.059,6.876-10.924,6.876
		c-6.602,0-11.962-5.201-11.962-11.608C444.061,444.796,447.238,440.578,451.714,438.898z"/>
	<path style="fill-rule:evenodd;clip-rule:evenodd;fill:#FFFFFF;" d="M181.573,412.562c5.636,0,10.213,4.576,10.213,10.212
		c0,5.636-4.577,10.212-10.213,10.212c-5.636,0-10.212-4.576-10.212-10.212C171.361,417.138,175.937,412.562,181.573,412.562z"/>
	
		<ellipse transform="matrix(0.9951 -0.0987 0.0987 0.9951 -40.2573 21.7521)" style="fill-rule:evenodd;clip-rule:evenodd;fill:#FFFFFF;" cx="199.615" cy="417.562" rx="10.814" ry="10.814"/>
	<circle style="fill-rule:evenodd;clip-rule:evenodd;fill:#FFFFFF;" cx="209.644" cy="425.835" r="12.285"/>
	<path style="fill-rule:evenodd;clip-rule:evenodd;fill:#FFFFFF;" d="M196.864,419.911c6.267,0,11.354,5.087,11.354,11.353
		c0,6.266-5.087,11.353-11.354,11.353c-6.266,0-11.353-5.087-11.353-11.353C185.511,424.999,190.598,419.911,196.864,419.911z"/>
	<path style="fill-rule:evenodd;clip-rule:evenodd;fill:#FFFFFF;" d="M257.735,311.619c1.007-2.767,3.7-4.749,6.861-4.749
		c4.021,0,7.285,3.207,7.285,7.156c0,3.182-2.119,5.882-5.046,6.811c0.436,0.992,0.676,2.078,0.676,3.215
		c0,4.706-4.109,8.526-9.169,8.526c-2.795,0-5.299-1.164-6.98-2.999c-5.8-0.02-10.502-4.486-10.502-9.984
		c0-5.509,4.723-9.983,10.541-9.983C253.775,309.613,255.97,310.359,257.735,311.619z"/>
	<path style="fill-rule:evenodd;clip-rule:evenodd;fill:#FFFFFF;" d="M182.157,217.754c-0.104-6.942,6.15-9.105,9.385-9.105
		c4.726,0,8.642,3.348,9.291,7.696c0.623-0.137,1.271-0.21,1.939-0.21c4.656,0,8.436,3.53,8.436,7.878
		c0,3.213-2.065,5.979-5.023,7.204c-0.847,2.697-3.25,4.797-6.266,5.441c0.002,0.068,0.003,0.136,0.003,0.204
		c0,4.472-3.98,8.101-8.883,8.101c-4.903,0-8.883-3.63-8.883-8.101c0-0.618,0.076-1.221,0.22-1.8
		c-2.148-1.332-3.573-3.657-3.573-6.301c0-3.015,1.854-5.616,4.521-6.803C182.6,220.71,182.179,219.278,182.157,217.754z"/>
	<path style="fill-rule:evenodd;clip-rule:evenodd;fill:#FFFFFF;" d="M35.166,126.988c1.799-4.738,6.872-8.156,12.844-8.156
		c6.222,0,11.47,3.711,13.053,8.759c1.146-0.44,2.384-0.68,3.675-0.68c5.904,0,10.696,5.022,10.696,11.208
		c0,6.186-4.793,11.209-10.696,11.209c-0.6,0-1.189-0.052-1.763-0.152c-0.802,4.553-4.359,8.269-9.057,9.674
		c-0.501,3.602-4.396,6.409-9.12,6.409c-3.643,0-6.793-1.669-8.273-4.085c-0.504,0.067-1.019,0.102-1.543,0.102
		c-6.061,0-10.981-4.665-10.981-10.412c0-3.336,1.658-6.307,4.235-8.214c-0.952-1.589-1.504-3.475-1.504-5.498
		C26.731,131.926,30.415,127.608,35.166,126.988z"/>
	<path style="fill-rule:evenodd;clip-rule:evenodd;fill:#FFFFFF;" d="M147.101,128.436c1.052-4.11,5.041-7.171,9.795-7.171
		c5.555,0,10.065,4.18,10.065,9.33c0,0.118-0.002,0.236-0.007,0.354c3.975,1.068,6.881,4.443,6.881,8.436
		c0,1.477-0.398,2.87-1.101,4.094c0.699,1.075,1.101,2.327,1.101,3.664c0,3.984-3.564,7.218-7.955,7.218
		c-1.331,0-2.586-0.298-3.689-0.822c-1.299,1.066-2.955,1.706-4.756,1.706c-2.293,0-4.349-1.036-5.735-2.67
		c-1.808,1.651-4.288,2.67-7.023,2.67c-5.524,0-10.008-4.158-10.008-9.281c0-1.741,0.519-3.372,1.421-4.765
		c-0.882-1.127-1.421-2.628-1.421-4.273c0-3.494,2.424-6.331,5.411-6.331c0.111,0,0.221,0.004,0.331,0.011
		c1.235-1.451,3.054-2.369,5.079-2.369C146.045,128.238,146.584,128.307,147.101,128.436z"/>
	<path style="fill-rule:evenodd;clip-rule:evenodd;fill:#FFFFFF;" d="M64.461,247.751c1.3-3.98,5.42-6.891,10.296-6.891
		c4.519,0,8.389,2.5,9.966,6.035c0.971-0.251,1.997-0.387,3.058-0.387c6.062,0,10.984,4.406,10.984,9.834
		c0,5.427-4.922,9.833-10.984,9.833c-0.275,0-0.547-0.009-0.816-0.026c-1.585,3.518-5.309,5.99-9.645,5.99
		c-3.313,0-6.269-1.443-8.186-3.694c-1.404,1.25-3.327,2.02-5.446,2.02c-2.087,0-3.984-0.747-5.382-1.963
		c-1.612,1.229-3.658,1.963-5.883,1.963c-5.196,0-9.415-4.008-9.415-8.944c0-4.936,4.219-8.944,9.415-8.944
		c1.191,0,2.331,0.211,3.38,0.595c0.648-3.2,3.528-5.615,6.977-5.615C63.359,247.555,63.922,247.623,64.461,247.751z"/>
	<ellipse style="fill-rule:evenodd;clip-rule:evenodd;fill:#FFFFFF;" cx="49.829" cy="415.506" rx="10.86" ry="10.472"/>
	<ellipse style="fill-rule:evenodd;clip-rule:evenodd;fill:#FFFFFF;" cx="63.611" cy="420.372" rx="12.176" ry="12.615"/>
	<ellipse style="fill-rule:evenodd;clip-rule:evenodd;fill:#FFFFFF;" cx="42.496" cy="428.376" rx="12.889" ry="11.185"/>
	<ellipse style="fill-rule:evenodd;clip-rule:evenodd;fill:#FFFFFF;" cx="54.528" cy="433.567" rx="10.619" ry="10.279"/>
</g>
</svg>
