<?xml version="1.0" encoding="UTF-8" standalone="no"?>
<svg
   version="1.1"
   x="0px"
   y="0px"
   viewBox="0 0 400 400"
   style="enable-background:new 0 0 400 400;"
   xml:space="preserve"
   id="svg8"
   sodipodi:docname="cloud1.rev.svg"
   inkscape:version="1.3.1 (9b9bdc1480, 2023-11-25, custom)"
   xmlns:inkscape="http://www.inkscape.org/namespaces/inkscape"
   xmlns:sodipodi="http://sodipodi.sourceforge.net/DTD/sodipodi-0.dtd"
   xmlns:xlink="http://www.w3.org/1999/xlink"
   xmlns="http://www.w3.org/2000/svg"
   xmlns:svg="http://www.w3.org/2000/svg"><defs
   id="defs8" /><sodipodi:namedview
   id="namedview8"
   pagecolor="#505050"
   bordercolor="#eeeeee"
   borderopacity="1"
   inkscape:showpageshadow="0"
   inkscape:pageopacity="0"
   inkscape:pagecheckerboard="0"
   inkscape:deskcolor="#505050"
   inkscape:zoom="1.86"
   inkscape:cx="199.73118"
   inkscape:cy="200"
   inkscape:window-width="1610"
   inkscape:window-height="986"
   inkscape:window-x="0"
   inkscape:window-y="0"
   inkscape:window-maximized="1"
   inkscape:current-layer="svg8" />
<g
   id="g8"
   transform="matrix(0.4770485,0,0,0.51563745,-40.730615,23.19656)">
		<path
   style="clip-rule:evenodd;fill:#f1f1f1;fill-rule:evenodd"
   d="m 226.202,65.082 c 1.51,-7.735 8.916,-13.614 17.814,-13.614 7.768,0 14.399,4.481 16.963,10.768 2.687,-2.358 6.329,-3.806 10.337,-3.806 7.576,0 13.844,5.179 14.83,11.887 0.722,-0.109 1.462,-0.165 2.217,-0.165 7.63,0 13.825,5.785 13.825,12.909 0,0.503 -0.031,0.999 -0.092,1.487 0.228,-0.009 0.457,-0.014 0.686,-0.014 9.108,0 16.503,7.204 16.503,16.078 0,8.874 -7.395,16.079 -16.503,16.079 -1.712,0 -3.362,-0.254 -4.914,-0.726 -0.595,6.633 -7.081,11.864 -14.982,11.864 -4.724,0 -8.94,-1.869 -11.697,-4.79 -3.01,4.768 -9.917,8.105 -17.947,8.105 -6.586,0 -12.415,-2.245 -15.959,-5.682 -3.577,2.894 -9.349,4.776 -15.856,4.776 -8.397,0 -15.57,-3.132 -18.38,-7.534 -2.527,1.469 -5.711,2.344 -9.17,2.344 -8.201,0 -14.86,-4.926 -14.86,-10.993 0,-1.194 0.258,-2.344 0.735,-3.422 -5.864,-1.146 -10.253,-5.743 -10.253,-11.233 0,-6.352 5.874,-11.508 13.11,-11.508 0.732,0 1.45,0.053 2.149,0.154 -0.43,-1.107 -0.663,-2.287 -0.663,-3.512 0,-6.312 6.172,-11.436 13.775,-11.436 2.384,0 4.628,0.504 6.584,1.39 0.738,-6.151 6.988,-10.961 14.578,-10.961 2.605,-0.002 5.051,0.564 7.17,1.555 z"
   id="path1" />
		<g
   id="g2">
			<defs
   id="defs1">
				<path
   id="SVGID_1_"
   d="m 226.202,65.082 c 1.51,-7.735 8.916,-13.614 17.814,-13.614 7.768,0 14.399,4.481 16.963,10.768 2.687,-2.358 6.329,-3.806 10.337,-3.806 7.576,0 13.844,5.179 14.83,11.887 0.722,-0.109 1.462,-0.165 2.217,-0.165 7.63,0 13.825,5.785 13.825,12.909 0,0.503 -0.031,0.999 -0.092,1.487 0.228,-0.009 0.457,-0.014 0.686,-0.014 9.108,0 16.503,7.204 16.503,16.078 0,8.874 -7.395,16.079 -16.503,16.079 -1.712,0 -3.362,-0.254 -4.914,-0.726 -0.595,6.633 -7.081,11.864 -14.982,11.864 -4.724,0 -8.94,-1.869 -11.697,-4.79 -3.01,4.768 -9.917,8.105 -17.947,8.105 -6.586,0 -12.415,-2.245 -15.959,-5.682 -3.577,2.894 -9.349,4.776 -15.856,4.776 -8.397,0 -15.57,-3.132 -18.38,-7.534 -2.527,1.469 -5.711,2.344 -9.17,2.344 -8.201,0 -14.86,-4.926 -14.86,-10.993 0,-1.194 0.258,-2.344 0.735,-3.422 -5.864,-1.146 -10.253,-5.743 -10.253,-11.233 0,-6.352 5.874,-11.508 13.11,-11.508 0.732,0 1.45,0.053 2.149,0.154 -0.43,-1.107 -0.663,-2.287 -0.663,-3.512 0,-6.312 6.172,-11.436 13.775,-11.436 2.384,0 4.628,0.504 6.584,1.39 0.738,-6.151 6.988,-10.961 14.578,-10.961 2.605,-0.002 5.051,0.564 7.17,1.555 z" />
			</defs>
			<clipPath
   id="SVGID_00000163030829139318623980000000681813679865075349_">
				<use
   xlink:href="#SVGID_1_"
   style="overflow:visible"
   id="use1" />
			</clipPath>
			
				<path
   style="clip-rule:evenodd;fill:#ffffff;fill-rule:evenodd"
   d="m 241.849,46.655 c 3.458,-3.59 8.341,-5.83 13.749,-5.83 8.168,0 15.138,5.109 17.815,12.266 2.753,-1.539 5.935,-2.418 9.322,-2.418 10.479,0 18.986,8.408 18.986,18.764 0,0.487 -0.019,0.97 -0.056,1.445 8.681,1.725 15.23,9.31 15.23,18.396 0,10.355 -8.508,18.763 -18.986,18.763 -0.747,0 -1.484,-0.043 -2.209,-0.126 -3.457,4.642 -9.025,7.657 -15.299,7.657 -3.587,0 -6.943,-0.985 -9.806,-2.697 -2.97,6.538 -9.616,11.097 -17.331,11.097 -6.096,0 -11.524,-2.845 -14.998,-7.263 -3.481,4.252 -8.804,6.973 -14.766,6.973 -6.309,0 -11.904,-3.047 -15.357,-7.734 -2.197,0.879 -4.597,1.363 -7.111,1.363 -8.958,0 -16.477,-6.147 -18.469,-14.401 -7.582,-2.461 -13.063,-9.519 -13.063,-17.832 0,-10.355 8.507,-18.764 18.985,-18.764 0.192,0 0.383,0.003 0.572,0.009 1.19,-9.229 9.174,-16.374 18.833,-16.374 4.323,0 8.311,1.432 11.505,3.841 3.408,-5.022 9.205,-8.331 15.779,-8.331 2.347,0 4.597,0.423 6.675,1.196 z"
   clip-path="url(#SVGID_00000163030829139318623980000000681813679865075349_)"
   id="path2" />
		</g>
		<path
   style="clip-rule:evenodd;fill:#f1f1f1;fill-rule:evenodd"
   d="m 200.801,103.556 c -0.288,5.711 3.938,10.958 10.02,12.089 5.876,1.093 11.516,-2.025 13.499,-7.136 -0.025,0.482 -0.081,0.969 -0.171,1.457 -1.163,6.25 -7.461,10.329 -14.058,9.102 -6.597,-1.226 -11.009,-7.296 -9.848,-13.545 0.127,-0.683 0.315,-1.34 0.558,-1.967 z"
   id="path3" />
		<path
   style="clip-rule:evenodd;fill:#f1f1f1;fill-rule:evenodd"
   d="m 249.632,123.716 c 6.732,1.541 13.858,-2.384 16.477,-9.38 2.531,-6.76 0.007,-14.12 -5.656,-17.55 0.569,0.13 1.135,0.3 1.696,0.509 7.189,2.692 10.719,11.038 7.878,18.626 -2.842,7.588 -10.985,11.563 -18.174,8.871 -0.786,-0.294 -1.527,-0.656 -2.221,-1.076 z"
   id="path4" />
		<path
   style="clip-rule:evenodd;fill:#f1f1f1;fill-rule:evenodd"
   d="m 284.713,91.841 c -0.986,6.835 3.508,13.617 10.694,15.657 6.943,1.971 14.074,-1.146 17.03,-7.07 -0.083,0.577 -0.206,1.156 -0.37,1.732 -2.096,7.385 -10.127,11.583 -17.921,9.371 -7.795,-2.212 -12.421,-10.004 -10.324,-17.389 0.23,-0.805 0.529,-1.574 0.891,-2.301 z"
   id="path5" />
		<path
   style="clip-rule:evenodd;fill:#f1f1f1;fill-rule:evenodd"
   d="m 276.195,86.115 c 1.712,-5.278 -0.923,-11.262 -6.336,-13.856 -5.231,-2.507 -11.302,-1.009 -14.45,3.28 0.145,-0.446 0.32,-0.887 0.528,-1.322 2.666,-5.562 9.597,-7.794 15.469,-4.979 5.872,2.814 8.475,9.614 5.808,15.178 -0.291,0.606 -0.633,1.174 -1.019,1.699 z"
   id="path6" />
		<path
   style="clip-rule:evenodd;fill:#f1f1f1;fill-rule:evenodd"
   d="m 237.139,75.013 c -4.668,-3 -11.126,-1.978 -15.014,2.596 -3.757,4.419 -3.856,10.671 -0.511,14.809 -0.395,-0.254 -0.777,-0.537 -1.144,-0.848 -4.699,-3.996 -5.091,-11.268 -0.873,-16.228 4.217,-4.96 11.458,-5.744 16.157,-1.748 0.513,0.436 0.975,0.912 1.385,1.419 z"
   id="path7" />
		<path
   style="clip-rule:evenodd;fill:#f1f1f1;fill-rule:evenodd"
   d="m 203.406,84.655 c -3.439,-2.211 -8.196,-1.457 -11.061,1.912 -2.768,3.255 -2.84,7.861 -0.376,10.909 -0.291,-0.187 -0.573,-0.395 -0.842,-0.625 -3.462,-2.943 -3.751,-8.301 -0.644,-11.955 3.107,-3.654 8.44,-4.231 11.903,-1.287 0.378,0.322 0.718,0.673 1.02,1.046 z"
   id="path8" />
	</g>
</svg>
