<svg version="1.1" xmlns="http://www.w3.org/2000/svg" xmlns:xlink="http://www.w3.org/1999/xlink" x="0px" y="0px"
	 viewBox="0 0 500 500" style="enable-background:new 0 0 500 500;" xml:space="preserve">
<g>
		<path style="fill-rule:evenodd;clip-rule:evenodd;fill:#F1F1F1;" d="M257.006,386.58c0.438-3.72,3.829-6.618,7.942-6.618
			c2.829,0,5.317,1.371,6.737,3.438c1.565-0.847,3.428-1.338,5.427-1.338c4.148,0,7.712,2.115,9.244,5.13
			c2.162-2.565,5.835-4.254,10-4.254c4.687,0,8.751,2.139,10.739,5.257c2.091-1.272,4.607-2.014,7.313-2.014
			c7.253,0,13.142,5.332,13.142,11.899c0,6.568-5.889,11.9-13.142,11.9c-2.036,0-3.965-0.42-5.687-1.171
			c-1.092,3.617-5.448,6.323-10.649,6.323c-4.257,0-7.948-1.813-9.747-4.454c-2.248,3.129-6.719,5.263-11.864,5.263
			c-4.637,0-8.728-1.734-11.136-4.368c-2.807,2.169-7.13,3.559-11.974,3.559c-5.994,0-11.187-2.128-13.703-5.226
			c-0.51,0.049-1.029,0.074-1.555,0.074c-7.485,0-13.562-5.073-13.562-11.321c0-6.248,6.077-11.321,13.562-11.321
			c2.383,0,4.623,0.514,6.57,1.417c1.426-2.244,4.126-3.759,7.217-3.759C253.815,384.995,255.594,385.588,257.006,386.58z"/>
		<g>
			<defs>
				<path id="SVGID_00000155122488013404691930000013930034893798817176_" d="M257.006,386.58c0.438-3.72,3.829-6.618,7.942-6.618
					c2.829,0,5.317,1.371,6.737,3.438c1.565-0.847,3.428-1.338,5.427-1.338c4.148,0,7.712,2.115,9.244,5.13
					c2.162-2.565,5.835-4.254,10-4.254c4.687,0,8.751,2.139,10.739,5.257c2.091-1.272,4.607-2.014,7.313-2.014
					c7.253,0,13.142,5.332,13.142,11.899c0,6.568-5.889,11.9-13.142,11.9c-2.036,0-3.965-0.42-5.687-1.171
					c-1.092,3.617-5.448,6.323-10.649,6.323c-4.257,0-7.948-1.813-9.747-4.454c-2.248,3.129-6.719,5.263-11.864,5.263
					c-4.637,0-8.728-1.734-11.136-4.368c-2.807,2.169-7.13,3.559-11.974,3.559c-5.994,0-11.187-2.128-13.703-5.226
					c-0.51,0.049-1.029,0.074-1.555,0.074c-7.485,0-13.562-5.073-13.562-11.321c0-6.248,6.077-11.321,13.562-11.321
					c2.383,0,4.623,0.514,6.57,1.417c1.426-2.244,4.126-3.759,7.217-3.759C253.815,384.995,255.594,385.588,257.006,386.58z"/>
			</defs>
			<clipPath id="SVGID_00000068655715810227194470000012005108991183474622_">
				<use xlink:href="#SVGID_00000155122488013404691930000013930034893798817176_"  style="overflow:visible;"/>
			</clipPath>
			
				<path style="clip-path:url(#SVGID_00000068655715810227194470000012005108991183474622_);fill-rule:evenodd;clip-rule:evenodd;fill:#FFFFFF;" d="
				M257.537,381.621c0.438-3.72,3.83-6.618,7.942-6.618c2.829,0,5.317,1.372,6.737,3.438c1.565-0.847,3.429-1.338,5.427-1.338
				c4.148,0,7.712,2.115,9.244,5.13c2.162-2.564,5.836-4.253,10-4.253c4.687,0,8.751,2.139,10.739,5.257
				c2.092-1.272,4.608-2.014,7.314-2.014c7.252,0,13.141,5.332,13.141,11.9c0,6.568-5.889,11.9-13.141,11.9
				c-2.037,0-3.966-0.42-5.688-1.171c-1.092,3.617-5.448,6.323-10.649,6.323c-4.257,0-7.948-1.813-9.746-4.454
				c-2.249,3.129-6.72,5.263-11.865,5.263c-4.637,0-8.728-1.734-11.136-4.368c-2.807,2.169-7.129,3.559-11.974,3.559
				c-5.993,0-11.187-2.128-13.703-5.226c-0.51,0.049-1.029,0.074-1.555,0.074c-7.485,0-13.562-5.073-13.562-11.321
				s6.077-11.321,13.562-11.321c2.383,0,4.623,0.513,6.57,1.416c1.426-2.243,4.126-3.759,7.217-3.759
				C254.346,380.036,256.126,380.628,257.537,381.621z"/>
		</g>
		<path style="fill-rule:evenodd;clip-rule:evenodd;fill:#F1F1F1;" d="M237.282,394.832c-0.602,4.667,2.528,9.243,7.446,10.561
			c4.751,1.273,9.579-0.922,11.534-4.988c-0.051,0.394-0.129,0.79-0.234,1.184c-1.354,5.053-6.784,7.994-12.118,6.565
			c-5.334-1.429-8.565-6.692-7.211-11.744C236.846,395.857,237.043,395.331,237.282,394.832z"/>
		<path style="fill-rule:evenodd;clip-rule:evenodd;fill:#F1F1F1;" d="M287.777,396.848c0.758-3.071-0.984-6.365-4.167-7.62
			c-3.077-1.212-6.468-0.114-8.083,2.453c0.064-0.259,0.146-0.518,0.247-0.773c1.289-3.271,5.14-4.822,8.593-3.461
			c3.454,1.361,5.211,5.122,3.922,8.393C288.147,396.196,287.976,396.533,287.777,396.848z"/>
		<path style="fill-rule:evenodd;clip-rule:evenodd;fill:#F1F1F1;" d="M298.942,407.773c2.86,1.441,6.505,0.465,8.461-2.395
			c1.89-2.763,1.571-6.357-0.597-8.53c0.241,0.122,0.477,0.261,0.707,0.418c2.938,2.01,3.599,6.16,1.477,9.261
			c-2.122,3.101-6.23,3.987-9.167,1.977C299.502,408.284,299.208,408.039,298.942,407.773z"/>
		<path style="fill-rule:evenodd;clip-rule:evenodd;fill:#F1F1F1;" d="M269.464,396.192c0.817-3.309-1.06-6.859-4.491-8.211
			c-3.315-1.307-6.97-0.123-8.71,2.643c0.069-0.28,0.157-0.558,0.266-0.833c1.389-3.525,5.538-5.196,9.26-3.729
			c3.721,1.466,5.614,5.519,4.225,9.044C269.861,395.49,269.676,395.853,269.464,396.192z"/>
		<path style="fill-rule:evenodd;clip-rule:evenodd;fill:#F1F1F1;" d="M281.441,403.388c2.098,2.303,5.749,2.683,8.523,0.764
			c2.678-1.854,3.638-5.232,2.422-7.961c0.178,0.195,0.344,0.403,0.498,0.625c1.971,2.848,1.13,6.85-1.876,8.932
			c-3.008,2.081-7.049,1.458-9.02-1.39C281.772,404.048,281.589,403.723,281.441,403.388z"/>
	</g>
</svg>