<svg version="1.1" xmlns="http://www.w3.org/2000/svg" xmlns:xlink="http://www.w3.org/1999/xlink" x="0px" y="0px"
	 viewBox="0 0 750 500" style="enable-background:new 0 0 750 500;" xml:space="preserve">

<path style="fill:#09203F;" d="M373.852,135.604c-0.299-2.024-1.398-3.933-2.495-5.409c-0.009-0.042-0.013-0.094-0.023-0.135
		c-1.055-4.835-10.131-11.548-18.152-13.426s-26.156,2.269-26.156,2.269s-1.306-0.148-4.554-1.01
		c-3.249-0.862-8.678-1.789-8.678-1.789s-2.63-10.558-3.592-14.844c-0.963-4.286-2.603-7.828-2.603-7.828s1.46-1.375,1.906-1.689
		c0.446-0.314,1.496-2.575,1.939-2.78c0.443-0.205,2.415-0.473,4.783-1.166c2.368-0.693,7.452-6.434,7.452-6.434l2.222-8.556
		c0,0-0.529-0.562-1.395-0.806c-0.866-0.244-11.36,3.915-12.352,4.213c-0.992,0.298-2.851,4.062-2.851,4.062l-2.056-0.608
		c1.697-5.625,14.015-12.349,17.763-13.546c3.747-1.197,6.308-2.867,6.684-4.493c0.377-1.626-3.932-14.417-5.896-18.078
		c-1.964-3.661-4.737-5.818-4.238-4.275c0.499,1.543,4.878,15.646,4.878,15.646l-3.621-1.903
		c-1.264-5.948-2.915-13.077-3.758-14.037c-1.478-1.682-2.998-1.946-3.335-1.628c-0.337,0.317,1.338,2.881,3.139,9.167
		c1.865,6.509,0.964,16.384,0.964,16.384l-9.812,8.224c0,0-0.235-4.286-0.625-5.826c-0.39-1.54-2.252-3.757-2.07-2.55
		c0.182,1.206-0.084,10.039-0.084,10.039s-4.083,5.116-4.982,5.963c-0.898,0.846-7.42,0.53-8.62,0.494
		c-1.199-0.036-2.301-0.721-2.739-1.592c-0.901-1.792-3.331-6.382-3.331-6.382s-0.156-10.649-1.249-10.573
		c-1.094,0.076-2.001,8.454-2.001,8.454l-13.905-9.478c0,0-1.178-4.402-0.816-12.795c0.362-8.394,6.091-13.788,5.241-14.578
		c-0.849-0.79-4.117,2.605-6.26,8.544c-2.143,5.939-2.781,16.617-2.781,16.617l-3.594-0.654l-0.318-3.939
		c0,0,2.693-2.43,2.392-3.312c-0.301-0.882-2.207,0.807-2.207,0.807s1.885-8.239,0.795-8.272c-1.091-0.033-3.59,10.48-3.59,10.48
		s-2.501,3.309-2.018,5.397c0.483,2.089,5.995,3.892,13.534,7.284c7.539,3.392,13.522,11.322,13.522,11.322l-8.18-3.848
		c0,0-3.536-2.18-3.774-1.532c-0.238,0.648,7.842,15.081,7.842,15.081s1.501,0.918,2.042,1.044c0.542,0.126,3.123,1.404,3.123,1.404
		s-0.152,1.414-0.069,2.29c0.083,0.876,1.56,2.557,1.56,2.557s-0.828,5.76-1.029,8.811c-0.201,3.05,0.75,14.976,1.363,20.016
		c0.612,5.039,5.158,13.581,5.158,13.581s0.198,15.178,0.278,16.163c0.079,0.985,2.288,3.78,3.111,5.442
		c0.823,1.662,8.072,11.049,8.072,11.049s0.298,4.593,1.73,7.802c1.432,3.209,3.999,14.416,4.049,17.805
		c0.126,8.561,1.521,7.492,1.869,10.45c0.348,2.958-0.69,19.316-0.69,19.316s-2.167,6.371-1.859,7.035
		c0.307,0.664,6.993,0.802,7.221,0.481c0.228-0.32-0.103-4.52-0.08-5.283c0.023-0.763,0.88-25.641,0.88-25.641
		s0.455-7.869,0.133-15.301c-0.322-7.432-1.652-14.021-1.652-14.021l2.678,0.286l2.531,2.259c0,0,0.949,21.546-0.184,24.419
		c-1.001,2.539,0.761,5.605,0.761,5.605s-0.186,18.614-0.887,20.121c-0.7,1.507-1.976,5.094-1.54,6.175
		c0.436,1.082,7.214,1.082,7.455,0.325c0.241-0.757-0.034-3.922-0.034-3.922s-0.117-21.523,0.356-22.709
		c0.472-1.186,1.404-3.123,0.722-5.873c-0.681-2.749,0.195-2.856,1.198-10.794c1.003-7.938,0.866-14.273,0.866-14.273
		s2.165,0.611,5.645,1.043c3.48,0.432,9.233-2.124,9.233-2.124s2.275,4.216,4.559,8.105c2.284,3.889,7.547,9.893,7.547,9.893
		s0.45,3.664,0.711,5.855c0.262,2.191,1.779,6.166,1.542,10.416c-0.15,2.678-2.112,14.274-3.2,15.201
		c-2.345,1.998-2.638,4.755-2.638,4.755s3.686,0.809,5.972,0.987c2.287,0.178,4.084-1.514,4.084-1.514s6.327,0.381,6.78-0.151
		l-0.434-5.686c0,0-1.577-37.04-1.64-38.57c-0.063-1.53-2.722-3.037-2.722-3.037s3.567-20.982,4.836-26.883
		c0.387-1.799,0.972-5.168,1.416-8.789c1.07,0.854,2.157,1.595,2.58,1.467C374.548,143.578,374.5,139.99,373.852,135.604z
		 M327.096,58.544l0.265,2.082l-2.858,0.678c0,0-0.517-2.692-1.246-6.205L327.096,58.544z M362.48,220.656l0.775-8.959l0.274,7.69
		L362.48,220.656z"/>
</svg>