<?xml version="1.0" encoding="UTF-8" standalone="no"?>
<svg
   version="1.1"
   x="0px"
   y="0px"
   viewBox="0 0 750 500"
   style="enable-background:new 0 0 750 500;"
   xml:space="preserve"
   id="svg1"
   sodipodi:docname="deerAlone2.svg"
   inkscape:version="1.3.1 (9b9bdc1480, 2023-11-25, custom)"
   xmlns:inkscape="http://www.inkscape.org/namespaces/inkscape"
   xmlns:sodipodi="http://sodipodi.sourceforge.net/DTD/sodipodi-0.dtd"
   xmlns="http://www.w3.org/2000/svg"
   xmlns:svg="http://www.w3.org/2000/svg"><defs
   id="defs1" /><sodipodi:namedview
   id="namedview1"
   pagecolor="#505050"
   bordercolor="#eeeeee"
   borderopacity="1"
   inkscape:showpageshadow="0"
   inkscape:pageopacity="0"
   inkscape:pagecheckerboard="0"
   inkscape:deskcolor="#505050"
   inkscape:zoom="0.98146421"
   inkscape:cx="369.34612"
   inkscape:cy="223.136"
   inkscape:window-width="1610"
   inkscape:window-height="986"
   inkscape:window-x="0"
   inkscape:window-y="0"
   inkscape:window-maximized="1"
   inkscape:current-layer="svg1" />

<path
   style="fill:#09203f;stroke-width:0.593275"
   d="m 653.22801,359.03865 c -0.17033,-1.25055 -0.7964,-2.43004 -1.42133,-3.34199 -0.005,-0.026 -0.007,-0.0581 -0.0131,-0.0834 -0.60101,-2.98734 -5.77134,-7.13502 -10.34067,-8.29535 -4.56933,-1.16034 -14.90031,1.40192 -14.90031,1.40192 0,0 -0.74399,-0.0915 -2.59428,-0.62404 -1.85086,-0.53259 -4.9436,-1.10535 -4.9436,-1.10535 0,0 -1.49824,-6.52334 -2.04626,-9.17148 -0.54859,-2.64814 -1.48285,-4.83659 -1.48285,-4.83659 0,0 0.83172,-0.84955 1.08579,-1.04356 0.25407,-0.19401 0.85223,-1.59098 1.10459,-1.71764 0.25237,-0.12666 1.37576,-0.29225 2.72474,-0.72043 1.34898,-0.42817 4.24518,-3.97529 4.24518,-3.97529 l 1.26581,-5.28639 c 0,0 -0.30135,-0.34724 -0.79469,-0.498 -0.49333,-0.15075 -6.47146,2.41892 -7.03657,2.60304 -0.56511,0.18412 -1.62413,2.50974 -1.62413,2.50974 l -1.17125,-0.37566 c 0.96674,-3.47545 7.98394,-7.62993 10.11907,-8.3695 2.13455,-0.73958 3.59348,-1.7714 3.80768,-2.77604 0.21476,-1.00463 -2.23995,-8.90765 -3.35878,-11.16963 -1.11884,-2.26197 -2.69853,-3.59469 -2.41427,-2.64134 0.28427,0.95335 2.77886,9.667 2.77886,9.667 l -2.06278,-1.17578 c -0.72007,-3.67502 -1.66059,-8.07973 -2.14082,-8.67287 -0.84198,-1.03924 -1.70788,-1.20235 -1.89986,-1.00587 -0.19198,0.19586 0.76222,1.78005 1.7882,5.6639 1.06244,4.02164 0.54916,10.12298 0.54916,10.12298 l -5.58961,5.08126 c 0,0 -0.13387,-2.64814 -0.35604,-3.59964 -0.22217,-0.9515 -1.2829,-2.32129 -1.17922,-1.57553 0.10368,0.74513 -0.0478,6.20267 -0.0478,6.20267 0,0 -2.32597,3.16096 -2.8381,3.68429 -0.51157,0.5227 -4.22696,0.32746 -4.91056,0.30522 -0.68304,-0.0223 -1.31082,-0.44548 -1.56033,-0.98363 -0.51328,-1.1072 -1.89758,-3.94317 -1.89758,-3.94317 0,0 -0.0889,-6.57957 -0.71152,-6.53261 -0.62322,0.047 -1.13991,5.22337 -1.13991,5.22337 l -7.92127,-5.85606 c 0,0 -0.67107,-2.71981 -0.46485,-7.90549 0.20622,-5.18629 3.46986,-8.51902 2.98564,-9.00713 -0.48365,-0.4881 -2.34533,1.60952 -3.56614,5.27898 -1.2208,3.66946 -1.58425,10.26694 -1.58425,10.26694 l -2.0474,-0.40408 -0.18115,-2.43374 c 0,0 1.53412,-1.50139 1.36265,-2.04634 -0.17147,-0.54495 -1.25726,0.49861 -1.25726,0.49861 0,0 1.07383,-5.09053 0.45289,-5.11092 -0.62152,-0.0204 -2.04512,6.47515 -2.04512,6.47515 0,0 -1.42475,2.04449 -1.1496,3.33458 0.27515,1.2907 3.41518,2.4047 7.70993,4.50047 4.29474,2.09578 7.70309,6.99539 7.70309,6.99539 l -4.65991,-2.37752 c 0,0 -2.01436,-1.34693 -2.14994,-0.94656 -0.13558,0.40037 4.46736,9.31791 4.46736,9.31791 0,0 0.85507,0.5672 1.16327,0.64505 0.30876,0.0779 1.77908,0.86747 1.77908,0.86747 0,0 -0.0866,0.87365 -0.0393,1.41489 0.0473,0.54125 0.88869,1.57987 0.88869,1.57987 0,0 -0.47169,3.55886 -0.58619,5.44394 -0.11451,1.88447 0.42725,9.25304 0.77646,12.36704 0.34864,3.11339 2.93836,8.39113 2.93836,8.39113 0,0 0.11279,9.37784 0.15837,9.98643 0.045,0.60859 1.30341,2.3355 1.77224,3.36238 0.46884,1.02688 4.59839,6.82671 4.59839,6.82671 0,0 0.16976,2.83782 0.98553,4.82053 0.81577,1.9827 2.27811,8.90703 2.30659,11.00095 0.0718,5.28948 0.86647,4.62899 1.06472,6.45662 0.19824,1.82762 -0.39307,11.93454 -0.39307,11.93454 0,0 -1.23448,3.93637 -1.05902,4.34663 0.17489,0.41025 3.98371,0.49552 4.11359,0.29719 0.12989,-0.19772 -0.0587,-2.79272 -0.0456,-3.26415 0.0131,-0.47142 0.50131,-15.84249 0.50131,-15.84249 0,0 0.2592,-4.86192 0.0758,-9.45384 -0.18343,-4.59192 -0.94109,-8.66298 -0.94109,-8.66298 l 1.52558,0.17671 1.44183,1.39574 c 0,0 0.54062,13.31236 -0.10482,15.08747 -0.57024,1.56874 0.43352,3.46309 0.43352,3.46309 0,0 -0.10596,11.5008 -0.50529,12.43191 -0.39877,0.93111 -1.12567,3.14737 -0.8773,3.81527 0.24838,0.66853 4.10961,0.66853 4.2469,0.20081 0.13729,-0.46772 -0.0194,-2.42324 -0.0194,-2.42324 0,0 -0.0666,-13.29815 0.2028,-14.03093 0.26889,-0.73278 0.79982,-1.92957 0.4113,-3.62868 -0.38794,-1.69849 0.11109,-1.7646 0.68247,-6.66916 0.57138,-4.90455 0.49334,-8.81868 0.49334,-8.81868 0,0 1.23333,0.37751 3.21579,0.64443 1.98245,0.26691 5.25977,-1.31233 5.25977,-1.31233 0,0 1.296,2.60489 2.59713,5.00773 1.30112,2.40285 4.2993,6.11247 4.2993,6.11247 0,0 0.25635,2.26383 0.40504,3.61756 0.14925,1.35372 1.01344,3.80971 0.87843,6.4356 -0.0855,1.65463 -1.20314,8.8193 -1.82295,9.39206 -1.33587,1.23448 -1.50279,2.93791 -1.50279,2.93791 0,0 2.09981,0.49985 3.40208,0.60983 1.30283,0.10998 2.32653,-0.93544 2.32653,-0.93544 0,0 3.60431,0.2354 3.86237,-0.0933 l -0.24724,-3.51313 c 0,0 -0.89837,-22.88545 -0.93426,-23.83078 -0.0359,-0.94532 -1.55064,-1.87643 -1.55064,-1.87643 0,0 2.03201,-12.96389 2.75493,-16.60987 0.22046,-1.11153 0.55372,-3.19309 0.80665,-5.43035 0.60955,0.52765 1.22878,0.98548 1.46975,0.9064 0.54005,-0.17856 0.51271,-2.39544 0.14356,-5.10536 z m -26.63553,-47.61212 0.15096,1.28638 -1.62812,0.41891 c 0,0 -0.29452,-1.66327 -0.70981,-3.83381 z m 20.15723,100.16215 0.4415,-5.53538 0.15609,4.75132 z"
   id="path1" />
</svg>
