<?xml version="1.0" encoding="utf-8"?>
<!-- Generator: Adobe Illustrator 27.5.0, SVG Export Plug-In . SVG Version: 6.00 Build 0)  -->
<svg version="1.1" xmlns="http://www.w3.org/2000/svg" xmlns:xlink="http://www.w3.org/1999/xlink" x="0px" y="0px"
	 viewBox="0 0 750 500" style="enable-background:new 0 0 750 500;" xml:space="preserve">
<g id="BACKGROUND">
	<rect style="fill:#FFFFFF;" width="750" height="500"/>
</g>
<g id="OBJECTS">
	<g>
		<path style="fill:#061E11;" d="M681.11,211.986l-11.255-9.074l-7.857-15.292c-2.643-5.138-5.284-10.277-7.959-15.398l-0.675-1.292
			l-1.324,0.752l-7.919,4.496l-1.979,1.124c-0.664,0.366-1.305,0.771-1.999,1.09l-4.097,2.019
			c-5.086,2.495-10.15,5.024-15.217,7.548l-13.881-11.016c-4.792-3.816-9.607-7.602-14.424-11.388l-11.953-26.734l-12.277-27.174
			l-1.031-2.282l-2.365,1l-21.357,9.027l-21.32,9.11l-0.725,0.31l-0.419,0.641l-15.556,23.778l-10.247,10.96l-17.347-8.122
			l-18.946-8.807l-1.186-0.552l-0.947,0.826l-11.486,10.027l-11.452,10.066l-0.242,0.213l-0.12,0.246l-6.888,14.128l-6.754,13.982
			c-5.082,4.114-10.135,8.263-15.195,12.403c-5.128,4.179-10.208,8.417-15.312,12.625h78.637l-17.966-8.975l-25.601-4.079
			l19.762-10.307l-1.347-4.55l16.618,9.345l22.457,3.163l15.633,2.349l-15.233-6.819l-11.629-1.743l-9.456-13.077l-14.797-13.077
			l21.051-0.426l14.831,8.884l-12.098-11.704l-11.854-3.266v-15.751l17.617,8.631l9.049,4.402l14.457,12.564l-18.39-3.757
			l25.864,10.252l28.309,12.209l3.51,5.009l-19.683,6.863l23.412-1.541h14.466l28.026,9.711l-16.858-9.711v-6.65l-11.111-12.754
			l24.731,8.962l-35.001-20.751l-5.879-3.681l-4.771-16.77l1.13-3.431l30.146,10.824l-27.931-17.548l-10.509-7.434l15.593-4.499
			l12.125,6.135l-7.91-8.999l15.82-13.27l11.381,24.822l10.11,21.826l-23.47-12.076c0,0,22.596,15.107,26.112,17.779l0.021,0.044
			l0.43,0.33c5.016,3.844,10.032,7.687,15.074,11.5l9.138,13.183c-8.173-0.643-25.589-2.004-26.607-2.004
			c-1.333,0,30.788,8.035,30.788,8.035l24.146,6.424l-10.556-6.021l-5.761-6.798l9.096,2.488l7.222-8.343l9.15,5.855l-3.638-10.269
			l5.31-7.367c2.476,4.425,4.967,8.842,7.464,13.257l8.548,15.098l0.086,0.151l13.507,13.606l10.288,3.745L681.11,211.986z"/>
		<path style="fill:#061E11;" d="M637.726,221.223h17.25c0,0-60.167-13.861-60.667-13.861S637.726,221.223,637.726,221.223z"/>
		<polygon style="fill:#061E11;" points="535.059,221.223 556.642,221.223 508.642,210.695 		"/>
		<path style="fill:#061E11;" d="M488.184,221.223h17l-41.75-12.653C463.809,208.695,488.184,221.223,488.184,221.223z"/>
		<polygon style="fill:#061E11;" points="484.309,189.445 501.059,197.57 522.309,198.528 		"/>
	</g>
	<g>
		<path style="fill:#061E11;" d="M350.487,212.632l-10.156-8.539l-10.192-8.497l-10.25-8.433l-0.202-0.167l-0.306-0.086
			l-16.726-4.691l-10.653-4.235l-10.102-3.982l-7.174-11.098l-7.547-11.581l-15.126-23.144l-0.11-0.168l-0.156-0.165l-15.908-16.814
			l-1.578-1.668l-1.875,1.37l-11.204,8.189c-3.657-0.607-7.314-1.216-10.976-1.798l-1.325-0.21l-0.945,0.901l-27.158,25.893
			l-23.822,10.01l-10.256-3.225l-1.392-0.438l-0.958,1.018l-14.841,15.769c-4.839,5.156-9.697,10.295-14.505,15.479l-23.57,6.696
			l-0.316,0.09l-0.2,0.189c-5.585,5.305-11.201,10.577-16.76,15.908l-8.347,7.988l-8.308,8.029h56.618l-11.628-14.725V195.83
			l17.913-5.791c0,0,6.418,7.314,10.54,11.823h-15.845l19.131,3.417c1.257,0.914,19.798,3.962,19.798,3.962l9.114,2.438
			l-7.542-5.791l-14.77-3.048l-11.313-16.155l1.79-4.285l14.129,7.226l-11.046-11.213l13.615-8.222l-0.343-14.775l3.226,1.066
			l8.678,6.483l28.757,23.529l0.254,2.225l-28.144-11.69c0,0,27.667,15.333,28.675,16.336l28.001,22.425l3.34-1.744l33.91,7.178
			l-25.432-9.919l-11.046-13.953l-2.569-13.455l21.579,3.737l-32.112-12.458l-3.083-30.149l15.413-6.977v-9.219l16.533,2.99v-15.727
			l14.265,14.916l15.357,22.733l6.779,10.008l-36.402-13.304c0,0,41.016,20.073,42.547,22.315l2.632,3.855l0.371,0.543l3.298,4.851
			l-48.473-6.814l54.199,15.238l12.52,4.08l18.511,13.26l-10.867-13.94l10.128-4.302l0.904,0.685l33.521,31.007h7.623
			L350.487,212.632z"/>
		<polygon style="fill:#061E11;" points="333.559,221.223 346.059,221.223 322.809,212.195 		"/>
		<polygon style="fill:#061E11;" points="283.809,214.896 316.309,216.709 257.059,203.695 		"/>
		<path style="fill:#061E11;" d="M167.642,213.362l24.333,7.861c0,0,24.5-0.028,25.833,0c1.333,0.028-29.333-6.361-29.333-6.361
			L167.642,213.362z"/>
		<polygon style="fill:#061E11;" points="141.142,221.223 151.309,221.223 121.476,211.362 		"/>
		<path style="fill:#061E11;" d="M221.559,161.603l26.5,5.592c0,0-32.75-13.75-33.5-14L221.559,161.603z"/>
	</g>
	<g>
		<polygon style="fill:#061E11;" points="622.037,383.021 618.108,384.941 611.461,383.665 588.001,369.979 560.631,367.586 
			584.311,372.359 598.265,384.611 587.512,390.637 618.108,390.575 651.174,390.637 642.345,386.225 		"/>
		<polygon style="fill:#061E11;" points="658.343,374.682 640.125,369.979 635.318,363.068 640.125,363.068 625.721,353.887 
			635.318,369.979 635.318,374.682 		"/>
		<path style="fill:#061E11;" d="M692.457,390.637l-10.576-14.372l-2.103-0.349l-9.51-3.306l-11.098-3.805l-8.159-8.652l-8.268-8.7
			c-3.93-5.592-7.837-11.199-11.802-16.768l-11.907-16.8l-0.931-1.314l-1.586,0.578l-8.879,3.237l-8.498,3.134l-12.846,0.504
			l-8.579-9.967c-3.106-3.616-6.319-7.144-9.232-10.915l-17.88-22.303l-1.652-2.062l-2.085,1.659l-11.752,9.353l-11.488,9.166
			l-13.217,5.891l-0.722,0.322l-0.402,0.655c-3.008,4.892-5.965,9.812-8.939,14.723l-16.732,6.904l-12.003-1.794l-1.642-0.245
			l-0.676,1.42l-6.26,13.145c-5.306,5.538-10.633,11.059-15.905,16.629l-15.724,16.558c-9.416,0.201-18.832,0.36-28.248,0.613
			l-0.313,0.008l-0.171,0.214l-6.65,8.306l-6.617,8.333H413.3l27.71-10.329l9.459-8.27l15.908,6.778l11.608-3.788h11.608
			l-12.018-2.99l-10.029,2.644l3.778-7.367c0,0,20.405-1.021,43.143-2.118c1.093-0.053-33.926-1.412-36.479-1.412
			c-2.554,0-9.774-12.332-9.774-12.332l0.111-3.867l6.236-1.815l-2.396-2.727l0.773-11.769l22.887,10.53l24.988,3.152l8.048,6.703
			l-28.928-1.84l35.381,7.215l31.744,7.25l-16.205-7.821l-10.534-11.326l-4.772-12.763l-1.531-27.959l10.55,4.69l-3.884-6.13h8.573
			l0.739-14.644l14.508,17.917c2.941,3.764,23.191,22.357,23.191,22.357l9.556,11.736l11.559,16.375l-44.834-8.856
			c0,0,48.833,14.521,49.316,15.206l22.025,6.911l-15.707-26.34l-12.086-7.12l8.687-4.21l-3.092-6.51l3.417-4.21l11.33,15.189
			c4.095,5.514,8.249,10.989,12.378,16.48l0.082,0.109l0.063,0.062l8.663,8.525l8.697,8.493l0.21,0.205l0.241,0.071l11.541,3.429
			l5.346,1.564l4.638,5.352l5.503,3.623l-1.745,5.945H692.457z"/>
		<polygon style="fill:#061E11;" points="534.309,390.637 570.059,390.637 498.559,377.195 		"/>
		<polygon style="fill:#061E11;" points="488.559,390.637 508.059,390.637 472.059,383.916 		"/>
		<polygon style="fill:#061E11;" points="550.476,325.028 598.309,347.862 583.642,334.707 		"/>
	</g>
	<g>
		<path style="fill:#061E11;" d="M105.739,376.161l3.965-5.391l6.74-3.081l3.797-5.872l14.493-2.286l14.043,6.332h13.04
			l-14.518-3.166l-18.047-8.585l-2.103-2.98v-14.811l19.428,4.8l-9.913-8.856l10.309-3.08l8.998,11.551l26.165,14.813l22.699-4.509
			l14.792,3.472l-10.558-4.735h-19.103l-9.98-2.773l-12.161-12.297l6.294-19.653L185.904,319l16.743,13.021l-11.461-15.783
			l0.45-13.633l10.339,10.09l-10.124-16.627l-6.724-10.828l18.149,8.73l28.441,35.474l-26.159-9.499l38.199,21.788l12.452,14.177
			l-11.507-17.972l-3.521-6.651h5.409l1.939-7.667l13.278,14.031l5.514,5.775l3.963,7.159l-14.309-1.057l18.041,6.745l9.19,4.262
			l15.055,10.433h6.815l16.309,7.452l-13.179-12.556l27.496,3.893l1.211,0.307l2.022,1.843l12.584,14.999l8.079,3.731L346.12,375.5
			l-1.638-1.214l-5.531-5.575l-0.14-0.141l-0.231-0.069l-14.729-4.387l-14.741-4.348l-14.748-4.322l-14.208-4.114l-15.07-16.559
			l-15.498-16.875l-1.321-1.439l-1.716,1.034l-12.176,7.331l-27.312-34.443l-0.37-0.466l-0.546-0.26l-20.763-9.897l-2.05-0.977
			l-1.251,1.843l-8.343,12.293l-8.251,12.187l-12.719,14.571l-10.02,0.071l-0.493,0.004l-0.423,0.184
			c-7.391,3.22-14.745,6.522-22.119,9.779l-0.515,0.228l-0.3,0.415c-4.979,6.895-9.991,13.767-14.935,20.686l-9.375,13.068
			l-3.325,4.271l-33.718,22.261h120.754l-31.719-9.471L105.739,376.161z"/>
		<polygon style="fill:#061E11;" points="295.928,383.096 268.917,369.904 258.003,358.499 264.183,367.917 273.252,380.27 
			273.252,386.629 250.633,390.512 331.44,390.512 302.356,383.096 		"/>
		<polygon style="fill:#061E11;" points="176.309,367.195 259.059,383.445 204.809,367.195 		"/>
		<path style="fill:#061E11;" d="M328.642,380.195l12.833,7.833l12.833,2.609l-12-7.192
			C342.309,383.445,329.476,380.362,328.642,380.195z"/>
		<polygon style="fill:#061E11;" points="243.758,365.195 228.476,347.362 210.309,338.695 		"/>
	</g>
</g>
</svg>
