<?xml version="1.0" encoding="UTF-8" standalone="no"?>
<!-- Created with Inkscape (http://www.inkscape.org/) -->

<svg
   width="500mm"
   height="500mm"
   viewBox="0 0 500 500"
   version="1.1"
   id="svg1"
   inkscape:version="1.3.1 (9b9bdc1480, 2023-11-25, custom)"
   sodipodi:docname="logo.svg"
   xmlns:inkscape="http://www.inkscape.org/namespaces/inkscape"
   xmlns:sodipodi="http://sodipodi.sourceforge.net/DTD/sodipodi-0.dtd"
   xmlns="http://www.w3.org/2000/svg"
   xmlns:svg="http://www.w3.org/2000/svg">
  <sodipodi:namedview
     id="namedview1"
     pagecolor="#505050"
     bordercolor="#eeeeee"
     borderopacity="1"
     inkscape:showpageshadow="0"
     inkscape:pageopacity="0"
     inkscape:pagecheckerboard="0"
     inkscape:deskcolor="#505050"
     inkscape:document-units="mm"
     inkscape:zoom="0.0625"
     inkscape:cx="2968"
     inkscape:cy="1248"
     inkscape:window-width="1850"
     inkscape:window-height="1136"
     inkscape:window-x="0"
     inkscape:window-y="0"
     inkscape:window-maximized="1"
     inkscape:current-layer="layer1" />
  <defs
     id="defs1" />
  <g
     inkscape:label="Layer 1"
     inkscape:groupmode="layer"
     id="layer1">
    <path
       d="M 2.7596407,2.5300013e-4 C -1.5099693,154.36879 -0.2776093,324.58528 2.7596407,500.00013 H 500.00035 V 2.5300013e-4 Z"
       style="fill:#c4c4c1;stroke:#232325;stroke-width:2;stroke-dasharray:none"
       id="path1"
       sodipodi:nodetypes="ccccc" />
    <path
       style="fill:#ff566f;fill-opacity:1;stroke:#000000;stroke-width:2;stroke-dasharray:none;stroke-opacity:1"
       d="M 6.4070061e-4,250.45028 500.00006,250.77063"
       id="path4" />
    <path
       style="fill:#ff566f;fill-opacity:1;stroke:#000000;stroke-width:2;stroke-dasharray:none;stroke-opacity:1"
       d="M 2.6772707,500.00155 250.16921,150.92986"
       id="path4-7" />
    <path
       style="fill:#ff566f;fill-opacity:1;stroke:#000000;stroke-width:2;stroke-dasharray:none;stroke-opacity:1"
       d="m 250.38147,150.70434 249.5461,349.38971"
       id="path4-7-6" />
    <path
       style="fill:#ff566f;fill-opacity:1;stroke:#000000;stroke-width:2;stroke-dasharray:none;stroke-opacity:1"
       d="M 6.4070061e-4,150.45028 500.00006,150.77063"
       id="path4-5" />
    <path
       style="fill:#ff566f;fill-opacity:1;stroke:#000000;stroke-width:2;stroke-dasharray:none;stroke-opacity:1"
       d="M 250.51091,500.00014 250.33441,3.5300013e-4"
       id="path4-5-2" />
    <path
       style="fill:#0047bb;fill-opacity:1;stroke:#0047bb;stroke-width:7.53444;stroke-dasharray:none;stroke-opacity:1"
       d="m 19.671008,494.56106 c 0.517323,-0.98135 36.862675,-54.77744 80.767422,-119.54685 l 79.82689,-117.76256 6.23272,-0.34155 c 3.42799,-0.18786 17.74292,-0.0213 31.81093,0.37049 l 25.57818,0.712 v 119.17638 119.1764 H 131.3088 c -106.926203,0 -112.53115,-0.0895 -111.637792,-1.78431 z"
       id="path8" />
    <path
       style="fill:#ffcd00;fill-opacity:1;stroke:none;stroke-width:7.99999;stroke-dasharray:none;stroke-opacity:1"
       d="M 274.43576,149.02427 251.41701,148.7173 V 74.654608 0.59191336 H 375.77117 500.12534 V 75.204412 149.81691 l -101.33542,-0.24284 c -55.73447,-0.13356 -111.69385,-0.38097 -124.35416,-0.5498 z"
       id="path9" />
    <path
       style="fill:#d22630;fill-opacity:1;stroke:none;stroke-width:7.99999;stroke-dasharray:none;stroke-opacity:1"
       d="m 252.72865,248.42087 c -1.04706,-0.66471 -1.27481,-10.80079 -1.05833,-47.10009 l 0.27586,-46.25311 29.29202,41.03087 c 16.11061,22.56697 31.25776,43.7693 33.66034,47.11628 l 4.3683,6.08542 -32.60201,-0.0161 c -17.93108,-0.009 -33.20238,-0.39733 -33.93618,-0.86315 z"
       id="path10" />
    <path
       style="fill:#d22630;stroke-width:1.88976"
       d="m 988.8125,943.31251 -31.4375,-0.0644 V 941.74903 940.25 h -3.5 -3.5 V 838.625 737 h 0.53882 c 0.5352,0 0.53775,0.0256 0.3788,3.8125 -0.088,2.09687 -0.23222,31.20625 -0.32046,64.6875 -0.18528,70.30539 0.0804,96.87374 1.15883,115.875 0.62093,10.94076 1.67393,16.78472 3.16848,17.58458 2.60558,1.39446 35.57245,2.51614 89.57553,3.04774 15.3861,0.15146 57.3441,0.23777 94.7052,0.19481 l 67.0801,-0.0771 -5.3024,-7.375 c -7.3711,-10.25223 -48.5753,-67.89244 -98.8283,-138.25 -30.8604,-43.20668 -42.2975,-59.39865 -42.0004,-59.46184 0.2245,-0.0478 0.604,0.12098 0.8434,0.375 0.2393,0.25401 33.2078,46.36184 73.2634,102.46184 40.0555,56.1 73.1027,102.36562 73.4382,102.8125 l 0.6101,0.8125 -94.2171,-0.0615 c -51.8195,-0.0338 -108.3641,-0.0905 -125.6547,-0.12596 z"
       id="path2"
       transform="scale(0.26458333)" />
    <path
       style="fill:#d22630;stroke-width:1.88976"
       d="m 1006.6429,662.1875 c -29.75717,-41.69688 -54.14085,-75.85938 -54.18593,-75.91667 -0.0451,-0.0573 -0.12549,-0.0573 -0.17869,0 -0.0978,0.10531 -0.91628,129.18328 -0.90785,143.16667 0.004,7.23113 -0.016,7.5625 -0.46448,7.5625 -0.45708,0 -0.47346,-1.64794 -0.64164,-64.5625 -0.0949,-35.50938 -0.13697,-70.44501 -0.0935,-77.63473 l 0.0791,-13.07224 55.40319,77.57223 c 30.4717,42.66473 55.3023,77.63748 55.179,77.71723 -0.1233,0.0797 -0.152,0.33286 -0.064,0.5625 0.088,0.22963 0.1193,0.41751 0.069,0.41751 -0.05,0 -24.4376,-34.11563 -54.1948,-75.8125 z"
       id="path3"
       transform="scale(0.26458333)" />
    <path
       style="fill:#d22630;stroke-width:0.944882"
       d="m 950.24037,736.4375 c -0.007,-44.37976 0.0124,-52.84983 0.0771,-33.96303 0.0839,24.4898 0.17216,32.71431 0.36409,33.93178 0.0832,0.52796 0.068,0.59375 -0.13747,0.59375 -0.22401,0 -0.23204,0.89443 -0.26284,29.28125 -0.0175,16.10469 -0.0359,2.675 -0.0409,-29.84375 z"
       id="path5"
       transform="scale(0.26458333)" />
    <path
       style="fill:#d22630;stroke-width:0.334066"
       d="m 951.26775,737.11463 c -0.0304,-0.0486 -0.0849,-0.0884 -0.12112,-0.0884 -0.0724,0 -0.0891,-0.0688 -0.0262,-0.10774 0.0639,-0.0395 0.14964,-0.4571 0.18207,-0.88663 0.0257,-0.34098 0.031,-0.28579 0.0367,0.3867 0.004,0.43144 0.002,0.78444 -0.005,0.78444 -0.006,0 -0.0363,-0.0398 -0.0667,-0.0884 z"
       id="path6"
       transform="scale(0.26458333)" />
    <path
       style="fill:#ffcd00;stroke-width:2.67253;fill-opacity:1"
       d="m 1080.0172,565.42026 -129.84246,-0.0893 v -1.59052 -1.59051 l 2.56326,0.008 c 1.40979,0.004 18.63226,0.23843 38.27215,0.52056 64.68445,0.92923 160.16715,1.55088 333.48925,2.17124 36.2171,0.12963 65.8493,0.37079 65.8493,0.53592 0,0.16513 -40.61,0.26067 -90.2445,0.21232 -49.6345,-0.0484 -148.6736,-0.12811 -220.087,-0.17725 z"
       id="path7"
       transform="scale(0.26458333)" />
    <path
       style="fill:#ffcd00;fill-opacity:1;stroke-width:1.88976"
       d="M 950.125,1.125 V 0 H 1116 1281.875 V 1.125 2.25 H 1116 950.125 Z"
       id="path11"
       transform="scale(0.26458333)" />
    <path
       style="fill:#ffcd00;fill-opacity:1;stroke-width:1.88976"
       d="M 1281.875,1.125 V 0 H 1486 1690.125 V 1.125 2.25 H 1486 1281.875 Z"
       id="path12"
       transform="scale(0.26458333)" />
    <path
       style="fill:#ffcd00;fill-opacity:1;stroke-width:1.33626"
       d="M 1696.9679,1.0606602 V 0 h 96.3433 96.3433 v 1.0606602 1.0606601 h -96.3433 -96.3433 z"
       id="path13"
       transform="scale(0.26458333)" />
    <path
       style="fill:#0047bb;fill-opacity:1;stroke-width:15.1181"
       d="m 17,1888.8882 c 0,-2.2645 622.5093,-879.0456 623.44954,-878.1053 0.53702,0.537 -80.89926,121.4055 -180.96948,268.5967 -300.42656,441.8912 -386.813652,569.3874 -389.058944,574.201 -2.84036,6.0893 0.04332,13.8676 7.084788,19.11 4.974616,3.7037 9.60634,4.2402 47.999996,5.5606 23.37176,0.8037 215.0691,1.526 425.9941,1.6051 L 935,1880 V 1423.1866 966.3733 l -18.5,-1.19259 c -26.18284,-1.68786 -194.20294,-4.45078 -220,-3.61769 -11.825,0.38188 -21.47138,-0.0386 -21.4364,-0.93435 0.035,-0.89577 1.2592,-3.20367 2.7205,-5.12867 2.4824,-3.27018 11.19178,-3.5 132.63474,-3.5 H 940.3967 l 1.2913,19.5 c 0.71022,10.725 1.29596,221.775 1.30166,469 L 943,1890 H 480 c -254.65,0 -463,-0.5003 -463,-1.1118 z"
       id="path14"
       transform="scale(0.26458333)" />
    <path
       style="fill:#0047bb;fill-opacity:1;stroke-width:2.67253"
       d="m 942.37691,1049.0813 c -0.0262,-44.1772 -0.52877,-78.16354 -1.31359,-88.83029 l -0.6113,-8.30851 -113.66742,0.0672 c -129.70594,0.0767 -141.18174,0.24875 -146.98982,2.20352 -1.02088,0.34359 -1.85615,0.55139 -1.85615,0.46179 0,-0.0896 0.57039,-0.93996 1.26754,-1.88967 l 1.26755,-1.72675 h 131.1382 131.13819 v 65.58421 c 0,36.0713 -0.0795,65.5841 -0.17677,65.5841 -0.0972,0 -0.18562,-14.9155 -0.19643,-33.1456 z"
       id="path15"
       transform="scale(0.26458333)" />
    <path
       style="fill:#d22630;fill-opacity:1;stroke-width:0.944882"
       d="M 950.3125,941.8125 V 940.25 h 3.5 3.5 v 1.49923 1.49923 l 9.65625,0.0328 c 8.92431,0.0303 8.65901,0.0351 -3.5,0.0633 l -13.15625,0.0305 z"
       id="path17"
       transform="scale(0.26458333)" />
  </g>
</svg>
