<?xml version="1.0" encoding="UTF-8" standalone="no"?>
<svg
   version="1.0"
   width="3000pt"
   height="2000pt"
   viewBox="0 0 3000 2000"
   preserveAspectRatio="xMidYMid"
   id="svg1"
   sodipodi:docname="mountain-Right.rev2.svg"
   inkscape:version="1.3.1 (9b9bdc1480, 2023-11-25, custom)"
   xmlns:inkscape="http://www.inkscape.org/namespaces/inkscape"
   xmlns:sodipodi="http://sodipodi.sourceforge.net/DTD/sodipodi-0.dtd"
   xmlns="http://www.w3.org/2000/svg"
   xmlns:svg="http://www.w3.org/2000/svg">
  <defs
     id="defs1" />
  <sodipodi:namedview
     id="namedview1"
     pagecolor="#505050"
     bordercolor="#eeeeee"
     borderopacity="1"
     inkscape:showpageshadow="0"
     inkscape:pageopacity="0"
     inkscape:pagecheckerboard="0"
     inkscape:deskcolor="#505050"
     inkscape:document-units="pt"
     inkscape:zoom="0.23313169"
     inkscape:cx="3004.7395"
     inkscape:cy="1458.4032"
     inkscape:window-width="1610"
     inkscape:window-height="986"
     inkscape:window-x="0"
     inkscape:window-y="0"
     inkscape:window-maximized="1"
     inkscape:current-layer="svg1" />
  <metadata
     id="metadata1">
Created by potrace 1.15, written by Peter Selinger 2001-2017
</metadata>
  <rect
     style="fill:#c4c4c1;fill-opacity:1;stroke:none;stroke-width:0.755061;stroke-opacity:1"
     id="rect4"
     width="1107.1637"
     height="130.40036"
     x="1908.4644"
     y="1418.2585" />
  <rect
     style="fill:#c4c4c1;fill-opacity:1;stroke:none;stroke-width:0.0856834;stroke-opacity:1"
     id="rect4-6"
     width="28.302505"
     height="65.68895"
     x="1880.6924"
     y="1481.7736" />
  <rect
     style="fill:#c4c4c1;fill-opacity:1;stroke:none;stroke-width:0.0701351;stroke-opacity:1"
     id="rect4-6-7"
     width="30.044933"
     height="41.459427"
     x="1851.6956"
     y="1505.9813" />
  <rect
     style="fill:#c4c4c1;fill-opacity:1;stroke:none;stroke-width:0.036414;stroke-opacity:1"
     id="rect4-6-7-4"
     width="17.351572"
     height="19.351845"
     x="1835.094"
     y="1527.6146" />
  <rect
     style="fill:#c4c4c1;fill-opacity:1;stroke:none;stroke-width:0.0301494;stroke-opacity:1"
     id="rect4-6-7-4-0"
     width="34.409321"
     height="6.6897058"
     x="1823.4027"
     y="1540.7971" />
  <rect
     style="fill:#c4c4c1;fill-opacity:1;stroke:none;stroke-width:0.742223;stroke-opacity:1"
     id="rect4-3"
     width="1069.7365"
     height="130.4129"
     x="1945.2457"
     y="1361.1182" />
  <rect
     style="fill:#c4c4c1;fill-opacity:1;stroke:none;stroke-width:0.71287;stroke-opacity:1"
     id="rect4-3-4"
     width="986.79761"
     height="130.4129"
     x="2012.934"
     y="1230.3107" />
  <rect
     style="fill:#c4c4c1;fill-opacity:1;stroke:none;stroke-width:0.26706;stroke-opacity:1"
     id="rect4-3-4-0"
     width="587.75415"
     height="30.729126"
     x="2382.4565"
     y="1040.9872" />
  <rect
     style="fill:#c4c4c1;fill-opacity:1;stroke:none;stroke-width:0.730986;stroke-opacity:1"
     id="rect4-3-6"
     width="1037.4994"
     height="130.4239"
     x="1976.5247"
     y="1284.9236" />
  <rect
     style="fill:#c4c4c1;fill-opacity:1;stroke:none;stroke-width:0.705092;stroke-opacity:1"
     id="rect4-3-2"
     width="965.38159"
     height="130.4129"
     x="2049.4141"
     y="1165.1348" />
  <rect
     style="fill:#c4c4c1;fill-opacity:1;stroke:none;stroke-width:0.624902;stroke-opacity:1"
     id="rect4-3-5"
     width="880.76477"
     height="112.27703"
     x="2132.1726"
     y="1070.9515" />
  <rect
     style="fill:#c4c4c1;fill-opacity:1;stroke:none;stroke-width:0.397487;stroke-opacity:1"
     id="rect4-3-5-9"
     width="435.55832"
     height="91.860252"
     x="2403.9324"
     y="958.8421" />
  <rect
     style="fill:#c4c4c1;fill-opacity:1;stroke:none;stroke-width:0.157648;stroke-opacity:1"
     id="rect4-3-5-9-1"
     width="105.00748"
     height="59.935696"
     x="2809.8811"
     y="1005.0106" />
  <rect
     style="fill:#c4c4c1;fill-opacity:1;stroke:none;stroke-width:0.280207;stroke-opacity:1"
     id="rect4-3-5-9-6"
     width="307.10443"
     height="64.743851"
     x="2447.179"
     y="913.01404" />
  <rect
     style="fill:#c4c4c1;fill-opacity:1;stroke:none;stroke-width:0.27448;stroke-opacity:1"
     id="rect4-3-5-2"
     width="146.29411"
     height="130.4129"
     x="2522.3997"
     y="800.14453" />
  <g
     transform="matrix(0.09348638,0,0,-0.08943718,1818.7801,1549.5357)"
     fill="#1a1a1a"
     stroke="none"
     id="g1"
     style="stroke:none;stroke-width:0;stroke-dasharray:none;stroke-opacity:1">
    <path
       d="m 8312,8919 c -330,-49 -385,-89 -831,-609 -85,-99 -84,-98 -151,-266 -139,-348 -262,-513 -550,-734 -286,-220 -337,-262 -412,-334 -95,-93 -172,-193 -273,-356 -42,-69 -84,-135 -91,-147 -8,-12 -28,-38 -45,-58 -27,-31 -32,-45 -34,-93 -1,-45 -22,-112 -98,-312 -52,-140 -122,-337 -154,-437 -32,-101 -61,-183 -65,-183 -32,0 -308,279 -442,447 -86,106 -130,170 -378,548 -168,255 -204,288 -389,353 l -86,30 -52,-29 c -74,-43 -270,-236 -360,-356 -79,-105 -131,-188 -303,-478 -55,-93 -131,-217 -169,-275 l -68,-106 -184,-23 -184,-24 -68,-84 c -37,-46 -96,-134 -132,-196 C 2705,5043 2375,4381 2000,3605 1682,2946 1110,1800 1017,1635 672,1021 450,668 207,346 78,177 0,52 0,16 c 0,-45 86,5 285,165 366,294 558,454 590,492 50,57 295,424 387,577 86,142 336,595 888,1605 493,903 525,959 654,1138 49,69 73,94 80,87 7,-7 11,-62 11,-143 -1,-126 -2,-136 -34,-217 -83,-210 -236,-513 -547,-1083 -175,-319 -258,-461 -311,-528 -116,-150 -122,-160 -158,-270 -20,-60 -35,-112 -32,-115 7,-8 286,106 347,142 72,42 97,70 385,426 132,163 241,295 243,293 3,-2 -1,-110 -7,-241 -7,-130 -11,-237 -9,-239 2,-1 12,-5 24,-9 18,-5 26,3 54,56 51,96 109,189 141,226 50,56 71,125 133,428 43,204 57,255 85,290 11,15 30,59 42,98 11,39 40,136 64,216 24,80 51,183 60,230 112,581 301,1055 518,1296 66,74 135,123 282,203 127,69 131,71 203,71 63,0 84,-5 149,-35 119,-55 193,-115 423,-340 118,-117 230,-220 247,-230 21,-12 31,-25 28,-35 -2,-8 -16,-61 -30,-118 -41,-164 -125,-351 -330,-737 -59,-110 -186,-351 -282,-535 -97,-184 -196,-366 -221,-405 -147,-229 -382,-491 -592,-661 -248,-200 -651,-476 -1006,-688 -127,-76 -307,-192 -400,-258 -92,-66 -193,-134 -224,-151 -156,-86 -232,-179 -326,-400 l -34,-78 123,65 c 67,35 361,175 652,311 732,341 924,442 1135,595 100,73 413,334 477,398 119,119 535,640 660,827 134,200 459,756 594,1015 285,549 406,834 663,1565 283,802 349,965 453,1125 60,92 137,163 200,184 57,19 143,22 143,4 0,-18 -76,-462 -101,-588 -36,-187 -70,-303 -116,-397 -24,-51 -126,-211 -225,-355 -381,-556 -436,-652 -527,-923 -87,-260 -133,-466 -166,-745 -28,-237 -15,-380 34,-380 74,0 89,32 175,371 35,140 78,292 95,338 70,192 239,454 611,946 311,412 443,630 555,915 61,154 155,444 310,955 146,482 196,614 242,643 21,13 22,12 43,-60 29,-99 156,-506 185,-593 l 23,-70 179,-81 c 185,-84 279,-130 300,-146 9,-7 -1,-26 -39,-71 -28,-34 -64,-89 -78,-122 -34,-75 -73,-203 -67,-219 7,-18 163,-75 239,-87 115,-20 375,0 963,71 138,16 255,30 261,30 17,0 0,76 -22,102 -47,55 -196,157 -344,236 l -94,51 -106,187 -105,186 -130,48 c -180,65 -264,102 -380,164 l -100,54 -23,328 c -12,180 -20,329 -18,331 11,12 99,-48 156,-106 87,-88 139,-163 271,-388 61,-103 114,-192 118,-196 5,-4 104,-21 222,-38 118,-16 224,-35 236,-42 12,-6 86,-66 165,-133 225,-190 502,-391 670,-487 67,-38 261,-122 573,-247 542,-217 626,-263 1045,-575 135,-101 275,-199 311,-219 142,-78 272,-102 370,-69 70,24 209,113 208,133 0,8 -59,56 -132,105 -72,50 -217,152 -322,229 -514,375 -654,469 -1120,751 -670,406 -899,570 -1111,795 -82,88 -150,179 -354,480 -225,331 -240,351 -400,511 -228,229 -554,494 -760,618 -66,39 -130,71 -142,70 -13,-1 -79,-9 -146,-20 z"
       id="path1"
       style="stroke:none;stroke-width:0;stroke-dasharray:none;stroke-opacity:1" />
  </g>
  <path
     style="fill:#38383a;fill-opacity:1;stroke:#72a600;stroke-width:0"
     d="m 1817.6367,1547.5179 c 0,-3.2381 6.285,-12.7817 27.8168,-42.239 37.0796,-50.7282 48.507,-70.8356 152.0715,-267.5844 76.3228,-144.9956 88.5949,-167.3263 96.0514,-174.7795 3.9944,-3.9925 6.3127,-4.8058 20.2304,-7.0977 18.8096,-3.0975 18.2553,-2.6416 35.3535,-29.0728 31.3491,-48.4609 44.7574,-65.0618 62.7627,-77.70631 6.5187,-4.57792 8.0567,-5.06296 13.4422,-4.23903 8.2225,1.25784 17.3903,5.82974 24.3762,12.15594 3.1839,2.8833 15.4525,18.2171 27.2636,34.0752 26.7199,35.8749 36.2612,47.2187 51.9821,61.8006 l 12.4079,11.509 2.6813,-6.0247 c 1.4745,-3.3135 8.5993,-22.7349 15.8325,-43.1589 12.1456,-34.2933 13.9862,-38.3995 24.0634,-53.6781 15.053,-22.82311 22.8875,-31.64495 41.9964,-47.2888 53.857,-44.0912 55.6571,-46.05963 75.1053,-82.13248 13.7365,-25.47843 18.4556,-31.4793 44.2901,-56.31881 8.7899,-8.45129 17.4403,-15.30709 22.257,-17.63974 9.4252,-4.5645 25.91,-8.09837 37.7771,-8.09837 7.5987,0 9.9294,0.77378 19.7142,6.54528 16.7322,9.86925 40.5979,28.21362 60.7349,46.68398 17.3685,15.93073 25.0869,25.08957 62.5837,74.26205 13.1407,17.2325 31.0291,34.8086 47.4311,46.60344 7.4601,5.36459 33.5128,21.84989 57.8949,36.63385 57.2836,34.7341 73.4144,44.9169 104.4814,65.9561 25.1171,17.0098 59.3984,41.1937 59.3984,41.9031 0,0.1984 -5.5377,3.1254 -12.3057,6.5045 -11.4761,5.7293 -12.9241,6.096 -21.476,5.4394 -12.416,-0.9536 -22.2311,-5.6768 -46.1948,-22.2309 -43.8631,-30.3006 -53.2479,-35.24 -110.0551,-57.9271 -18.089,-7.2241 -37.0365,-15.1314 -42.1053,-17.5719 -12.6586,-6.0943 -35.4188,-21.1453 -59.4405,-39.30672 -11.0818,-8.37848 -21.44,-15.89464 -23.018,-16.70257 -2.4657,-1.26237 -17.2357,-4.26924 -37.6049,-7.65545 -5.0974,-0.8474 -6.3286,-2.0824 -14.1354,-14.1803 -14.9517,-23.16987 -22.5369,-33.20839 -30.3951,-40.22627 -10.1504,-9.06496 -12.8465,-9.06496 -11.7393,0 0.4591,3.75844 1.2486,14.60204 1.7545,24.09702 1.3385,25.12284 1.958,26.73566 12.1652,31.67629 4.662,2.25664 17.0159,7.43056 27.4532,11.49773 l 18.9769,7.3949 9.8007,16.10897 9.8007,16.109 16.1779,9.6884 c 20.1944,12.0936 26.6267,17.4637 26.6267,22.2295 0,4.239 1.9692,3.819 -39.8496,8.5005 -18.4541,2.0661 -37.89,3.2332 -54.8872,3.2963 -24.0412,0.089 -26.9332,-0.1752 -33.4587,-3.0585 -6.0654,-2.6799 -7.1429,-3.7711 -7.1429,-7.2336 0,-4.0741 7.5693,-20.1824 13.4331,-28.5868 l 3.1044,-4.4494 -16.8355,-7.779 c -28.5436,-13.1886 -28.8172,-13.3451 -29.977,-17.12991 -7.914,-25.82506 -20.0373,-58.98367 -21.5654,-58.98367 -3.1679,0 -8.7275,14.38388 -27.7824,71.87808 -29.7877,89.8793 -32.3279,94.9065 -78.0536,154.4702 -29.8621,38.8993 -44.2847,59.9993 -50.7148,74.1945 -2.8602,6.3142 -8.6237,22.975 -12.8077,37.0245 -8.5834,28.8212 -10.6988,33.5984 -14.8771,33.5984 -4.4048,0 -6.0292,-4.4345 -6.0292,-16.459 0,-30.5951 14.5862,-86.785 28.9647,-111.5788 2.5235,-4.3518 14.6985,-22.707 27.0554,-40.7891 24.1824,-35.3872 32.515,-49.3249 36.2504,-60.634 2.1248,-6.4333 11.1821,-50.7606 13.6026,-66.573 1.1399,-7.4468 -0.9226,-8.7442 -9.839,-6.1886 -15.6394,4.4829 -28.1933,23.7826 -44.9705,69.1357 -38.1594,103.1557 -57.7125,148.0236 -86.408,198.2795 -36.5837,64.0702 -57.2514,93.5387 -97.7297,139.3456 -21.581,24.4219 -55.1756,50.523 -87.2267,67.77 -15.9705,8.5937 -146.754,68.2904 -147.6768,67.4075 -1.054,-1.0084 11.0976,-23.145 15.3746,-28.0079 4.0121,-4.5614 47.6544,-32.7428 98.3739,-63.5232 41.679,-25.2939 68.5587,-44.9619 91.1682,-66.7085 27.1386,-26.1027 32.7895,-34.5462 76.3091,-114.0205 19.8554,-36.2594 31.5919,-60.719 35.8291,-74.6695 l 3.289,-10.8295 -4.3786,-4.4661 c -11.8482,-12.0848 -47.9131,-42.7709 -55.2125,-46.978 -12.5779,-7.2497 -21.4632,-7.5779 -34.8804,-1.2885 -23.0597,10.8092 -35.6063,23.2664 -48.8409,48.4926 -10.9816,20.9318 -17.049,37.9768 -26.3725,74.0893 -4.6985,18.1986 -11.2199,40.5333 -14.4918,49.6326 -3.2719,9.0994 -8.9078,27.5497 -12.5241,41.0009 -7.9044,29.4007 -6.8204,26.7793 -18.5934,44.9622 -13.2788,20.5081 -14.4623,20.0284 -13.3256,-5.4002 0.4951,-11.0772 0.3643,-20.1405 -0.2913,-20.1405 -0.6554,0 -12.2577,12.7203 -25.7826,28.2677 -15.7856,18.1457 -27.0177,29.7399 -31.368,32.3793 -7.7358,4.6934 -30.119,13.2937 -31.4025,12.0658 -1.9541,-1.8694 4.9568,-17.5664 12.2629,-27.8533 16.4252,-23.1268 39.557,-62.6145 64.3411,-109.8359 19.8212,-37.7652 22.3285,-44.3656 22.3285,-58.7784 0,-6.4512 -0.6385,-11.4761 -1.4579,-11.4761 -1.7915,0 -13.2759,16.2209 -24.4451,34.527 -4.5864,7.5169 -30.4957,52.1861 -57.5764,99.2653 -65.3121,113.5437 -66.1148,114.885 -85.7065,143.2385 -18.4978,26.7705 -21.0993,29.3587 -58.6337,58.335 -37.4065,28.8773 -42.8571,32.2156 -42.8571,26.2481 z"
     id="path5" />
</svg>
