<svg version="1.1" xmlns="http://www.w3.org/2000/svg" xmlns:xlink="http://www.w3.org/1999/xlink" x="0px" y="0px"
	 viewBox="0 0 500 500" style="enable-background:new 0 0 500 500;" xml:space="preserve">
     <path style="fill-rule:evenodd;clip-rule:evenodd;fill:#1A1A1A;" d="M344.926,227.829c-0.029,0.048-4.28-4.905-5.299-10.023
		c0,0-0.51,5.778,2.89,11.061c0,0-4.08-7.264-5.78-11.391c-1.7-4.127-3.91-4.457-8.84-5.943c-4.93-1.486-8.16-3.797-8.16-3.797
		s-1.7,5.118-2.72,6.769c-1.02,1.651-8.5,13.372-8.5,13.372s7.65-12.052,7.48-17.665l-13.091,21.792c0,0,9.35-16.179,9.86-21.627
		c0,0-4.59,8.585-8.16,12.547c0,0,3.91-8.75,4.42-12.547c0,0-2.55,4.788-5.61,8.585c0,0,2.72-6.439,2.55-10.401
		c0,0-2.38,5.283-4.76,8.255c0,0,1.87-6.769,1.87-11.061c0,0-1.36,6.604-8.33,11.556c0,0,5.27-6.769,6.29-12.382
		c0,0-2.72,5.448-7.31,7.924c0,0,3.57-4.458,4.93-8.255c0,0-2.72,3.467-5.44,5.283c0,0,0.34-3.467,0.672-5.787
		c0,0-3.192-0.84-4.536,1.176c-1.344,2.016-4.536,11.255-4.536,11.255l3.36-11.759l-8.064,17.135l3.864-16.463l-4.872,11.927
		l2.184-11.087l-3.024,6.384c0,0,1.68-3.696-0.504-5.88c-2.184-2.184-4.032-5.544-4.032-5.544l3.192,8.232l-4.368-6.552l-4.2,11.927
		l2.352-15.455c0,0-4.871,4.704-4.535,7.559c0.336,2.856,0.84,5.04-0.672,6.888s2.688,2.52,2.856,6.72
		c0.168,4.2,4.872,7.559,4.872,7.559s-4.872-2.352-6.72-7.055c-1.848-4.704-4.536-4.704-4.368-6.384
		c0.168-1.68,3.192-3.528,1.68-5.376s1.008-7.895,1.008-7.895l-8.399,10.415l9.071-14.951c0,0-2.688-1.008-4.032-1.848
		c-1.344-0.84-7.56,10.583-7.56,10.583l5.376-11.255c0,0-5.208,7.559-6.888,8.399c-1.68,0.84-5.88,4.032-5.88,4.032l9.239-11.087
		l-18.647,16.799c0,0,9.24-11.759,11.927-13.607c2.688-1.848,8.399-10.415,10.079-10.079c1.68,0.336,6.72,7.223,10.751,6.215
		c4.032-1.008,4.872,2.688,6.888,2.52c2.016-0.168,2.856,0,4.032,1.176c1.176,1.176,2.688,4.704,7.223,3.864
		c4.536-0.84,13.103-4.032,15.791-4.536c2.688-0.504,1.848-3.192,4.704-0.84c2.856,2.352,15.959,11.759,21.838,12.767
		c5.88,1.008,5.712,4.368,9.407,5.376c3.696,1.008,5.712,1.848,10.919,5.208c5.208,3.36,3.696,4.872,8.399,5.208
		c4.704,0.336,16.127,6.216,16.127,6.216s-9.239-6.215-14.615-10.415c-5.376-4.2-8.4-10.08-11.927-10.415
		c-3.528-0.336-12.935-5.544-16.799-11.255c0,0,5.712,4.872,10.752,6.215c5.04,1.344,11.759,6.048,14.783,9.743
		c3.024,3.696,8.231,8.064,8.231,8.064s-7.224-8.903-8.736-13.607c0,0,5.04,6.888,7.896,8.735c0,0-5.04-6.552-6.048-10.583
		c0,0,1.176,1.68,3.192,3.192c0,0-1.176-2.52,0-6.048c0,0-3.36,0.84-7.223-1.176c-3.864-2.016-4.872-0.504-8.232-1.848
		c-3.36-1.344-5.04-5.544-5.04-5.544s0.672,4.032,2.52,6.551c0,0-3.024-1.68-4.2-4.704c-1.176-3.024-7.559-6.215-9.911-10.751
		c0,0,0.504,4.032,3.864,7.223c0,0-3.696-3.192-5.544-7.223c-1.848-4.032-4.031-4.704-6.216-8.567
		c-2.184-3.864-5.039-2.688-8.231-5.376c0,0,5.207,10.079,7.895,13.439l-5.208-5.711c0,0,5.879,11.591,10.751,17.975
		c0,0-11.759-12.935-16.295-25.03c0,0-0.504,3.192,1.176,6.552c0,0-3.024-4.032-4.032-11.255c0,0-0.84,2.688-0.336,5.04
		c0,0-3.192-5.544-3.024-7.727c0.168-2.184-4.368,1.344-4.368,1.344l7.224,13.439l-9.743-11.591l10.751,14.111l-11.927-10.919
		c0,0,3.696,6.72,9.407,10.415c5.712,3.696,6.216,2.52,7.896,5.04c1.68,2.52,9.575,8.568,9.575,8.568s-9.408-6.72-11.423-6.888
		c-2.016-0.168-3.36-3.528-6.384-4.536c-3.024-1.008-5.544-2.016-7.392-3.696c-1.848-1.68-3.192-2.352-5.543-2.52
		c-2.352-0.168-12.599-10.583-12.599-10.583s6.72,10.079,9.575,12.263c2.856,2.184,16.127,10.583,16.127,10.583
		s-12.263-6.383-15.623-8.735c-3.36-2.352-13.271-15.791-13.271-15.791s3.192,6.551,3.192,7.727c0,1.176-2.52,5.88-2.52,5.88
		s1.344-4.032,0-6.719c-1.344-2.688-2.52-4.872-2.52-4.872s1.68,5.88,1.344,7.391c-0.336,1.512-4.2,6.552-4.2,6.552
		s3.528-4.536,2.52-7.223c-1.008-2.688-2.688-4.704-2.688-4.704l1.344,6.72l-5.376,6.048c0,0,1.848-3.696,1.68-5.712
		c-0.168-2.016-1.008-4.704-1.008-4.704l3.024,5.04l-1.68-10.079l5.712,6.048l-3.528-10.079l5.544,7.223
		c0,0-3.36-10.415-4.872-11.423s-9.071,0-11.591-0.504c-2.52-0.504-5.04-6.215-5.04-6.215l0.336,5.376l-2.016-5.544
		c0,0-3.528,5.712-0.168,9.071c3.36,3.36,6.72,12.767,7.56,19.991c0,0-3.36-10.919-6.888-14.951c0,0,1.512,4.2,2.352,8.231
		c0,0-1.512-4.872-4.704-6.552c-3.192-1.68-4.536-6.216-4.032-8.567c0,0-2.688,5.208-6.048,6.384
		c-3.36,1.176-2.856,3.528-5.208,3.528c-2.352,0-5.544,1.344-5.544,1.344l-3.528,4.536c0,0,3.864-1.008,5.544-2.52l-8.063,10.079
		l11.927-10.415l-10.919,12.431l13.943-11.927l-12.095,13.943l15.119-12.935l-12.263,14.783l9.911-8.231l-8.567,11.087l8.567-6.888
		c0,0-7.055,6.384-6.887,8.904c0.168,2.52,3.36,9.407,3.36,9.407s-6.048-8.399-10.415-10.919c-4.368-2.52-5.712-0.168-7.895-1.68
		c-2.184-1.512-6.048,2.52-6.048,2.52l2.184-4.536l-7.896,3.024l5.544-4.872l-7.728,3.864l3.696-3.36l-6.719,2.016l3.528-2.688
		c0,0-3.696,1.68-6.048,0.84c-2.352-0.84-6.047-1.176-6.047-1.176s6.719,0.672,8.735-0.336c2.016-1.008,6.215,0.168,6.215,0.168
		l-27.718-20.327l14.279,14.111l-18.647-15.623l11.423,11.927l-16.799-15.455l11.591,15.287l-12.095-14.111
		c0,0,8.399,15.623,9.407,17.303c1.008,1.68,2.352,8.736,2.352,8.736s-4.2-9.24-5.88-11.759c-1.68-2.52-6.384-8.231-5.544-7.559
		c0.84,0.672,5.04,8.399,5.544,9.743c0.504,1.344,1.68,5.88,1.68,5.88l-7.055-13.103l1.68,7.895c0,0-7.727-20.998-9.575-21.335
		c-1.848-0.336-2.352,2.52-8.064,1.512c-5.712-1.008-18.815-7.559-20.663-6.719c-1.848,0.84,5.375,11.591,7.559,11.927
		c2.184,0.336,3.864,0.84,11.423,8.567c7.559,7.728,13.103,15.119,13.943,18.311c0.84,3.192,5.376,11.255,5.376,11.255
		s-6.384-5.712-7.728-8.904c-1.344-3.192-1.344-5.376-4.032-8.567c0,0,1.344,3.024,2.016,7.391c0,0-2.352-3.36-5.04-5.88
		c-2.688-2.52-3.192-9.743-10.247-15.791c0,0,2.688,3.024,4.2,8.063c0,0-4.872-6.048-7.727-7.223
		c-2.856-1.176-8.567-11.927-8.567-11.927l5.711,13.103c0,0-9.743-15.119-10.079-16.631c-0.336-1.512-0.504-3.36-0.504-3.36
		s-8.231,6.888-11.591,9.408c-3.36,2.52-6.552,2.352-7.224,4.872c-0.672,2.52-4.368,3.192-7.056,5.376
		c-2.688,2.184-5.04,1.68-5.04,4.536c0,2.856-2.856,7.727-5.88,6.887c-3.024-0.84-2.52,8.063-5.208,8.903
		c-2.688,0.84-1.008-4.536-6.216,4.032c-5.208,8.567-10.919,16.799-12.095,19.823c-1.176,3.024-4.032,10.919-4.032,10.919
		s2.688-2.52,4.2-6.215c1.512-3.696,1.68-4.704,1.68-4.704s0.504,2.688,0.168,4.368c-0.336,1.68-0.84,2.856-0.84,2.856
		s1.344-3.696,5.376-3.864c4.032-0.168,10.583-12.263,10.583-12.263s0.672,6.215-6.048,12.599
		c-6.719,6.383-14.615,5.88-18.143,11.759c-3.528,5.88-6.383,9.743-6.383,9.743l7.727-16.295L57.023,238.7l10.751-20.327
		l-10.079,14.615l8.231-16.967l-5.544,8.567l2.856-8.231l-6.552,7.896c0,0,1.512-4.2-1.176-2.688
		c-2.688,1.512-2.856-2.52-2.856-2.52s-4.2,7.392-8.567,9.743c-4.368,2.352-4.536,0.84-8.231,3.024
		c-3.696,2.184-6.72,6.552-6.72,6.552s3.024-6.719,8.232-9.743c5.208-3.024,6.72-1.344,12.095-9.407
		c5.376-8.063,8.735-8.568,9.911-8.232c1.176,0.336,9.575,3.192,11.927,2.184c2.352-1.008,6.72-12.935,8.231-18.479
		c1.512-5.544,3.024-7.56,3.024-7.56l-2.856,12.935l5.376-15.791l-2.352,12.095l5.208-15.287l-1.344,10.247l3.36-12.095
		l-1.176,11.255l3.528-13.271l0.336,6.888l2.016-8.399l1.512,6.888l0.336-7.728l2.016,6.552l-0.336-7.896c0,0-3.36,0.672-6.048-0.84
		c-2.688-1.512-4.2-0.84-9.575,2.52c-5.376,3.36-9.575,0.336-9.575,0.336l-9.911,18.479l4.368-13.103l-9.575,15.791l6.888-15.119
		l-10.583,16.967l6.048-15.119c0,0-5.376,11.255-7.392,12.431c-2.016,1.176-8.399,7.727-8.399,7.727l9.575-17.135l-13.103,19.319
		l7.56-14.615l-11.759,16.967l8.399-14.951c0,0-6.72,6.887-8.567,8.063c-1.848,1.176-7.644,3.276-7.644,3.276
		s26.206-21.503,28.222-22.846c2.016-1.344,3.36,1.008,8.063-4.032c4.704-5.04,7.392-7.391,12.431-4.368
		c5.04,3.024,10.079-6.384,14.783-3.024c4.704,3.36,10.415,2.016,13.775-0.672c3.36-2.688,6.048-4.032,8.399-5.376
		c2.352-1.344,6.048-6.384,8.063-6.048c2.016,0.336,9.408-7.056,13.103-6.384c3.696,0.672,19.487,9.071,21.839,7.727
		c2.352-1.344,7.391-5.376,11.759-3.024c4.368,2.352,8.399,8.399,12.095,8.735c3.696,0.336,7.056,4.704,11.759,8.064
		c4.704,3.36,17.135,13.439,17.135,13.439s2.688-5.376,6.72-6.048c4.032-0.672,7.391-8.399,11.423-10.079
		c4.032-1.68,12.767-3.696,15.791-7.728c3.024-4.032,7.728-11.423,10.415-11.423c2.688,0,4.368,7.391,8.735,7.727
		c4.368,0.336,10.079-1.68,11.423,0.672c1.344,2.352,9.407,10.751,9.407,10.751s6.384-3.696,11.087-3.024
		c4.704,0.672,10.079-4.032,11.759-3.024c1.68,1.008,10.079,9.743,12.095,10.079c2.016,0.336,4.704,3.024,6.719,6.719
		s7.056,3.696,9.071,7.728c2.016,4.032,3.36-1.008,7.055,5.04c3.696,6.048,7.391,6.719,12.767,7.728
		c5.376,1.008,6.72,1.68,8.736-0.336c1.848-1.848-0.537-5.105,6.039,1.092c2.956-4.676,5.241-6.813,7.226-8.474
		c2.693-2.253,4.591-1.719,13.088-4.117c0,0,0.672-4.802,3.696-5.917c3.024-1.115,5.712-4.532,7.392-6.122
		c1.68-1.59,11.423,3.367,13.103,1.441c1.68-1.926,10.415-11.94,12.095-11.515c1.68,0.426,4.703,3.679,7.727,3.572
		c3.024-0.107,6.384,3.433,6.384,3.433s5.04-6.114,7.056-6.409c2.016-0.295,15.455,7.144,15.455,7.144s-10.499-4.09-14.363-3.861
		c0,0,2.184,1.36,2.856,5.965c0,0-3.528-4.691-5.88-5.019c0,0,2.184,2.872,2.856,6.973c0,0-1.848-5.273-5.04-5.31
		c0,0,1.848,2.417,1.512,5.994c0,0-1.176-3.02-4.032-2.938c-2.856,0.082-3.864-2.122-3.864-2.122l-2.352,9.92
		c0,0,0.672-8.33-0.672-11.157c0,0,0,4.032-1.512,6.773c0,0,0.504-5.449-2.184-6.4c-2.688-0.95-3.192-2.22-3.192-2.22
		s-1.008,0.82,0.168,4.679c0,0-2.52-1.479-2.184-5.224c0,0-5.376,6.331-7.56,13.874c0,0-0.336-3.815,1.176-7.9
		c0,0-4.2,2.631-6.048,8.781c0,0-0.336-2.303-0.336-3.982c0,0-0.672-0.574-3.024-0.901c-2.352-0.327-7.727,12.555-7.727,12.555
		l7.896-10.564l-7.391,14.521l8.063-11.932l-11.087,19.934c0,0,2.52-9.104,4.704-13.456l-6.048,9.117c0,0,5.208-14.706,7.559-19.586
		c0,0-7.392,12.506-10.415,20.004c0,0,4.2-12.374,7.56-19.586c0,0-7.224,11.641-10.247,20.315c0,0,2.52-9.272,6.888-18.143
		c0,0-6.384,9.838-9.239,18.152c0,0,1.344-6.412,3.696-11.964c0,0-4.368,5.679-5.712,11.756c0,0-0.168-4.679,1.848-9.006
		c0,0-2.688,3.249-3.528,7.74c0,0-1.512-1.29-0.336-6.166c0,0-1.512,1.901-1.68,4.614c0,0-1.68-2.274-1.512-4.482
		c0,0-3.696-0.131-5.88,2.709c-1.589,2.066-3.799,4.985-4.886,6.423c0.444-0.108,3.852-0.868,5.663,0.684
		c2.11,1.809,18.156,11.774,18.059,11.843c-0.005,0.003-18.75-8.66-18.815-8.735c-0.918-1.07-2.688,0.672-2.688,0.672l1.68,6.048
		c0,0-2.352-7.392-7.056-9.911c0,0,3.192,4.032,4.872,9.911c0,0-1.848-4.2-5.04-6.552c0,0,3.36,5.04,4.368,10.415
		c0,0-1.848-5.208-4.032-6.384c0,0-0.84,6.719,1.68,11.591c2.52,4.872,10.751,9.743,10.751,9.743s16.631-8.903,17.975-8.735
		c1.344,0.168,14.4,7.26,15.287,6.048c3.104-4.245,27.091-28.57,33.262-33.766c3.192-2.688,5.544,2.184,8.567,1.176
		c3.024-1.008,2.52,1.176,4.536,0.504c2.016-0.672,10.415,11.255,10.415,11.255s-7.895-8.903-8.903-9.071
		c-1.008-0.168-1.512,0-4.368-0.168c-2.856-0.168-3.192,0.168-5.04-0.504c-1.848-0.672-3.528-1.008-3.528-1.008
		s-5.544,3.528-6.72,7.224c-1.176,3.696-1.848,11.423-1.848,11.423s-0.504-6.72-0.168-9.407c0,0-3.192,8.568-2.352,13.103
		c0,0-2.352-5.208-1.176-9.743c0,0-2.184,6.048-1.008,9.911c0,0-2.52-3.192-1.68-7.895c0,0-2.856,3.024-1.344,7.559l-4.536-0.504
		c0,0-6.048,4.536-3.696,7.224c2.352,2.688,18.983,11.423,21.503,13.943c2.52,2.52,10.079,5.208,10.079,5.208
		s-6.552,0.168-9.911-2.016c-3.36-2.184-10.079-0.504-10.079-0.504l2.016-3.528l-10.919,6.383l9.407-7.727l-17.135,7.559
		l10.583-9.239l-15.959,10.247l8.063-8.903l-11.591,8.567l12.935-11.255l-2.856,6.215l7.056-7.56l-3.864,5.208l7.895-4.536
		l-4.368,6.552l6.048-4.2l-2.184,2.688l4.872-3.024c0,0-3.864-3.192-8.903-4.872c-5.04-1.68-12.599-0.336-14.615,1.344
		c-2.016,1.68-8.063,6.384-8.063,6.384l6.215-6.888c0,0-4.872-2.352-7.056-4.368c-2.184-2.016-4.872-2.856-6.048-2.352
		c-1.176,0.504-8.231,5.208-11.591,5.88c-3.36,0.672-10.751,5.88-10.751,5.88s10.247-0.336,14.447,0.672s9.408,3.528,9.408,3.528
		l-7.728-5.208l15.119,8.568c0,0-14.951-4.536-19.655-5.712c-4.704-1.176-16.463-0.672-18.479,0.504
		c-2.016,1.176-3.192,1.512-5.88,0.336c-2.688-1.176-12.935-2.184-19.151-4.872c0,0,6.216,3.192,9.407,3.696
		c3.192,0.504,6.888,3.024,6.888,3.024s-2.688-1.344-6.552-1.848c-3.864-0.504-8.399-2.016-13.439-4.872c0,0,6.72,4.2,10.583,5.88
		c0,0-5.712-0.84-13.103-5.88c0,0,3.024,4.536,6.552,6.048c0,0-5.88-0.504-11.255-7.391c0,0,2.52,5.376,6.215,7.728
		c0,0-6.047-2.352-10.079-7.896c0,0,2.856,6.72,6.048,8.232c0,0-7.727-3.864-10.583-9.407c0,0,2.352,5.88,6.048,9.071
		c0,0-5.712-4.536-8.567-8.736c0,0,1.008,4.872,3.528,8.063c0,0-4.032-4.2-5.208-7.559c0,0,0.168,6.048,1.008,8.735
		c0,0-3.192-5.88-3.192-9.575c0,0-2.184-1.512-6.551,5.712c0,0,0-2.016,1.512-4.368c0,0-4.032,1.008-6.384,4.872
		c-2.352,3.864-9.575,2.856-9.575,2.856s3.024-2.352,2.856-5.04c0,0-1.68,2.184-4.2,4.032c0,0,2.184-2.856,0-6.72
		c0,0,0,3.528-1.512,6.384c0,0,0.336-4.703-2.688-7.224c0,0,1.176,3.024,1.176,7.056c0,0-0.84-4.368-4.032-6.719
		c0,0,0,3.696,1.848,7.223c0,0-3.528-2.856-4.704-7.56c0,0-8.904,7.392-26.542,8.568c0,0,17.639-5.544,20.327-7.56
		c2.688-2.016,1.68-0.84,4.2-2.184c2.52-1.344,4.2-3.696,6.048-3.192c1.848,0.504,12.767,6.384,15.791,5.712
		c3.024-0.672,8.735-4.2,12.599-4.032c3.864,0.168,9.239-0.672,14.783,0.672c5.544,1.344,10.583,1.344,12.431,2.856
		c1.848,1.512,10.247,4.032,13.271,4.032c3.024,0,5.712,0.672,7.223,0.672s10.079-5.712,10.079-5.712l-7.728-4.2l4.536,4.872
		l-8.399-6.552l6.72,7.56l-10.415-8.568l7.895,10.079l-9.911-10.415l6.216,10.079l-9.239-11.759l1.512,5.376l-4.032-5.879v7.392
		c0,0,0.672-4.536-4.704-5.376c-5.376-0.84-5.376-8.735-5.376-8.735S342.268,224.421,344.926,227.829L344.926,227.829z
		 M436.321,192.167c0.084,0.084-7.307,7.98-7.307,7.98l1.512-9.575l-10.583,16.631l0.672-9.743l-6.888,12.431l-0.252-6.636
		l-9.071,14.783l8.063-10.079l-1.344,9.071l7.391-12.095l-1.008,9.072l9.743-13.775l-3.024,12.095L436.321,192.167L436.321,192.167z
		 M285.319,184.692c0.042,0.042,1.722,5.67,1.722,5.67l-3.276-3.528l1.68,5.88l-3.192-5.376l0.588,6.132l-2.352-5.46v5.88
		l-1.512-3.276l-3.402,3.15l3.192-1.68l2.184,3.528l0.168-3.528l2.184,5.04l0.168-5.544l3.36,3.696l-1.008-5.208l5.376,3.528
		C288.68,190.571,285.319,184.692,285.319,184.692L285.319,184.692z M259.281,215.854c-0.84,0.336-9.659,10.079-8.483,8.903
		c1.176-1.176,5.88-5.208,5.88-5.208l-6.216,8.064l6.888-6.384l-1.848,3.192l4.032-1.344l-2.016-0.84l1.848-2.856l-2.982,1.722
		C256.384,221.103,259.323,215.812,259.281,215.854L259.281,215.854z M246.598,209.302l-5.208,7.391l3.528-3.528L246.598,209.302
		L246.598,209.302z M243.743,208.966l-4.704,8.4l4.704-5.712V208.966L243.743,208.966z M213.168,197.543
		c0,0,2.856,5.376,4.872,6.552c2.016,1.176,9.407,7.391,9.407,7.391l-10.415-9.743l8.064,5.712
		C225.096,207.454,213.337,197.543,213.168,197.543L213.168,197.543z M207.793,198.047c0,0,2.688,3.36,6.048,6.384
		c3.36,3.024,11.087,10.583,11.087,10.583S215.856,203.255,207.793,198.047L207.793,198.047z M154.373,167.977l10.247,15.791
		l-5.208-10.919c0,0,4.032,6.72,6.384,7.896c2.352,1.176,6.215,9.071,6.215,9.071s-2.352-9.575-4.2-11.255
		c-1.848-1.68-7.055-10.751-7.055-10.751l5.88,11.927C166.636,179.736,160.42,172.176,154.373,167.977L154.373,167.977z
		 M138.582,157.393c0,0,3.528,6.048,6.72,7.56c3.192,1.512,9.239,6.216,9.239,6.216S147.485,164.785,138.582,157.393
		L138.582,157.393z M124.302,170.833l5.544,12.599l-1.848-10.079l3.36,6.719l-0.84-8.063l2.52,6.384l-1.344-16.127v10.751
		l-1.68-6.384v9.407l-3.528-6.887l1.176,7.559C127.662,176.712,124.471,170.665,124.302,170.833L124.302,170.833z M110.695,173.353
		c-8.903,6.383-18.647,24.526-18.647,24.526l11.423-16.295l-2.184,5.544L110.695,173.353L110.695,173.353z M96.668,203.506
		c-0.588,6.888-1.26,7.896,0.756,9.408c2.016,1.512-3.696,10.919-3.696,10.919c5.544-6.552,9.239-14.783,9.239-14.783
		c0,4.872-4.704,9.575-8.399,16.799c-3.696,7.224-11.255,21.335-11.255,21.335l11.423-9.575l-7.224,8.736l25.87-16.631
		l-11.087,16.463l11.591-10.919l-6.384,11.759l13.775-14.783l-7.391,14.111l11.255-11.759l-4.2,11.927l7.56-8.232l-4.536,9.407
		c0,0,7.727-10.583,9.407-8.399c1.68,2.184,6.888,1.176,9.071,0.672c2.184-0.504,5.88,4.704,9.407,5.712
		c3.528,1.008,36.622,0,36.622,0s-34.774-2.184-40.989-5.712c-6.216-3.528-10.079,0.168-11.759-1.512
		c-1.68-1.68-0.168-6.551-0.168-6.551l-6.72,8.735l2.856-8.4l-7.56,9.743l4.032-12.431l-10.415,11.927l6.216-13.271l-8.904,7.392
		l7.728-11.423l-14.447,15.623l8.063-11.927c0,0-9.239,2.688-12.095,4.368c-2.856,1.68-10.919,8.568-10.919,8.568l10.247-12.263
		L89.193,241.64c0,0,8.063-10.247,10.415-12.599s15.287-4.536,16.967-7.56c1.68-3.024,8.567-12.095,8.567-12.095l5.04,3.36
		l-2.856-4.536l5.712,5.88l-3.192-8.568l3.864,5.208l-2.016-5.544l5.04,7.559l-3.024-8.063l7.559,9.743l-3.36-9.071l6.552,9.071
		l-3.192-7.391c0,0,3.36,6.383,6.72,7.391c3.36,1.008,7.727,6.048,7.727,6.048l-8.399-12.263c0,0,6.048,6.216,8.063,8.063
		c2.016,1.848,2.352,6.719,2.352,6.719s1.68-4.368,0.672-6.719c-1.008-2.352-5.04-8.399-5.04-8.399s4.704,4.704,6.888,6.887
		c2.184,2.184-0.672,11.591-0.672,11.591s1.344-3.528,3.024-7.559c1.68-4.032-0.84-6.552-0.84-6.552s1.176,0.336,2.688,2.184
		s-1.68,9.911-1.68,9.911s4.032-8.4,6.551-7.56c2.52,0.84,3.864,0.168,3.864,0.168l6.216,11.255l-3.192-11.255l5.544,10.079
		l-3.696-10.079l6.551,7.392l-4.704-7.728c0,0,6.719,5.712,7.392,7.224c0.672,1.512-1.848,5.208-1.848,5.208l4.704-3.696
		l-6.216,9.575l10.415-7.055l-6.384,8.231l9.408-7.055l-4.368,6.72l5.04-5.04l2.016,3.528l-0.672-3.528l6.383,4.368l-5.208-6.384
		c0,0,2.688,1.512,3.864,0.672c1.176-0.84,4.536-3.192,6.551-3.192c2.016,0,7.896-5.04,7.896-5.04l-5.712,7.223l7.728-6.719
		l-3.864,6.552l7.896-5.544l-5.376,5.88l7.727-4.872c0,0,2.184,0.504,3.696,3.024c1.512,2.52,6.216,3.36,9.743,4.2
		c3.528,0.84,4.032,1.512,7.224,4.032c3.192,2.52,7.728,3.696,7.728,3.696s-2.688-1.68-5.88-4.536
		c-3.192-2.856-6.216-4.368-9.575-4.704c-3.36-0.336-6.216-3.024-7.896-5.88c-1.68-2.856-5.04-2.016-8.399-3.024
		c-3.36-1.008-3.696-4.2-5.04-7.392c-1.344-3.192-3.192-0.336-4.368-2.352c-1.176-2.016-0.336-2.856-3.864-4.704
		c-3.528-1.848-2.856-3.36-4.536-5.88c-1.68-2.52-6.719-8.063-9.575-8.399c-2.856-0.336-5.208-2.184-6.887-3.528
		c-1.68-1.344-8.736,3.192-11.255,6.552c-2.52,3.36-5.376,6.551-5.376,6.551s3.024-1.176,4.2-2.688
		c1.176-1.512,8.231-6.552,8.231-6.552l-6.048,14.111l1.68-8.903l-6.551,11.255l5.208-7.728c0,0-0.504,3.696-1.848,6.551
		c-1.344,2.856-1.344,7.056-1.344,7.056s-4.368,0.504-6.216-0.672c-1.848-1.176-5.376-2.52-7.559-3.36
		c-2.184-0.84-4.872-6.383-7.392-6.551c-2.52-0.168-7.224-1.512-7.224-1.512s-4.2,0.168-6.719,1.68
		c-2.52,1.512-2.688-0.168-4.368-1.176c-1.68-1.008-9.071,0.168-9.071,0.168l4.032-2.184l-0.168-7.224l3.36,4.536l-1.176-8.567
		l4.536,8.231c0,0-1.68-5.544-2.016-7.392c-0.336-1.848,1.008-7.055,1.008-7.055l13.607,16.799l-12.431-18.311l10.751,9.407
		l-5.376-6.384l8.231,4.2l-13.607-9.071l-10.247,9.911l7.391-4.032c0,0-4.2,4.032-5.88,5.376c-1.68,1.344-6.552,9.071-6.552,9.071
		l5.88-3.864l-6.552,6.384c0,0-3.192,7.728-5.376,13.271c-2.184,5.544-5.712,7.223-9.911,6.72c-4.2-0.504-12.767,7.895-12.767,7.895
		s3.864-5.207,6.048-8.399c2.184-3.192,3.192-10.415,3.192-10.415c0.672,1.176,1.512,10.247,1.512,10.247s1.512-6.216,1.512-7.895
		c0-1.68-3.528-10.079-3.528-10.079s3.528,3.192,4.704,6.384c1.176,3.192-0.336,10.415-0.336,10.415s2.352-8.063,2.688-9.743
		c0.336-1.68-4.368-9.911-4.368-9.911s2.52,1.848,4.536,4.872c2.016,3.024,0,10.415,0,10.415s2.856-9.071,3.696-11.423
		c0.84-2.352-6.048-2.688-5.376-6.384c0.672-3.696,9.911-21.671,9.911-21.671l2.352,6.719l-1.176-7.895l5.208,8.903
		c0,0-4.2-9.239-3.36-11.927c0.84-2.688,7.559-13.271,7.559-13.271s-13.775,9.743-15.623,12.767
		c-1.848,3.024-10.751,14.111-10.751,14.111s8.063-8.735,8.735-9.911c0.672-1.176,9.911-9.239,9.911-9.239
		s-10.751,12.935-14.447,17.975C103.64,190.403,95.241,199.811,96.668,203.506L96.668,203.506z M179.109,214.552
		c0.252,0.168,1.848,0.756,4.368,2.436c2.52,1.68,6.552,7.056,11.591,9.155c5.04,2.1,6.299,1.008,10.331-1.008
		c4.032-2.016,3.444-1.176,4.872-1.092c1.428,0.084,4.536-2.1,5.88-3.36c1.344-1.26,3.78-1.428,3.78-1.428s-2.94-4.452-5.46-5.544
		c-2.52-1.092-1.764-3.36-3.444-4.115c-1.68-0.756-11.339-13.103-11.339-13.103l10.079,13.859l-13.271-14.783
		c0,0,7.224,10.163,8.399,11.339c1.176,1.176,7.224,8.232,7.224,8.232s-5.376-4.956-6.804-6.3
		c-1.428-1.344-13.439-15.875-13.439-15.875s7.223,11.507,8.819,13.775c1.596,2.268,8.316,8.147,8.736,8.316
		c0.42,0.168-2.436-1.26-3.696-2.1c-1.26-0.84-11.003-10.919-11.003-10.919s2.772,4.452,6.216,8.483
		c3.444,4.032,7.392,6.72,7.392,6.72s-4.704-2.268-5.628-2.94c-0.924-0.672-15.623-19.319-15.623-19.319l13.355,19.655
		l-12.431-14.783l10.583,16.547c0,0-5.544-4.368-6.467-5.628c-0.924-1.26-4.872-10.583-4.872-10.583s-0.42,4.032-0.084,5.796
		c0.336,1.764,4.116,9.995,4.116,9.995s-3.696-5.796-4.116-6.299c-0.42-0.504-2.52-6.971-2.52-6.971s0.252,4.62,0.756,6.132
		c0.504,1.512,3.78,7.139,3.78,7.139s-2.688-4.032-3.948-5.46c-1.26-1.428-1.512-5.04-1.512-5.04s-0.252,2.52-0.252,3.864
		c0,1.344,3.528,6.216,3.528,6.216s-5.208-4.704-4.788-6.552c0.42-1.848,1.68-8.147,1.68-8.147s-1.596,5.88-3.108,7.643
		C179.277,210.268,179.109,214.552,179.109,214.552z"/>


</svg>