<svg version="1.1" xmlns="http://www.w3.org/2000/svg" xmlns:xlink="http://www.w3.org/1999/xlink" x="0px" y="0px"
	 viewBox="0 0 500 500" style="enable-background:new 0 0 500 500;" xml:space="preserve" fill="#1A1A1A" stroke="#1A1A1A">

<path style="fill-rule:evenodd;clip-rule:evenodd;fill:#1A1A1A;" d="M166.005,344.312c0,0-8.063-3.528-14.279-3.528
		c-6.215,0-11.591-5.376-11.591-5.376s3.024,2.688,4.872,8.063c0,0-11.255-9.239-22.343-11.759
		c-11.087-2.52-20.494,1.68-28.894,6.216c0,0,6.719-2.184,9.575-2.184c2.856,0,10.751,6.888,10.751,6.888s-8.232-5.376-11.591-5.376
		c-3.359,0-17.975,7.224-17.975,7.224l6.384-5.376c0,0-6.384,2.688-11.087,6.888l2.688-4.536c0,0-3.36,6.552-22.51,2.352
		c0,0,16.631-0.84,22.51-5.04c5.88-4.2,6.384-7.224,6.384-7.224l-0.84,3.864c0,0,2.016-3.528,5.208-5.376
		c0,0-1.008,1.848-1.848,3.528c0,0,5.88-5.208,12.767-5.544c0,0-13.943,0.504-30.91,2.856c-16.967,2.352-30.91,8.399-41.493,9.911
		c0,0,28.726-7.895,30.91-10.919c2.184-3.024,2.52-2.352,4.032-2.352c1.512,0,10.08-10.415,14.447-12.095
		c0,0-11.255-7.224-13.607-7.559c0,0,1.008,0.336,2.352,2.856c0,0-1.176-1.344-3.528-1.68c-2.352-0.336-2.184-1.68-4.704-0.504
		c0,0,3.192,2.352,2.856,5.208c-0.336,2.856,0.336,3.192,0.336,3.192s-1.344-1.512-1.848-4.032c-0.504-2.52-3.024-3.36-3.024-3.36
		s-4.704,1.68-8.063,2.856c0,0,2.688,3.024,3.36,7.224c0,0-1.344-4.2-4.368-5.712c0,0,1.176,0.84,1.848,3.36
		c0,0-1.344-1.68-3.696-2.184c-2.352-0.504-8.063-2.688-8.063-2.688s3.696,3.696,4.872,7.224c1.176,3.528,3.192,5.04,3.192,5.04
		l-1.848-5.544c0,0,2.352,5.712,4.032,7.056c0,0-5.712-2.016-8.399-6.887c-2.688-4.872-8.735-3.864-8.735-3.864
		s2.856-3.024,5.88-1.68c0,0-4.704-4.536-10.919,3.36c0,0,2.52-7.896,10.248-7.224c7.727,0.672,11.927-2.52,17.639-4.872
		c5.712-2.352,7.392-3.36,11.087-1.848c3.696,1.512,15.119,10.583,15.119,10.583s2.856-4.368,7.895-6.216
		c5.04-1.848,7.728-7.56,13.439-7.896c5.712-0.336,12.431-1.512,16.127-4.2c3.696-2.688,4.872-1.68,8.903-3.864
		c4.032-2.184,12.431-9.912,20.663-9.072c8.231,0.84,14.111,3.864,25.534,2.856c11.423-1.008,21.67-7.392,24.694-7.224
		c3.024,0.168,2.016,1.344,7.223,1.848c5.208,0.504,7.728,6.888,19.655,11.591c0,0,8.231-4.872,11.927-6.72
		c3.696-1.848,3.528-4.872,7.56-5.88c4.032-1.008,3.864-3.864,7.055-4.368c3.192-0.504,5.879-5.207,12.599-2.52
		c6.72,2.688,16.295,10.751,23.014,11.087c6.72,0.336,2.016-3.36,10.751,0.336c8.735,3.696,15.287,6.888,19.991,6.048
		c4.704-0.84,9.407-4.368,16.631-1.68c7.223,2.688,14.951,9.911,19.151,11.759c4.2,1.848,8.231,2.352,8.231,2.352
		s1.344-4.704,6.384-6.216c5.04-1.512,2.016-3.528,8.567-4.536c6.551-1.008,10.751-1.344,12.599-2.016
		c1.848-0.672,8.4-6.048,12.767-5.544c4.368,0.504,6.216,4.032,10.919,5.376c4.704,1.344,6.888,4.704,11.591,7.224
		c4.704,2.52,7.223,4.368,12.095,6.552c4.872,2.184,18.647,3.444,23.014,8.483c4.368,5.04,8.735,16.883,8.735,16.883
		s-6.552-11.255-11.423-14.783c-4.872-3.528-12.767-5.712-12.767-5.712s2.52,3.024,3.528,7.224c0,0-0.672-1.512-2.688-3.024
		c0,0,1.848,5.04,1.176,7.392c-0.672,2.352,1.68,10.415,2.016,10.919c0.336,0.504-2.688-4.872-5.712-11.927l2.184,2.016
		c0,0-1.848-3.864-3.864-8.232c-2.016-4.368-5.207-6.383-5.207-6.383s4.872,5.544,3.36,9.071c-1.512,3.528,4.2,10.583-0.672,16.967
		c0,0,2.184-5.208,0-10.415c-2.184-5.208-3.528-5.88-3.024-8.567c0.504-2.688-2.688-5.376-2.688-5.376s1.848,3.528,0.84,7.224
		c-1.008,3.696-2.52,5.208-1.008,8.735c1.512,3.528-3.192,3.024-0.84,8.4c0,0-3.024-4.368-2.016-7.895
		c1.008-3.528,2.688-11.423-3.696-19.319c0,0-3.36,5.712-2.688,11.087c0.672,5.376-4.704,11.423-4.704,11.423l2.352-1.176
		c0,0-0.504,2.52-2.856,4.2c-2.352,1.68-3.024,5.208-3.024,5.208s0.336-4.032,2.016-7.056c1.68-3.024-1.008-7.391,0.168-9.407
		c1.176-2.016-1.512-5.712-3.36-10.415c0,0,0.672,7.391-1.68,10.247c-2.352,2.856-2.184,4.199-2.688,5.879
		c-0.504,1.68-0.504,3.864-1.848,5.88c-1.344,2.016-3.696,4.368-4.872,9.576c0,0-0.84-4.872,1.512-7.896
		c2.352-3.024,1.512-4.872-0.168-7.391c-1.68-2.52-2.688-4.536-1.344-6.552c1.344-2.016-2.016-6.552-2.016-6.552
		s3.024,4.2,0.672,6.048c-2.352,1.848-4.536,1.008-3.36,5.04c1.176,4.032-3.528,3.024-3.36,7.224
		c0.168,4.2-5.879,7.055-7.056,11.423c0,0-1.008-2.52,1.68-7.223c2.688-4.704-0.672-7.224-0.168-8.735
		c0.504-1.512,4.368-7.223,4.368-7.223l-6.552,8.399l6.719-16.463c0,0-5.543,12.767-8.567,14.279
		c-3.024,1.512-11.255,12.935-11.255,12.935s5.376-9.071,6.216-13.103c0.84-4.032,6.384-12.599,6.384-12.599l-6.888,7.559
		l4.368-6.719c0,0-4.871,0.336-6.887,5.88c-2.016,5.544-13.439,18.647-13.439,18.647s8.568-14.111,10.751-19.151
		c2.184-5.04,0.168-5.544,9.575-16.295c0,0-6.551,8.736-10.415,10.247c-3.864,1.512-7.895,3.864-9.407,10.751
		c0,0-0.672-5.544,4.368-10.079c5.04-4.536,7.223-10.919,11.591-14.111c4.368-3.192,6.888-6.888,6.888-6.888
		s-6.72-0.336-8.903,3.696l1.176-3.024c0,0-3.864,2.52-5.88,9.911c0,0-0.168-5.04,1.512-8.903c0,0-3.192,4.368-4.2,10.751
		c0,0-0.672-3.024,0.672-7.392c0,0-4.704,4.872-5.208,12.263c0,0-0.504-5.207,2.016-10.583c0,0-5.544,2.856-4.536,7.391
		s-3.024,7.895-3.024,7.895l4.368-3.528l-5.88,10.247c0,0,1.176-2.184,3.36-3.864c0,0-3.528,4.536-2.688,9.407
		c0.84,4.872-4.2,9.911-4.2,9.911s3.024-4.368,2.856-9.072c-0.168-4.704-1.008-7.056,1.176-10.583l-2.856,4.368
		c0,0,3.024-9.072,2.856-13.775c0,0-6.216,4.368-7.223,8.232c-1.008,3.864-1.344,5.544-1.344,5.544l3.528-4.872
		c0,0-2.856,6.383-3.024,9.407c-0.168,3.024-1.68,8.4-1.68,8.4l1.68-2.856l-1.68,6.216c0,0,1.008-8.735-0.672-10.751
		c-1.68-2.016,0.84-7.392-0.84-10.079c0,0-1.008,7.055-2.352,9.071c-1.344,2.016-1.68,11.423-1.68,11.423s-1.68-8.231-0.336-15.791
		c0,0-4.536,8.231-4.872,12.263c-0.336,4.032-0.336,5.88-0.336,5.88c4.282,0.042,9.86-1.225,26.786,8.625
		c-5.769-0.735-12.059-3.913-16.203-5.601l5.544,4.536c0,0-5.376-5.376-12.767-5.879c-7.392-0.504-20.327,0-24.19-1.008
		c-3.864-1.008-10.583-3.024-10.583-3.024s6.887,3.192,9.575,4.368c2.688,1.176,17.135-0.84,27.55,3.36
		c0,0-12.095-1.68-17.807-1.344c-5.712,0.336-11.087,1.176-16.967-2.856l4.368,4.2c0,0-6.384-2.184-13.103-2.184
		c-6.72,0-11.759,1.512-16.295-1.512l3.528,3.36c0,0-6.887-2.184-12.599-2.184c-5.712,0-10.751,0.504-17.303-5.712
		c0,0,2.856,4.704,3.696,8.231c0,0-3.528-5.375-12.599-7.727c-9.072-2.352-10.751-1.008-14.951-3.696c0,0,5.208,5.544,13.439,9.239
		c0,0-7.224,1.176-15.623-2.856c-8.399-4.032-20.999-3.024-25.87-4.704c-4.872-1.68-9.911-4.536-9.911-4.536l8.735,6.888
		c0,0-6.048-2.856-12.599-2.52c-6.552,0.336-19.319,0.336-24.526-3.528c0,0,4.704,5.376,12.263,5.712
		c7.559,0.336,14.615-1.176,20.831,2.856c6.215,4.032,18.815,2.184,18.815,2.184s-6.719,3.36-14.111,1.344
		c-7.392-2.016-12.767-4.032-19.319-4.032c0,0,4.536,0.504,7.56,6.887c0,0-2.52-3.36-7.896-3.864
		c-5.376-0.504-13.607-6.887-23.686-9.743c-10.079-2.856-31.75-1.512-39.478-1.008c0,0,5.712-0.504,13.943,5.88
		c0,0-1.848-3.528-3.696-5.208c-1.848-1.68,2.856-0.168,7.728,3.864S159.958,338.096,166.005,344.312L166.005,344.312z
		 M404.046,344.144c-3.257,0.419-13.287,4.017-19.33,3.426c-11.5-1.125-7.937-2.873-26.13-6.564
		c8.118,1.912,17.524,10.079,26.379,9.272c13.408-1.223,27.298-7.911,40.416-9.997c7.391-1.176,12.095,2.688,12.095,2.688
		c-1.512-3.024-2.856-3.696-2.856-3.696c5.208,0.84,9.911-0.672,9.911-0.672l-2.52,3.024c1.68-0.84,9.071-5.879,9.071-5.879
		l-3.36,4.032c0,0,4.2-4.536,7.727-3.528c3.528,1.008,13.103,7.223,13.103,7.223s-10.415-9.407-14.279-9.743
		c-3.864-0.336-2.856-0.168-6.552,2.352c-3.696,2.52-16.967,0.168-23.854,2.016C416.981,339.944,408.264,343.602,404.046,344.144
		L404.046,344.144z M139.925,295.973c-6.467,5.04-12.935,15.035-12.935,15.035s1.68-3.192,2.016-5.04
		c0.336-1.848,3.864-7.644,3.864-7.644c-3.024,3.024-6.72,11.339-7.224,12.431c-0.504,1.092-9.743,12.515-9.743,12.515l8.483-11.591
		c0,0,2.856-6.552,3.78-8.735c0.924-2.184,6.216-9.071,6.216-9.071s-5.46,6.131-6.552,7.475c-1.092,1.344-2.94,6.048-2.94,6.048
		s0.756-2.1,1.512-4.368c0.756-2.268,5.376-7.896,5.376-7.896s-3.948,3.36-5.628,6.132c-1.68,2.772-2.268,8.232-3.444,9.995
		c-1.176,1.764-9.155,9.911-9.155,9.911c1.764-2.688,5.964-8.987,5.964-8.987c-3.108,4.116-9.491,11.423-9.491,11.423l9.407-14.699
		l-4.368,7.896c0,0,3.276-4.536,4.536-6.72c1.26-2.184,3.528-9.911,3.528-9.911s-2.184,3.024-5.376,8.483
		c-3.192,5.46-9.407,12.011-9.407,12.011s3.864-5.124,9.407-14.615c5.544-9.491,7.643-10.247,7.643-10.247s-1.092,0-3.36,1.68
		c-2.268,1.68-11.087,14.111-11.087,14.111l9.827-11.591c0,0-0.588,0.924-6.552,9.995c-5.964,9.071-13.439,15.455-13.439,15.455
		l3.696-6.971l-6.803,6.888l5.712-8.231l-5.879,6.132l13.943-19.151l-7.223,8.483c0,0,4.116-6.468,5.628-8.399
		c1.512-1.932,3.864-3.192,3.864-3.192c-6.72,1.848-4.704,1.68-6.552,4.788c-1.848,3.108-10.919,13.859-10.919,13.859
		c3.444-4.62,5.796-10.163,5.796-10.163c-6.3,9.575-13.355,15.203-13.355,15.203c1.848-2.016,5.712-8.316,5.712-8.316
		c-3.696,4.536-9.576,10.331-9.576,10.331c4.032-5.124,14.615-20.159,14.615-20.159c-0.924,2.604-4.284,7.055-4.284,7.055
		c2.856-2.52,7.476-10.667,7.476-10.667c-4.62,0.42-6.72,6.803-8.987,8.819c-2.268,2.016-4.452,6.635-4.452,6.635
		c0.672-3.78,2.604-6.468,2.604-6.468c-3.78,3.78-3.612,7.559-5.46,10.079c-1.848,2.52-5.376,4.956-5.376,4.956
		c1.848-1.596,3.612-5.712,3.612-5.712s-1.176,2.016-2.856,2.856c-1.68,0.84-5.628,3.192-5.628,3.192s2.772-2.688,4.536-3.948
		c1.764-1.26,3.948-4.535,3.948-4.535s-2.52,2.94-4.536,3.948s-6.888,5.544-6.888,5.544c4.116-5.208,5.796-6.132,7.392-7.224
		c1.596-1.092,4.62-6.216,4.62-6.216c-3.108,3.612-5.628,5.124-8.903,7.056c-3.276,1.932-4.284,6.467-7.476,6.887
		c-3.192,0.42-3.528,2.016-3.528,2.016s29.986-4.452,37.378-4.368c7.392,0.084,9.407,2.604,11.255,1.092
		c1.848-1.512,13.607-15.875,13.607-15.875l-8.232,11.843c0,0,8.316-8.735,10.583-12.683
		C132.114,306.892,139.925,295.973,139.925,295.973L139.925,295.973z M183.434,311.68c0,0.084-5.796,4.452-5.796,4.452l5.208-6.384
		l-7.392,7.224l6.72-8.567l-7.139,7.475l5.795-7.979l-8.147,8.903l5.88-8.399l-8.652,9.743l6.72-9.827
		c-0.924,1.596-3.78,3.948-3.78,3.948c1.176-1.26,2.016-3.696,2.016-3.696c-0.504,1.428-4.284,4.704-4.284,4.704l2.268-3.78
		c-1.26,1.344-5.628,6.299-5.628,6.299s3.864-4.284,4.2-6.299c0.336-2.016-1.764-2.94-1.764-2.94s2.016,1.848-0.504,5.628
		c-2.52,3.78-7.392,7.475-7.392,7.475c4.704-4.788,5.208-8.735,5.208-8.735c-0.924,2.856-6.132,7.644-6.132,7.644
		s4.284-6.299,3.864-7.979c-0.42-1.68-1.512-3.78-1.512-3.78c0.336,1.932-1.26,4.116-1.26,4.116
		c0.672-1.764,0.084-4.872,0.084-4.872c0,3.612-2.52,5.964-2.52,5.964c3.108-5.712-0.168-10.079-0.168-10.079
		c1.344,3.024,0.588,7.307-0.84,9.491c-1.428,2.184-1.092,4.536-1.092,4.536c-1.008-1.26-2.1-3.36-2.1-3.36
		c0.588,4.284,2.436,5.88,2.436,5.88c-2.016-1.848-2.94-3.36-2.94-3.36c0.336,3.444,3.108,5.544,3.108,5.544
		c-2.772-0.504-3.78-2.52-3.78-2.52c0.084,1.68,1.512,3.024,1.512,3.024s-3.444-0.924-3.78-0.42
		c-0.336,0.504-2.268,2.268-2.268,2.268l2.184-3.612l2.352,1.008c0,0-0.84-1.008-1.176-1.428c-0.336-0.42-0.084-2.772-0.084-2.772
		c-0.672,0.252-3.36,3.36-3.36,3.36c0.672-1.932,3.78-5.964,3.78-5.964c-1.428,0.84-7.811,9.911-7.811,9.911
		s6.551-11.171,8.987-13.187c2.436-2.016,2.1-5.711,2.1-5.711l-2.604,2.688l3.276-6.132c0,0-1.008,1.344-3.024,3.276
		c-2.016,1.932-5.376,6.132-5.376,6.132l2.016-4.284l-4.872,5.376l4.62-7.896c0,0-2.1,3.192-4.284,5.208
		c-2.184,2.016-1.596,5.964-1.512,7.56c0.084,1.596-3.192,5.376-3.192,5.376l1.764-4.452c-1.764,2.184-4.368,5.46-4.368,5.46
		s2.436-3.528,2.184-4.704c-0.252-1.176,1.008-3.192,1.008-3.192c-1.512,0.924-3.612,4.368-3.612,4.368
		c1.092-4.032,4.872-9.743,4.872-9.743l-11.339,13.775c0,0,13.355-18.311,16.883-22.007c3.528-3.696,4.536-7.644,4.536-7.644
		c-1.344,0.504-11.675,12.515-11.675,12.515l10.751-13.019c0,0-2.52,2.184-6.299,4.284c-3.78,2.1-13.187,14.867-13.187,14.867
		c1.428-1.092,5.712-5.712,5.712-5.712c-1.848,2.604-6.72,8.315-6.72,8.315c1.428-0.84,5.292-5.04,5.292-5.04
		c-4.368,6.636-14.363,14.951-14.363,14.951c3.612-3.36,6.132-8.231,6.132-8.231c-2.604,3.192-12.263,11.843-12.263,11.843
		s0.336,0.42,4.284,0.84c3.948,0.42,12.347-1.176,15.623-1.26c3.276-0.084,6.468-2.1,11.591-4.032
		c5.124-1.932,10.667-2.52,15.455-2.772c4.788-0.252,9.239-0.924,11.171-2.016C176.967,318.232,183.434,311.68,183.434,311.68
		L183.434,311.68z M297.919,334.611c-2.184-0.42-17.219-1.68-17.219-1.68l8.231,5.376c0,0-8.651-4.956-10.751-5.46
		c-2.1-0.504-9.407-0.756-9.407-0.756l4.955,3.948c0,0-4.872-3.612-6.635-3.864c-1.764-0.252-4.62-0.336-4.62-0.336
		s4.032,3.36,6.804,5.46c0,0-5.124-1.932-8.4-4.788c-3.276-2.856-11.843-5.376-15.623-6.299l5.04,4.871c0,0-4.368-3.948-6.971-5.124
		c-2.604-1.176-5.292-1.764-5.292-1.764s4.032,0.504,7.392,5.208c0,0-4.368-3.36-7.98-4.62c-3.612-1.26-7.727-2.268-9.155-3.444
		l5.88,6.552c0,0-7.224-5.712-8.568-6.72c-1.344-1.008-3.948-0.924-3.948-0.924l6.383,6.72l-7.559-6.72l2.856,3.696l-5.04-3.528
		c0,0-17.471-1.008-28.474-1.092c-11.003-0.084-19.571,2.52-21.251,3.024l2.94,3.612l-5.544-3.276l2.52,2.772l-4.368-2.436
		l10.919,7.895l-5.964-5.88l8.148,5.712l-5.796-6.468c0,0,4.872,4.62,9.155,6.803c0,0-4.116-4.788-5.292-6.72
		c0,0,6.636,5.04,8.063,5.964c1.428,0.924,8.736,0.084,8.736,0.084s-5.04-4.032-7.56-6.804l5.964,4.704l-5.123-5.46l4.2,3.276
		l-1.596-3.78l2.604,2.268l-1.848-3.276l8.735,9.072l-7.056-8.987l5.628,5.712l-4.284-5.88c0,0,4.956,4.62,9.071,7.728
		c0,0-3.276-3.108-4.368-4.956c0,0,6.216,5.628,12.431,8.736l-3.78-3.612c0,0,4.704,4.031,9.239,4.704c0,0-2.688-2.016-4.452-3.78
		l5.04,3.108l-8.147-7.307l8.819,6.635L213,328.647l6.384,5.544l-4.872-5.46l4.116,3.108l-4.116-5.04l5.292,4.704l-3.864-5.04
		l9.743,7.979l-5.124-5.712l5.208,4.116l-6.383-7.56l10.415,9.491l-7.644-8.987l6.803,5.964l-5.795-7.224l8.231,7.308l-6.888-7.308
		l7.728,6.888l-8.064-9.911l15.539,15.371l-9.071-10.919l9.323,7.56l-7.224-9.071c0,0,6.636,7.14,9.659,9.323
		c0,0-5.04-5.712-6.299-7.979c0,0,5.964,5.46,8.567,6.887c2.604,1.428,7.643,2.436,7.643,2.436s-3.948-3.696-5.88-5.964
		c0,0,5.544,4.872,8.232,6.384c0,0-2.352-2.268-3.024-3.948c0,0,1.932,1.764,4.2,3.024c0,0-2.52-3.108-3.864-4.956
		c0,0,4.368,3.108,6.467,3.864c2.1,0.756,5.208,3.948,8.987,5.46c0,0-4.62-3.276-6.132-5.124c0,0,3.696,3.612,12.347,5.795
		c0,0-5.04-3.78-6.467-5.795c0,0,7.223,5.124,11.255,6.552c0,0-3.864-2.52-5.124-3.864c0,0,3.612,1.596,5.88,2.688
		c0,0-2.52-1.848-3.864-3.864c0,0,2.604,1.596,5.208,1.344c2.604-0.252,12.095,3.36,12.095,3.36s-5.292-4.368-5.712-4.872
		c0,0,5.628,4.032,8.567,4.788c2.94,0.756,8.651,0.168,8.651,0.168l-4.956-3.948l10.919,4.955
		C306.869,338.795,301.698,335.337,297.919,334.611L297.919,334.611z M198.301,312.436c0,0-5.208,3.36-7.308,4.536l2.268-2.352
		c0,0-3.528,2.688-6.132,3.528c0,0,4.284-0.42,7.98-2.268c0,0-2.1,1.428-3.444,2.184c0,0,5.375-0.588,7.139-1.512
		c0,0-1.176,1.176-2.352,1.68c0,0,3.024-1.26,5.292-0.756c0,0-2.52-1.764-3.696-1.512c-1.176,0.252-3.696,1.26-3.696,1.26
		s6.72-3.108,7.812-4.032c1.092-0.924,4.2-3.696,4.2-3.696s-6.216,4.452-10.163,6.215l3.192-2.352c0,0-3.276,1.68-5.292,2.604
		C194.102,315.964,196.537,314.116,198.301,312.436L198.301,312.436z M199.393,309.16c-0.084-0.168-2.436-1.092-2.184-2.268
		c0.252-1.176,1.932-4.2,1.932-4.2l-4.032,3.948c0,0,2.772-5.207,3.192-5.46c0.42-0.252-4.788,4.368-4.788,4.368l5.04-7.811
		l-6.719,7.643l7.139-9.407l-7.727,7.98l8.147-10.163l-6.636,5.544l5.292-7.308c0,0-2.352,2.772-3.696,2.772
		s-5.292,5.292-5.292,5.292c1.932-3.864,8.567-11.675,8.567-11.675l-5.963,5.376l6.048-8.651c0,0-6.048,7.476-7.476,7.728
		c-1.428,0.252-6.803,8.819-6.803,8.819c1.932-5.376,13.355-18.059,13.355-18.059l-13.271,12.599l7.475-9.995
		c0,0-2.016,2.1-3.444,2.436c-1.428,0.336-1.596-1.428-2.856-1.68c-1.26-0.252-3.276,0.42-3.276,0.42l4.368-2.688
		c-4.704,1.68-8.652,1.512-8.652,1.512l1.26,3.192l-2.436-2.688l2.016,4.284c0,0-2.436-3.948-3.78-4.032
		c-1.344-0.084-2.688,0.252-2.688,0.252c1.764,2.184,5.88,11.339,5.88,11.339c-2.856-5.04-7.811-11.675-7.811-11.675l2.94,5.376
		l-4.452-5.292l4.2,6.888c0,0-4.704-6.468-6.3-7.056c-1.596-0.588-3.192-0.672-3.192-0.672l2.52,3.528l-3.612-3.024l4.536,5.712
		c0,0-5.46-5.964-7.055-6.216c-1.596-0.252-5.46-1.68-5.46-1.68s0.084,1.428,0.84,2.52c0.756,1.092,0.84,1.512,0.252,2.268
		c-0.588,0.756,0.42,1.764,0.672,3.696c0.252,1.932,2.772,5.88,6.048,7.56c3.276,1.68,16.211,4.536,19.067,5.544
		c2.856,1.008,5.124,4.116,6.3,4.62c1.176,0.504,4.704,0.42,7.056,1.26C196.285,312.772,199.393,309.16,199.393,309.16
		L199.393,309.16z M225.683,293.453c-1.344-0.42-3.444-2.1-3.444-2.1c-0.168,1.26-1.512,3.528-1.512,3.528
		c0.588-2.016,0.084-4.116,0.084-4.116c-0.504,1.764-3.696,7.559-3.696,7.559s2.856-6.635,2.688-7.727
		c-0.168-1.092-1.008-1.092-1.008-1.092c-0.336,1.596-1.848,4.452-1.848,4.452s1.428-4.536,1.092-5.04
		c-0.336-0.504-2.184-1.092-2.184-1.092c-0.336,1.596-1.932,4.62-1.932,4.62c0.84-1.344,0.84-5.628,0.84-5.628
		c-0.588,1.932-2.604,6.048-2.604,6.048c1.008-3.108,1.596-6.804,1.596-6.804c-0.504,1.344-1.68,3.696-1.68,3.696
		c0.336-2.268,0.504-4.704,0.504-4.704l-1.176,2.772c0,0,0.42-1.764,0.504-2.772c0.084-1.008-0.84-1.512-1.26-1.596
		c-0.42-0.084-3.108,5.796-3.108,5.796l1.764-5.796c0,0-0.336-1.344-3.192-1.764c-2.856-0.42-5.04-1.26-5.04-1.26
		s-0.252,2.436-0.588,3.948c-0.336,1.512,0.252,1.848,0.588,3.108c0.336,1.26,0.336,2.352-0.504,3.78
		c-0.84,1.428,1.092,3.612,1.008,4.62c-0.084,1.008-1.764,3.612-1.764,3.612s0.756,0.252,1.764,0.168
		c1.008-0.084,3.36,2.604,3.36,2.604l-3.024-1.764c0,0,0.42-0.42-0.168,2.52c-0.588,2.94,0.588,2.268,1.092,3.024
		c0.504,0.756-0.588,2.856-0.588,2.856c2.352-1.68,6.636-4.116,9.239-6.467c2.604-2.352,6.132-0.924,7.392-2.268
		C220.14,298.829,225.683,293.453,225.683,293.453L225.683,293.453z M226.523,298.241c0,0-6.467,8.399-11.003,11.843
		c0,0,2.016-3.024,2.688-4.284c0,0-3.78,4.2-6.215,6.132c0,0,1.344-1.932,2.1-3.696c0,0-1.68,1.596-3.108,2.268
		c-1.428,0.672-5.544,6.971-5.544,6.971s3.864-5.291,6.216-6.719c0,0-2.1,2.94-3.024,4.284c0,0,3.864-2.772,6.048-4.536
		c0,0-2.016,2.268-3.444,3.696c0,0,2.1-1.764,4.788-1.932c2.688-0.168,7.559-6.3,7.559-6.3s-4.956,4.284-6.887,5.04
		C216.696,311.008,221.652,306.305,226.523,298.241L226.523,298.241z M237.863,297.989c0,0-7.98,5.712-12.851,11.591
		c0,0,2.688-2.604,4.368-3.36c0,0-5.964,6.888-8.315,11.087c0,0,1.932-2.688,3.36-2.856c1.428-0.168,1.596,0.42,3.192-0.672
		c1.596-1.092,9.827-10.835,9.827-10.835s-8.483,8.735-11.171,10.667l8.568-9.659l-9.491,8.903
		C225.347,312.856,233.747,302.441,237.863,297.989L237.863,297.989z M261.045,330.075c4.452-4.872,5.544-13.691,5.544-13.691
		c-0.588,2.352-2.772,4.704-2.772,4.704s2.268-4.368,1.764-6.72c-0.504-2.352,0.672-8.231,0.672-8.231s-1.932,4.116-1.596,7.475
		c0.336,3.36-4.284,8.904-4.284,8.904c0.84-2.184,1.764-5.124,1.764-5.124c-2.52,5.124-8.147,9.407-8.147,9.407
		c2.52-2.94,5.46-8.147,5.46-8.147c-2.016,2.856-4.788,5.796-4.788,5.796s2.436-3.276,3.024-5.796
		c0.588-2.52,4.704-8.904,4.704-8.904c-2.52,2.94-7.896,7.98-7.896,7.98s7.728-8.652,8.315-11.088
		c0.588-2.436,5.376-9.323,5.376-9.323c-3.36,2.688-5.544,7.476-5.544,7.476c0.588-2.436,3.276-6.72,3.276-6.72
		s-4.368,6.132-4.452,8.316c-0.084,2.184-1.764,2.52-3.108,4.452c-1.344,1.932-9.323,11.339-9.323,11.339
		c4.704-5.628,8.567-13.103,8.567-13.103c-1.68,1.26-3.192,3.192-3.192,3.192c3.444-3.864,6.048-9.911,6.048-9.911
		s-1.344,1.176-3.108,1.512c-1.764,0.336-3.864,4.704-3.864,4.704c3.948-9.827,5.376-6.047,7.727-8.064
		c2.352-2.016,6.468-11.591,6.468-11.591s-4.116,7.979-5.796,8.147c-1.68,0.168-3.192,0.672-3.192,0.672
		c2.856-2.016,4.368-5.208,4.368-5.208s-1.848,2.436-4.452,4.284c-2.604,1.848-6.216,9.995-6.216,9.995
		c2.94-5.124,5.376-7.644,5.376-7.644c-2.1,2.184-4.032,8.903-5.628,9.911c-1.596,1.008-1.26,2.772-2.016,5.376
		c-0.756,2.604-7.056,9.323-7.056,9.323c1.092-1.596,3.024-5.208,3.024-5.208c-1.344,1.344-3.192,3.528-3.192,3.528
		c2.268-3.276,7.811-16.295,7.811-16.295c-4.032,4.872-10.079,7.811-10.079,7.811c4.788-3.612,9.239-9.911,9.239-9.911
		s-8.063,9.407-11.087,9.995c-3.024,0.588-3.78,3.024-3.78,3.024c2.016-4.116,7.224-10.415,7.224-10.415
		c-6.132,4.872-11.759,13.187-11.759,13.187l5.544-5.124c0,0-3.864,4.452-4.2,5.376c-0.336,0.924-0.084,1.764,2.688,2.436
		c2.772,0.672,10.583,2.352,14.279,3.444C252.478,326.715,261.045,330.075,261.045,330.075L261.045,330.075z M278.432,315.04
		c0,0.084-0.084,1.596,1.428,3.948c1.512,2.352,2.688,6.804,2.688,6.804C282.296,319.071,278.432,315.04,278.432,315.04
		L278.432,315.04z M280.952,307.984c1.092,6.803-0.924,6.971,0.252,9.155c1.176,2.184,3.948,10.667,3.948,10.667
		c-0.672-6.132-3.528-11.675-3.528-11.675c1.176,2.184,4.032,5.796,4.032,5.796s-3.024-4.284-3.444-7.728
		C281.792,310.756,280.952,307.984,280.952,307.984L280.952,307.984z M285.235,306.052c1.008,2.52,1.68,5.544,1.68,5.544
		c-0.672-1.008-1.932-1.596-1.932-1.596c1.68,2.52,2.352,5.544,2.352,5.544c-1.512-1.68-2.688-3.36-2.688-3.36
		c2.268,6.132,8.567,11.339,8.567,11.339c-4.536-5.544-6.132-10.583-6.132-10.583c0.924,0.672,1.428,1.68,1.428,1.68
		C287.923,310.084,285.235,306.052,285.235,306.052L285.235,306.052z M360.242,303.281c-4.62-0.336-9.491,2.772-9.491,2.772
		c1.932-2.1,6.132-4.032,6.132-4.032l-3.024-0.924c-1.008,1.512-5.376,5.04-5.376,5.04c1.932-2.604,3.612-5.628,3.612-5.628
		c-1.008,1.764-3.444,4.116-3.444,4.116s3.192-5.04,2.436-5.712c-0.756-0.672-1.848-1.428-1.848-1.428
		c-2.016,4.368-5.376,6.972-5.376,6.972c1.848-2.1,3.444-6.72,3.444-6.72c-0.924,1.26-2.52,2.772-2.52,2.772
		c1.344-2.352,2.1-4.452,2.1-4.452c-0.336-0.672-2.1-1.512-2.1-1.512c-2.856,3.612-6.384,9.408-6.384,9.408
		c0.672-3.612,3.444-8.82,3.444-8.82c-1.26,1.26-2.52,3.108-2.52,3.108c1.176-3.276,2.604-5.544,2.604-5.544
		c-1.512,0.504-2.856,2.184-2.856,2.184c0.672-2.268,1.68-3.108,1.68-3.108c-4.788-3.192-8.567-3.276-8.567-3.276
		c0.42,1.596,0,3.612,0,3.612c-0.42-1.512-1.008-3.024-1.008-3.024c0.504,2.016,0.252,5.04,0.252,5.04
		c-0.504-2.52-1.512-4.62-1.512-4.62c1.092,4.116,0.756,10.163,0.756,10.163c-1.26-7.475-2.772-10.499-2.772-10.499
		s-2.352,0.252-3.864,1.176c-1.512,0.924-4.872,1.092-4.872,1.092c1.008,1.68,1.008,4.032,1.008,4.032
		c-1.176-2.856-3.528-4.284-3.528-4.284c2.016,4.116,4.032,14.027,4.032,14.027c-2.52-8.735-6.048-14.279-6.048-14.279
		c1.428,2.604,1.932,6.552,1.932,6.552c-2.604-6.132-3.444-6.635-6.803-8.063s-9.492-3.78-9.492-3.78
		c1.848,2.772,2.856,7.559,2.856,7.559c-2.688-5.628-5.628-8.819-5.628-8.819c3.444,6.636,6.803,18.143,6.803,18.143
		c-4.788-11.423-8.651-17.975-8.651-17.975c1.176,1.764,4.284,11.171,4.284,11.171c-2.94-6.048-6.971-9.323-6.971-9.323
		c0.924,1.176,1.092,3.192,1.092,3.192s-2.52-4.116-4.872-4.452s-6.72-2.772-6.72-2.772c1.008,1.68,1.008,3.864,1.008,3.864
		c-1.68-3.024-3.78-4.536-3.78-4.536c3.192,3.612,5.88,10.415,5.88,10.415c-0.588-3.612-1.428-6.636-1.428-6.636
		c3.78,5.376,5.46,11.843,5.46,11.843c-1.596-4.368-3.78-6.552-3.78-6.552c4.452,9.24,5.628,17.975,5.628,17.975
		c-2.52-10.163-7.139-17.807-7.139-17.807c0.84,1.68,1.092,4.536,1.092,4.536c-4.284-10.835-12.851-19.067-12.851-19.067
		s4.284,7.391,5.124,11.591c0.84,4.2,5.292,11.255,5.292,11.255s-3.948-4.788-5.376-8.651c-1.428-3.864-4.536-8.819-4.536-8.819
		c2.016,1.596,3.948,5.628,3.948,5.628s-4.032-8.735-6.216-10.919c-2.184-2.184-7.559-3.528-7.559-3.528c0.588,1.764,0,4.62,0,4.62
		c-1.092-4.116-2.352-4.116-2.352-4.116c1.26,7.643-0.588,8.82-0.588,8.82c0.504-3.192-0.588-7.98-0.588-7.98
		s-1.428,1.008-1.596,4.872c-0.168,3.864-0.756,6.552-0.756,6.552c0.336-2.856-0.924-6.72-0.924-6.72
		c-2.772,2.604-2.184,6.216-2.184,6.216c-0.756-1.848-0.756-2.856-0.756-2.856c-1.428,2.1-1.764,6.048-1.764,6.048v-4.452
		c0,0-0.84,1.092-2.52,3.024c-1.68,1.932-3.192,6.804-3.192,6.804c2.52-3.36,5.88-3.276,6.299-4.956
		c0.42-1.68,0.252-2.856,0.252-2.856c0.252,1.092,1.008,2.016,1.008,2.016c1.26-1.344,4.284-0.084,6.3-3.864
		c2.016-3.78,3.696-4.536,3.696-4.536c0.168,1.008,1.008,1.932,1.008,1.932c-0.924-3.192,0.588-6.216,0.588-6.216
		c0.924,3.36,6.972,8.567,6.972,10.919c0,2.352,1.68,2.772,1.428,5.04c-0.252,2.268,2.352,2.436,2.184,4.284
		c-0.168,1.848-4.788,7.307-5.796,10.247c-1.008,2.94,1.176,7.559,1.176,7.559s-2.016-5.796,0.588-6.971
		c2.604-1.176,9.239-1.176,9.239-1.176s4.199-2.1-0.504,0.252c-4.704,2.352-2.856,7.643-6.467,9.407
		c-3.612,1.764-3.192,7.56-3.192,7.56c2.688-1.764,5.208-0.504,5.208-0.504c-2.016,0.84-4.116,3.528-4.116,3.528
		c2.772-2.94,6.72-1.848,6.72-1.848c-3.192,3.108-3.612,5.88-3.612,5.88s-6.719-2.016-6.383-4.116
		c0.336-2.1,0.252-3.612,0.252-3.612c-1.428,3.696-5.964,8.316-5.964,8.316s4.368,0.084,9.24,0.42
		c4.872,0.336,25.282,2.268,32.758,3.612c7.475,1.344,12.011,2.352,15.455,3.696c3.444,1.344,19.403,0.672,19.403,0.672
		c-0.672-3.36,0.672-12.347,0.672-12.347s-6.216,4.62-7.475,5.207c-1.26,0.588-6.636-0.084-6.636-0.084
		c2.856-1.26,8.484-6.132,8.904-6.3c0.42-0.168-8.567,6.216-11.843,5.375c-3.276-0.84-5.04-0.504-5.04-0.504l6.048-4.788
		c0,0-5.796,3.528-8.064,4.536c-2.268,1.008-8.147-0.504-10.919-2.016c-2.772-1.512-4.452-4.2-4.788-9.239
		c-0.336-5.039-3.192-7.98-3.192-7.98c1.512,1.176,4.368,1.764,4.368,1.764c-5.376-4.956-5.88-8.316-5.88-8.316
		c5.964,6.3,10.331,4.368,13.355,6.636c3.024,2.268,8.315,3.024,8.315,3.024c-2.016-1.764-3.276-4.032-3.276-4.032
		s7.056,3.36,9.659,3.192c2.604-0.168,3.864,1.428,3.864,1.428c0.168-2.1-0.588-3.276-0.588-3.276
		c2.688,0.336,5.208,2.856,5.208,2.856c-1.092-2.184-2.352-2.688-2.352-2.688c2.52,0.252,4.284,1.596,6.132,2.268
		c1.848,0.672,2.1-3.444,4.284-2.688c2.184,0.756,5.712,0.588,5.712,0.588s-2.688-1.008-4.116-2.352
		c-1.428-1.344-4.452-3.108-4.452-3.108c1.176,0.084,5.628,1.428,9.827,3.276c4.2,1.848,6.132,0.42,6.132,0.42
		s-3.696-1.008-1.848-2.184C353.607,305.968,360.242,303.281,360.242,303.281L360.242,303.281z M421.055,297.401
		c-0.722,8.305-3.383,6.133,1.008,15.959c0,0-1.68-5.46-1.092-9.155c0,0,0.168,3.948,1.764,6.888c0,0-0.924-4.116,0.168-6.3
		c1.092-2.184,0-5.208,0-5.208s-0.084,3.192-1.176,5.46C421.726,305.044,421.978,301.265,421.055,297.401L421.055,297.401z
		 M394.932,295.973c0,0-3.948,2.604-6.047,4.956c-2.1,2.352-8.064,11.591-8.064,11.591s7.644-10.331,10.919-13.187
		c0,0-3.696,5.207-4.872,8.315C386.869,307.648,393,298.745,394.932,295.973L394.932,295.973z M403.668,284.886
		c0,0-5.964,2.436-8.651,4.452c-2.688,2.016-6.888,6.299-6.888,6.299s3.528-2.1,4.788-2.016c1.26,0.084,2.688-0.168,4.452-2.1
		C399.132,289.59,403.668,284.97,403.668,284.886L403.668,284.886z M422.23,295.385c0,0-3.108-1.932-4.116-2.436
		c-1.008-0.504-4.704,2.94-4.704,2.94s1.68-2.436,3.276-3.696c0,0-1.596,0.588-3.276,2.352c0,0,0.756-2.268,2.016-3.192
		c0,0-3.444-0.924-5.46-2.688c-2.016-1.764-3.444-1.512-3.444-1.512s2.352,1.344,2.604,2.604c0.252,1.26-3.024,5.628-2.94,7.979
		c0.084,2.352-4.452,8.483-4.452,8.483s2.436-2.436,4.032-3.108c1.596-0.672,3.192,0.252,4.788-1.932
		c1.596-2.184,3.192-2.016,5.124-2.016C417.611,299.165,417.443,295.301,422.23,295.385z"/>
</svg>