<?xml version="1.0" encoding="UTF-8" standalone="no"?>
<svg
   version="1.1"
   x="0px"
   y="0px"
   viewBox="0 0 3000 2000"
   xml:space="preserve"
   fill="#1a1a1a"
   stroke="#1a1a1a"
   id="svg1"
   sodipodi:docname="mountains1.svg"
   width="3000"
   height="2000"
   inkscape:version="1.3.1 (9b9bdc1480, 2023-11-25, custom)"
   xmlns:inkscape="http://www.inkscape.org/namespaces/inkscape"
   xmlns:sodipodi="http://sodipodi.sourceforge.net/DTD/sodipodi-0.dtd"
   xmlns="http://www.w3.org/2000/svg"
   xmlns:svg="http://www.w3.org/2000/svg"><defs
   id="defs1" /><sodipodi:namedview
   id="namedview1"
   pagecolor="#505050"
   bordercolor="#eeeeee"
   borderopacity="1"
   inkscape:showpageshadow="0"
   inkscape:pageopacity="0"
   inkscape:pagecheckerboard="0"
   inkscape:deskcolor="#505050"
   inkscape:zoom="0.27789297"
   inkscape:cx="1478.9867"
   inkscape:cy="910.42247"
   inkscape:window-width="1610"
   inkscape:window-height="986"
   inkscape:window-x="0"
   inkscape:window-y="0"
   inkscape:window-maximized="1"
   inkscape:current-layer="svg1" />

<path
   style="clip-rule:evenodd;fill:#1a1a1a;fill-rule:evenodd;stroke-width:4.98184"
   d="m 1066.9097,1205.6729 c 0,0 -40.0605,-17.6235 -70.9443,-17.6235 -30.87885,0 -57.58916,-26.8547 -57.58916,-26.8547 0,0 15.02459,13.4274 24.20623,40.2771 0,0 -55.91974,-46.1516 -111.00972,-58.7397 -55.08504,-12.5882 -101.82306,8.3921 -143.55793,31.0507 0,0 33.38291,-10.9097 47.57275,-10.9097 14.18985,0 53.4156,34.4076 53.4156,34.4076 0,0 -40.90016,-26.8547 -57.58907,-26.8547 -16.68897,0 -89.30762,36.0861 -89.30762,36.0861 l 31.71846,-26.8548 c 0,0 -31.71846,13.4274 -55.08501,34.4076 l 13.35515,-22.6586 c 0,0 -16.69394,32.7292 -111.83945,11.7489 0,0 82.63003,-4.196 111.83945,-25.1763 29.2144,-20.9803 31.71848,-36.086 31.71848,-36.086 l -4.17347,19.3018 c 0,0 10.01637,-17.6234 25.87562,-26.8547 0,0 -5.0082,9.2313 -9.18168,17.6233 0,0 29.21438,-26.0154 63.43201,-27.6939 0,0 -69.27488,2.5176 -153.57431,14.2666 -84.29943,11.7489 -153.57431,41.9555 -206.15525,49.5084 0,0 142.72325,-39.4379 153.57431,-54.5437 10.85105,-15.1057 12.52044,-11.7489 20.03272,-11.7489 7.51227,0 50.08182,-52.0261 71.77897,-60.4181 0,0 -55.91972,-36.0861 -67.60549,-37.7595 0,0 5.00818,1.6784 11.68577,14.2665 0,0 -5.84289,-6.7136 -17.52865,-8.392 -11.68574,-1.6785 -10.85107,-8.3921 -23.37152,-2.5177 0,0 15.85925,11.749 14.18986,26.0155 -1.66941,14.2666 1.66939,15.945 1.66939,15.945 0,0 -6.67756,-7.5529 -9.18166,-20.141 -2.5041,-12.5881 -15.02455,-16.7842 -15.02455,-16.7842 0,0 -23.37152,8.3921 -40.06049,14.2666 0,0 13.35516,15.1057 16.69395,36.086 0,0 -6.67758,-20.9803 -21.70212,-28.5332 0,0 5.84287,4.1961 9.18166,16.7842 0,0 -6.67757,-8.392 -18.36333,-10.9097 -11.68576,-2.5176 -40.06049,-13.4273 -40.06049,-13.4273 0,0 18.36334,18.4626 24.20622,36.086 5.84287,17.6234 15.85924,25.1763 15.85924,25.1763 l -9.18167,-27.6939 c 0,0 11.68576,28.5331 20.03272,35.2468 0,0 -28.37969,-10.0705 -41.72987,-34.4026 -13.35515,-24.3371 -43.39927,-19.3019 -43.39927,-19.3019 0,0 14.18984,-15.1057 29.21439,-8.3921 0,0 -23.37152,-22.6586 -54.25033,16.7843 0,0 12.52045,-39.4429 50.91651,-36.0861 38.39109,3.3569 59.25851,-12.5882 87.63821,-24.3371 28.37968,-11.74894 36.72666,-16.78421 55.08503,-9.2313 18.36334,7.5529 75.11775,52.8652 75.11775,52.8652 0,0 14.18984,-21.8194 39.22581,-31.0508 25.04089,-9.2313 38.39604,-37.7644 66.77075,-39.44283 28.37976,-1.67843 61.76261,-7.55288 80.12601,-20.98029 18.36329,-13.42734 24.20613,-8.39209 44.23395,-19.30177 20.03273,-10.90975 61.76256,-49.51345 102.66268,-45.31741 40.89526,4.19608 70.10966,19.30184 126.86406,14.26656 56.7544,-5.03524 107.666,-36.92524 122.6905,-36.08602 15.0246,0.8392 10.0164,6.71366 35.887,9.23132 25.8756,2.51764 38.396,34.4076 97.6546,57.90054 0,0 40.8952,-24.33713 59.2585,-33.56846 18.3634,-9.23132 17.5286,-24.33704 37.5614,-29.37236 20.0327,-5.03526 19.198,-19.30182 35.0523,-21.81946 15.8592,-2.51764 29.2094,-26.01052 62.5972,-12.58818 33.3879,13.42736 80.9608,53.70452 114.3436,55.38293 33.3879,1.67837 10.0164,-16.78423 53.4156,1.67837 43.3993,18.46264 75.9526,34.40767 99.324,30.21162 23.3715,-4.19604 46.7381,-21.81946 82.6301,-8.3921 35.8869,13.42734 74.283,49.50843 95.1505,58.73974 20.8673,9.23131 40.8952,11.74893 40.8952,11.74893 0,0 6.6775,-23.49787 31.7184,-31.05078 25.041,-7.55288 10.0163,-17.62339 42.5646,-22.65872 32.5482,-5.03523 53.4156,-6.71366 62.5973,-10.07046 9.1817,-3.35685 41.7349,-30.21161 63.432,-27.69399 21.7021,2.51764 30.8838,20.14107 54.2504,26.85477 23.3714,6.71369 34.2225,23.49787 57.589,36.08602 23.3715,12.58813 35.8871,21.81946 60.0931,32.72924 24.2064,10.90969 92.6466,17.20379 114.3439,42.37509 21.702,25.1763 43.3992,84.3356 43.3992,84.3356 0,0 -32.5533,-56.222 -56.7547,-73.8454 -24.206,-17.6235 -63.4317,-28.5333 -63.4317,-28.5333 0,0 12.5204,15.1059 17.5285,36.0861 0,0 -3.3388,-7.5528 -13.3551,-15.1058 0,0 9.1816,25.1764 5.8428,36.9253 -3.3388,11.749 8.347,52.026 10.0163,54.5437 1.6695,2.5176 -13.3551,-24.3371 -28.3795,-59.579 l 10.8509,10.0706 c 0,0 -9.1816,-19.3019 -19.198,-41.1213 -10.0163,-21.8196 -25.8705,-31.885 -25.8705,-31.885 0,0 24.2062,27.6939 16.6937,45.3123 -7.5121,17.6234 20.8677,52.8653 -3.3386,84.7553 0,0 10.8511,-26.0156 0,-52.0261 -10.8511,-26.0155 -17.5288,-29.3724 -15.0246,-42.7947 2.5041,-13.4274 -13.3551,-26.8548 -13.3551,-26.8548 0,0 9.1816,17.6235 4.1733,36.0861 -5.0081,18.4626 -12.5204,26.0155 -5.0081,43.634 7.5123,17.6234 -15.8593,15.1058 -4.1735,41.9605 0,0 -15.0246,-21.8195 -10.0163,-39.4379 5.0082,-17.6234 13.3551,-57.0614 -18.3632,-96.5042 0,0 -16.694,28.5331 -13.3552,55.3829 3.3388,26.8547 -23.3717,57.0613 -23.3717,57.0613 l 11.6859,-5.8745 c 0,0 -2.5041,12.5881 -14.1899,20.9803 -11.6858,8.3921 -15.0245,26.0155 -15.0245,26.0155 0,0 1.6693,-20.1411 10.0163,-35.2468 8.347,-15.1058 -5.0082,-36.9203 0.8347,-46.9908 5.843,-10.0706 -7.5123,-28.5332 -16.6939,-52.0261 0,0 3.3388,36.9203 -8.347,51.1869 -11.6857,14.2665 -10.8511,20.9752 -13.3552,29.3673 -2.504,8.3921 -2.504,19.3018 -9.1816,29.3724 -6.6776,10.0705 -18.3634,21.8194 -24.2062,47.835 0,0 -4.1735,-24.3371 7.5123,-39.4429 11.6857,-15.1058 7.5122,-24.3371 -0.8347,-36.9203 -8.347,-12.5881 -13.3552,-22.6587 -6.6776,-32.7292 6.6776,-10.0705 -10.0164,-32.7292 -10.0164,-32.7292 0,0 15.0245,20.9803 3.3388,30.2116 -11.6858,9.2313 -22.5368,5.0353 -16.6939,25.1763 5.8428,20.141 -17.5286,15.1058 -16.694,36.086 0.8347,20.9803 -29.2094,35.2419 -35.0573,57.0613 0,0 -5.0081,-12.5881 8.347,-36.081 13.3552,-23.4979 -3.3388,-36.086 -0.8347,-43.634 2.5041,-7.5528 21.7021,-36.081 21.7021,-36.081 l -32.5531,41.9555 33.3829,-82.2376 c 0,0 -27.5401,63.775 -42.5646,71.3279 -15.0246,7.5529 -55.9198,64.6142 -55.9198,64.6142 0,0 26.7104,-45.3123 30.8839,-65.4534 4.1735,-20.1411 31.7185,-62.9358 31.7185,-62.9358 l -34.2226,37.7595 21.7021,-33.5635 c 0,0 -24.2013,1.6785 -34.2176,29.3724 -10.0164,27.694 -66.7708,93.1474 -66.7708,93.1474 0,0 42.5695,-70.4887 53.4156,-95.665 10.8511,-25.1763 0.8347,-27.6939 47.5728,-81.39842 0,0 -32.5482,43.63892 -51.7463,51.18692 -19.198,7.5528 -39.2257,19.3018 -46.738,53.7044 0,0 -3.3388,-27.6939 21.7021,-50.3477 25.0409,-22.6586 35.887,-54.54362 57.5891,-70.48863 21.7022,-15.94499 34.2226,-34.40763 34.2226,-34.40763 0,0 -33.3879,-1.67838 -44.234,18.46264 l 5.8429,-15.10576 c 0,0 -19.198,12.58815 -29.2144,49.50837 0,0 -0.8347,-25.17628 7.5123,-44.47314 0,0 -15.8593,21.81948 -20.8674,53.70445 0,0 -3.3388,-15.10576 3.3387,-36.92522 0,0 -23.3714,24.33709 -25.8755,61.25732 0,0 -2.5041,-26.0105 10.0163,-52.86522 0,0 -27.545,14.26658 -22.5368,36.92022 5.0082,22.6537 -15.0245,39.438 -15.0245,39.438 l 21.702,-17.6235 -29.2143,51.1868 c 0,0 5.8428,-10.9097 16.6939,-19.3018 0,0 -17.5286,22.6587 -13.3551,46.9908 4.1735,24.3371 -20.8674,49.5084 -20.8674,49.5084 0,0 15.0245,-21.8195 14.1898,-45.3173 -0.8347,-23.498 -5.0082,-35.2469 5.8429,-52.8653 l -14.1899,21.8195 c 0,0 15.0246,-45.3174 14.1899,-68.8103 0,0 -30.8838,21.8195 -35.887,41.1213 -5.0082,19.3019 -6.6777,27.694 -6.6777,27.694 l 17.5287,-24.3372 c 0,0 -14.1898,31.885 -15.0245,46.9908 -0.8347,15.1058 -8.347,41.9606 -8.347,41.9606 l 8.347,-14.2666 -8.347,31.0508 c 0,0 5.0082,-43.634 -3.3388,-53.7045 -8.3469,-10.0705 4.1735,-36.9252 -4.1735,-50.3476 0,0 -5.0082,35.2418 -11.6857,45.3123 -6.6776,10.0706 -8.347,57.0614 -8.347,57.0614 0,0 -8.3469,-41.1164 -1.6694,-78.8808 0,0 -22.5368,41.1163 -24.2062,61.2574 -1.6694,20.141 -1.6694,29.3723 -1.6694,29.3723 21.2748,0.2096 48.9888,-6.1192 133.0845,43.0845 -28.6629,-3.6716 -59.9144,-19.5466 -80.5036,-27.9787 l 27.5451,22.6587 c 0,0 -26.7103,-26.8548 -63.4321,-29.3674 -36.7266,-2.5176 -100.9933,0 -120.1864,-5.0353 -19.198,-5.0352 -52.5809,-15.1058 -52.5809,-15.1058 0,0 34.2176,15.945 47.5728,21.8195 13.3551,5.8745 85.134,-4.196 136.8803,16.7843 0,0 -60.0932,-8.3921 -88.4729,-6.7138 -28.3797,1.6785 -55.0851,5.8745 -84.2994,-14.2665 l 21.7021,20.9803 c 0,0 -31.7185,-10.9098 -65.1014,-10.9098 -33.3879,0 -58.4238,7.5529 -80.9606,-7.5529 l 17.5286,16.7842 c 0,0 -34.2176,-10.9097 -62.5972,-10.9097 -28.3798,0 -53.4158,2.5176 -85.9689,-28.5332 0,0 14.1899,23.4979 18.3633,41.1164 0,0 -17.5286,-26.8498 -62.5972,-38.5988 -45.0737,-11.7489 -53.4157,-5.0352 -74.2831,-18.4626 0,0 25.8755,27.694 66.7707,46.1516 0,0 -35.8919,5.8745 -77.6218,-14.2666 -41.7299,-20.141 -104.3322,-15.1058 -128.5334,-23.4979 -24.2062,-8.3921 -49.2422,-22.6587 -49.2422,-22.6587 l 43.3993,34.4077 c 0,0 -30.0491,-14.2666 -62.5973,-12.5882 -32.5532,1.6785 -95.9852,1.6785 -121.8558,-17.6234 0,0 23.3715,26.8547 60.9279,28.5332 37.5564,1.6784 72.6136,-5.8745 103.4975,14.2665 30.8787,20.1411 93.4811,10.9097 93.4811,10.9097 0,0 -33.383,16.7843 -70.1097,6.7138 -36.7266,-10.0706 -63.4319,-20.1411 -95.9851,-20.1411 0,0 22.5368,2.5176 37.5614,34.4027 0,0 -12.5205,-16.7843 -39.2308,-19.3019 -26.7103,-2.5177 -67.6055,-34.4027 -117.6823,-48.6692 -50.0769,-14.2666 -157.74785,-7.5529 -196.14388,-5.0353 0,0 28.37964,-2.5176 69.27484,29.3724 0,0 -9.18163,-17.6234 -18.36327,-26.0155 -9.18172,-8.3921 14.1898,-0.8392 38.39601,19.3018 24.20622,20.141 81.7953,13.4424 111.8395,44.4932 z m 1182.691,-0.8393 c -16.1821,2.0931 -66.0155,20.0662 -96.0398,17.1139 -57.137,-5.6197 -39.4345,-14.3515 -129.8252,-32.7891 40.3338,9.551 87.0668,50.3476 131.0624,46.3164 66.6167,-6.1092 135.6283,-39.5178 200.8042,-49.938 36.7216,-5.8745 60.0933,13.4274 60.0933,13.4274 -7.5125,-15.1058 -14.1901,-18.4627 -14.1901,-18.4627 25.8758,4.196 49.2422,-3.3568 49.2422,-3.3568 l -12.5203,15.1058 c 8.347,-4.1961 45.0686,-29.3674 45.0686,-29.3674 l -16.6939,20.141 c 0,0 20.8675,-22.6586 38.3911,-17.6234 17.5285,5.0353 65.1014,36.0811 65.1014,36.0811 0,0 -51.7463,-46.9908 -70.9442,-48.6692 -19.198,-1.6784 -14.1901,-0.8392 -32.5533,11.7489 -18.3634,12.5882 -84.2993,0.8392 -118.5169,10.0706 -34.2127,9.2213 -77.5226,27.4941 -98.4795,30.2015 z M 937.33289,964.20503 c -32.13085,25.17632 -64.26668,75.10437 -64.26668,75.10437 0,0 8.34698,-15.945 10.01635,-25.1763 1.66941,-9.2313 19.19803,-38.18411 19.19803,-38.18411 -15.02454,15.10576 -33.38783,56.64171 -35.89199,62.09661 -2.50407,5.4548 -48.40743,62.5161 -48.40743,62.5161 l 42.14722,-57.9005 c 0,0 14.18988,-32.7292 18.78072,-43.63391 4.5908,-10.90976 30.88377,-45.31239 30.88377,-45.31239 0,0 -27.12763,30.62618 -32.55322,37.33985 -5.42547,6.7137 -14.60719,30.21155 -14.60719,30.21155 0,0 3.75613,-10.4901 7.51227,-21.81942 3.75617,-11.32935 26.71032,-39.44288 26.71032,-39.44288 0,0 -19.6154,16.78421 -27.9623,30.63114 -8.34702,13.84696 -11.26845,41.12126 -17.11135,49.92806 -5.8429,8.8117 -45.48596,49.5084 -45.48596,49.5084 8.76429,-13.4274 29.63168,-44.8928 29.63168,-44.8928 -15.44188,20.5607 -47.15541,57.0613 -47.15541,57.0613 l 46.73807,-73.4259 -21.70207,39.4429 c 0,0 16.27655,-22.6586 22.53682,-33.5684 6.26019,-10.9097 17.52862,-49.5084 17.52862,-49.5084 0,0 -10.85111,15.1058 -26.7103,42.3751 -15.85923,27.2744 -46.73808,59.9985 -46.73808,59.9985 0,0 19.19803,-25.5958 46.73808,-73.0062 27.54499,-47.41045 37.97372,-51.18686 37.97372,-51.18686 0,0 -5.42554,0 -16.69395,8.39211 -11.26839,8.39208 -55.085,70.48865 -55.085,70.48865 l 48.82477,-57.90052 c 0,0 -2.92145,4.61567 -32.55317,49.92802 -29.63173,45.3124 -66.77076,77.2024 -66.77076,77.2024 l 18.36329,-34.8223 -33.80026,34.4077 28.37976,-41.1164 -29.20946,30.6312 69.27487,-95.6649 -35.88698,42.3751 c 0,0 20.45011,-32.3096 27.96232,-41.9556 7.51228,-9.65085 19.19806,-15.94495 19.19806,-15.94495 -33.38789,9.23131 -23.37153,8.39212 -32.55317,23.91755 -9.18168,15.5253 -54.25035,69.2298 -54.25035,69.2298 17.11127,-23.0783 28.79707,-50.7673 28.79707,-50.7673 -31.30115,47.8301 -66.3535,75.9436 -66.3535,75.9436 9.1817,-10.0705 28.37971,-41.5409 28.37971,-41.5409 -18.36335,22.6587 -47.57773,51.6064 -47.57773,51.6064 20.03274,-25.5959 72.61366,-100.7002 72.61366,-100.7002 -4.5908,13.0078 -21.28476,35.2418 -21.28476,35.2418 14.18988,-12.5881 37.14399,-53.28481 37.14399,-53.28481 -22.95411,2.09801 -33.38785,33.98301 -44.65129,44.05351 -11.26839,10.0705 -22.11951,33.1438 -22.11951,33.1438 3.33883,-18.8822 12.93782,-32.3096 12.93782,-32.3096 -18.78068,18.8823 -17.94595,37.7595 -27.1276,50.3477 -9.1817,12.5881 -26.71032,24.7567 -26.71032,24.7567 9.18164,-7.9725 17.94597,-28.5332 17.94597,-28.5332 0,0 -5.84288,10.0705 -14.18983,14.2666 -8.34698,4.196 -27.96237,15.945 -27.96237,15.945 0,0 13.77251,-13.4274 22.53682,-19.7215 8.76433,-6.294 19.61538,-22.6536 19.61538,-22.6536 0,0 -12.52046,14.6862 -22.53681,19.7214 -10.01637,5.0353 -34.22258,27.6939 -34.22258,27.6939 20.45007,-26.0155 28.79703,-30.6311 36.72666,-36.086 7.92964,-5.4548 22.95416,-31.0508 22.95416,-31.0508 -15.44189,18.043 -27.96234,25.596 -44.23396,35.2468 -16.27658,9.651 -21.28475,32.3046 -37.144,34.4027 -15.85925,2.098 -17.52865,10.0705 -17.52865,10.0705 0,0 148.98348,-22.2391 185.71011,-21.8195 36.72671,0.4196 46.73808,13.0078 55.91972,5.4549 9.18173,-7.5529 67.60555,-79.3004 67.60555,-79.3004 l -40.90015,59.1594 c 0,0 41.31746,-43.634 52.5809,-63.3554 11.26345,-19.7115 50.07188,-74.25517 50.07188,-74.25517 z m 216.17161,78.46117 c 0,0.4196 -28.7971,22.2391 -28.7971,22.2391 l 25.8757,-31.89 -36.7266,36.0861 33.3878,-42.7948 -35.4697,37.3399 28.7921,-39.8575 -40.4778,44.4731 29.2144,-41.9555 -42.9869,48.6692 33.3879,-49.0888 c -4.5909,7.9725 -18.7807,19.7215 -18.7807,19.7215 5.8429,-6.2942 10.0163,-18.4627 10.0163,-18.4627 -2.5041,7.1333 -21.2847,23.4979 -21.2847,23.4979 l 11.2684,-18.8823 c -6.2602,6.7137 -27.9623,31.4655 -27.9623,31.4655 0,0 19.198,-21.3999 20.8673,-31.4655 1.6694,-10.0704 -8.7643,-14.6861 -8.7643,-14.6861 0,0 10.0164,9.2313 -2.5041,28.1135 -12.5205,18.8823 -36.7266,37.3399 -36.7266,37.3399 23.3715,-23.9175 25.8756,-43.6339 25.8756,-43.6339 -4.5908,14.2665 -30.4665,38.184 -30.4665,38.184 0,0 21.2848,-31.4653 19.198,-39.8574 -2.0866,-8.3922 -7.5122,-18.8823 -7.5122,-18.8823 1.6694,9.6509 -6.2602,20.5607 -6.2602,20.5607 3.3387,-8.8118 0.4175,-24.3372 0.4175,-24.3372 0,18.043 -12.5205,29.792 -12.5205,29.792 15.4418,-28.5331 -0.8348,-50.34763 -0.8348,-50.34763 6.6776,15.10583 2.9215,36.50073 -4.1734,47.41043 -7.095,10.9097 -5.4255,22.6587 -5.4255,22.6587 -5.0082,-6.2941 -10.4338,-16.7843 -10.4338,-16.7843 2.9215,21.3999 12.1031,29.3724 12.1031,29.3724 -10.0164,-9.2313 -14.6071,-16.7842 -14.6071,-16.7842 1.6693,17.2038 15.4418,27.694 15.4418,27.694 -13.7725,-2.5177 -18.7806,-12.5882 -18.7806,-12.5882 0.4174,8.3921 7.5123,15.1058 7.5123,15.1058 0,0 -17.11136,-4.6157 -18.78073,-2.098 -1.66941,2.5176 -11.26845,11.3293 -11.26845,11.3293 l 10.85106,-18.043 11.68582,5.0352 c 0,0 -4.1735,-5.0352 -5.843,-7.1333 -1.6693,-2.098 -0.4174,-13.8469 -0.4174,-13.8469 -3.33882,1.2588 -16.69395,16.7842 -16.69395,16.7842 3.3388,-9.6509 18.78065,-29.792 18.78065,-29.792 -7.09489,4.196 -38.8084,49.5084 -38.8084,49.5084 0,0 32.54822,-55.8025 44.6513,-65.873 12.1031,-10.0705 10.4337,-28.5282 10.4337,-28.5282 l -12.9378,13.4274 16.2766,-30.63116 c 0,0 -5.0082,6.71367 -15.0245,16.36466 -10.01642,9.6509 -26.71037,30.6311 -26.71037,30.6311 l 10.01643,-21.3998 -24.20621,26.8547 22.95415,-39.4429 c 0,0 -10.43375,15.945 -21.2848,26.0155 -10.85108,10.0705 -7.92961,29.792 -7.51225,37.7645 0.41737,7.9725 -15.85931,26.8547 -15.85931,26.8547 l 8.76435,-22.239 c -8.76435,10.9097 -21.70211,27.2743 -21.70211,27.2743 0,0 12.10311,-17.6234 10.85109,-23.4979 -1.25206,-5.8745 5.00816,-15.945 5.00816,-15.945 -7.51227,4.6157 -17.94602,21.8195 -17.94602,21.8195 5.42555,-20.1411 24.20621,-48.6693 24.20621,-48.6693 l -56.33705,68.8103 c 0,0 66.35342,-91.4689 83.88208,-109.93156 17.52866,-18.4626 22.53685,-38.18406 22.53685,-38.18406 -6.67762,2.51763 -58.00648,62.51622 -58.00648,62.51622 l 53.41568,-65.03384 c 0,0 -12.52048,10.90972 -31.29628,21.39987 -18.78062,10.49013 -65.51873,74.26517 -65.51873,74.26517 7.09495,-5.4549 28.37971,-28.5332 28.37971,-28.5332 -9.18164,13.0078 -33.38785,41.5359 -33.38785,41.5359 7.09494,-4.196 26.29293,-25.1763 26.29293,-25.1763 -21.70205,33.1488 -71.36164,74.6847 -71.36164,74.6847 17.94602,-16.7842 30.46646,-41.1163 30.46646,-41.1163 -12.9378,15.945 -60.92793,59.1593 -60.92793,59.1593 0,0 1.66947,2.0981 21.28479,4.1961 19.61539,2.098 61.34531,-5.8745 77.62188,-6.2941 16.27658,-0.4196 32.13583,-10.4901 57.58911,-20.141 25.45825,-9.651 52.99825,-12.5882 76.78715,-13.847 23.7888,-1.2588 45.9034,-4.6156 55.5024,-10.0705 9.599,-5.4599 41.7298,-38.1891 41.7298,-38.1891 z m 568.8113,114.5473 c -10.8511,-2.0981 -85.5515,-8.3922 -85.5515,-8.3922 l 40.8952,26.8548 c 0,0 -42.982,-24.7568 -53.4157,-27.2744 -10.4338,-2.5176 -46.738,-3.7764 -46.738,-3.7764 l 24.6185,19.7214 c 0,0 -24.2062,-18.043 -32.9655,-19.3018 -8.7644,-1.2588 -22.9543,-1.6785 -22.9543,-1.6785 0,0 20.0328,16.7843 33.8053,27.2744 0,0 -25.4582,-9.6509 -41.7348,-23.9175 -16.2766,-14.2666 -58.8412,-26.8547 -77.6219,-31.4654 l 25.0409,24.3321 c 0,0 -21.7021,-19.7214 -34.6349,-25.5959 -12.9378,-5.8745 -26.293,-8.8117 -26.293,-8.8117 0,0 20.0327,2.5176 36.7267,26.0155 0,0 -21.7021,-16.7842 -39.6481,-23.0783 -17.946,-6.294 -38.3911,-11.3293 -45.486,-17.2038 l 29.2144,32.7292 c 0,0 -35.8921,-28.5331 -42.5696,-33.5684 -6.6776,-5.0353 -19.6154,-4.6157 -19.6154,-4.6157 l 31.7135,33.5684 -37.5564,-33.5684 14.1899,18.4627 -25.0409,-17.6234 c 0,0 -86.8035,-5.0353 -141.4712,-5.4549 -54.6677,-0.4196 -97.2373,12.5881 -105.5842,15.1058 l 14.6072,18.043 -27.545,-16.3646 12.5205,13.847 -21.7022,-12.1686 54.2504,39.4379 -29.6318,-29.3724 40.4828,28.5332 -28.797,-32.3096 c 0,0 24.2062,23.0783 45.486,33.983 0,0 -20.4501,-23.9175 -26.293,-33.5684 0,0 32.9706,25.1763 40.0605,29.792 7.095,4.6156 43.4043,0.4196 43.4043,0.4196 0,0 -25.0409,-20.1411 -37.5614,-33.988 l 29.6317,23.4978 -25.4532,-27.2743 20.8674,16.3646 -7.9297,-18.8823 12.9379,11.3294 -9.1817,-16.3646 43.3993,45.3174 -35.0573,-44.8928 27.9624,28.5332 -21.2848,-29.3724 c 0,0 24.6236,23.0783 45.0687,38.6037 0,0 -16.2767,-15.5254 -21.7022,-24.7567 0,0 30.8838,28.1135 61.7626,43.6389 l -18.7807,-18.043 c 0,0 23.3715,20.136 45.9034,23.4979 0,0 -13.3552,-10.0706 -22.1195,-18.8822 l 25.0409,15.5253 -40.4778,-36.5006 43.8167,33.1438 -12.9229,-19.2968 31.7184,27.6939 -24.2062,-27.2743 20.4501,15.5253 -20.4501,-25.1762 26.293,23.4978 -19.1981,-25.1763 48.4075,39.8575 -25.4582,-28.5331 25.8755,20.5606 -31.7135,-37.7644 51.7463,47.4103 -37.9788,-44.8927 33.8003,29.792 -28.792,-36.0861 40.8951,36.5056 -34.2226,-36.5056 38.3961,34.4076 -40.0654,-49.5084 77.2045,76.7828 -45.0687,-54.5437 46.3207,37.7645 -35.892,-45.3124 c 0,0 32.9706,35.6665 47.9901,46.5712 0,0 -25.0409,-28.5332 -31.2961,-39.8575 0,0 29.6317,27.2743 42.5645,34.4026 12.9379,7.1333 37.9738,12.1686 37.9738,12.1686 0,0 -19.6154,-18.4626 -29.2144,-29.792 0,0 27.545,24.3371 40.9002,31.89 0,0 -11.6858,-11.3293 -15.0246,-19.7214 0,0 9.599,8.8116 20.8674,15.1058 0,0 -12.5204,-15.5255 -19.198,-24.7568 0,0 21.7021,15.5254 32.1309,19.3019 10.4337,3.7764 25.8756,19.7214 44.6513,27.2743 0,0 -22.9542,-16.3646 -30.4664,-25.5959 0,0 18.3633,18.043 61.3452,28.9478 0,0 -25.0409,-18.8823 -32.1309,-28.9478 0,0 35.8871,25.5959 55.9197,32.7292 0,0 -19.198,-12.5882 -25.4582,-19.3019 0,0 17.946,7.9725 29.2144,13.4274 0,0 -12.5204,-9.2313 -19.198,-19.3018 0,0 12.9378,7.9725 25.8756,6.7137 12.9378,-1.2588 60.0932,16.7842 60.0932,16.7842 0,0 -26.293,-21.8195 -28.3797,-24.3371 0,0 27.9624,20.141 42.5646,23.9175 14.6072,3.7764 42.9819,0.8392 42.9819,0.8392 l -24.6236,-19.7214 54.2503,24.7517 c -16.0132,-11.8239 -41.705,-29.0977 -60.4806,-32.7242 z m -494.9456,-110.7709 c 0,0 -25.8756,16.7843 -36.3093,22.6588 l 11.2684,-11.749 c 0,0 -17.5286,13.4274 -30.4664,17.6234 0,0 21.2847,-2.098 39.6481,-11.3293 0,0 -10.4337,7.1333 -17.1113,10.9097 0,0 26.7053,-2.9372 35.4697,-7.5529 0,0 -5.8429,5.8745 -11.6858,8.3921 0,0 15.0245,-6.294 26.2929,-3.7764 0,0 -12.5204,-8.8117 -18.3633,-7.5529 -5.8429,1.2588 -18.3633,6.294 -18.3633,6.294 0,0 33.3879,-15.5253 38.8134,-20.141 5.4255,-4.6156 20.8674,-18.4627 20.8674,-18.4627 0,0 -30.8838,22.2392 -50.4942,31.0459 l 15.8593,-11.749 c 0,0 -16.2766,8.3921 -26.2931,13.0078 0,0 12.1032,-9.2263 20.8675,-17.6185 z m 5.4256,-16.3645 c -0.4175,-0.8393 -12.1032,-5.4549 -10.8511,-11.3294 1.252,-5.8744 9.599,-20.98025 9.599,-20.98025 l -20.0327,19.72145 c 0,0 13.7725,-26.01051 15.8592,-27.27429 2.0868,-1.25886 -23.7889,21.81939 -23.7889,21.81939 l 25.041,-39.01825 -33.3829,38.17905 35.4696,-46.99077 -38.3911,39.86247 40.4779,-50.76723 -32.9706,27.69395 26.293,-36.50565 c 0,0 -11.6858,13.84699 -18.3634,13.84699 -6.6775,0 -26.2929,26.43513 -26.2929,26.43513 9.599,-19.30184 42.5646,-58.32011 42.5646,-58.32011 l -29.6268,26.85471 30.0491,-43.21433 c 0,0 -30.0491,37.34486 -37.1441,38.6037 -7.0948,1.25878 -33.8002,44.05353 -33.8002,44.05353 9.599,-26.85473 66.3534,-90.21009 66.3534,-90.21009 l -65.936,62.93575 37.139,-49.92803 c 0,0 -10.0164,10.49016 -17.1113,12.16854 -7.0949,1.6784 -7.9296,-7.1333 -14.1898,-8.39208 -6.2603,-1.25884 -16.2766,2.098 -16.2766,2.098 l 21.7021,-13.42736 c -23.3716,8.39212 -42.9869,7.5529 -42.9869,7.5529 l 6.2602,15.94502 -12.1031,-13.4274 10.0164,21.39991 c 0,0 -12.1031,-19.72142 -18.7807,-20.14107 -6.6776,-0.41962 -13.3552,1.25878 -13.3552,1.25878 8.7644,10.90978 29.2144,56.64172 29.2144,56.64172 -14.1898,-25.1763 -38.8084,-58.32012 -38.8084,-58.32012 l 14.6072,26.85474 -22.1195,-26.43512 20.8674,34.40761 c 0,0 -23.3714,-32.30961 -31.3011,-35.24687 -7.9296,-2.9372 -15.8592,-3.3568 -15.8592,-3.3568 l 12.5204,17.62342 -17.9459,-15.10579 22.5368,28.5332 c 0,0 -27.1277,-29.79201 -35.0523,-31.05083 -7.9296,-1.25882 -27.1277,-8.39213 -27.1277,-8.39213 0,0 0.4175,7.13331 4.1735,12.58819 3.7561,5.45486 4.1735,7.55286 1.252,11.32933 -2.9214,3.77643 2.0868,8.81174 3.3388,18.46261 1.252,9.65092 13.7726,29.37238 30.0491,37.7645 16.2766,8.39209 80.5433,22.65868 94.7332,27.69388 14.1898,5.0353 25.4582,20.5607 31.3011,23.0783 5.8429,2.5177 23.3715,2.0981 35.0573,6.2941 11.6807,4.1761 27.1227,-13.8669 27.1227,-13.8669 z m 130.6201,-78.4612 c -6.6776,-2.09808 -17.1113,-10.49013 -17.1113,-10.49013 -0.8347,6.29405 -7.5123,17.62338 -7.5123,17.62338 2.9215,-10.0705 0.4175,-20.56065 0.4175,-20.56065 -2.5041,8.8117 -18.3634,37.75949 -18.3634,37.75949 0,0 14.1899,-33.14379 13.3552,-38.59867 -0.8347,-5.4549 -5.0082,-5.4549 -5.0082,-5.4549 -1.6694,7.97253 -9.1817,22.23911 -9.1817,22.23911 0,0 7.095,-22.65869 5.4256,-25.17634 -1.6694,-2.51763 -10.851,-5.45486 -10.851,-5.45486 -1.6695,7.97251 -9.5991,23.07828 -9.5991,23.07828 4.1735,-6.71366 4.1735,-28.11353 4.1735,-28.11353 -2.9214,9.65095 -12.9378,30.21157 -12.9378,30.21157 5.0081,-15.52539 7.9297,-33.98803 7.9297,-33.98803 -2.5042,6.71371 -8.3471,18.46264 -8.3471,18.46264 1.6694,-11.32936 2.5041,-23.49788 2.5041,-23.49788 l -5.8428,13.84695 c 0,0 2.0867,-8.81171 2.504,-13.84695 0.4175,-5.03528 -4.1734,-7.55292 -6.2602,-7.97249 -2.0867,-0.41961 -15.4419,28.95273 -15.4419,28.95273 l 8.7643,-28.95273 c 0,0 -1.6693,-6.71371 -15.8592,-8.81175 -14.1899,-2.09804 -25.0409,-6.29406 -25.0409,-6.29406 0,0 -1.2521,12.16856 -2.9214,19.72142 -1.6694,7.55293 1.252,9.23132 2.9214,15.5254 1.6694,6.29413 1.6694,11.74899 -2.5041,18.88222 -4.1735,7.13333 5.4255,18.04303 5.0081,23.07834 -0.4174,5.03524 -8.7642,18.04298 -8.7642,18.04298 0,0 3.7561,1.25882 8.7642,0.83921 5.0083,-0.41959 16.694,13.0078 16.694,13.0078 l -15.0245,-8.81172 c 0,0 2.0867,-2.09804 -0.8347,12.58815 -2.9215,14.68612 2.9214,11.32932 5.4256,15.10572 2.504,3.7765 -2.9216,14.2666 -2.9216,14.2666 11.6858,-8.3921 32.9706,-20.5606 45.9034,-32.30454 12.9378,-11.74897 30.4665,-4.6157 36.7267,-11.32939 6.2701,-6.71862 33.8102,-33.57337 33.8102,-33.57337 z m 4.1735,23.9175 c 0,0 -32.1309,41.9555 -54.6677,59.1593 0,0 10.0164,-15.1057 13.3551,-21.3998 0,0 -18.7806,20.9802 -30.8788,30.6311 0,0 6.6776,-9.6509 10.4337,-18.4626 0,0 -8.3469,7.9725 -15.4419,11.3294 -7.0948,3.3568 -27.545,34.8222 -27.545,34.8222 0,0 19.1981,-26.4302 30.8839,-33.5635 0,0 -10.4337,14.6862 -15.0246,21.3999 0,0 19.198,-13.8469 30.0491,-22.6586 0,0 -10.0164,11.3293 -17.1113,18.4626 0,0 10.4337,-8.8118 23.7888,-9.6509 13.3552,-0.8393 37.5564,-31.4704 37.5564,-31.4704 0,0 -24.6235,21.3998 -34.2176,25.1763 -0,0 24.6186,-23.4929 48.8199,-63.775 z m 56.342,-1.25882 c 0,0 -39.6481,28.53312 -63.8493,57.90052 0,0 13.3551,-13.0078 21.7021,-16.7842 0,0 -29.6318,34.4076 -41.3125,55.3829 0,0 9.599,-13.4274 16.6939,-14.2666 7.0949,-0.8392 7.9296,2.098 15.8592,-3.3569 7.9297,-5.4548 48.8249,-54.12401 48.8249,-54.12401 0,0 -42.1473,43.63391 -55.5024,53.28481 l 42.5695,-48.2496 -47.1554,44.4732 c -0.016,0 41.7199,-52.02108 62.17,-74.26012 z m 115.1782,160.27912 c 22.1196,-24.337 27.545,-68.3906 27.545,-68.3906 -2.9214,11.7489 -13.7724,23.4979 -13.7724,23.4979 0,0 11.2683,-21.8195 8.7643,-33.5684 -2.5041,-11.749 3.3388,-41.1163 3.3388,-41.1163 0,0 -9.599,20.5606 -7.9297,37.3398 1.6695,16.7843 -21.2847,44.4782 -21.2847,44.4782 4.1734,-10.9098 8.7643,-25.5959 8.7643,-25.5959 -12.5204,25.5959 -40.4778,46.9908 -40.4778,46.9908 12.5204,-14.6862 27.1276,-40.6967 27.1276,-40.6967 -10.0163,14.2665 -23.7888,28.9527 -23.7888,28.9527 0,0 12.103,-16.3646 15.0245,-28.9527 2.9214,-12.5882 23.3715,-44.4782 23.3715,-44.4782 -12.5204,14.6862 -39.2307,39.8625 -39.2307,39.8625 0,0 38.396,-43.2194 41.3125,-55.3879 2.9214,-12.1686 26.7103,-46.57118 26.7103,-46.57118 -16.694,13.42738 -27.545,37.34488 -27.545,37.34488 2.9214,-12.16856 16.2766,-33.56844 16.2766,-33.56844 0,0 -21.7021,30.63114 -22.1195,41.54094 -0.4174,10.9097 -8.7643,12.5881 -15.4419,22.239 -6.6776,9.651 -46.3207,56.6417 -46.3207,56.6417 23.3715,-28.1135 42.5646,-65.4534 42.5646,-65.4534 -8.347,6.2941 -15.8593,15.9451 -15.8593,15.9451 17.1113,-19.3019 30.0491,-49.50845 30.0491,-49.50845 0,0 -6.6776,5.87445 -15.4419,7.55285 -8.7643,1.6785 -19.198,23.4979 -19.198,23.4979 19.6154,-49.08878 26.7104,-30.20659 38.3911,-40.2821 11.6858,-10.0705 32.1358,-57.90048 32.1358,-57.90048 0,0 -20.45,39.8575 -28.797,40.69669 -8.3469,0.83917 -15.8592,3.35684 -15.8592,3.35684 14.1898,-10.07052 21.7021,-26.01555 21.7021,-26.01555 0,0 -9.1817,12.16856 -22.1195,21.39989 -12.9378,9.23131 -30.8838,49.92801 -30.8838,49.92801 14.6072,-25.59588 26.7103,-38.18408 26.7103,-38.18408 -10.4337,10.90974 -20.0327,44.47318 -27.9623,49.50838 -7.9296,5.0353 -6.2603,13.847 -10.0164,26.8548 -3.7561,13.0078 -35.0573,46.5712 -35.0573,46.5712 5.4255,-7.9725 15.0245,-26.0156 15.0245,-26.0156 -6.6775,6.7137 -15.8592,17.6235 -15.8592,17.6235 11.2685,-16.3646 38.8085,-81.3984 38.8085,-81.3984 -20.0327,24.337 -50.0769,39.0182 -50.0769,39.0182 23.7889,-18.043 45.9034,-49.5084 45.9034,-49.5084 0,0 -40.0605,46.9908 -55.0851,49.928 -15.0245,2.9373 -18.7806,15.1058 -18.7806,15.1058 10.0164,-20.5606 35.892,-52.026 35.892,-52.026 -30.4665,24.3371 -58.4239,65.873 -58.4239,65.873 l 27.545,-25.5959 c 0,0 -19.198,22.2391 -20.8674,26.8547 -1.6694,4.6156 -0.4175,8.8117 13.3552,12.1686 13.7724,3.3568 52.5809,11.7489 70.9442,17.2038 18.3733,5.4548 60.9378,22.239 60.9378,22.239 z m 86.3862,-75.1043 c 0,0.4196 -0.4174,7.9725 7.0949,19.7214 7.5124,11.749 13.3552,33.9881 13.3552,33.9881 -1.2521,-33.5734 -20.4501,-53.7095 -20.4501,-53.7095 z m 12.5205,-35.2468 c 5.4255,33.983 -4.5908,34.8222 1.2521,45.7319 5.8428,10.9098 19.6153,53.2849 19.6153,53.2849 -3.3388,-30.6311 -17.5287,-58.3201 -17.5287,-58.3201 5.8429,10.9097 20.0328,28.9528 20.0328,28.9528 0,0 -15.0245,-21.3999 -17.1113,-38.6037 -2.0867,-17.1989 -6.2602,-31.0458 -6.2602,-31.0458 z m 21.2798,-9.651 c 5.0082,12.5882 8.3469,27.694 8.3469,27.694 -3.3387,-5.0352 -9.599,-7.9725 -9.599,-7.9725 8.347,12.5882 11.6858,27.694 11.6858,27.694 -7.5123,-8.3921 -13.3551,-16.7843 -13.3551,-16.7843 11.2683,30.6312 42.5645,56.6418 42.5645,56.6418 -22.5368,-27.694 -30.4664,-52.8653 -30.4664,-52.8653 4.5908,3.3568 7.0949,8.3921 7.0949,8.3921 -2.9165,-22.6587 -16.2716,-42.7998 -16.2716,-42.7998 z m 372.6673,-13.8419 c -22.9542,-1.67841 -47.1554,13.8469 -47.1554,13.8469 9.5991,-10.4901 30.4665,-20.14101 30.4665,-20.14101 l -15.0246,-4.61563 c -5.0082,7.55288 -26.7103,25.17634 -26.7103,25.17634 9.599,-13.0078 17.946,-28.11357 17.946,-28.11357 -5.0082,8.81172 -17.1113,20.56067 -17.1113,20.56067 0,0 15.8593,-25.17634 12.1031,-28.5332 -3.7561,-3.3568 -9.1817,-7.13325 -9.1817,-7.13325 -10.0163,21.81942 -26.7102,34.82725 -26.7102,34.82725 9.1816,-10.49016 17.1112,-33.56845 17.1112,-33.56845 -4.5908,6.29408 -12.5204,13.84698 -12.5204,13.84698 6.6776,-11.74894 10.4337,-22.23911 10.4337,-22.23911 -1.6694,-3.35682 -10.4337,-7.55284 -10.4337,-7.55284 -14.1899,18.04301 -31.7185,46.99572 -31.7185,46.99572 3.3388,-18.04297 17.1113,-44.0585 17.1113,-44.0585 -6.2602,6.29411 -12.5205,15.5254 -12.5205,15.5254 5.8429,-16.36464 12.9378,-27.69395 12.9378,-27.69395 -7.5122,2.51763 -14.1898,10.9097 -14.1898,10.9097 3.3388,-11.32933 8.347,-15.52536 8.347,-15.52536 -23.7889,-15.94503 -42.5646,-16.3646 -42.5646,-16.3646 2.0868,7.97249 0,18.04301 0,18.04301 -2.0868,-7.55288 -5.0082,-15.1058 -5.0082,-15.1058 2.5041,10.07055 1.2521,25.17634 1.2521,25.17634 -2.5042,-12.58816 -7.5123,-23.07832 -7.5123,-23.07832 5.4255,20.56064 3.7562,50.76727 3.7562,50.76727 -6.2603,-37.33986 -13.7726,-52.44566 -13.7726,-52.44566 0,0 -11.6858,1.25881 -19.198,5.87447 -7.5123,4.61562 -24.2062,5.45484 -24.2062,5.45484 5.0082,8.39211 5.0082,20.14107 5.0082,20.14107 -5.8429,-14.26659 -17.5287,-21.39987 -17.5287,-21.39987 10.0164,20.56069 20.0327,70.06906 20.0327,70.06906 -12.5204,-43.63394 -30.0491,-71.32787 -30.0491,-71.32787 7.095,13.0078 9.599,32.72922 9.599,32.72922 -12.9377,-30.63118 -17.1112,-33.14383 -33.8002,-40.2771 -16.6889,-7.13333 -47.1604,-18.88227 -47.1604,-18.88227 9.1816,13.84698 14.1899,37.7595 14.1899,37.7595 -13.3551,-28.11356 -27.9624,-44.05357 -27.9624,-44.05357 17.1113,33.14883 33.8003,90.62974 33.8003,90.62974 -23.7889,-57.06131 -42.9819,-89.79053 -42.9819,-89.79053 5.8428,8.81172 21.2848,55.80251 21.2848,55.80251 -14.6073,-30.21159 -34.635,-46.57119 -34.635,-46.57119 4.5908,5.87448 5.4255,15.94498 5.4255,15.94498 0,0 -12.5205,-20.56063 -24.2063,-22.23906 -11.6856,-1.67846 -33.3878,-13.84694 -33.3878,-13.84694 5.0082,8.39208 5.0082,19.3018 5.0082,19.3018 -8.3469,-15.1058 -18.7807,-22.65868 -18.7807,-22.65868 15.8593,18.04302 29.2144,52.02606 29.2144,52.02606 -2.9214,-18.04301 -7.0949,-33.14882 -7.0949,-33.14882 18.7807,26.85474 27.1277,59.15932 27.1277,59.15932 -7.9297,-21.81942 -18.7807,-32.7292 -18.7807,-32.7292 22.1195,46.15658 27.9623,89.7905 27.9623,89.7905 -12.5205,-50.76717 -35.4697,-88.95124 -35.4697,-88.95124 4.1735,8.39207 5.4256,22.65865 5.4256,22.65865 -21.2848,-54.12407 -63.8493,-95.24539 -63.8493,-95.24539 0,0 21.2847,36.9203 25.4582,57.90054 4.1735,20.98027 26.293,56.22208 26.293,56.22208 0,0 -19.6154,-23.9175 -26.7103,-43.21432 -7.095,-19.30187 -22.5369,-44.05354 -22.5369,-44.05354 10.0164,7.9725 19.6154,28.11355 19.6154,28.11355 0,0 -20.0327,-43.63395 -30.8838,-54.54369 -10.8511,-10.90976 -37.5564,-17.62342 -37.5564,-17.62342 2.9215,8.8117 0,23.0783 0,23.0783 -5.4255,-20.56068 -11.6857,-20.56068 -11.6857,-20.56068 6.2602,38.17912 -2.9214,44.05856 -2.9214,44.05856 2.504,-15.94502 -2.9215,-39.86252 -2.9215,-39.86252 0,0 -7.0949,5.03528 -7.9296,24.33712 -0.8347,19.3018 -3.7562,32.7292 -3.7562,32.7292 1.6694,-14.26656 -4.5908,-33.56846 -4.5908,-33.56846 -13.7725,13.0078 -10.8511,31.05086 -10.8511,31.05086 -3.7561,-9.23132 -3.7561,-14.26658 -3.7561,-14.26658 -7.0949,10.4901 -8.7643,30.21154 -8.7643,30.21154 v -22.23905 c 0,0 -4.1735,5.45484 -12.5204,15.10578 -8.347,9.65089 -15.8593,33.98798 -15.8593,33.98798 12.5205,-16.78419 29.2144,-16.36454 31.2961,-24.75667 2.0868,-8.39212 1.2521,-14.2666 1.2521,-14.2666 1.2521,5.4549 5.0082,10.07052 5.0082,10.07052 6.2603,-6.7137 21.2848,-0.41957 31.3011,-19.3018 10.0164,-18.88228 18.3634,-22.65872 18.3634,-22.65872 0.8347,5.03528 5.0081,9.65097 5.0081,9.65097 -4.5908,-15.94503 2.9214,-31.05081 2.9214,-31.05081 4.5909,16.78422 34.64,42.79472 34.64,54.54366 0,11.74894 8.347,13.84698 7.0949,25.1763 -1.252,11.32941 11.6858,12.16858 10.8511,21.39988 -0.8348,9.23132 -23.7889,36.50067 -28.7971,51.1869 -5.0081,14.6861 5.8429,37.7594 5.8429,37.7594 0,0 -10.0163,-28.9527 2.9214,-34.8222 12.9379,-5.8745 45.9034,-5.8745 45.9034,-5.8745 0,0 20.8625,-10.49013 -2.5041,1.2588 -23.3715,11.749 -14.1898,38.1791 -32.1308,46.9908 -17.946,8.8117 -15.8593,37.7645 -15.8593,37.7645 13.3552,-8.8118 25.8756,-2.5176 25.8756,-2.5176 -10.0163,4.196 -20.4501,17.6234 -20.4501,17.6234 13.7726,-14.6862 33.3879,-9.2314 33.3879,-9.2314 -15.8592,15.5254 -17.946,29.3724 -17.946,29.3724 0,0 -33.3829,-10.0705 -31.7135,-20.5606 1.6694,-10.4902 1.2521,-18.043 1.2521,-18.043 -7.0949,18.4626 -29.6318,41.5408 -29.6318,41.5408 0,0 21.7021,0.4196 45.9083,2.0981 24.2063,1.6784 125.612,11.3293 162.756,18.043 37.1391,6.7136 59.6759,11.749 76.7872,18.4626 17.1113,6.7137 96.4025,3.3569 96.4025,3.3569 -3.3388,-16.7842 3.3388,-61.677 3.3388,-61.677 0,0 -30.8837,23.0783 -37.1391,26.0105 -6.2602,2.9373 -32.9705,-0.4196 -32.9705,-0.4196 14.1899,-6.294 42.1522,-30.6312 44.239,-31.4704 2.0867,-0.8392 -42.5646,31.0509 -58.8412,26.8498 -16.2766,-4.1961 -25.0409,-2.5176 -25.0409,-2.5176 l 30.0491,-23.9176 c 0,0 -28.7971,17.6235 -40.0654,22.6587 -11.2685,5.0353 -40.4779,-2.5176 -54.2504,-10.0705 -13.7725,-7.5529 -22.1195,-20.9803 -23.7889,-46.1516 -1.6694,-25.1713 -15.8592,-39.8625 -15.8592,-39.8625 7.5123,5.8745 21.7021,8.8117 21.7021,8.8117 -26.7103,-24.7567 -29.2144,-41.5409 -29.2144,-41.5409 29.6317,31.4704 51.3289,21.8195 66.3535,33.1488 15.0245,11.3294 41.3125,15.1058 41.3125,15.1058 -10.0163,-8.8117 -16.2766,-20.141 -16.2766,-20.141 0,0 35.0572,16.7842 47.9901,15.945 12.9378,-0.8393 19.1981,7.1333 19.1981,7.1333 0.8347,-10.4902 -2.9215,-16.3646 -2.9215,-16.3646 13.3552,1.6784 25.8756,14.2665 25.8756,14.2665 -5.4255,-10.9097 -11.6857,-13.4273 -11.6857,-13.4273 12.5204,1.2588 21.2847,7.9724 30.4664,11.3293 9.1816,3.3568 10.4336,-17.2038 21.2847,-13.4273 10.8511,3.7764 28.3797,2.9372 28.3797,2.9372 0,0 -13.3551,-5.0353 -20.45,-11.749 -7.095,-6.7137 -22.1195,-15.5254 -22.1195,-15.5254 5.8429,0.4197 27.9624,7.1334 48.8248,16.3646 20.8674,9.2314 30.4664,2.0981 30.4664,2.0981 0,0 -18.3633,-5.0353 -9.1816,-10.9098 9.1767,-5.8694 42.1422,-19.2918 42.1422,-19.2918 z m 302.1453,-29.37238 c -3.587,41.48598 -16.8081,30.63618 5.0083,79.71998 0,0 -8.3469,-27.2743 -5.4254,-45.732 0,0 0.8345,19.7215 8.7642,34.4077 0,0 -4.5909,-20.5607 0.8347,-31.4704 5.4255,-10.90976 0,-26.01554 0,-26.01554 0,0 -0.4175,15.94501 -5.843,27.27434 0,-0 1.2473,-18.88226 -3.3388,-38.18408 z m -129.7903,-7.13329 c 0,0 -19.6153,13.00776 -30.0441,24.75672 -10.4337,11.74895 -40.0655,57.90055 -40.0655,57.90055 0,0 37.9788,-51.60646 54.2504,-65.87304 0,0 -18.3633,26.01054 -24.2062,41.53594 0,0 30.4664,-44.47317 40.0654,-58.32017 z m 43.4043,-55.38291 c 0,0 -29.6318,12.16858 -42.9819,22.2391 -13.3552,10.07053 -34.2226,31.4654 -34.2226,31.4654 0,0 17.5286,-10.49009 23.7888,-10.07056 6.2603,0.41964 13.3552,-0.83916 22.1195,-10.49012 8.7594,-9.64592 31.2962,-32.72418 31.2962,-33.14382 z m 92.224,52.44568 c 0,0 -15.4419,-9.6509 -20.45,-12.16852 -5.0082,-2.51767 -23.3715,14.68618 -23.3715,14.68618 0,0 8.3469,-12.16856 16.2766,-18.46263 0,0 -7.9297,2.93721 -16.2766,11.74895 0,0 3.7561,-11.32936 10.0163,-15.94501 0,0 -17.1113,-4.61567 -27.1276,-13.42737 -10.0164,-8.8117 -17.1113,-7.55292 -17.1113,-7.55292 0,0 11.6858,6.71371 12.9378,13.00778 1.2521,6.29408 -15.0246,28.11354 -14.6072,39.85748 0.4174,11.74895 -22.1195,42.37516 -22.1195,42.37516 0,0 12.1031,-12.1686 20.0328,-15.52541 7.9296,-3.35686 15.8592,1.25881 23.7888,-9.65089 7.9297,-10.90978 15.8592,-10.07053 25.4583,-10.07053 9.604,0.008 8.7693,-19.29184 32.5531,-18.87227 z"
   id="path1" />
</svg>
