<?xml version="1.0" encoding="UTF-8" standalone="no"?>
<!-- Generator: Adobe Illustrator 27.5.0, SVG Export Plug-In . SVG Version: 6.00 Build 0)  -->

<svg
   version="1.1"
   x="0px"
   y="0px"
   viewBox="0 0 750 500"
   style="enable-background:new 0 0 750 500;"
   xml:space="preserve"
   stroke="#232325"
   id="svg5"
   sodipodi:docname="mountain-Left.rev.svg"
   inkscape:version="1.3.1 (9b9bdc1480, 2023-11-25, custom)"
   xmlns:inkscape="http://www.inkscape.org/namespaces/inkscape"
   xmlns:sodipodi="http://sodipodi.sourceforge.net/DTD/sodipodi-0.dtd"
   xmlns="http://www.w3.org/2000/svg"
   xmlns:svg="http://www.w3.org/2000/svg"><defs
   id="defs5" /><sodipodi:namedview
   id="namedview5"
   pagecolor="#505050"
   bordercolor="#eeeeee"
   borderopacity="1"
   inkscape:showpageshadow="0"
   inkscape:pageopacity="0"
   inkscape:pagecheckerboard="0"
   inkscape:deskcolor="#505050"
   inkscape:zoom="3.144"
   inkscape:cx="207.37913"
   inkscape:cy="205.47074"
   inkscape:window-width="1610"
   inkscape:window-height="986"
   inkscape:window-x="0"
   inkscape:window-y="0"
   inkscape:window-maximized="1"
   inkscape:current-layer="svg5" />
<g
   id="g5"
   transform="translate(-223.66779,-109.38568)">
		<polygon
   style="fill:#061e11"
   points="611.461,383.665 588.001,369.979 560.631,367.586 584.311,372.359 598.265,384.611 587.512,390.637 618.108,390.575 651.174,390.637 642.345,386.225 622.037,383.021 618.108,384.941 "
   id="polygon1" />
		<polygon
   style="fill:#061e11"
   points="635.318,363.068 640.125,363.068 625.721,353.887 635.318,369.979 635.318,374.682 658.343,374.682 640.125,369.979 "
   id="polygon2" />
		<path
   d="m 692.457,390.637 -10.576,-14.372 -2.103,-0.349 -9.51,-3.306 -11.098,-3.805 -8.159,-8.652 -8.268,-8.7 c -3.93,-5.592 -7.837,-11.199 -11.802,-16.768 l -11.907,-16.8 -0.931,-1.314 -1.586,0.578 -8.879,3.237 -8.498,3.134 -12.846,0.504 -8.579,-9.967 c -3.106,-3.616 -6.319,-7.144 -9.232,-10.915 l -17.88,-22.303 -1.652,-2.062 -2.085,1.659 -11.752,9.353 -11.488,9.166 -13.217,5.891 -0.722,0.322 -0.402,0.655 c -3.008,4.892 -5.965,9.812 -8.939,14.723 l -16.732,6.904 -12.003,-1.794 -1.642,-0.245 -0.676,1.42 -6.26,13.145 c -5.306,5.538 -10.633,11.059 -15.905,16.629 l -15.724,16.558 c -9.416,0.201 -18.832,0.36 -28.248,0.613 l -0.313,0.008 -0.171,0.214 -6.65,8.306 -6.617,8.333 H 413.3 l 27.71,-10.329 9.459,-8.27 15.908,6.778 11.608,-3.788 h 11.608 l -12.018,-2.99 -10.029,2.644 3.778,-7.367 c 0,0 20.405,-1.021 43.143,-2.118 1.093,-0.053 -33.926,-1.412 -36.479,-1.412 -2.554,0 -9.774,-12.332 -9.774,-12.332 l 0.111,-3.867 6.236,-1.815 -2.396,-2.727 0.773,-11.769 22.887,10.53 24.988,3.152 8.048,6.703 -28.928,-1.84 35.381,7.215 31.744,7.25 -16.205,-7.821 -10.534,-11.326 -4.772,-12.763 -1.531,-27.959 10.55,4.69 -3.884,-6.13 h 8.573 l 0.739,-14.644 14.508,17.917 c 2.941,3.764 23.191,22.357 23.191,22.357 l 9.556,11.736 11.559,16.375 -44.834,-8.856 c 0,0 48.833,14.521 49.316,15.206 l 22.025,6.911 -15.707,-26.34 -12.086,-7.12 8.687,-4.21 -3.092,-6.51 3.417,-4.21 11.33,15.189 c 4.095,5.514 8.249,10.989 12.378,16.48 l 0.082,0.109 0.063,0.062 8.663,8.525 8.697,8.493 0.21,0.205 0.241,0.071 11.541,3.429 5.346,1.564 4.638,5.352 5.503,3.623 -1.745,5.945 h 8.976 z"
   id="path2" />
		<polygon
   style="fill:#061e11"
   points="498.559,377.195 534.309,390.637 570.059,390.637 "
   id="polygon3" />
		<polygon
   style="fill:#061e11"
   points="472.059,383.916 488.559,390.637 508.059,390.637 "
   id="polygon4" />
		<polygon
   style="fill:#061e11"
   points="583.642,334.707 550.476,325.028 598.309,347.862 "
   id="polygon5" />
	</g>
<path
   style="fill:#c4c4c1;fill-opacity:0;stroke-width:0.001"
   d="m 225.3996,280.66779 c 178.15513,0.70899 179.04773,0.75467 179.04773,0.75467 z"
   id="path5" /><path
   style="fill:#c4c4c1;fill-opacity:0;stroke-width:0.001"
   d="m 156.53701,165.38198 c 92.06772,51.57517 19.94995,6.94776 19.94995,6.94776 l -16.38041,25.30365 z"
   id="path6" /><path
   style="fill:#000000;fill-opacity:0;stroke-width:0.001"
   d="m 218.67794,311.26501 c 104.5804,1.78539 115.27289,3.07754 115.27289,3.07754 l -106.46022,9.39786 z"
   id="path7" /><path
   style="fill:#000000;fill-opacity:0;stroke-width:0.001;stroke:#fa0000;stroke-opacity:1"
   d="m 189.25061,282.03895 c 201.87013,-0.8051 201.87013,-0.8051 201.87013,-0.8051 z"
   id="path8" /><path
   style="fill:#000000;fill-opacity:0;stroke:#fa0000;stroke-width:0.001;stroke-opacity:1"
   d="m 448.36146,301.86218 -138.46935,6.9987 -0.19631,-0.4535 z"
   id="path9" /><path
   style="fill:#000000;fill-opacity:0;stroke:#fa0000;stroke-width:0.001;stroke-opacity:1"
   d="m 244.16613,288.92653 c 25.21504,0.21788 0,0 0,0 z"
   id="path10" /><path
   style="fill:#c4c4c1;fill-opacity:0;stroke:none;stroke-width:0.123811;stroke-dasharray:none;stroke-opacity:1"
   d="m 427.63137,281.08382 c 0.0499,-0.26091 -0.17827,-0.39089 -4.37309,-2.49131 l -4.42571,-2.21604 -10.26687,-1.62152 -10.26686,-1.62152 -1.96649,0.95895 -1.96649,0.95895 -3.2016,-0.61856 -3.2016,-0.61856 -11.73771,-6.84762 -11.73771,-6.84762 -4.59541,-0.40073 c -2.52748,-0.22041 -6.89789,-0.60254 -9.71204,-0.8492 -2.81415,-0.24666 -6.90478,-0.60497 -9.0903,-0.79625 -2.18552,-0.19128 -4.00134,-0.32011 -4.03516,-0.28629 -0.0338,0.0338 -0.0674,0.24912 -0.0747,0.47845 l -0.0132,0.41695 3.48605,0.70693 c 1.91733,0.38881 7.19115,1.45269 11.71959,2.36418 l 8.23353,1.65725 6.64884,5.83742 c 3.71592,3.26245 6.60613,5.88013 6.55203,5.93423 -0.0532,0.0532 -2.49008,1.43941 -5.41519,3.08038 l -5.31838,2.98359 h -8.20208 c -8.03178,0 -8.20208,-0.005 -8.20208,-0.21733 0,-0.11953 -0.0886,-0.2442 -0.19679,-0.27703 -0.10824,-0.0328 -6.41961,-1.22818 -14.02527,-2.65632 -7.60566,-1.42813 -13.84282,-2.61095 -13.86035,-2.62849 -0.0175,-0.0175 -0.019,-5.82603 -0.003,-12.90777 l 0.0286,-12.8759 6.24117,1.42847 c 3.43263,0.78565 8.94847,2.04484 12.25741,2.79819 3.30894,0.75336 6.09657,1.39352 6.19472,1.42258 0.12976,0.0384 0.21629,-0.0734 0.31704,-0.40968 0.0762,-0.25439 0.12242,-0.47649 0.10267,-0.49357 -0.0197,-0.0171 -2.79382,-1.36013 -6.16461,-2.98456 -3.37079,-1.62444 -6.97807,-3.36403 -8.01617,-3.86576 l -1.88746,-0.91225 -4.54827,-4.89172 -4.54827,-4.89172 -0.002,-18.86405 c -10e-4,-10.37523 0.0172,-18.86405 0.0409,-18.86405 0.0237,0 0.84104,0.35501 1.81625,0.78891 0.97521,0.4339 1.7903,0.77173 1.81131,0.75073 0.021,-0.021 -0.46739,-0.83607 -1.08531,-1.81126 -0.61793,-0.97519 -1.1235,-1.79375 -1.1235,-1.81903 0,-0.0253 4.62011,-0.046 10.26691,-0.046 h 10.26691 l 0.63249,0.75906 c 1.50067,1.80099 9.60024,9.63606 18.50303,17.8988 l 4.19029,3.88904 4.74975,5.83209 c 4.58812,5.63363 4.93392,6.09282 10.16227,13.4944 2.9769,4.21428 5.40304,7.6736 5.39144,7.68739 -0.0116,0.0138 -9.74898,-1.89652 -21.63862,-4.24512 -11.88964,-2.3486 -21.68791,-4.27018 -21.77394,-4.27018 -0.086,0 -0.1811,0.0886 -0.21129,0.19679 -0.0302,0.10824 -0.0863,0.30646 -0.12465,0.4405 -0.0622,0.21723 9.6e-4,0.26406 0.58146,0.43121 1.69684,0.48861 21.51433,6.44658 27.30267,8.20834 12.40907,3.77686 18.14541,5.59607 21.59105,6.84731 0.64128,0.23288 9.65553,3.07123 19.595,6.16996 l 1.82737,0.5697 v 2.39986 2.39986 h 11.73934 c 12.8449,0 11.87586,0.0509 11.87586,-0.62333 0,-0.33111 0.91827,-0.0654 -9.53146,-2.75749 l -8.46316,-2.18027 -2.07484,-2.98269 -2.07484,-2.98269 2.70237,-0.0562 2.70236,-0.0562 -7.80095,-4.9712 -7.80094,-4.9712 -2.96261,-4.98092 c -1.62942,-2.73951 -3.03422,-5.06417 -3.12175,-5.16591 -0.0875,-0.10174 -2.68319,-1.67047 -5.76812,-3.48606 -3.08493,-1.81559 -5.57414,-3.33511 -5.53159,-3.37671 0.0426,-0.0416 1.88646,-0.9484 4.09758,-2.01509 2.21111,-1.06669 4.02021,-1.97409 4.02021,-2.01644 0,-0.0423 -0.70276,-1.54736 -1.56168,-3.34447 l -1.56168,-3.26747 1.3949,-1.72501 c 0.7672,-0.94875 1.42189,-1.71425 1.45488,-1.70111 0.033,0.0131 3.48739,4.61811 7.67646,10.23326 4.18906,5.61515 9.46866,12.66365 11.73243,15.66335 l 4.11596,5.45399 7.46332,7.30653 c 4.10483,4.01859 8.07648,7.90583 8.82588,8.63831 l 1.36254,1.33178 3.58541,1.06608 c 4.01373,1.19343 11.90496,3.52521 12.87889,3.80558 0.62889,0.18104 0.65532,0.20659 2.94735,2.84896 l 2.31279,2.66629 2.58684,1.6868 c 1.42277,0.92774 2.5887,1.73829 2.59097,1.80123 0.002,0.0629 -0.36811,1.37864 -0.82307,2.92378 l -0.82718,2.80936 -15.85662,0.0285 -15.85662,0.0285 z m -52.92893,-42.58121 0.24805,-0.34834 -0.43718,-0.42784 c -0.73072,-0.7151 -14.02779,-12.61099 -14.26894,-12.76534 -0.21239,-0.13594 -32.95485,-9.72534 -33.20662,-9.72534 -0.1312,0 -0.41839,0.76698 -0.32294,0.86243 0.0589,0.0589 5.33319,2.58154 32.5737,15.57971 7.391,3.52672 13.76711,6.58091 14.16913,6.78711 0.40202,0.20619 0.79075,0.37738 0.86385,0.38042 0.0731,0.003 0.24453,-0.15122 0.38095,-0.34281 z"
   id="path12" /><path
   style="fill:#c4c4c1;fill-opacity:0;stroke:none;stroke-width:0.123811;stroke-dasharray:none;stroke-opacity:1"
   d="m 427.63137,281.08382 c 0.0499,-0.26091 -0.17827,-0.39089 -4.37309,-2.49131 l -4.42571,-2.21604 -10.26687,-1.62152 -10.26686,-1.62152 -1.96649,0.95895 -1.96649,0.95895 -3.2016,-0.61856 -3.2016,-0.61856 -11.73771,-6.84762 -11.73771,-6.84762 -4.59541,-0.40073 c -2.52748,-0.22041 -6.89789,-0.60254 -9.71204,-0.8492 -2.81415,-0.24666 -6.90478,-0.60497 -9.0903,-0.79625 -2.18552,-0.19128 -4.00134,-0.32011 -4.03516,-0.28629 -0.0338,0.0338 -0.0674,0.24912 -0.0747,0.47845 l -0.0132,0.41695 3.48605,0.70693 c 1.91733,0.38881 7.19115,1.45269 11.71959,2.36418 l 8.23353,1.65725 6.64884,5.83742 c 3.71592,3.26245 6.60613,5.88013 6.55203,5.93423 -0.0532,0.0532 -2.49008,1.43941 -5.41519,3.08038 l -5.31838,2.98359 h -8.20208 c -8.03178,0 -8.20208,-0.005 -8.20208,-0.21733 0,-0.11953 -0.0886,-0.2442 -0.19679,-0.27703 -0.10824,-0.0328 -6.41961,-1.22818 -14.02527,-2.65632 -7.60566,-1.42813 -13.84282,-2.61095 -13.86035,-2.62849 -0.0175,-0.0175 -0.019,-5.82603 -0.003,-12.90777 l 0.0286,-12.8759 6.24117,1.42847 c 3.43263,0.78565 8.94847,2.04484 12.25741,2.79819 3.30894,0.75336 6.09657,1.39352 6.19472,1.42258 0.12976,0.0384 0.21629,-0.0734 0.31704,-0.40968 0.0762,-0.25439 0.12242,-0.47649 0.10267,-0.49357 -0.0197,-0.0171 -2.79382,-1.36013 -6.16461,-2.98456 -3.37079,-1.62444 -6.97807,-3.36403 -8.01617,-3.86576 l -1.88746,-0.91225 -4.54827,-4.89172 -4.54827,-4.89172 -0.002,-18.86405 c -10e-4,-10.37523 0.0172,-18.86405 0.0409,-18.86405 0.0237,0 0.84104,0.35501 1.81625,0.78891 0.97521,0.4339 1.7903,0.77173 1.81131,0.75073 0.021,-0.021 -0.46739,-0.83607 -1.08531,-1.81126 -0.61793,-0.97519 -1.1235,-1.79375 -1.1235,-1.81903 0,-0.0253 4.62011,-0.046 10.26691,-0.046 h 10.26691 l 0.63249,0.75906 c 1.50067,1.80099 9.60024,9.63606 18.50303,17.8988 l 4.19029,3.88904 4.74975,5.83209 c 4.58812,5.63363 4.93392,6.09282 10.16227,13.4944 2.9769,4.21428 5.40304,7.6736 5.39144,7.68739 -0.0116,0.0138 -9.74898,-1.89652 -21.63862,-4.24512 -11.88964,-2.3486 -21.68791,-4.27018 -21.77394,-4.27018 -0.086,0 -0.1811,0.0886 -0.21129,0.19679 -0.0302,0.10824 -0.0863,0.30646 -0.12465,0.4405 -0.0622,0.21723 9.6e-4,0.26406 0.58146,0.43121 1.69684,0.48861 21.51433,6.44658 27.30267,8.20834 12.40907,3.77686 18.14541,5.59607 21.59105,6.84731 0.64128,0.23288 9.65553,3.07123 19.595,6.16996 l 1.82737,0.5697 v 2.39986 2.39986 h 11.73934 c 12.8449,0 11.87586,0.0509 11.87586,-0.62333 0,-0.33111 0.91827,-0.0654 -9.53146,-2.75749 l -8.46316,-2.18027 -2.07484,-2.98269 -2.07484,-2.98269 2.70237,-0.0562 2.70236,-0.0562 -7.80095,-4.9712 -7.80094,-4.9712 -2.96261,-4.98092 c -1.62942,-2.73951 -3.03422,-5.06417 -3.12175,-5.16591 -0.0875,-0.10174 -2.68319,-1.67047 -5.76812,-3.48606 -3.08493,-1.81559 -5.57414,-3.33511 -5.53159,-3.37671 0.0426,-0.0416 1.88646,-0.9484 4.09758,-2.01509 2.21111,-1.06669 4.02021,-1.97409 4.02021,-2.01644 0,-0.0423 -0.70276,-1.54736 -1.56168,-3.34447 l -1.56168,-3.26747 1.3949,-1.72501 c 0.7672,-0.94875 1.42189,-1.71425 1.45488,-1.70111 0.033,0.0131 3.48739,4.61811 7.67646,10.23326 4.18906,5.61515 9.46866,12.66365 11.73243,15.66335 l 4.11596,5.45399 7.46332,7.30653 c 4.10483,4.01859 8.07648,7.90583 8.82588,8.63831 l 1.36254,1.33178 3.58541,1.06608 c 4.01373,1.19343 11.90496,3.52521 12.87889,3.80558 0.62889,0.18104 0.65532,0.20659 2.94735,2.84896 l 2.31279,2.66629 2.58684,1.6868 c 1.42277,0.92774 2.5887,1.73829 2.59097,1.80123 0.002,0.0629 -0.36811,1.37864 -0.82307,2.92378 l -0.82718,2.80936 -15.85662,0.0285 -15.85662,0.0285 z m -52.92893,-42.58121 0.24805,-0.34834 -0.43718,-0.42784 c -0.73072,-0.7151 -14.02779,-12.61099 -14.26894,-12.76534 -0.21239,-0.13594 -32.95485,-9.72534 -33.20662,-9.72534 -0.1312,0 -0.41839,0.76698 -0.32294,0.86243 0.0589,0.0589 5.33319,2.58154 32.5737,15.57971 7.391,3.52672 13.76711,6.58091 14.16913,6.78711 0.40202,0.20619 0.79075,0.37738 0.86385,0.38042 0.0731,0.003 0.24453,-0.15122 0.38095,-0.34281 z"
   id="path13" /><path
   style="fill:#c4c4c1;fill-opacity:0;stroke:none;stroke-width:0.123811;stroke-dasharray:none;stroke-opacity:1"
   d="m 427.63137,281.08382 c 0.0499,-0.26091 -0.17827,-0.39089 -4.37309,-2.49131 l -4.42571,-2.21604 -10.26687,-1.62152 -10.26686,-1.62152 -1.96649,0.95895 -1.96649,0.95895 -3.2016,-0.61856 -3.2016,-0.61856 -11.73771,-6.84762 -11.73771,-6.84762 -4.59541,-0.40073 c -2.52748,-0.22041 -6.89789,-0.60254 -9.71204,-0.8492 -2.81415,-0.24666 -6.90478,-0.60497 -9.0903,-0.79625 -2.18552,-0.19128 -4.00134,-0.32011 -4.03516,-0.28629 -0.0338,0.0338 -0.0674,0.24912 -0.0747,0.47845 l -0.0132,0.41695 3.48605,0.70693 c 1.91733,0.38881 7.19115,1.45269 11.71959,2.36418 l 8.23353,1.65725 6.64884,5.83742 c 3.71592,3.26245 6.60613,5.88013 6.55203,5.93423 -0.0532,0.0532 -2.49008,1.43941 -5.41519,3.08038 l -5.31838,2.98359 h -8.20208 c -8.03178,0 -8.20208,-0.005 -8.20208,-0.21733 0,-0.11953 -0.0886,-0.2442 -0.19679,-0.27703 -0.10824,-0.0328 -6.41961,-1.22818 -14.02527,-2.65632 -7.60566,-1.42813 -13.84282,-2.61095 -13.86035,-2.62849 -0.0175,-0.0175 -0.019,-5.82603 -0.003,-12.90777 l 0.0286,-12.8759 6.24117,1.42847 c 3.43263,0.78565 8.94847,2.04484 12.25741,2.79819 3.30894,0.75336 6.09657,1.39352 6.19472,1.42258 0.12976,0.0384 0.21629,-0.0734 0.31704,-0.40968 0.0762,-0.25439 0.12242,-0.47649 0.10267,-0.49357 -0.0197,-0.0171 -2.79382,-1.36013 -6.16461,-2.98456 -3.37079,-1.62444 -6.97807,-3.36403 -8.01617,-3.86576 l -1.88746,-0.91225 -4.54827,-4.89172 -4.54827,-4.89172 -0.002,-18.86405 c -10e-4,-10.37523 0.0172,-18.86405 0.0409,-18.86405 0.0237,0 0.84104,0.35501 1.81625,0.78891 0.97521,0.4339 1.7903,0.77173 1.81131,0.75073 0.021,-0.021 -0.46739,-0.83607 -1.08531,-1.81126 -0.61793,-0.97519 -1.1235,-1.79375 -1.1235,-1.81903 0,-0.0253 4.62011,-0.046 10.26691,-0.046 h 10.26691 l 0.63249,0.75906 c 1.50067,1.80099 9.60024,9.63606 18.50303,17.8988 l 4.19029,3.88904 4.74975,5.83209 c 4.58812,5.63363 4.93392,6.09282 10.16227,13.4944 2.9769,4.21428 5.40304,7.6736 5.39144,7.68739 -0.0116,0.0138 -9.74898,-1.89652 -21.63862,-4.24512 -11.88964,-2.3486 -21.68791,-4.27018 -21.77394,-4.27018 -0.086,0 -0.1811,0.0886 -0.21129,0.19679 -0.0302,0.10824 -0.0863,0.30646 -0.12465,0.4405 -0.0622,0.21723 9.6e-4,0.26406 0.58146,0.43121 1.69684,0.48861 21.51433,6.44658 27.30267,8.20834 12.40907,3.77686 18.14541,5.59607 21.59105,6.84731 0.64128,0.23288 9.65553,3.07123 19.595,6.16996 l 1.82737,0.5697 v 2.39986 2.39986 h 11.73934 c 12.8449,0 11.87586,0.0509 11.87586,-0.62333 0,-0.33111 0.91827,-0.0654 -9.53146,-2.75749 l -8.46316,-2.18027 -2.07484,-2.98269 -2.07484,-2.98269 2.70237,-0.0562 2.70236,-0.0562 -7.80095,-4.9712 -7.80094,-4.9712 -2.96261,-4.98092 c -1.62942,-2.73951 -3.03422,-5.06417 -3.12175,-5.16591 -0.0875,-0.10174 -2.68319,-1.67047 -5.76812,-3.48606 -3.08493,-1.81559 -5.57414,-3.33511 -5.53159,-3.37671 0.0426,-0.0416 1.88646,-0.9484 4.09758,-2.01509 2.21111,-1.06669 4.02021,-1.97409 4.02021,-2.01644 0,-0.0423 -0.70276,-1.54736 -1.56168,-3.34447 l -1.56168,-3.26747 1.3949,-1.72501 c 0.7672,-0.94875 1.42189,-1.71425 1.45488,-1.70111 0.033,0.0131 3.48739,4.61811 7.67646,10.23326 4.18906,5.61515 9.46866,12.66365 11.73243,15.66335 l 4.11596,5.45399 7.46332,7.30653 c 4.10483,4.01859 8.07648,7.90583 8.82588,8.63831 l 1.36254,1.33178 3.58541,1.06608 c 4.01373,1.19343 11.90496,3.52521 12.87889,3.80558 0.62889,0.18104 0.65532,0.20659 2.94735,2.84896 l 2.31279,2.66629 2.58684,1.6868 c 1.42277,0.92774 2.5887,1.73829 2.59097,1.80123 0.002,0.0629 -0.36811,1.37864 -0.82307,2.92378 l -0.82718,2.80936 -15.85662,0.0285 -15.85662,0.0285 z m -52.92893,-42.58121 0.24805,-0.34834 -0.43718,-0.42784 c -0.73072,-0.7151 -14.02779,-12.61099 -14.26894,-12.76534 -0.21239,-0.13594 -32.95485,-9.72534 -33.20662,-9.72534 -0.1312,0 -0.41839,0.76698 -0.32294,0.86243 0.0589,0.0589 5.33319,2.58154 32.5737,15.57971 7.391,3.52672 13.76711,6.58091 14.16913,6.78711 0.40202,0.20619 0.79075,0.37738 0.86385,0.38042 0.0731,0.003 0.24453,-0.15122 0.38095,-0.34281 z"
   id="path14" /><path
   style="fill:#c4c4c1;fill-opacity:0;stroke:none;stroke-width:0.123811;stroke-dasharray:none;stroke-opacity:1"
   d="m 427.63137,281.08382 c 0.0499,-0.26091 -0.17827,-0.39089 -4.37309,-2.49131 l -4.42571,-2.21604 -10.26687,-1.62152 -10.26686,-1.62152 -1.96649,0.95895 -1.96649,0.95895 -3.2016,-0.61856 -3.2016,-0.61856 -11.73771,-6.84762 -11.73771,-6.84762 -4.59541,-0.40073 c -2.52748,-0.22041 -6.89789,-0.60254 -9.71204,-0.8492 -2.81415,-0.24666 -6.90478,-0.60497 -9.0903,-0.79625 -2.18552,-0.19128 -4.00134,-0.32011 -4.03516,-0.28629 -0.0338,0.0338 -0.0674,0.24912 -0.0747,0.47845 l -0.0132,0.41695 3.48605,0.70693 c 1.91733,0.38881 7.19115,1.45269 11.71959,2.36418 l 8.23353,1.65725 6.64884,5.83742 c 3.71592,3.26245 6.60613,5.88013 6.55203,5.93423 -0.0532,0.0532 -2.49008,1.43941 -5.41519,3.08038 l -5.31838,2.98359 h -8.20208 c -8.03178,0 -8.20208,-0.005 -8.20208,-0.21733 0,-0.11953 -0.0886,-0.2442 -0.19679,-0.27703 -0.10824,-0.0328 -6.41961,-1.22818 -14.02527,-2.65632 -7.60566,-1.42813 -13.84282,-2.61095 -13.86035,-2.62849 -0.0175,-0.0175 -0.019,-5.82603 -0.003,-12.90777 l 0.0286,-12.8759 6.24117,1.42847 c 3.43263,0.78565 8.94847,2.04484 12.25741,2.79819 3.30894,0.75336 6.09657,1.39352 6.19472,1.42258 0.12976,0.0384 0.21629,-0.0734 0.31704,-0.40968 0.0762,-0.25439 0.12242,-0.47649 0.10267,-0.49357 -0.0197,-0.0171 -2.79382,-1.36013 -6.16461,-2.98456 -3.37079,-1.62444 -6.97807,-3.36403 -8.01617,-3.86576 l -1.88746,-0.91225 -4.54827,-4.89172 -4.54827,-4.89172 -0.002,-18.86405 c -10e-4,-10.37523 0.0172,-18.86405 0.0409,-18.86405 0.0237,0 0.84104,0.35501 1.81625,0.78891 0.97521,0.4339 1.7903,0.77173 1.81131,0.75073 0.021,-0.021 -0.46739,-0.83607 -1.08531,-1.81126 -0.61793,-0.97519 -1.1235,-1.79375 -1.1235,-1.81903 0,-0.0253 4.62011,-0.046 10.26691,-0.046 h 10.26691 l 0.63249,0.75906 c 1.50067,1.80099 9.60024,9.63606 18.50303,17.8988 l 4.19029,3.88904 4.74975,5.83209 c 4.58812,5.63363 4.93392,6.09282 10.16227,13.4944 2.9769,4.21428 5.40304,7.6736 5.39144,7.68739 -0.0116,0.0138 -9.74898,-1.89652 -21.63862,-4.24512 -11.88964,-2.3486 -21.68791,-4.27018 -21.77394,-4.27018 -0.086,0 -0.1811,0.0886 -0.21129,0.19679 -0.0302,0.10824 -0.0863,0.30646 -0.12465,0.4405 -0.0622,0.21723 9.6e-4,0.26406 0.58146,0.43121 1.69684,0.48861 21.51433,6.44658 27.30267,8.20834 12.40907,3.77686 18.14541,5.59607 21.59105,6.84731 0.64128,0.23288 9.65553,3.07123 19.595,6.16996 l 1.82737,0.5697 v 2.39986 2.39986 h 11.73934 c 12.8449,0 11.87586,0.0509 11.87586,-0.62333 0,-0.33111 0.91827,-0.0654 -9.53146,-2.75749 l -8.46316,-2.18027 -2.07484,-2.98269 -2.07484,-2.98269 2.70237,-0.0562 2.70236,-0.0562 -7.80095,-4.9712 -7.80094,-4.9712 -2.96261,-4.98092 c -1.62942,-2.73951 -3.03422,-5.06417 -3.12175,-5.16591 -0.0875,-0.10174 -2.68319,-1.67047 -5.76812,-3.48606 -3.08493,-1.81559 -5.57414,-3.33511 -5.53159,-3.37671 0.0426,-0.0416 1.88646,-0.9484 4.09758,-2.01509 2.21111,-1.06669 4.02021,-1.97409 4.02021,-2.01644 0,-0.0423 -0.70276,-1.54736 -1.56168,-3.34447 l -1.56168,-3.26747 1.3949,-1.72501 c 0.7672,-0.94875 1.42189,-1.71425 1.45488,-1.70111 0.033,0.0131 3.48739,4.61811 7.67646,10.23326 4.18906,5.61515 9.46866,12.66365 11.73243,15.66335 l 4.11596,5.45399 7.46332,7.30653 c 4.10483,4.01859 8.07648,7.90583 8.82588,8.63831 l 1.36254,1.33178 3.58541,1.06608 c 4.01373,1.19343 11.90496,3.52521 12.87889,3.80558 0.62889,0.18104 0.65532,0.20659 2.94735,2.84896 l 2.31279,2.66629 2.58684,1.6868 c 1.42277,0.92774 2.5887,1.73829 2.59097,1.80123 0.002,0.0629 -0.36811,1.37864 -0.82307,2.92378 l -0.82718,2.80936 -15.85662,0.0285 -15.85662,0.0285 z m -52.92893,-42.58121 0.24805,-0.34834 -0.43718,-0.42784 c -0.73072,-0.7151 -14.02779,-12.61099 -14.26894,-12.76534 -0.21239,-0.13594 -32.95485,-9.72534 -33.20662,-9.72534 -0.1312,0 -0.41839,0.76698 -0.32294,0.86243 0.0589,0.0589 5.33319,2.58154 32.5737,15.57971 7.391,3.52672 13.76711,6.58091 14.16913,6.78711 0.40202,0.20619 0.79075,0.37738 0.86385,0.38042 0.0731,0.003 0.24453,-0.15122 0.38095,-0.34281 z"
   id="path15" /><path
   style="fill:#c4c4c1;fill-opacity:0;stroke:none;stroke-width:0.123811;stroke-dasharray:none;stroke-opacity:1"
   d="m 427.63137,281.08382 c 0.0499,-0.26091 -0.17827,-0.39089 -4.37309,-2.49131 l -4.42571,-2.21604 -10.26687,-1.62152 -10.26686,-1.62152 -1.96649,0.95895 -1.96649,0.95895 -3.2016,-0.61856 -3.2016,-0.61856 -11.73771,-6.84762 -11.73771,-6.84762 -4.59541,-0.40073 c -2.52748,-0.22041 -6.89789,-0.60254 -9.71204,-0.8492 -2.81415,-0.24666 -6.90478,-0.60497 -9.0903,-0.79625 -2.18552,-0.19128 -4.00134,-0.32011 -4.03516,-0.28629 -0.0338,0.0338 -0.0674,0.24912 -0.0747,0.47845 l -0.0132,0.41695 3.48605,0.70693 c 1.91733,0.38881 7.19115,1.45269 11.71959,2.36418 l 8.23353,1.65725 6.64884,5.83742 c 3.71592,3.26245 6.60613,5.88013 6.55203,5.93423 -0.0532,0.0532 -2.49008,1.43941 -5.41519,3.08038 l -5.31838,2.98359 h -8.20208 c -8.03178,0 -8.20208,-0.005 -8.20208,-0.21733 0,-0.11953 -0.0886,-0.2442 -0.19679,-0.27703 -0.10824,-0.0328 -6.41961,-1.22818 -14.02527,-2.65632 -7.60566,-1.42813 -13.84282,-2.61095 -13.86035,-2.62849 -0.0175,-0.0175 -0.019,-5.82603 -0.003,-12.90777 l 0.0286,-12.8759 6.24117,1.42847 c 3.43263,0.78565 8.94847,2.04484 12.25741,2.79819 3.30894,0.75336 6.09657,1.39352 6.19472,1.42258 0.12976,0.0384 0.21629,-0.0734 0.31704,-0.40968 0.0762,-0.25439 0.12242,-0.47649 0.10267,-0.49357 -0.0197,-0.0171 -2.79382,-1.36013 -6.16461,-2.98456 -3.37079,-1.62444 -6.97807,-3.36403 -8.01617,-3.86576 l -1.88746,-0.91225 -4.54827,-4.89172 -4.54827,-4.89172 -0.002,-18.86405 c -10e-4,-10.37523 0.0172,-18.86405 0.0409,-18.86405 0.0237,0 0.84104,0.35501 1.81625,0.78891 0.97521,0.4339 1.7903,0.77173 1.81131,0.75073 0.021,-0.021 -0.46739,-0.83607 -1.08531,-1.81126 -0.61793,-0.97519 -1.1235,-1.79375 -1.1235,-1.81903 0,-0.0253 4.62011,-0.046 10.26691,-0.046 h 10.26691 l 0.63249,0.75906 c 1.50067,1.80099 9.60024,9.63606 18.50303,17.8988 l 4.19029,3.88904 4.74975,5.83209 c 4.58812,5.63363 4.93392,6.09282 10.16227,13.4944 2.9769,4.21428 5.40304,7.6736 5.39144,7.68739 -0.0116,0.0138 -9.74898,-1.89652 -21.63862,-4.24512 -11.88964,-2.3486 -21.68791,-4.27018 -21.77394,-4.27018 -0.086,0 -0.1811,0.0886 -0.21129,0.19679 -0.0302,0.10824 -0.0863,0.30646 -0.12465,0.4405 -0.0622,0.21723 9.6e-4,0.26406 0.58146,0.43121 1.69684,0.48861 21.51433,6.44658 27.30267,8.20834 12.40907,3.77686 18.14541,5.59607 21.59105,6.84731 0.64128,0.23288 9.65553,3.07123 19.595,6.16996 l 1.82737,0.5697 v 2.39986 2.39986 h 11.73934 c 12.8449,0 11.87586,0.0509 11.87586,-0.62333 0,-0.33111 0.91827,-0.0654 -9.53146,-2.75749 l -8.46316,-2.18027 -2.07484,-2.98269 -2.07484,-2.98269 2.70237,-0.0562 2.70236,-0.0562 -7.80095,-4.9712 -7.80094,-4.9712 -2.96261,-4.98092 c -1.62942,-2.73951 -3.03422,-5.06417 -3.12175,-5.16591 -0.0875,-0.10174 -2.68319,-1.67047 -5.76812,-3.48606 -3.08493,-1.81559 -5.57414,-3.33511 -5.53159,-3.37671 0.0426,-0.0416 1.88646,-0.9484 4.09758,-2.01509 2.21111,-1.06669 4.02021,-1.97409 4.02021,-2.01644 0,-0.0423 -0.70276,-1.54736 -1.56168,-3.34447 l -1.56168,-3.26747 1.3949,-1.72501 c 0.7672,-0.94875 1.42189,-1.71425 1.45488,-1.70111 0.033,0.0131 3.48739,4.61811 7.67646,10.23326 4.18906,5.61515 9.46866,12.66365 11.73243,15.66335 l 4.11596,5.45399 7.46332,7.30653 c 4.10483,4.01859 8.07648,7.90583 8.82588,8.63831 l 1.36254,1.33178 3.58541,1.06608 c 4.01373,1.19343 11.90496,3.52521 12.87889,3.80558 0.62889,0.18104 0.65532,0.20659 2.94735,2.84896 l 2.31279,2.66629 2.58684,1.6868 c 1.42277,0.92774 2.5887,1.73829 2.59097,1.80123 0.002,0.0629 -0.36811,1.37864 -0.82307,2.92378 l -0.82718,2.80936 -15.85662,0.0285 -15.85662,0.0285 z m -52.92893,-42.58121 0.24805,-0.34834 -0.43718,-0.42784 c -0.73072,-0.7151 -14.02779,-12.61099 -14.26894,-12.76534 -0.21239,-0.13594 -32.95485,-9.72534 -33.20662,-9.72534 -0.1312,0 -0.41839,0.76698 -0.32294,0.86243 0.0589,0.0589 5.33319,2.58154 32.5737,15.57971 7.391,3.52672 13.76711,6.58091 14.16913,6.78711 0.40202,0.20619 0.79075,0.37738 0.86385,0.38042 0.0731,0.003 0.24453,-0.15122 0.38095,-0.34281 z"
   id="path16" /><path
   style="fill:#c4c4c1;fill-opacity:0;stroke:none;stroke-width:0.123811;stroke-dasharray:none;stroke-opacity:1"
   d="m 427.63137,281.08382 c 0.0499,-0.26091 -0.17827,-0.39089 -4.37309,-2.49131 l -4.42571,-2.21604 -10.26687,-1.62152 -10.26686,-1.62152 -1.96649,0.95895 -1.96649,0.95895 -3.2016,-0.61856 -3.2016,-0.61856 -11.73771,-6.84762 -11.73771,-6.84762 -4.59541,-0.40073 c -2.52748,-0.22041 -6.89789,-0.60254 -9.71204,-0.8492 -2.81415,-0.24666 -6.90478,-0.60497 -9.0903,-0.79625 -2.18552,-0.19128 -4.00134,-0.32011 -4.03516,-0.28629 -0.0338,0.0338 -0.0674,0.24912 -0.0747,0.47845 l -0.0132,0.41695 3.48605,0.70693 c 1.91733,0.38881 7.19115,1.45269 11.71959,2.36418 l 8.23353,1.65725 6.64884,5.83742 c 3.71592,3.26245 6.60613,5.88013 6.55203,5.93423 -0.0532,0.0532 -2.49008,1.43941 -5.41519,3.08038 l -5.31838,2.98359 h -8.20208 c -8.03178,0 -8.20208,-0.005 -8.20208,-0.21733 0,-0.11953 -0.0886,-0.2442 -0.19679,-0.27703 -0.10824,-0.0328 -6.41961,-1.22818 -14.02527,-2.65632 -7.60566,-1.42813 -13.84282,-2.61095 -13.86035,-2.62849 -0.0175,-0.0175 -0.019,-5.82603 -0.003,-12.90777 l 0.0286,-12.8759 6.24117,1.42847 c 3.43263,0.78565 8.94847,2.04484 12.25741,2.79819 3.30894,0.75336 6.09657,1.39352 6.19472,1.42258 0.12976,0.0384 0.21629,-0.0734 0.31704,-0.40968 0.0762,-0.25439 0.12242,-0.47649 0.10267,-0.49357 -0.0197,-0.0171 -2.79382,-1.36013 -6.16461,-2.98456 -3.37079,-1.62444 -6.97807,-3.36403 -8.01617,-3.86576 l -1.88746,-0.91225 -4.54827,-4.89172 -4.54827,-4.89172 -0.002,-18.86405 c -10e-4,-10.37523 0.0172,-18.86405 0.0409,-18.86405 0.0237,0 0.84104,0.35501 1.81625,0.78891 0.97521,0.4339 1.7903,0.77173 1.81131,0.75073 0.021,-0.021 -0.46739,-0.83607 -1.08531,-1.81126 -0.61793,-0.97519 -1.1235,-1.79375 -1.1235,-1.81903 0,-0.0253 4.62011,-0.046 10.26691,-0.046 h 10.26691 l 0.63249,0.75906 c 1.50067,1.80099 9.60024,9.63606 18.50303,17.8988 l 4.19029,3.88904 4.74975,5.83209 c 4.58812,5.63363 4.93392,6.09282 10.16227,13.4944 2.9769,4.21428 5.40304,7.6736 5.39144,7.68739 -0.0116,0.0138 -9.74898,-1.89652 -21.63862,-4.24512 -11.88964,-2.3486 -21.68791,-4.27018 -21.77394,-4.27018 -0.086,0 -0.1811,0.0886 -0.21129,0.19679 -0.0302,0.10824 -0.0863,0.30646 -0.12465,0.4405 -0.0622,0.21723 9.6e-4,0.26406 0.58146,0.43121 1.69684,0.48861 21.51433,6.44658 27.30267,8.20834 12.40907,3.77686 18.14541,5.59607 21.59105,6.84731 0.64128,0.23288 9.65553,3.07123 19.595,6.16996 l 1.82737,0.5697 v 2.39986 2.39986 h 11.73934 c 12.8449,0 11.87586,0.0509 11.87586,-0.62333 0,-0.33111 0.91827,-0.0654 -9.53146,-2.75749 l -8.46316,-2.18027 -2.07484,-2.98269 -2.07484,-2.98269 2.70237,-0.0562 2.70236,-0.0562 -7.80095,-4.9712 -7.80094,-4.9712 -2.96261,-4.98092 c -1.62942,-2.73951 -3.03422,-5.06417 -3.12175,-5.16591 -0.0875,-0.10174 -2.68319,-1.67047 -5.76812,-3.48606 -3.08493,-1.81559 -5.57414,-3.33511 -5.53159,-3.37671 0.0426,-0.0416 1.88646,-0.9484 4.09758,-2.01509 2.21111,-1.06669 4.02021,-1.97409 4.02021,-2.01644 0,-0.0423 -0.70276,-1.54736 -1.56168,-3.34447 l -1.56168,-3.26747 1.3949,-1.72501 c 0.7672,-0.94875 1.42189,-1.71425 1.45488,-1.70111 0.033,0.0131 3.48739,4.61811 7.67646,10.23326 4.18906,5.61515 9.46866,12.66365 11.73243,15.66335 l 4.11596,5.45399 7.46332,7.30653 c 4.10483,4.01859 8.07648,7.90583 8.82588,8.63831 l 1.36254,1.33178 3.58541,1.06608 c 4.01373,1.19343 11.90496,3.52521 12.87889,3.80558 0.62889,0.18104 0.65532,0.20659 2.94735,2.84896 l 2.31279,2.66629 2.58684,1.6868 c 1.42277,0.92774 2.5887,1.73829 2.59097,1.80123 0.002,0.0629 -0.36811,1.37864 -0.82307,2.92378 l -0.82718,2.80936 -15.85662,0.0285 -15.85662,0.0285 z m -52.92893,-42.58121 0.24805,-0.34834 -0.43718,-0.42784 c -0.73072,-0.7151 -14.02779,-12.61099 -14.26894,-12.76534 -0.21239,-0.13594 -32.95485,-9.72534 -33.20662,-9.72534 -0.1312,0 -0.41839,0.76698 -0.32294,0.86243 0.0589,0.0589 5.33319,2.58154 32.5737,15.57971 7.391,3.52672 13.76711,6.58091 14.16913,6.78711 0.40202,0.20619 0.79075,0.37738 0.86385,0.38042 0.0731,0.003 0.24453,-0.15122 0.38095,-0.34281 z"
   id="path17" /><path
   style="fill:#c4c4c1;fill-opacity:0;stroke:none;stroke-width:0.123811;stroke-dasharray:none;stroke-opacity:1"
   d="m 427.63137,281.08382 c 0.0499,-0.26091 -0.17827,-0.39089 -4.37309,-2.49131 l -4.42571,-2.21604 -10.26687,-1.62152 -10.26686,-1.62152 -1.96649,0.95895 -1.96649,0.95895 -3.2016,-0.61856 -3.2016,-0.61856 -11.73771,-6.84762 -11.73771,-6.84762 -4.59541,-0.40073 c -2.52748,-0.22041 -6.89789,-0.60254 -9.71204,-0.8492 -2.81415,-0.24666 -6.90478,-0.60497 -9.0903,-0.79625 -2.18552,-0.19128 -4.00134,-0.32011 -4.03516,-0.28629 -0.0338,0.0338 -0.0674,0.24912 -0.0747,0.47845 l -0.0132,0.41695 3.48605,0.70693 c 1.91733,0.38881 7.19115,1.45269 11.71959,2.36418 l 8.23353,1.65725 6.64884,5.83742 c 3.71592,3.26245 6.60613,5.88013 6.55203,5.93423 -0.0532,0.0532 -2.49008,1.43941 -5.41519,3.08038 l -5.31838,2.98359 h -8.20208 c -8.03178,0 -8.20208,-0.005 -8.20208,-0.21733 0,-0.11953 -0.0886,-0.2442 -0.19679,-0.27703 -0.10824,-0.0328 -6.41961,-1.22818 -14.02527,-2.65632 -7.60566,-1.42813 -13.84282,-2.61095 -13.86035,-2.62849 -0.0175,-0.0175 -0.019,-5.82603 -0.003,-12.90777 l 0.0286,-12.8759 6.24117,1.42847 c 3.43263,0.78565 8.94847,2.04484 12.25741,2.79819 3.30894,0.75336 6.09657,1.39352 6.19472,1.42258 0.12976,0.0384 0.21629,-0.0734 0.31704,-0.40968 0.0762,-0.25439 0.12242,-0.47649 0.10267,-0.49357 -0.0197,-0.0171 -2.79382,-1.36013 -6.16461,-2.98456 -3.37079,-1.62444 -6.97807,-3.36403 -8.01617,-3.86576 l -1.88746,-0.91225 -4.54827,-4.89172 -4.54827,-4.89172 -0.002,-18.86405 c -10e-4,-10.37523 0.0172,-18.86405 0.0409,-18.86405 0.0237,0 0.84104,0.35501 1.81625,0.78891 0.97521,0.4339 1.7903,0.77173 1.81131,0.75073 0.021,-0.021 -0.46739,-0.83607 -1.08531,-1.81126 -0.61793,-0.97519 -1.1235,-1.79375 -1.1235,-1.81903 0,-0.0253 4.62011,-0.046 10.26691,-0.046 h 10.26691 l 0.63249,0.75906 c 1.50067,1.80099 9.60024,9.63606 18.50303,17.8988 l 4.19029,3.88904 4.74975,5.83209 c 4.58812,5.63363 4.93392,6.09282 10.16227,13.4944 2.9769,4.21428 5.40304,7.6736 5.39144,7.68739 -0.0116,0.0138 -9.74898,-1.89652 -21.63862,-4.24512 -11.88964,-2.3486 -21.68791,-4.27018 -21.77394,-4.27018 -0.086,0 -0.1811,0.0886 -0.21129,0.19679 -0.0302,0.10824 -0.0863,0.30646 -0.12465,0.4405 -0.0622,0.21723 9.6e-4,0.26406 0.58146,0.43121 1.69684,0.48861 21.51433,6.44658 27.30267,8.20834 12.40907,3.77686 18.14541,5.59607 21.59105,6.84731 0.64128,0.23288 9.65553,3.07123 19.595,6.16996 l 1.82737,0.5697 v 2.39986 2.39986 h 11.73934 c 12.8449,0 11.87586,0.0509 11.87586,-0.62333 0,-0.33111 0.91827,-0.0654 -9.53146,-2.75749 l -8.46316,-2.18027 -2.07484,-2.98269 -2.07484,-2.98269 2.70237,-0.0562 2.70236,-0.0562 -7.80095,-4.9712 -7.80094,-4.9712 -2.96261,-4.98092 c -1.62942,-2.73951 -3.03422,-5.06417 -3.12175,-5.16591 -0.0875,-0.10174 -2.68319,-1.67047 -5.76812,-3.48606 -3.08493,-1.81559 -5.57414,-3.33511 -5.53159,-3.37671 0.0426,-0.0416 1.88646,-0.9484 4.09758,-2.01509 2.21111,-1.06669 4.02021,-1.97409 4.02021,-2.01644 0,-0.0423 -0.70276,-1.54736 -1.56168,-3.34447 l -1.56168,-3.26747 1.3949,-1.72501 c 0.7672,-0.94875 1.42189,-1.71425 1.45488,-1.70111 0.033,0.0131 3.48739,4.61811 7.67646,10.23326 4.18906,5.61515 9.46866,12.66365 11.73243,15.66335 l 4.11596,5.45399 7.46332,7.30653 c 4.10483,4.01859 8.07648,7.90583 8.82588,8.63831 l 1.36254,1.33178 3.58541,1.06608 c 4.01373,1.19343 11.90496,3.52521 12.87889,3.80558 0.62889,0.18104 0.65532,0.20659 2.94735,2.84896 l 2.31279,2.66629 2.58684,1.6868 c 1.42277,0.92774 2.5887,1.73829 2.59097,1.80123 0.002,0.0629 -0.36811,1.37864 -0.82307,2.92378 l -0.82718,2.80936 -15.85662,0.0285 -15.85662,0.0285 z m -52.92893,-42.58121 0.24805,-0.34834 -0.43718,-0.42784 c -0.73072,-0.7151 -14.02779,-12.61099 -14.26894,-12.76534 -0.21239,-0.13594 -32.95485,-9.72534 -33.20662,-9.72534 -0.1312,0 -0.41839,0.76698 -0.32294,0.86243 0.0589,0.0589 5.33319,2.58154 32.5737,15.57971 7.391,3.52672 13.76711,6.58091 14.16913,6.78711 0.40202,0.20619 0.79075,0.37738 0.86385,0.38042 0.0731,0.003 0.24453,-0.15122 0.38095,-0.34281 z"
   id="path18" /><path
   style="fill:#c4c4c1;fill-opacity:0;stroke:none;stroke-width:0.123811;stroke-dasharray:none;stroke-opacity:1"
   d="m 427.63137,281.08382 c 0.0499,-0.26091 -0.17827,-0.39089 -4.37309,-2.49131 l -4.42571,-2.21604 -10.26687,-1.62152 -10.26686,-1.62152 -1.96649,0.95895 -1.96649,0.95895 -3.2016,-0.61856 -3.2016,-0.61856 -11.73771,-6.84762 -11.73771,-6.84762 -4.59541,-0.40073 c -2.52748,-0.22041 -6.89789,-0.60254 -9.71204,-0.8492 -2.81415,-0.24666 -6.90478,-0.60497 -9.0903,-0.79625 -2.18552,-0.19128 -4.00134,-0.32011 -4.03516,-0.28629 -0.0338,0.0338 -0.0674,0.24912 -0.0747,0.47845 l -0.0132,0.41695 3.48605,0.70693 c 1.91733,0.38881 7.19115,1.45269 11.71959,2.36418 l 8.23353,1.65725 6.64884,5.83742 c 3.71592,3.26245 6.60613,5.88013 6.55203,5.93423 -0.0532,0.0532 -2.49008,1.43941 -5.41519,3.08038 l -5.31838,2.98359 h -8.20208 c -8.03178,0 -8.20208,-0.005 -8.20208,-0.21733 0,-0.11953 -0.0886,-0.2442 -0.19679,-0.27703 -0.10824,-0.0328 -6.41961,-1.22818 -14.02527,-2.65632 -7.60566,-1.42813 -13.84282,-2.61095 -13.86035,-2.62849 -0.0175,-0.0175 -0.019,-5.82603 -0.003,-12.90777 l 0.0286,-12.8759 6.24117,1.42847 c 3.43263,0.78565 8.94847,2.04484 12.25741,2.79819 3.30894,0.75336 6.09657,1.39352 6.19472,1.42258 0.12976,0.0384 0.21629,-0.0734 0.31704,-0.40968 0.0762,-0.25439 0.12242,-0.47649 0.10267,-0.49357 -0.0197,-0.0171 -2.79382,-1.36013 -6.16461,-2.98456 -3.37079,-1.62444 -6.97807,-3.36403 -8.01617,-3.86576 l -1.88746,-0.91225 -4.54827,-4.89172 -4.54827,-4.89172 -0.002,-18.86405 c -10e-4,-10.37523 0.0172,-18.86405 0.0409,-18.86405 0.0237,0 0.84104,0.35501 1.81625,0.78891 0.97521,0.4339 1.7903,0.77173 1.81131,0.75073 0.021,-0.021 -0.46739,-0.83607 -1.08531,-1.81126 -0.61793,-0.97519 -1.1235,-1.79375 -1.1235,-1.81903 0,-0.0253 4.62011,-0.046 10.26691,-0.046 h 10.26691 l 0.63249,0.75906 c 1.50067,1.80099 9.60024,9.63606 18.50303,17.8988 l 4.19029,3.88904 4.74975,5.83209 c 4.58812,5.63363 4.93392,6.09282 10.16227,13.4944 2.9769,4.21428 5.40304,7.6736 5.39144,7.68739 -0.0116,0.0138 -9.74898,-1.89652 -21.63862,-4.24512 -11.88964,-2.3486 -21.68791,-4.27018 -21.77394,-4.27018 -0.086,0 -0.1811,0.0886 -0.21129,0.19679 -0.0302,0.10824 -0.0863,0.30646 -0.12465,0.4405 -0.0622,0.21723 9.6e-4,0.26406 0.58146,0.43121 1.69684,0.48861 21.51433,6.44658 27.30267,8.20834 12.40907,3.77686 18.14541,5.59607 21.59105,6.84731 0.64128,0.23288 9.65553,3.07123 19.595,6.16996 l 1.82737,0.5697 v 2.39986 2.39986 h 11.73934 c 12.8449,0 11.87586,0.0509 11.87586,-0.62333 0,-0.33111 0.91827,-0.0654 -9.53146,-2.75749 l -8.46316,-2.18027 -2.07484,-2.98269 -2.07484,-2.98269 2.70237,-0.0562 2.70236,-0.0562 -7.80095,-4.9712 -7.80094,-4.9712 -2.96261,-4.98092 c -1.62942,-2.73951 -3.03422,-5.06417 -3.12175,-5.16591 -0.0875,-0.10174 -2.68319,-1.67047 -5.76812,-3.48606 -3.08493,-1.81559 -5.57414,-3.33511 -5.53159,-3.37671 0.0426,-0.0416 1.88646,-0.9484 4.09758,-2.01509 2.21111,-1.06669 4.02021,-1.97409 4.02021,-2.01644 0,-0.0423 -0.70276,-1.54736 -1.56168,-3.34447 l -1.56168,-3.26747 1.3949,-1.72501 c 0.7672,-0.94875 1.42189,-1.71425 1.45488,-1.70111 0.033,0.0131 3.48739,4.61811 7.67646,10.23326 4.18906,5.61515 9.46866,12.66365 11.73243,15.66335 l 4.11596,5.45399 7.46332,7.30653 c 4.10483,4.01859 8.07648,7.90583 8.82588,8.63831 l 1.36254,1.33178 3.58541,1.06608 c 4.01373,1.19343 11.90496,3.52521 12.87889,3.80558 0.62889,0.18104 0.65532,0.20659 2.94735,2.84896 l 2.31279,2.66629 2.58684,1.6868 c 1.42277,0.92774 2.5887,1.73829 2.59097,1.80123 0.002,0.0629 -0.36811,1.37864 -0.82307,2.92378 l -0.82718,2.80936 -15.85662,0.0285 -15.85662,0.0285 z m -52.92893,-42.58121 0.24805,-0.34834 -0.43718,-0.42784 c -0.73072,-0.7151 -14.02779,-12.61099 -14.26894,-12.76534 -0.21239,-0.13594 -32.95485,-9.72534 -33.20662,-9.72534 -0.1312,0 -0.41839,0.76698 -0.32294,0.86243 0.0589,0.0589 5.33319,2.58154 32.5737,15.57971 7.391,3.52672 13.76711,6.58091 14.16913,6.78711 0.40202,0.20619 0.79075,0.37738 0.86385,0.38042 0.0731,0.003 0.24453,-0.15122 0.38095,-0.34281 z"
   id="path19" /><path
   style="fill:#c4c4c1;fill-opacity:0;stroke:none;stroke-width:0.123811;stroke-dasharray:none;stroke-opacity:1"
   d="m 427.63137,281.08382 c 0.0499,-0.26091 -0.17827,-0.39089 -4.37309,-2.49131 l -4.42571,-2.21604 -10.26687,-1.62152 -10.26686,-1.62152 -1.96649,0.95895 -1.96649,0.95895 -3.2016,-0.61856 -3.2016,-0.61856 -11.73771,-6.84762 -11.73771,-6.84762 -4.59541,-0.40073 c -2.52748,-0.22041 -6.89789,-0.60254 -9.71204,-0.8492 -2.81415,-0.24666 -6.90478,-0.60497 -9.0903,-0.79625 -2.18552,-0.19128 -4.00134,-0.32011 -4.03516,-0.28629 -0.0338,0.0338 -0.0674,0.24912 -0.0747,0.47845 l -0.0132,0.41695 3.48605,0.70693 c 1.91733,0.38881 7.19115,1.45269 11.71959,2.36418 l 8.23353,1.65725 6.64884,5.83742 c 3.71592,3.26245 6.60613,5.88013 6.55203,5.93423 -0.0532,0.0532 -2.49008,1.43941 -5.41519,3.08038 l -5.31838,2.98359 h -8.20208 c -8.03178,0 -8.20208,-0.005 -8.20208,-0.21733 0,-0.11953 -0.0886,-0.2442 -0.19679,-0.27703 -0.10824,-0.0328 -6.41961,-1.22818 -14.02527,-2.65632 -7.60566,-1.42813 -13.84282,-2.61095 -13.86035,-2.62849 -0.0175,-0.0175 -0.019,-5.82603 -0.003,-12.90777 l 0.0286,-12.8759 6.24117,1.42847 c 3.43263,0.78565 8.94847,2.04484 12.25741,2.79819 3.30894,0.75336 6.09657,1.39352 6.19472,1.42258 0.12976,0.0384 0.21629,-0.0734 0.31704,-0.40968 0.0762,-0.25439 0.12242,-0.47649 0.10267,-0.49357 -0.0197,-0.0171 -2.79382,-1.36013 -6.16461,-2.98456 -3.37079,-1.62444 -6.97807,-3.36403 -8.01617,-3.86576 l -1.88746,-0.91225 -4.54827,-4.89172 -4.54827,-4.89172 -0.002,-18.86405 c -10e-4,-10.37523 0.0172,-18.86405 0.0409,-18.86405 0.0237,0 0.84104,0.35501 1.81625,0.78891 0.97521,0.4339 1.7903,0.77173 1.81131,0.75073 0.021,-0.021 -0.46739,-0.83607 -1.08531,-1.81126 -0.61793,-0.97519 -1.1235,-1.79375 -1.1235,-1.81903 0,-0.0253 4.62011,-0.046 10.26691,-0.046 h 10.26691 l 0.63249,0.75906 c 1.50067,1.80099 9.60024,9.63606 18.50303,17.8988 l 4.19029,3.88904 4.74975,5.83209 c 4.58812,5.63363 4.93392,6.09282 10.16227,13.4944 2.9769,4.21428 5.40304,7.6736 5.39144,7.68739 -0.0116,0.0138 -9.74898,-1.89652 -21.63862,-4.24512 -11.88964,-2.3486 -21.68791,-4.27018 -21.77394,-4.27018 -0.086,0 -0.1811,0.0886 -0.21129,0.19679 -0.0302,0.10824 -0.0863,0.30646 -0.12465,0.4405 -0.0622,0.21723 9.6e-4,0.26406 0.58146,0.43121 1.69684,0.48861 21.51433,6.44658 27.30267,8.20834 12.40907,3.77686 18.14541,5.59607 21.59105,6.84731 0.64128,0.23288 9.65553,3.07123 19.595,6.16996 l 1.82737,0.5697 v 2.39986 2.39986 h 11.73934 c 12.8449,0 11.87586,0.0509 11.87586,-0.62333 0,-0.33111 0.91827,-0.0654 -9.53146,-2.75749 l -8.46316,-2.18027 -2.07484,-2.98269 -2.07484,-2.98269 2.70237,-0.0562 2.70236,-0.0562 -7.80095,-4.9712 -7.80094,-4.9712 -2.96261,-4.98092 c -1.62942,-2.73951 -3.03422,-5.06417 -3.12175,-5.16591 -0.0875,-0.10174 -2.68319,-1.67047 -5.76812,-3.48606 -3.08493,-1.81559 -5.57414,-3.33511 -5.53159,-3.37671 0.0426,-0.0416 1.88646,-0.9484 4.09758,-2.01509 2.21111,-1.06669 4.02021,-1.97409 4.02021,-2.01644 0,-0.0423 -0.70276,-1.54736 -1.56168,-3.34447 l -1.56168,-3.26747 1.3949,-1.72501 c 0.7672,-0.94875 1.42189,-1.71425 1.45488,-1.70111 0.033,0.0131 3.48739,4.61811 7.67646,10.23326 4.18906,5.61515 9.46866,12.66365 11.73243,15.66335 l 4.11596,5.45399 7.46332,7.30653 c 4.10483,4.01859 8.07648,7.90583 8.82588,8.63831 l 1.36254,1.33178 3.58541,1.06608 c 4.01373,1.19343 11.90496,3.52521 12.87889,3.80558 0.62889,0.18104 0.65532,0.20659 2.94735,2.84896 l 2.31279,2.66629 2.58684,1.6868 c 1.42277,0.92774 2.5887,1.73829 2.59097,1.80123 0.002,0.0629 -0.36811,1.37864 -0.82307,2.92378 l -0.82718,2.80936 -15.85662,0.0285 -15.85662,0.0285 z m -52.92893,-42.58121 0.24805,-0.34834 -0.43718,-0.42784 c -0.73072,-0.7151 -14.02779,-12.61099 -14.26894,-12.76534 -0.21239,-0.13594 -32.95485,-9.72534 -33.20662,-9.72534 -0.1312,0 -0.41839,0.76698 -0.32294,0.86243 0.0589,0.0589 5.33319,2.58154 32.5737,15.57971 7.391,3.52672 13.76711,6.58091 14.16913,6.78711 0.40202,0.20619 0.79075,0.37738 0.86385,0.38042 0.0731,0.003 0.24453,-0.15122 0.38095,-0.34281 z"
   id="path20" /><path
   style="fill:#c4c4c1;fill-opacity:0;stroke:none;stroke-width:0.123811;stroke-dasharray:none;stroke-opacity:1"
   d="m 318.35549,303.73655 v -20.24161 h 71.52807 71.52806 l -0.0785,-0.89962 -0.0785,-0.89963 3.64115,0.002 3.64114,0.002 0.33736,0.47553 0.33736,0.47552 0.033,-0.87768 c 0.0284,-0.75625 0.002,-0.90405 -0.18726,-1.06831 -0.12112,-0.10484 -2.50585,-3.30277 -5.29942,-7.1065 -2.79356,-3.80374 -5.1383,-6.9747 -5.2105,-7.04659 -0.0722,-0.0719 -0.62997,-0.2143 -1.23945,-0.31646 -0.82634,-0.13852 -2.65654,-0.72336 -7.19702,-2.29978 -3.34887,-1.16271 -7.93131,-2.74084 -10.18318,-3.50695 l -4.09431,-1.39294 -4.73328,-5.00293 c -2.6033,-2.75162 -6.28164,-6.62962 -8.17408,-8.61777 l -3.4408,-3.61484 -3.97567,-5.66381 c -3.54503,-5.05033 -12.7838,-18.11313 -18.72879,-26.48085 l -2.16651,-3.04941 -5.3774,1.95981 c -2.95757,1.07789 -7.28094,2.66233 -9.60749,3.52099 l -4.23009,1.56118 -5.68855,0.23126 c -3.1287,0.12719 -5.96114,0.23125 -6.29432,0.23125 h -0.60577 l -3.30735,-3.84854 c -1.81905,-2.11669 -4.95199,-5.74826 -6.96209,-8.07015 -4.93523,-5.70073 -4.50295,-5.1768 -11.9701,-14.50785 -3.63787,-4.54593 -6.69139,-8.35388 -6.78561,-8.46211 -0.16313,-0.1874 3.67066,-0.1968 80.30633,-0.1968 h 80.47764 l 0.0283,72.4762 0.0283,72.4762 h -88.13533 -88.13532 z"
   id="path21" /><path
   style="fill:#c4c4c1;fill-opacity:0;stroke:none;stroke-width:0.123811;stroke-dasharray:none;stroke-opacity:1"
   d="m 390.23105,281.24678 -27.25209,-0.0571 5.31382,-2.98002 c 2.9226,-1.639 5.31757,-3.03061 5.32215,-3.09246 0.005,-0.0618 -2.96369,-2.72237 -6.59617,-5.91227 l -6.60452,-5.79982 -11.72386,-2.36386 -11.72386,-2.36385 0.0268,-0.42829 c 0.0147,-0.23556 0.0465,-0.44808 0.0707,-0.47225 0.0242,-0.0242 2.1122,0.13745 4.64005,0.35919 10.61241,0.93087 14.93761,1.30937 18.75142,1.64092 l 4.03453,0.35074 11.72613,6.84557 11.72612,6.84557 3.20141,0.61969 3.20141,0.61968 1.98437,-0.95497 1.98437,-0.95497 10.26122,1.61764 10.26122,1.61765 4.41926,2.2102 c 3.96946,1.98524 4.41565,2.23554 4.38383,2.45928 l -0.0354,0.24908 -5.0604,9.1e-4 c -2.78322,5e-4 -17.32384,-0.0248 -32.31248,-0.0562 z"
   id="path22" /><path
   style="fill:#c4c4c1;fill-opacity:0;stroke:none;stroke-width:0.123811;stroke-dasharray:none;stroke-opacity:1"
   d="m 325.60873,250.36944 c -7.36007,-1.69107 -14.49524,-3.30257 -15.85593,-3.5811 -1.36068,-0.27853 -5.08008,-1.03755 -8.26532,-1.68671 -14.47005,-2.94902 -16.83981,-3.43428 -17.26159,-3.53463 l -0.44981,-0.10703 0.49414,-0.0113 c 0.27177,-0.006 5.28157,0.29403 11.13288,0.6672 5.85131,0.37317 10.73792,0.66414 10.85913,0.6466 0.15646,-0.0226 -1.03406,-1.07341 -4.10455,-3.62275 -2.37871,-1.97497 -4.43149,-3.68482 -4.56173,-3.79966 -0.20045,-0.17675 -2.15981,-0.45157 -12.76346,-1.7902 l -12.52666,-1.58139 -6.18493,-2.8422 -6.18494,-2.8422 -0.0296,-3.88104 -0.0296,-3.88104 0.25446,-0.0647 c 0.2571,-0.0653 16.8535,-6.89987 16.89527,-6.95761 0.0124,-0.0171 1.41417,-2.33364 3.11503,-5.14779 1.70087,-2.81414 3.79245,-6.26157 4.64795,-7.66095 l 1.55547,-2.54432 6.91744,-3.07835 6.91745,-3.07834 6.86683,-5.48001 6.86683,-5.48 5.99201,-0.002 5.99202,-0.002 -0.0589,0.53416 c -0.0324,0.29378 -0.18973,3.34267 -0.34959,6.77531 -0.15987,3.43264 -0.31318,6.35502 -0.34068,6.49418 l -0.05,0.25302 h -4.45179 c -3.51628,0 -4.44005,0.0295 -4.39591,0.14057 0.0307,0.0773 0.79396,1.3015 1.69605,2.72041 0.90209,1.41891 1.62386,2.59614 1.60394,2.61606 -0.0199,0.0199 -2.2024,-0.92663 -4.84994,-2.10343 -2.64754,-1.17681 -4.82431,-2.12632 -4.83727,-2.11002 -0.0129,0.0163 0.33025,6.48164 0.76268,14.36743 l 0.78624,14.33781 2.41089,6.46684 2.41089,6.46684 5.32732,5.73435 5.32733,5.73435 6.0822,2.93632 c 3.34521,1.61497 6.11451,2.96863 6.15401,3.00812 0.10551,0.10551 0.87218,0.27731 -13.51631,-3.02864 z"
   id="path23" /><path
   style="fill:#c4c4c1;fill-opacity:0;stroke:none;stroke-width:0.123811;stroke-dasharray:none;stroke-opacity:1"
   d="m 350.52925,227.49267 c -13.07448,-6.24351 -23.79493,-11.37498 -23.82321,-11.40326 -0.0799,-0.0799 0.20126,-0.85366 0.31023,-0.85366 0.0533,0 7.54159,2.17264 16.64066,4.82808 15.45087,4.50914 16.57127,4.85272 16.95991,5.20097 0.22888,0.20509 3.54175,3.17481 7.36194,6.59938 l 6.94581,6.22649 -0.22167,0.35011 c -0.12192,0.19256 -0.26222,0.36217 -0.31178,0.37692 -0.0496,0.0147 -10.78741,-5.08152 -23.86189,-11.32503 z"
   id="path24" /><path
   style="fill:#c4c4c1;fill-opacity:0;stroke:none;stroke-width:0.123811;stroke-dasharray:none;stroke-opacity:1"
   d="m 435.30699,261.09619 c -0.66508,-0.20417 -0.84241,-0.33269 -1.96793,-1.42627 -0.68035,-0.66103 -4.59495,-4.48978 -8.69912,-8.50833 -6.08852,-5.96151 -7.6532,-7.55486 -8.50011,-8.6559 -1.42045,-1.84668 -12.81178,-17.053 -18.50869,-24.7073 -2.56456,-3.44572 -4.69737,-6.26689 -4.73957,-6.26927 -0.11639,-0.007 -3.91537,4.69362 -3.91537,4.84419 0,0.0721 0.65978,1.52215 1.46618,3.22223 0.80639,1.70008 1.45159,3.10493 1.43378,3.12189 -0.0178,0.017 -1.90475,0.93769 -4.19317,2.04607 -2.28843,1.10837 -4.30237,2.0901 -4.47543,2.18162 -0.31453,0.16635 -0.3122,0.16786 6.03584,3.9055 l 6.35049,3.73909 7.48662,12.55137 c 4.11763,6.90325 7.47326,12.56472 7.45694,12.58104 -0.0673,0.0673 -19.83582,-6.20698 -23.92277,-7.59273 -4.04737,-1.37232 -15.7162,-4.97232 -30.68453,-9.46661 -2.74392,-0.82387 -4.93782,-1.51499 -4.87533,-1.53582 0.0625,-0.0208 3.97745,0.72628 8.69991,1.66024 4.72245,0.93395 12.55086,2.48245 17.39647,3.44109 4.8456,0.95864 8.84692,1.72773 8.89181,1.70907 0.0449,-0.0187 -2.65609,-3.91052 -6.00217,-8.6486 -6.02584,-8.53265 -6.12996,-8.67135 -10.93143,-14.56272 -4.53651,-5.56626 -4.96184,-6.05266 -6.62698,-7.57859 -6.23906,-5.71744 -14.5968,-13.67081 -18.09608,-17.22055 -2.58666,-2.62396 -3.00308,-3.11331 -9.83967,-11.56296 -3.92628,-4.85267 -7.23164,-8.93985 -7.34524,-9.08263 l -0.20655,-0.25959 2.72768,0.0301 2.72767,0.0301 6.39319,7.98419 c 7.79774,9.73826 8.57953,10.692 11.84509,14.45026 2.15355,2.47846 11.63398,13.48809 11.69213,13.57808 0.01,0.0151 2.99946,-0.0946 6.64379,-0.24374 l 6.62604,-0.27119 3.54228,-1.31402 c 5.88357,-2.18253 14.88809,-5.45187 15.0103,-5.4499 0.10875,0.002 13.23697,18.47296 20.9282,29.44564 l 3.57574,5.10133 3.54884,3.73036 c 1.95186,2.05169 5.67111,5.98039 8.26499,8.73043 3.75321,3.97915 4.80367,5.03069 5.14475,5.15002 0.42527,0.14878 0.42858,0.15464 0.42858,0.75906 0,0.33501 -0.0127,0.60439 -0.0281,0.5986 -0.0155,-0.006 -0.35704,-0.1115 -0.75906,-0.23492 z"
   id="path26" /><path
   style="fill:#000000;fill-opacity:0;stroke:none;stroke-width:0.175095;stroke-dasharray:none;stroke-opacity:1"
   d="m 330.43098,277.78285 -7.59383,-1.44223 v -12.84725 c 0,-10.20994 0.0408,-12.83257 0.19879,-12.7757 0.43694,0.15727 19.76013,4.53042 20.01811,4.53042 0.27602,0 0.54861,-0.51893 0.3994,-0.76034 -0.0432,-0.0699 -3.63772,-1.84176 -7.98786,-3.9375 l -7.90933,-3.81043 -2.35955,-2.51602 -2.35956,-2.51603 v -23.84371 -23.8437 h 1.56979 1.56979 l 0.092,-0.91444 c 0.0506,-0.50295 0.21756,-3.58024 0.37099,-6.83843 0.15343,-3.25819 0.31807,-5.91981 0.36586,-5.91473 0.0478,0.005 3.23575,3.92127 7.08435,8.70263 6.41011,7.96368 7.28445,8.98123 10.41667,12.12284 3.88753,3.89919 7.86908,7.70254 14.63104,13.97621 l 4.69148,4.35269 4.79339,5.87853 c 3.9144,4.80055 5.76074,7.24869 10.06857,13.35037 2.90134,4.10952 5.31068,7.56438 5.35407,7.67747 0.056,0.14593 -0.90469,0.009 -3.30966,-0.47339 -13.16851,-2.63871 -40.06112,-7.90352 -40.10562,-7.85155 -0.0299,0.0349 -0.0964,0.24239 -0.14777,0.46106 l -0.0934,0.39758 8.14197,2.43028 c 21.34638,6.37163 31.93148,9.62995 40.42568,12.44388 3.41126,1.13007 9.81632,3.18462 14.23346,4.56567 l 8.03117,2.511 0.0439,2.42312 0.0439,2.42313 h 11.74707 11.74706 l 0.1045,-0.41635 c 0.0575,-0.229 0.08,-0.44088 0.05,-0.47087 -0.03,-0.03 -3.84429,-1.02883 -8.47625,-2.21967 -4.63195,-1.19083 -8.67221,-2.23033 -8.97835,-2.31 -0.49232,-0.12812 -0.79083,-0.48314 -2.58429,-3.07352 -1.11522,-1.61077 -2.02767,-2.96977 -2.02767,-3.02 0,-0.0502 1.18126,-0.11094 2.62503,-0.13492 l 2.62502,-0.0436 -7.75384,-4.94079 -7.75384,-4.94079 -3.10115,-5.15781 -3.10114,-5.15781 -5.56616,-3.2752 c -3.06139,-1.80136 -5.54629,-3.34 -5.52201,-3.41921 0.0355,-0.11592 7.30173,-3.73237 7.89935,-3.93158 0.0909,-0.0303 -0.53388,-1.51633 -1.3883,-3.30232 -0.85442,-1.78599 -1.55172,-3.32057 -1.54957,-3.41018 0.004,-0.17919 2.50614,-3.30741 2.70529,-3.3826 0.0682,-0.0257 1.89973,2.3359 4.07015,5.24809 2.17042,2.91219 7.43757,9.95146 11.70477,15.64284 l 7.75856,10.34794 8.84443,8.65507 8.84443,8.65507 4.39787,1.30922 c 2.41884,0.72007 6.27215,1.8588 8.56292,2.53051 l 4.16503,1.22129 2.24895,2.60698 c 2.2451,2.60253 2.25349,2.61002 4.91551,4.38886 l 2.66657,1.78189 -0.27411,0.9542 c -0.15076,0.52481 -0.39547,1.36569 -0.5438,1.86864 l -0.26971,0.91444 h -17.64306 -17.64306 l -2.86309,-1.43323 -2.86309,-1.43322 -10.04276,-1.58841 c -5.52352,-0.87362 -10.19945,-1.5884 -10.39096,-1.5884 -0.19152,0 -1.15021,0.39361 -2.13043,0.87468 -0.98022,0.48108 -1.93162,0.87468 -2.11423,0.87468 -0.18261,0 -1.66034,-0.25631 -3.28385,-0.56958 l -2.95184,-0.56958 -11.75064,-6.85345 -11.75064,-6.85346 -13.22431,-1.15982 c -7.27338,-0.6379 -13.45691,-1.16204 -13.74118,-1.16475 -0.46344,-0.004 -0.51686,0.0419 -0.51686,0.44858 v 0.45352 l 8.8661,1.77497 c 4.87635,0.97623 10.1562,2.04382 11.733,2.37242 l 2.8669,0.59746 6.59557,5.78638 c 3.62756,3.18251 6.61073,5.82902 6.62927,5.88112 0.0185,0.0521 -1.60616,1.0072 -3.61045,2.12242 l -3.64416,2.02767 -14.20125,-0.0185 -14.20126,-0.0185 z m 44.25347,-39.31744 c 0.18288,-0.34172 0.18094,-0.43472 -0.0129,-0.61782 -0.1255,-0.11855 -3.42879,-3.08278 -7.34066,-6.58718 -7.05034,-6.31597 -7.1219,-6.37441 -8.1902,-6.68872 -0.59275,-0.17439 -7.98373,-2.32772 -16.42441,-4.78516 -8.44069,-2.45745 -15.43844,-4.49973 -15.55058,-4.53839 -0.19385,-0.0669 -0.59909,0.68447 -0.44974,0.83382 0.0911,0.0911 47.53776,22.76607 47.66078,22.77729 0.0508,0.005 0.18929,-0.17259 0.3077,-0.39384 z"
   id="path27" /><path
   style="fill:#000000;fill-opacity:0;stroke:none;stroke-width:0.175095;stroke-dasharray:none;stroke-opacity:1"
   d="m 330.43098,277.78285 -7.59383,-1.44223 v -12.84725 c 0,-10.20994 0.0408,-12.83257 0.19879,-12.7757 0.43694,0.15727 19.76013,4.53042 20.01811,4.53042 0.27602,0 0.54861,-0.51893 0.3994,-0.76034 -0.0432,-0.0699 -3.63772,-1.84176 -7.98786,-3.9375 l -7.90933,-3.81043 -2.35955,-2.51602 -2.35956,-2.51603 v -23.84371 -23.8437 h 1.56979 1.56979 l 0.092,-0.91444 c 0.0506,-0.50295 0.21756,-3.58024 0.37099,-6.83843 0.15343,-3.25819 0.31807,-5.91981 0.36586,-5.91473 0.0478,0.005 3.23575,3.92127 7.08435,8.70263 6.41011,7.96368 7.28445,8.98123 10.41667,12.12284 3.88753,3.89919 7.86908,7.70254 14.63104,13.97621 l 4.69148,4.35269 4.79339,5.87853 c 3.9144,4.80055 5.76074,7.24869 10.06857,13.35037 2.90134,4.10952 5.31068,7.56438 5.35407,7.67747 0.056,0.14593 -0.90469,0.009 -3.30966,-0.47339 -13.16851,-2.63871 -40.06112,-7.90352 -40.10562,-7.85155 -0.0299,0.0349 -0.0964,0.24239 -0.14777,0.46106 l -0.0934,0.39758 8.14197,2.43028 c 21.34638,6.37163 31.93148,9.62995 40.42568,12.44388 3.41126,1.13007 9.81632,3.18462 14.23346,4.56567 l 8.03117,2.511 0.0439,2.42312 0.0439,2.42313 h 11.74707 11.74706 l 0.1045,-0.41635 c 0.0575,-0.229 0.08,-0.44088 0.05,-0.47087 -0.03,-0.03 -3.84429,-1.02883 -8.47625,-2.21967 -4.63195,-1.19083 -8.67221,-2.23033 -8.97835,-2.31 -0.49232,-0.12812 -0.79083,-0.48314 -2.58429,-3.07352 -1.11522,-1.61077 -2.02767,-2.96977 -2.02767,-3.02 0,-0.0502 1.18126,-0.11094 2.62503,-0.13492 l 2.62502,-0.0436 -7.75384,-4.94079 -7.75384,-4.94079 -3.10115,-5.15781 -3.10114,-5.15781 -5.56616,-3.2752 c -3.06139,-1.80136 -5.54629,-3.34 -5.52201,-3.41921 0.0355,-0.11592 7.30173,-3.73237 7.89935,-3.93158 0.0909,-0.0303 -0.53388,-1.51633 -1.3883,-3.30232 -0.85442,-1.78599 -1.55172,-3.32057 -1.54957,-3.41018 0.004,-0.17919 2.50614,-3.30741 2.70529,-3.3826 0.0682,-0.0257 1.89973,2.3359 4.07015,5.24809 2.17042,2.91219 7.43757,9.95146 11.70477,15.64284 l 7.75856,10.34794 8.84443,8.65507 8.84443,8.65507 4.39787,1.30922 c 2.41884,0.72007 6.27215,1.8588 8.56292,2.53051 l 4.16503,1.22129 2.24895,2.60698 c 2.2451,2.60253 2.25349,2.61002 4.91551,4.38886 l 2.66657,1.78189 -0.27411,0.9542 c -0.15076,0.52481 -0.39547,1.36569 -0.5438,1.86864 l -0.26971,0.91444 h -17.64306 -17.64306 l -2.86309,-1.43323 -2.86309,-1.43322 -10.04276,-1.58841 c -5.52352,-0.87362 -10.19945,-1.5884 -10.39096,-1.5884 -0.19152,0 -1.15021,0.39361 -2.13043,0.87468 -0.98022,0.48108 -1.93162,0.87468 -2.11423,0.87468 -0.18261,0 -1.66034,-0.25631 -3.28385,-0.56958 l -2.95184,-0.56958 -11.75064,-6.85345 -11.75064,-6.85346 -13.22431,-1.15982 c -7.27338,-0.6379 -13.45691,-1.16204 -13.74118,-1.16475 -0.46344,-0.004 -0.51686,0.0419 -0.51686,0.44858 v 0.45352 l 8.8661,1.77497 c 4.87635,0.97623 10.1562,2.04382 11.733,2.37242 l 2.8669,0.59746 6.59557,5.78638 c 3.62756,3.18251 6.61073,5.82902 6.62927,5.88112 0.0185,0.0521 -1.60616,1.0072 -3.61045,2.12242 l -3.64416,2.02767 -14.20125,-0.0185 -14.20126,-0.0185 z m 44.25347,-39.31744 c 0.18288,-0.34172 0.18094,-0.43472 -0.0129,-0.61782 -0.1255,-0.11855 -3.42879,-3.08278 -7.34066,-6.58718 -7.05034,-6.31597 -7.1219,-6.37441 -8.1902,-6.68872 -0.59275,-0.17439 -7.98373,-2.32772 -16.42441,-4.78516 -8.44069,-2.45745 -15.43844,-4.49973 -15.55058,-4.53839 -0.19385,-0.0669 -0.59909,0.68447 -0.44974,0.83382 0.0911,0.0911 47.53776,22.76607 47.66078,22.77729 0.0508,0.005 0.18929,-0.17259 0.3077,-0.39384 z"
   id="path28" /><path
   style="fill:#c4c4c1;fill-opacity:1;stroke:none;stroke-width:0.495245;stroke-dasharray:none;stroke-opacity:1"
   d="m 220.49404,278.89061 -22.63015,-0.23116 9.73188,-3.59851 9.73187,-3.59851 4.7587,-4.12681 4.7587,-4.1268 2.06709,0.82164 c 1.1369,0.4519 4.68441,1.95355 7.88335,3.337 l 5.81627,2.51536 5.52237,-1.79662 c 5.33396,-1.73533 5.73021,-1.79662 11.61401,-1.79662 8.12961,0 8.14861,-0.65315 0.0767,-2.63533 l -6.01498,-1.47706 -4.21828,1.15624 c -2.32005,0.63594 -4.37387,1.15639 -4.56402,1.15657 -0.19017,1.8e-4 0.41708,-1.41315 1.34944,-3.14074 l 1.69518,-3.14105 2.02416,-0.0158 c 1.11329,-0.009 9.91839,-0.41457 19.56689,-0.90201 9.6485,-0.48743 18.40299,-0.88861 19.45443,-0.8915 1.05144,-0.003 1.91171,-0.18468 1.91171,-0.40399 0,-0.66806 -3.15141,-0.89185 -20.46652,-1.45334 l -16.64309,-0.53971 -1.63275,-1.69001 c -0.89801,-0.92951 -2.87157,-3.54207 -4.38568,-5.80569 -2.30647,-3.44821 -2.75294,-4.42956 -2.75294,-6.05109 v -1.93541 l 2.81134,-0.78362 c 1.54623,-0.43098 2.96821,-0.87757 3.15995,-0.9924 0.19174,-0.11484 -0.21954,-0.95278 -0.91395,-1.86209 l -1.26258,-1.65329 0.35655,-5.14023 c 0.1961,-2.82713 0.4244,-5.20809 0.50733,-5.29101 0.0829,-0.0829 5.09054,2.13722 11.12802,4.93366 l 10.97725,5.08444 12.14496,1.50579 c 13.28014,1.64653 13.09939,1.59043 17.31782,5.3747 l 2.02416,1.81584 -2.02416,0.01 c -1.11329,0.005 -6.2749,-0.28659 -11.47025,-0.64872 -10.69885,-0.74573 -13.7197,-0.81943 -13.71841,-0.33469 5e-4,0.18554 7.43929,1.83926 16.53065,3.67491 9.09136,1.83566 23.90808,5.02371 32.92604,7.08457 9.01797,2.06085 16.65917,3.747 16.98046,3.747 1.64208,0 -0.13184,-1.10128 -7.40003,-4.59408 l -7.98419,-3.83687 -5.11513,-5.5966 -5.11514,-5.5966 -2.35215,-6.26876 -2.35215,-6.26875 -0.7432,-13.45553 c -0.40876,-7.40054 -0.69197,-13.49792 -0.62936,-13.54973 0.0626,-0.0518 2.49224,0.97737 5.39916,2.28707 2.90692,1.3097 5.2853,2.26734 5.2853,2.12809 0,-0.13925 -0.80966,-1.53519 -1.79925,-3.10209 -0.98959,-1.56691 -1.79925,-2.95509 -1.79925,-3.08485 0,-0.12976 1.79465,-0.23593 3.98812,-0.23593 h 3.98812 l 0.39756,-6.82815 0.39756,-6.82814 7.25865,8.96476 c 6.97551,8.61506 15.10884,17.0686 25.50342,26.50748 2.17957,1.97918 6.25246,6.43233 9.05087,9.8959 5.4954,6.80162 15.30233,20.40258 14.95887,20.74605 -0.18502,0.18501 -40.97908,-7.6577 -42.52782,-8.17603 -0.3314,-0.11092 -0.51729,0.0469 -0.41536,0.35271 0.10147,0.30441 7.75959,2.83438 17.01804,5.62215 14.34411,4.31909 32.50804,10.02161 49.33258,15.48784 l 4.16078,1.35182 v 2.43688 2.43688 h 11.73263 c 9.18341,0 11.69304,-0.12217 11.55042,-0.56226 -0.10047,-0.31004 -4.09161,-1.5712 -8.89691,-2.81134 l -8.7147,-2.24907 -2.08333,-2.92378 -2.08334,-2.92379 2.50876,-0.22491 2.50876,-0.2249 -7.64683,-4.88399 -7.64683,-4.884 -3.04069,-5.09784 -3.0407,-5.09784 -5.69121,-3.35895 -5.6912,-3.35894 4.10541,-2.06186 4.10541,-2.06186 -1.5407,-3.2149 c -1.62505,-3.39093 -1.61732,-3.57902 0.23631,-5.75142 0.79455,-0.93119 1.01386,-0.99589 1.52465,-0.44981 0.32813,0.3508 5.76266,7.51997 12.07672,15.93148 11.78382,15.69825 12.54052,16.55282 25.96897,29.32751 l 2.92379,2.78144 8.09664,2.33823 8.09664,2.33822 3.1487,3.24152 c 1.73178,1.78283 4.11653,3.80169 5.29943,4.48635 1.50623,0.8718 2.0855,1.46543 1.93307,1.98099 -0.11972,0.40488 -0.35044,1.2928 -0.5127,1.97314 l -0.29503,1.23699 H 442.33 424.59831 L 421.7998,277.905 c -2.38831,-1.21993 -4.31496,-1.67275 -13.14422,-3.08928 l -10.34571,-1.65984 -2.02416,0.99901 c -2.00169,0.98791 -2.06161,0.99057 -5.39776,0.23936 -2.87356,-0.64705 -5.08187,-1.75676 -14.89873,-7.48688 l -11.52512,-6.72724 -13.63476,-1.21055 c -7.49912,-0.6658 -13.73245,-1.11286 -13.85186,-0.99346 -0.11939,0.1194 -0.11278,0.32141 0.0147,0.44889 0.12749,0.12749 5.45626,1.29139 11.84171,2.58643 l 11.60991,2.35463 6.33825,5.55607 c 3.48604,3.05584 6.50213,5.70943 6.70243,5.89687 0.20029,0.18744 -1.29371,1.2801 -3.32,2.42812 l -3.68417,2.08732 h -13.95156 -13.95156 l -31.09541,-5.84758 c -17.10248,-3.21616 -31.44423,-5.84757 -31.87056,-5.84757 -0.42634,0 -0.77264,0.15181 -0.76958,0.33736 0.003,0.18555 6.52555,2.76635 14.4944,5.73512 l 14.4888,5.39776 -13.61727,0.11908 -13.61728,0.11909 -13.33018,-2.48061 c -7.33159,-1.36433 -13.73805,-2.4806 -14.23657,-2.4806 -1.59672,0 -0.20921,0.81937 4.92045,2.90571 l 4.92369,2.00257 -7.87173,-0.0864 c -4.32946,-0.0475 -18.0553,-0.19039 -30.50188,-0.31752 z m 154.16564,-40.60192 c -0.0301,-0.48483 -9.61499,-9.32472 -13.46359,-12.41714 -0.91658,-0.73648 -6.22003,-2.48441 -17.40111,-5.73512 -8.8455,-2.57168 -16.23974,-4.67578 -16.43165,-4.67578 -1.48487,0 1.41048,1.58031 13.24617,7.2299 7.4773,3.56918 18.05354,8.64842 23.50275,11.2872 5.44921,2.63878 10.05947,4.81475 10.24501,4.83549 0.18555,0.0207 0.32164,-0.21531 0.30242,-0.52455 z"
   id="path44" /><path
   style="fill:#c4c4c1;fill-opacity:1;stroke:none;stroke-width:0.0154764;stroke-dasharray:none;stroke-opacity:1"
   d="m 393.3617,213.73738 c -0.10881,-0.13155 -0.28633,-0.28477 -0.39191,-0.33827 -0.0672,-0.0341 -0.0953,-0.0399 -0.19126,-0.0397 -0.0942,1.6e-4 -0.12439,0.006 -0.18625,0.0381 -0.0406,0.0208 -0.0738,0.0347 -0.0738,0.0309 0,-0.0189 0.33057,-0.4118 0.33895,-0.40283 0.005,0.006 0.14356,0.18975 0.30716,0.40896 0.29207,0.39137 0.37246,0.51492 0.19711,0.30293 z"
   id="path45" /><path
   style="fill:#c4c4c1;fill-opacity:1;stroke:none;stroke-width:0.0154764;stroke-dasharray:none;stroke-opacity:1"
   d="m 390.27392,216.98811 c -0.12509,-0.26413 -0.22947,-0.48685 -0.23194,-0.49494 -0.005,-0.0165 0.46571,-0.60213 0.47583,-0.59201 0.004,0.004 -0.0129,0.0612 -0.0365,0.12822 -0.1346,0.38134 -0.13955,0.78459 -0.0156,1.26421 0.0238,0.092 0.0415,0.16892 0.0394,0.17099 -0.002,0.002 -0.10614,-0.21235 -0.23123,-0.47647 z"
   id="path46" /><path
   style="fill:#c4c4c1;fill-opacity:1;stroke:none;stroke-width:0.0109435;stroke-dasharray:none;stroke-opacity:1"
   d="m 249.64356,223.849 c -0.001,-0.0465 0.0749,-1.19284 0.0795,-1.19746 0.002,-0.002 0.31562,0.13986 0.69695,0.31522 0.38134,0.17536 0.69135,0.32084 0.6889,0.32329 -0.002,0.002 -0.11095,-0.0405 -0.24111,-0.0953 -0.60924,-0.25691 -0.98105,-0.3993 -1.04266,-0.3993 -0.0193,0 -0.0257,0.009 -0.0382,0.0505 -0.026,0.0875 -0.0738,0.42783 -0.12908,0.91864 -0.007,0.0656 -0.0138,0.10362 -0.0143,0.0845 z"
   id="path47" /><path
   style="fill:#c4c4c1;fill-opacity:1;stroke:none;stroke-width:0.0077382;stroke-dasharray:none;stroke-opacity:1"
   d="m 244.83931,264.52019 c 3.4e-4,-0.009 0.25246,-0.4979 0.25259,-0.49022 6e-5,0.004 -0.0127,0.045 -0.0283,0.0914 -0.051,0.15148 -0.0648,0.21152 -0.0669,0.29127 l -0.002,0.0734 -0.0726,0.0195 c -0.0804,0.0217 -0.0832,0.0222 -0.0829,0.0146 z"
   id="path48" /><path
   style="fill:#c4c4c1;fill-opacity:1;stroke:none;stroke-width:0.0077382;stroke-dasharray:none;stroke-opacity:1"
   d="m 412.66676,254.27026 -0.0617,-0.0905 1.0527,0.001 c 0.57899,6.2e-4 1.04163,0.002 1.0281,0.004 -0.0135,10e-4 -0.44998,0.0404 -0.96991,0.0866 -0.51992,0.0462 -0.9548,0.0852 -0.96639,0.0868 -0.02,0.003 -0.0242,-0.002 -0.0828,-0.0877 z"
   id="path49" /><path
   style="fill:#c4c4c1;fill-opacity:1;stroke:none;stroke-width:0.0109435;stroke-dasharray:none;stroke-opacity:1"
   d="m 383.22499,246.4459 c -0.66207,-0.13191 -1.75406,-0.34782 -5.63076,-1.11332 -1.40289,-0.27701 -1.55314,-0.3073 -1.53878,-0.31018 0.008,-0.002 0.24204,0.0396 0.52054,0.0915 3.89857,0.72627 6.70692,1.21841 6.95267,1.21841 0.0391,0 0.0392,-1.2e-4 0.0392,-0.0395 0,-0.0495 -0.0309,-0.13206 -0.10423,-0.27854 -0.10213,-0.20395 -0.34093,-0.61082 -0.55891,-0.95231 -0.0464,-0.0728 -0.0826,-0.13416 -0.0803,-0.13645 0.004,-0.004 1.18077,1.65844 1.18077,1.66904 0,0.008 0.10115,0.027 -0.78026,-0.14861 z"
   id="path50" /><path
   style="fill:#c4c4c1;fill-opacity:1;stroke:none;stroke-width:0.0154764;stroke-dasharray:none;stroke-opacity:1"
   d="m 460.87677,275.81926 c -0.001,-0.0515 -0.098,-0.2438 -0.17682,-0.35068 -0.0371,-0.0502 -0.11174,-0.13722 -0.1659,-0.19328 -0.0542,-0.0561 -0.0946,-0.10191 -0.0899,-0.10191 0.008,0 0.49848,0.31745 0.52056,0.33721 0.006,0.006 -0.0109,0.0854 -0.038,0.17733 -0.0271,0.092 -0.0496,0.15106 -0.05,0.13133 z"
   id="path51" /><path
   style="fill:#c4c4c1;fill-opacity:1;stroke:none;stroke-width:0.0309528;stroke-dasharray:none;stroke-opacity:1"
   d="m 342.42051,269.50666 c 0,-9.34654 0.002,-9.82677 0.0492,-9.81241 0.0608,0.0187 1.68699,0.36167 3.226,0.68048 1.50104,0.31093 3.0025,0.61672 9.03844,1.84076 2.74457,0.55657 5.15216,1.04539 5.35021,1.08626 l 0.36009,0.0743 2.887,2.53057 c 9.02177,7.90793 10.13758,8.89329 10.14943,8.96286 0.0235,0.13808 -0.46329,0.56028 -1.28834,1.11736 -0.85954,0.58037 -1.36102,0.87544 -4.72577,2.78067 l -1.00075,0.56666 h -12.02276 -12.02275 z"
   id="path52" /><path
   style="fill:#c4c4c1;fill-opacity:1;stroke:none;stroke-width:0.0309528;stroke-dasharray:none;stroke-opacity:1"
   d="m 372.4479,275.83718 c 0.006,-0.006 0.13882,-0.10524 0.29416,-0.22052 0.30713,-0.22791 0.64194,-0.52847 0.713,-0.64006 l 0.0448,-0.0703 0.12178,0.11521 0.12178,0.11521 -0.63558,0.35568 c -0.55104,0.30838 -0.70978,0.39131 -0.65989,0.34476 z"
   id="path53" /><path
   style="fill:#c4c4c1;fill-opacity:1;stroke:none;stroke-width:0.0154764;stroke-dasharray:none;stroke-opacity:1"
   d="m 245.78977,243.16652 c -0.11366,-0.18547 -0.32706,-0.53772 -0.47423,-0.78278 l -0.26758,-0.44557 0.0467,-1.63146 0.0467,-1.63146 0.008,1.15967 c 0.007,0.96667 0.0118,1.18892 0.0313,1.33539 0.0919,0.69249 0.27707,1.25057 0.67141,2.02304 0.0845,0.16561 0.15162,0.30319 0.14907,0.30574 -0.003,0.003 -0.0976,-0.14711 -0.21128,-0.33257 z"
   id="path54" /><path
   style="fill:#c4c4c1;fill-opacity:1;stroke:none;stroke-width:0.0154764;stroke-dasharray:none;stroke-opacity:1"
   d="m 249.41702,233.95002 -0.40309,-0.45876 v -0.0834 -0.0834 l 0.0516,0.0678 c 0.0283,0.0373 0.21242,0.27859 0.40904,0.53617 0.19662,0.25758 0.35481,0.47101 0.35154,0.47428 -0.003,0.003 -0.18734,-0.2005 -0.40904,-0.45281 z"
   id="path55" /></svg>
