<?xml version="1.0" standalone="no"?>
<!DOCTYPE svg PUBLIC "-//W3C//DTD SVG 20010904//EN"
 "http://www.w3.org/TR/2001/REC-SVG-20010904/DTD/svg10.dtd">
<svg version="1.0" xmlns="http://www.w3.org/2000/svg"
 width="1280.000000pt" height="894.000000pt" viewBox="0 0 1280.000000 894.000000"
 preserveAspectRatio="xMidYMid meet">
<metadata>
Created by potrace 1.15, written by Peter Selinger 2001-2017
</metadata>
<g transform="translate(0.000000,894.000000) scale(0.100000,-0.100000)"
fill="#1A1A1A" stroke="none">
<path d="M8312 8919 c-330 -49 -385 -89 -831 -609 -85 -99 -84 -98 -151 -266
-139 -348 -262 -513 -550 -734 -286 -220 -337 -262 -412 -334 -95 -93 -172
-193 -273 -356 -42 -69 -84 -135 -91 -147 -8 -12 -28 -38 -45 -58 -27 -31 -32
-45 -34 -93 -1 -45 -22 -112 -98 -312 -52 -140 -122 -337 -154 -437 -32 -101
-61 -183 -65 -183 -32 0 -308 279 -442 447 -86 106 -130 170 -378 548 -168
255 -204 288 -389 353 l-86 30 -52 -29 c-74 -43 -270 -236 -360 -356 -79 -105
-131 -188 -303 -478 -55 -93 -131 -217 -169 -275 l-68 -106 -184 -23 -184 -24
-68 -84 c-37 -46 -96 -134 -132 -196 -88 -154 -418 -816 -793 -1592 -318 -659
-890 -1805 -983 -1970 -345 -614 -567 -967 -810 -1289 -129 -169 -207 -294
-207 -330 0 -45 86 5 285 165 366 294 558 454 590 492 50 57 295 424 387 577
86 142 336 595 888 1605 493 903 525 959 654 1138 49 69 73 94 80 87 7 -7 11
-62 11 -143 -1 -126 -2 -136 -34 -217 -83 -210 -236 -513 -547 -1083 -175
-319 -258 -461 -311 -528 -116 -150 -122 -160 -158 -270 -20 -60 -35 -112 -32
-115 7 -8 286 106 347 142 72 42 97 70 385 426 132 163 241 295 243 293 3 -2
-1 -110 -7 -241 -7 -130 -11 -237 -9 -239 2 -1 12 -5 24 -9 18 -5 26 3 54 56
51 96 109 189 141 226 50 56 71 125 133 428 43 204 57 255 85 290 11 15 30 59
42 98 11 39 40 136 64 216 24 80 51 183 60 230 112 581 301 1055 518 1296 66
74 135 123 282 203 127 69 131 71 203 71 63 0 84 -5 149 -35 119 -55 193 -115
423 -340 118 -117 230 -220 247 -230 21 -12 31 -25 28 -35 -2 -8 -16 -61 -30
-118 -41 -164 -125 -351 -330 -737 -59 -110 -186 -351 -282 -535 -97 -184
-196 -366 -221 -405 -147 -229 -382 -491 -592 -661 -248 -200 -651 -476 -1006
-688 -127 -76 -307 -192 -400 -258 -92 -66 -193 -134 -224 -151 -156 -86 -232
-179 -326 -400 l-34 -78 123 65 c67 35 361 175 652 311 732 341 924 442 1135
595 100 73 413 334 477 398 119 119 535 640 660 827 134 200 459 756 594 1015
285 549 406 834 663 1565 283 802 349 965 453 1125 60 92 137 163 200 184 57
19 143 22 143 4 0 -18 -76 -462 -101 -588 -36 -187 -70 -303 -116 -397 -24
-51 -126 -211 -225 -355 -381 -556 -436 -652 -527 -923 -87 -260 -133 -466
-166 -745 -28 -237 -15 -380 34 -380 74 0 89 32 175 371 35 140 78 292 95 338
70 192 239 454 611 946 311 412 443 630 555 915 61 154 155 444 310 955 146
482 196 614 242 643 21 13 22 12 43 -60 29 -99 156 -506 185 -593 l23 -70 179
-81 c185 -84 279 -130 300 -146 9 -7 -1 -26 -39 -71 -28 -34 -64 -89 -78 -122
-34 -75 -73 -203 -67 -219 7 -18 163 -75 239 -87 115 -20 375 0 963 71 138 16
255 30 261 30 17 0 0 76 -22 102 -47 55 -196 157 -344 236 l-94 51 -106 187
-105 186 -130 48 c-180 65 -264 102 -380 164 l-100 54 -23 328 c-12 180 -20
329 -18 331 11 12 99 -48 156 -106 87 -88 139 -163 271 -388 61 -103 114 -192
118 -196 5 -4 104 -21 222 -38 118 -16 224 -35 236 -42 12 -6 86 -66 165 -133
225 -190 502 -391 670 -487 67 -38 261 -122 573 -247 542 -217 626 -263 1045
-575 135 -101 275 -199 311 -219 142 -78 272 -102 370 -69 70 24 209 113 208
133 0 8 -59 56 -132 105 -72 50 -217 152 -322 229 -514 375 -654 469 -1120
751 -670 406 -899 570 -1111 795 -82 88 -150 179 -354 480 -225 331 -240 351
-400 511 -228 229 -554 494 -760 618 -66 39 -130 71 -142 70 -13 -1 -79 -9
-146 -20z"/>
</g>
</svg>
