<?xml version="1.0" encoding="utf-8"?>
<!-- Generator: Adobe Illustrator 27.5.0, SVG Export Plug-In . SVG Version: 6.00 Build 0)  -->
<svg version="1.1" xmlns="http://www.w3.org/2000/svg" xmlns:xlink="http://www.w3.org/1999/xlink" x="0px" y="0px"
	 viewBox="0 0 750 500" style="enable-background:new 0 0 750 500;" xml:space="preserve" stroke="#232325" >
<g>
		<polygon style="fill:#061E11;" points="622.037,383.021 618.108,384.941 611.461,383.665 588.001,369.979 560.631,367.586 
			584.311,372.359 598.265,384.611 587.512,390.637 618.108,390.575 651.174,390.637 642.345,386.225 		"/>
		<polygon style="fill:#061E11;" points="658.343,374.682 640.125,369.979 635.318,363.068 640.125,363.068 625.721,353.887 
			635.318,369.979 635.318,374.682 		"/>
		<path style="fill:#2332325;" d="M692.457,390.637l-10.576-14.372l-2.103-0.349l-9.51-3.306l-11.098-3.805l-8.159-8.652l-8.268-8.7
			c-3.93-5.592-7.837-11.199-11.802-16.768l-11.907-16.8l-0.931-1.314l-1.586,0.578l-8.879,3.237l-8.498,3.134l-12.846,0.504
			l-8.579-9.967c-3.106-3.616-6.319-7.144-9.232-10.915l-17.88-22.303l-1.652-2.062l-2.085,1.659l-11.752,9.353l-11.488,9.166
			l-13.217,5.891l-0.722,0.322l-0.402,0.655c-3.008,4.892-5.965,9.812-8.939,14.723l-16.732,6.904l-12.003-1.794l-1.642-0.245
			l-0.676,1.42l-6.26,13.145c-5.306,5.538-10.633,11.059-15.905,16.629l-15.724,16.558c-9.416,0.201-18.832,0.36-28.248,0.613
			l-0.313,0.008l-0.171,0.214l-6.65,8.306l-6.617,8.333H413.3l27.71-10.329l9.459-8.27l15.908,6.778l11.608-3.788h11.608
			l-12.018-2.99l-10.029,2.644l3.778-7.367c0,0,20.405-1.021,43.143-2.118c1.093-0.053-33.926-1.412-36.479-1.412
			c-2.554,0-9.774-12.332-9.774-12.332l0.111-3.867l6.236-1.815l-2.396-2.727l0.773-11.769l22.887,10.53l24.988,3.152l8.048,6.703
			l-28.928-1.84l35.381,7.215l31.744,7.25l-16.205-7.821l-10.534-11.326l-4.772-12.763l-1.531-27.959l10.55,4.69l-3.884-6.13h8.573
			l0.739-14.644l14.508,17.917c2.941,3.764,23.191,22.357,23.191,22.357l9.556,11.736l11.559,16.375l-44.834-8.856
			c0,0,48.833,14.521,49.316,15.206l22.025,6.911l-15.707-26.34l-12.086-7.12l8.687-4.21l-3.092-6.51l3.417-4.21l11.33,15.189
			c4.095,5.514,8.249,10.989,12.378,16.48l0.082,0.109l0.063,0.062l8.663,8.525l8.697,8.493l0.21,0.205l0.241,0.071l11.541,3.429
			l5.346,1.564l4.638,5.352l5.503,3.623l-1.745,5.945H692.457z"/>
		<polygon style="fill:#061E11;" points="534.309,390.637 570.059,390.637 498.559,377.195 		"/>
		<polygon style="fill:#061E11;" points="488.559,390.637 508.059,390.637 472.059,383.916 		"/>
		<polygon style="fill:#061E11;" points="550.476,325.028 598.309,347.862 583.642,334.707 		"/>
	</g>
</svg>